<svg width="24" height="24" viewBox="0 0 24 24" fill="none" xmlns="http://www.w3.org/2000/svg">
<path d="M12.0007 10.2997L18.6165 3.6839C19.0856 3.21474 19.8463 3.21474 20.3154 3.6839C20.7846 4.15306 20.7846 4.91373 20.3154 5.38289L13.6996 11.9987L20.3154 18.6145C20.7846 19.0837 20.7846 19.8443 20.3154 20.3135C19.8463 20.7827 19.0856 20.7827 18.6165 20.3135L12.0007 13.6977L5.38484 20.3135C4.91568 20.7827 4.15502 20.7827 3.68586 20.3135C3.21669 19.8443 3.21669 19.0837 3.68586 18.6145L10.3017 11.9987L3.68586 5.38289C3.21669 4.91373 3.21669 4.15306 3.68586 3.6839C4.15502 3.21474 4.91568 3.21474 5.38484 3.6839L12.0007 10.2997Z" fill="#3F4549"/>
</svg>
