<svg width="80" height="80" viewBox="0 0 80 80" fill="none" xmlns="http://www.w3.org/2000/svg">
<circle cx="40" cy="40" r="40" fill="#FAFAFA"/>
<g clip-path="url(#clip0_1171_58446)">
<path d="M55.4718 37.6955C55.334 33.7687 53.7438 30.0967 50.9515 27.3044C48.0248 24.3772 44.1351 22.7656 39.9996 22.7656C31.6471 22.7656 24.8223 29.4138 24.5281 37.6955C23.2535 38.2619 22.3613 39.5377 22.3613 41.0204V45.1053C22.3613 47.1112 23.9931 48.7436 25.9996 48.7436C27.2978 48.7436 28.3536 47.6877 28.3536 46.3895V39.7357C28.3536 38.5168 27.4188 37.5228 26.2302 37.4047C26.669 30.1895 32.6753 24.4531 39.9996 24.4531C43.6851 24.4531 47.1507 25.8898 49.759 28.4981C52.1541 30.8932 53.5559 34.0151 53.7668 37.4052C52.5794 37.5245 51.6462 38.5179 51.6462 39.7357V46.3889C51.6462 47.618 52.5957 48.6181 53.7983 48.7222V50.4035C53.7983 52.2969 52.2576 53.837 50.3643 53.837H47.8212C47.6963 53.4804 47.5006 53.1508 47.2261 52.8774C46.7451 52.3942 46.1039 52.1281 45.421 52.1281H42.7998C42.4235 52.1281 42.0623 52.208 41.7316 52.3621C40.8293 52.7767 40.2466 53.6868 40.2466 54.6807C40.2466 55.3636 40.5126 56.0049 40.9947 56.4847C41.4768 56.9679 42.118 57.2339 42.7998 57.2339H45.421C46.5078 57.2339 47.4657 56.5314 47.8229 55.5245H50.3643C53.1886 55.5245 55.4858 53.2272 55.4858 50.4035V48.4218C56.7526 47.852 57.638 46.5808 57.638 45.1042V41.0193C57.638 39.5377 56.7458 38.2619 55.4718 37.6955ZM26.6656 39.7357V46.3889C26.6656 46.7563 26.3669 47.0555 25.999 47.0555C24.9235 47.0555 24.0483 46.1803 24.0483 45.1047V41.0199C24.0483 39.9438 24.9235 39.0691 25.999 39.0691C26.3669 39.0691 26.6656 39.3684 26.6656 39.7357ZM46.2676 54.8619C46.1838 55.259 45.8271 55.5476 45.4205 55.5476H42.7992C42.5686 55.5476 42.352 55.4576 42.1866 55.2922C42.0235 55.1296 41.9335 54.9125 41.9335 54.6819C41.9335 54.3449 42.131 54.0373 42.4403 53.8949C42.5506 53.8432 42.6715 53.8167 42.7992 53.8167H45.4205C45.6511 53.8167 45.8676 53.9062 46.0325 54.0716C46.1956 54.2341 46.2856 54.4513 46.2856 54.6819C46.2861 54.7438 46.2794 54.8056 46.2676 54.8619ZM55.9505 45.1047C55.9505 46.1803 55.0752 47.0555 53.9997 47.0555C53.6324 47.0555 53.3331 46.7568 53.3331 46.3889V39.7357C53.3331 39.3684 53.6318 39.0691 53.9997 39.0691C55.0752 39.0691 55.9505 39.9444 55.9505 41.0199V45.1047Z" fill="#7D63EC"/>
<path d="M45.4633 45.3964C47.4349 45.3964 49.0386 43.7921 49.0386 41.8211V34.5362C49.0386 33.5833 48.6662 32.6856 47.9901 32.0094C47.3139 31.3333 46.4168 30.9609 45.4633 30.9609H34.5362C32.5646 30.9609 30.9609 32.5646 30.9609 34.5362V41.8211C30.9609 43.7927 32.5646 45.3964 34.5362 45.3964H34.6031V47.2841C34.6031 48.0041 35.0323 48.6431 35.6961 48.9126C35.9104 48.9986 36.1331 49.0414 36.3536 49.0414C36.8132 49.0414 37.2609 48.8591 37.5889 48.5199L40.7293 45.3964H45.4633ZM39.7871 43.9541L36.3885 47.3342C36.3733 47.3499 36.3621 47.3617 36.33 47.3477C36.2912 47.3319 36.2912 47.3066 36.2912 47.2841V44.5526C36.2912 44.0869 35.9137 43.7089 35.4474 43.7089H34.5368C33.4956 43.7089 32.649 42.8617 32.649 41.8211V34.5362C32.649 33.495 33.4956 32.6484 34.5368 32.6484H45.4639C45.9668 32.6484 46.4398 32.8453 46.7976 33.2025C47.1553 33.5602 47.3516 34.0339 47.3516 34.5362V41.8211C47.3516 42.8623 46.5045 43.7089 45.4639 43.7089H40.3822C40.1589 43.7089 39.9452 43.7972 39.7871 43.9541Z" fill="#7D63EC"/>
<path d="M35.9011 37.0664C35.2148 37.0664 34.6562 37.6255 34.6562 38.3112C34.6562 38.9969 35.2154 39.556 35.9011 39.556C36.5879 39.556 37.147 38.9969 37.147 38.3112C37.147 37.6255 36.5884 37.0664 35.9011 37.0664Z" fill="#7D63EC"/>
<path d="M39.9987 37.0664C39.3125 37.0664 38.7539 37.6255 38.7539 38.3112C38.7539 38.9969 39.313 39.556 39.9987 39.556C40.6861 39.556 41.2447 38.9969 41.2447 38.3112C41.2447 37.6255 40.6861 37.0664 39.9987 37.0664Z" fill="#7D63EC"/>
<path d="M44.0964 37.0664C43.4101 37.0664 42.8516 37.6255 42.8516 38.3112C42.8516 38.9969 43.4107 39.556 44.0964 39.556C44.7832 39.556 45.3423 38.9969 45.3423 38.3112C45.3423 37.6255 44.7832 37.0664 44.0964 37.0664Z" fill="#7D63EC"/>
</g>
<defs>
<clipPath id="clip0_1171_58446">
<rect width="36" height="36" fill="white" transform="translate(22 22)"/>
</clipPath>
</defs>
</svg>
