<svg width="80" height="80" viewBox="0 0 80 80" fill="none" xmlns="http://www.w3.org/2000/svg">
<circle cx="40" cy="40" r="40" fill="#FAFAFA"/>
<path d="M37.6078 25C37.9678 25 38.2078 24.76 38.2078 24.4V22.6C38.2078 22.24 37.9678 22 37.6078 22C37.2478 22 37.0078 22.24 37.0078 22.6V24.4C37.0078 24.7599 37.2478 25 37.6078 25Z" fill="#7D63EC"/>
<path d="M31.0687 29.2H32.8687C33.1688 29.2 33.4687 28.96 33.4687 28.6C33.4687 28.24 33.2287 28 32.8687 28H31.0687C30.7087 28 30.4688 28.24 30.4688 28.6C30.4688 28.96 30.7087 29.2 31.0687 29.2Z" fill="#7D63EC"/>
<path d="M41.207 28.6C41.207 28.96 41.447 29.2 41.807 29.2H43.607C43.907 29.2 44.207 28.96 44.207 28.6C44.207 28.24 43.967 28 43.607 28H41.807C41.4471 27.9999 41.207 28.24 41.207 28.6Z" fill="#7D63EC"/>
<path d="M40.6078 26.2008C40.7878 26.2008 40.9079 26.1409 41.0278 26.0208L42.2278 24.8208C42.4678 24.5808 42.4678 24.2208 42.2278 23.9808C41.9879 23.7407 41.6279 23.7408 41.3878 23.9808L40.1878 25.1808C39.9478 25.4208 39.9478 25.7808 40.1878 26.0208C40.3078 26.1409 40.4278 26.2008 40.6078 26.2008Z" fill="#7D63EC"/>
<path d="M33.6476 26.0207C33.7676 26.1408 33.8876 26.2007 34.0676 26.2007C34.1876 26.2007 34.3676 26.1408 34.4875 26.0207C34.7275 25.7808 34.7275 25.4208 34.4875 25.1807L33.2876 23.9808C33.0476 23.7408 32.6876 23.7408 32.4476 23.9808C32.2076 24.2207 32.2076 24.5807 32.4476 24.8208L33.6476 26.0207Z" fill="#7D63EC"/>
<path d="M49.9078 38.1992C49.3678 38.1992 48.8278 38.3792 48.4078 38.6792V38.4992C48.4078 36.9992 47.2078 35.7992 45.7078 35.7992C45.1678 35.7992 44.6278 35.9792 44.2079 36.2792V36.0992C44.2079 34.5992 43.0078 33.3992 41.5079 33.3992C40.9679 33.3992 40.4279 33.5792 40.0079 33.8792V28.9592C40.0079 27.4592 38.8079 26.1992 37.3079 26.1992C35.8079 26.1992 34.6079 27.4592 34.6079 28.9592V40.8392C33.3479 38.9792 30.8279 38.0192 28.9079 38.7992C28.6078 38.9192 28.3679 39.0992 28.1879 39.1592C27.3478 39.7592 27.4079 40.4192 27.4079 40.6592C27.3479 41.0192 27.4079 41.0792 28.1879 41.9792C29.0879 43.0592 31.0079 45.3392 32.2078 47.6191C32.2678 47.6791 33.6478 49.8992 35.2079 51.6391V53.1991C35.2079 56.0192 37.4278 57.9992 40.6079 57.9992H45.9479C48.4679 57.9992 50.4479 56.5592 50.9279 54.3392C51.061 53.7179 51.1941 53.3597 51.3029 53.1665C51.3376 53.1193 51.3725 53.0703 51.4079 53.0191C51.9479 52.4192 52.6079 50.9191 52.6079 48.8791V40.8992C52.6078 39.3992 51.4078 38.1992 49.9078 38.1992ZM45.9478 56.7991H40.6078C38.5078 56.7991 36.4078 55.6592 36.4078 53.1991V53.0372C36.5786 53.218 36.7583 53.3934 36.9478 53.5591C37.0078 53.6191 37.1878 53.6792 37.3078 53.6792C37.4878 53.6792 37.6078 53.5591 37.7278 53.4392C37.9678 53.1992 37.9078 52.8392 37.6678 52.5992C37.2478 52.2392 36.9478 51.8192 36.5878 51.3991C36.5278 51.2791 36.4078 51.0991 36.2878 50.9792C36.2378 50.9125 36.169 50.8603 36.0909 50.8241C34.6379 49.1589 33.2278 46.9592 33.2278 46.9592C31.9678 44.6192 29.9878 42.2792 29.0878 41.1392C28.9078 40.9592 28.7278 40.7192 28.6078 40.5992C28.6078 40.4792 28.6078 40.3592 28.8477 40.1792C29.0877 40.0592 29.2077 39.9992 29.3278 39.9393C30.6477 39.3993 32.8678 40.1193 33.8278 41.7992L34.5869 43.0645C34.596 43.1433 34.6221 43.2232 34.6678 43.2992L35.2678 44.4992C35.3878 44.6792 35.5678 44.7992 35.8078 44.7992C35.9278 44.7992 36.0477 44.7992 36.0477 44.7392C36.3478 44.6192 36.4677 44.2592 36.2877 43.9592L35.8077 42.9993V28.9592C35.8077 28.1192 36.5277 27.3992 37.3077 27.3992C38.1477 27.3992 38.8076 28.1192 38.8076 28.9592V35.9792C38.8076 35.9792 38.8076 36.0392 38.8076 36.0992V36.3992V43.5992C38.8076 43.9592 39.0476 44.1992 39.4076 44.1992C39.7676 44.1992 40.0076 43.9592 40.0076 43.5992V36.3992V35.9792C40.0676 35.1992 40.7276 34.5992 41.5076 34.5992C42.3476 34.5992 43.0075 35.2592 43.0075 36.0991V38.1992V38.4992V42.9992C43.0075 43.3592 43.2475 43.5992 43.6075 43.5992C43.9675 43.5992 44.2075 43.3592 44.2075 42.9992V38.4992C44.2075 37.6592 44.8675 36.9992 45.7075 36.9992C46.5474 36.9992 47.2075 37.6592 47.2075 38.4992V40.5992V40.8992V43.0592C47.2075 43.4192 47.4474 43.6592 47.8074 43.6592C48.1674 43.6592 48.4074 43.4192 48.4074 43.0592V40.8992C48.4074 40.0591 49.0674 39.3992 49.9074 39.3992C50.7474 39.3992 51.4074 40.0592 51.4074 40.8992V48.8192C51.4074 50.6389 50.8333 51.8264 50.5275 52.2141C50.4981 52.2393 50.4711 52.2676 50.4474 52.2991C50.0874 52.7792 49.9674 52.9592 48.8274 53.2591C48.5274 53.3191 48.3474 53.6791 48.4074 53.9791C48.5274 54.2191 48.7674 54.3991 49.0074 54.3991C49.0674 54.3991 49.1274 54.3991 49.1274 54.4591C49.332 54.4032 49.5149 54.3489 49.68 54.294C49.183 56.1265 47.3974 56.7991 45.9478 56.7991Z" fill="#7D63EC"/>
</svg>
