<svg width="120" height="120" viewBox="0 0 120 120" fill="none" xmlns="http://www.w3.org/2000/svg">
<rect width="120" height="120" rx="60" fill="#FFE2EA"/>
<g clip-path="url(#clip0_818_78106)">
<path d="M72.8995 66.4943C74.3574 65.779 75.5738 64.6246 76.3905 63.1399C78.5144 59.2786 76.6386 55.8 76.6287 55.7504C76.0672 54.5402 75.69 53.2349 75.5015 51.8688C75.6291 51.4999 75.6995 51.1044 75.6995 50.6926V47.2801C75.6995 46.7352 75.5773 46.2185 75.3602 45.7548L75.3601 45.3599C75.3601 42.4079 74.5203 39.5405 72.9315 37.0677C72.6691 36.6593 72.1251 36.5408 71.7171 36.8033C71.3087 37.0656 71.1903 37.6095 71.4527 38.0177C72.6085 39.8168 73.3154 41.8525 73.5309 43.9721C73.0895 43.7793 72.6028 43.6716 72.091 43.6716H70.6525C69.8216 39.1622 64.2309 37.4327 61.0018 40.7112C58.9313 42.8135 56.4526 41.8698 53.3452 42.1018C51.5826 42.1018 50.0768 43.2216 49.5015 44.7871H48.8367C47.9278 44.7871 47.086 45.0784 46.3979 45.5713L46.398 45.3598C46.3979 37.8596 52.4997 31.7578 60 31.7578C63.2345 31.7578 66.3686 32.9125 68.8251 35.0091C69.1945 35.3241 69.7493 35.28 70.0643 34.9111C70.3793 34.5418 70.3354 33.9871 69.9663 33.672C67.1918 31.3041 63.6523 30 60 30C51.5305 30 44.6401 36.8904 44.6401 45.3595C44.6398 45.9437 44.6388 48.606 44.6382 49.8773C44.6369 53.2784 43.3523 55.7742 43.3312 55.8373C42.2533 58.1967 42.3548 60.8584 43.6095 63.1398C44.4261 64.6245 45.6425 65.779 47.1005 66.4942C39.881 68.7922 34.8301 75.5489 34.8301 83.2777V86.3448C34.8301 88.3602 36.4698 89.9999 38.4853 89.9999H81.5146C83.5302 89.9999 85.1698 88.3602 85.1698 86.3448V83.2777C85.1698 75.5491 80.1191 68.7923 72.8995 66.4943ZM70.748 51.5091C70.7482 51.5046 70.7482 51.5003 70.7482 51.4958V45.4295H72.0909C73.1114 45.4295 73.9415 46.2596 73.9415 47.2801V50.6926C73.9415 51.7131 73.1114 52.5434 72.0909 52.5434H70.6818C70.7193 52.202 70.7428 51.8572 70.748 51.5091ZM70.3379 54.3012H71.4778V55.9223C71.4778 56.635 70.898 57.2147 70.1853 57.2147H69.0029C69.5969 56.3086 70.0448 55.33 70.3379 54.3012ZM51.0096 46.1952C51.0096 44.9075 52.0572 43.8598 53.3451 43.8598C56.2146 43.6 59.5082 44.7328 62.2541 41.9447C64.6718 39.4897 68.8729 41.1362 68.9869 44.5732C68.9869 44.5747 68.9868 44.5763 68.9868 44.5779L68.9878 44.6053C68.9926 44.7928 68.9884 43.717 68.9903 51.4888C68.981 52.0813 68.9136 52.6631 68.7934 53.2297C68.791 53.24 68.7889 53.2505 68.7869 53.261C68.5779 54.229 68.2095 55.151 67.6911 56.0018C67.2029 55.5758 66.5655 55.317 65.8682 55.317H63.122C61.591 55.317 60.3454 56.5625 60.3454 58.0936C60.3454 58.9543 60.7391 59.7248 61.3558 60.2345C60.9082 60.3028 60.4549 60.3383 60 60.3383C57.598 60.3383 55.3582 59.3971 53.6873 57.7492C52.1758 56.2584 51.2579 54.3212 51.0539 52.2319C51.0532 52.2238 51.0527 52.2157 51.0518 52.2076C51.0291 51.9696 51.0134 51.7302 51.0096 51.4888V46.1952ZM66.8732 58.2537C66.7961 58.7395 66.3754 59.1125 65.8682 59.1125C64.6053 59.1125 63.9261 59.1125 63.122 59.1125C62.5602 59.1125 62.1032 58.6555 62.1032 58.0937C62.1032 57.5319 62.5602 57.0749 63.122 57.0749H65.8682C66.3754 57.0749 66.7961 57.4479 66.8732 57.9338C66.8933 58.0608 66.8866 58.1371 66.8732 58.2537ZM66.5207 66.7678C65.0562 68.9094 62.6401 70.2042 60 70.2042C57.3597 70.2042 54.9434 68.9093 53.4789 66.7676C54.6713 66.1383 55.4622 64.8872 55.4622 63.4834V61.0964C56.8659 61.7508 58.4073 62.0961 60 62.0961C61.5683 62.0961 63.1225 61.7497 64.5377 61.0907V63.4834C64.5377 64.8875 65.3288 66.1389 66.5207 66.7678ZM46.3964 48.965C46.408 47.6289 47.4977 46.5451 48.8366 46.5451H49.2518V51.4277H48.8366C48.1844 51.4277 47.5712 51.1737 47.1102 50.7124C46.6542 50.2563 46.4019 49.6513 46.3964 49.0071V48.965ZM45.1497 62.2927C43.5132 59.3175 44.9608 56.5141 44.9656 56.4904C45.5757 55.1759 45.9969 53.7452 46.2172 52.2677C46.9587 52.862 47.8726 53.1854 48.8367 53.1854H49.4093C49.7868 55.3833 50.8359 57.4056 52.4531 59.0007C52.8465 59.3888 53.2653 59.7417 53.7046 60.0605V63.4834C53.7046 65.5406 51.3929 65.4724 51.1527 65.5889C50.9802 65.5758 50.5392 65.6003 49.7879 65.4973C47.8108 65.2255 46.1204 64.0575 45.1497 62.2927ZM68.6922 88.2422H51.3077V81.3366C51.3077 80.8511 50.9143 80.4577 50.4288 80.4577C49.9433 80.4577 49.5499 80.8511 49.5499 81.3366V88.2422H44.5629V83.846C44.5629 83.3605 44.1695 82.9671 43.6839 82.9671C43.1984 82.9671 42.805 83.3605 42.805 83.846V88.2422H38.4853C37.439 88.2422 36.5879 87.3911 36.5879 86.3449V83.2778C36.5879 75.6895 41.9962 69.1411 49.4476 67.7072L50.8011 67.4467C49.9802 69.5577 49.5499 71.8225 49.5499 74.0864V77.2266C49.5499 77.7121 49.9433 78.1055 50.4288 78.1055C50.9143 78.1055 51.3077 77.7121 51.3077 77.2266V74.0864C51.3077 72.0961 51.6761 70.1051 52.379 68.2418C54.19 70.5716 56.9745 71.962 59.9998 71.962C63.0542 71.962 65.863 70.5446 67.6725 68.1743C68.3414 69.9977 68.6921 71.9446 68.6921 73.8827V88.2422H68.6922ZM68.8475 65.589C68.8357 65.5868 68.049 65.4359 67.8807 65.4029C66.9622 65.2262 66.2955 64.419 66.2955 63.4835V60.8374C67.3299 60.677 68.1767 59.9433 68.5016 58.9726H70.1852C71.8672 58.9726 73.2355 57.6043 73.2355 55.9225V54.1141C73.5302 54.0152 73.808 53.8795 74.0635 53.7121C74.4505 55.2942 74.9499 56.2733 75.0698 56.5678C75.9145 58.4167 75.8343 60.5034 74.8501 62.2929C73.8795 64.0576 72.189 65.2255 70.2122 65.4974C69.4625 65.6002 68.9817 65.5786 68.8475 65.589ZM83.412 86.3449C83.412 87.3912 82.5608 88.2422 81.5146 88.2422H77.1949V83.846C77.1949 83.3605 76.8015 82.9671 76.316 82.9671C75.8305 82.9671 75.4371 83.3605 75.4371 83.846V88.2422H70.4499V73.8827C70.4499 71.7016 70.0495 69.5102 69.2843 67.4632L70.5522 67.7072C78.0036 69.1411 83.4119 75.6895 83.4119 83.2778L83.412 86.3449Z" fill="#CD325C"/>
</g>
<defs>
<clipPath id="clip0_818_78106">
<rect width="60" height="60" fill="white" transform="translate(30 30)"/>
</clipPath>
</defs>
</svg>
