<svg width="120" height="120" viewBox="0 0 120 120" fill="none" xmlns="http://www.w3.org/2000/svg">
<g clip-path="url(#clip0_1052_19309)">
<rect width="120" height="120" rx="60" fill="#CCFFFD"/>
<rect width="120" height="120" fill="#FFEFD8"/>
<path d="M74.4902 49.9624C73.8431 49.9624 73.3184 49.4376 73.3184 48.7905V40.7773C73.3184 40.1302 73.8431 39.6055 74.4902 39.6055C75.1373 39.6055 75.6621 40.1302 75.6621 40.7773V48.7905C75.6621 49.4376 75.1375 49.9624 74.4902 49.9624Z" fill="#B47210"/>
<path d="M74.4863 38.1758C75.1335 38.1758 75.6582 37.6511 75.6582 37.0039C75.6582 36.3567 75.1335 35.832 74.4863 35.832C73.8391 35.832 73.3145 36.3567 73.3145 37.0039C73.3145 37.6511 73.8391 38.1758 74.4863 38.1758Z" fill="#B47210"/>
<path d="M86.7945 42.3114C86.7945 35.5228 81.2727 30 74.4854 30C71.6761 30 69.0837 30.9462 67.0097 32.5366H37.4699C35.1183 32.5366 33.2051 34.4497 33.2051 36.8014V79.4311C33.2051 81.7827 35.1183 83.696 37.4699 83.696H41.1884V85.7351C41.1884 88.0867 43.1016 90 45.4532 90H76.0931C78.4447 90 80.3579 88.0868 80.3579 85.7351V69.4809C80.3579 68.8338 79.8332 68.3091 79.1861 68.3091C78.5389 68.3091 78.0142 68.8338 78.0142 69.4809V85.7351C78.0142 86.7943 77.1524 87.6562 76.0931 87.6562H45.4532C44.3939 87.6562 43.5321 86.7945 43.5321 85.7351V83.696H68.11C70.4616 83.696 72.3749 81.7828 72.3749 79.4311V54.4416C73.0609 54.5606 73.766 54.6227 74.4855 54.6227C75.7114 54.6227 76.8961 54.4425 78.0143 54.1072V58.8859C78.0143 59.533 78.5391 60.0578 79.1862 60.0578C79.8333 60.0578 80.358 59.533 80.358 58.8859V53.1291C84.1891 51.0401 86.7945 46.9744 86.7945 42.3114ZM70.0311 79.4312C70.0311 80.4905 69.1693 81.3524 68.11 81.3524H37.4699C36.4106 81.3524 35.5488 80.4906 35.5488 79.4312V36.8014C35.5488 35.7422 36.4106 34.8804 37.4699 34.8804H64.6774C63.2065 36.8179 62.2955 39.2026 62.1874 41.7914H42.2314C41.5843 41.7914 41.0596 42.3162 41.0596 42.9633V47.9126C41.0596 48.5597 41.5843 49.0845 42.2314 49.0845H63.3484C63.6148 49.0845 63.8604 48.9955 64.0573 48.8457C65.4572 51.0728 67.5502 52.822 70.0311 53.7886V79.4312ZM62.1765 44.1352V46.7407H43.4033V44.1352H62.1765ZM74.4854 52.2789C68.9906 52.2789 64.5203 47.8075 64.5203 42.3112C64.5203 36.8152 68.9906 32.3436 74.4854 32.3436C79.9804 32.3436 84.4507 36.815 84.4507 42.3112C84.4507 47.8075 79.9804 52.2789 74.4854 52.2789Z" fill="#B47210"/>
<path d="M79.1849 65.3335C78.7021 65.3335 78.2595 65.0245 78.0893 64.5739C77.9146 64.1115 78.0577 63.5677 78.442 63.2549C78.8269 62.9417 79.3811 62.9041 79.8033 63.1661C80.2247 63.4277 80.4405 63.9436 80.3265 64.4275C80.2031 64.9509 79.7234 65.3335 79.1849 65.3335Z" fill="#B47210"/>
<path d="M63.3474 55.5039H42.2305C41.5834 55.5039 41.0586 54.9793 41.0586 54.332C41.0586 53.6849 41.5834 53.1602 42.2305 53.1602H63.3474C63.9945 53.1602 64.5193 53.6849 64.5193 54.332C64.5193 54.9791 63.9946 55.5039 63.3474 55.5039Z" fill="#B47210"/>
<path d="M63.3474 61.0625H42.2305C41.5834 61.0625 41.0586 60.5377 41.0586 59.8906C41.0586 59.2434 41.5834 58.7188 42.2305 58.7188H63.3474C63.9945 58.7188 64.5193 59.2434 64.5193 59.8906C64.5193 60.5377 63.9946 61.0625 63.3474 61.0625Z" fill="#B47210"/>
<path d="M63.3474 66.6211H42.2305C41.5834 66.6211 41.0586 66.0963 41.0586 65.4492C41.0586 64.8021 41.5834 64.2773 42.2305 64.2773H63.3474C63.9945 64.2773 64.5193 64.8021 64.5193 65.4492C64.5193 66.0964 63.9946 66.6211 63.3474 66.6211Z" fill="#B47210"/>
<path d="M63.3474 72.1797H42.2305C41.5834 72.1797 41.0586 71.6549 41.0586 71.0078C41.0586 70.3606 41.5834 69.8359 42.2305 69.8359H63.3474C63.9945 69.8359 64.5193 70.3606 64.5193 71.0078C64.5193 71.6549 63.9946 72.1797 63.3474 72.1797Z" fill="#B47210"/>
</g>
<defs>
<clipPath id="clip0_1052_19309">
<rect width="120" height="120" rx="60" fill="white"/>
</clipPath>
</defs>
</svg>
