<svg width="120" height="120" viewBox="0 0 120 120" fill="none" xmlns="http://www.w3.org/2000/svg">
<rect width="120" height="120" rx="60" fill="#EAE3FF"/>
<g clip-path="url(#clip0_818_78114)">
<path d="M59.9988 68.4C60.6616 68.4 61.1988 67.8627 61.1988 67.2C61.1988 66.5373 60.6616 66 59.9988 66C59.3361 66 58.7988 66.5373 58.7988 67.2C58.7988 67.8627 59.3361 68.4 59.9988 68.4Z" fill="#4B329E"/>
<path d="M64.7996 68.4C65.4624 68.4 65.9996 67.8627 65.9996 67.2C65.9996 66.5373 65.4624 66 64.7996 66C64.1369 66 63.5996 66.5373 63.5996 67.2C63.5996 67.8627 64.1369 68.4 64.7996 68.4Z" fill="#4B329E"/>
<path d="M55.2 68.4C55.8627 68.4 56.4 67.8627 56.4 67.2C56.4 66.5373 55.8627 66 55.2 66C54.5373 66 54 66.5373 54 67.2C54 67.8627 54.5373 68.4 55.2 68.4Z" fill="#4B329E"/>
<path d="M72.3123 46.4111C72.5487 46.6703 72.8739 46.8023 73.1991 46.8023C73.4871 46.8023 73.7763 46.6991 74.0079 46.4891C74.4975 46.0427 74.5335 45.2831 74.0859 44.7935C70.3299 40.6727 65.3271 38.4023 59.9991 38.4023C54.6711 38.4023 49.6683 40.6727 45.9123 44.7935C45.4659 45.2831 45.5019 46.0427 45.9915 46.4891C46.4811 46.9367 47.2407 46.8983 47.6871 46.4111C50.9811 42.7931 55.3551 40.8023 59.9991 40.8023C64.6431 40.8023 69.0171 42.7931 72.3123 46.4111Z" fill="#4B329E"/>
<path d="M86.048 62.7532L83.9996 60.7048V60.0016V57.6016C83.9996 44.368 73.2332 33.6016 59.9996 33.6016C46.766 33.6016 35.9996 44.368 35.9996 57.6016V60.3832L33.9512 62.4316C33.7268 62.6572 33.5996 62.962 33.5996 63.28V70.8016C33.5996 71.1208 33.7256 71.4256 33.9512 71.65L35.9996 73.6984V74.4016C35.9996 75.0652 36.5372 75.6016 37.1996 75.6016H40.7996C42.7844 75.6016 44.3996 73.9864 44.3996 72.0016V62.08C44.3996 60.7996 43.7096 59.6044 42.5996 58.9612C42.026 58.63 41.2916 58.8268 40.9604 59.4016C40.6292 59.9752 40.8248 60.7096 41.3984 61.0408C41.7704 61.2544 41.9996 61.6528 41.9996 62.08V72.0016C41.9996 72.664 41.4608 73.2016 40.7996 73.2016H38.3996C38.3996 72.8824 38.2736 72.5776 38.048 72.3532L35.9996 70.3048V63.778L38.048 61.7296C38.2736 61.504 38.3996 61.1992 38.3996 60.88V57.6016C38.3996 45.6916 48.0896 36.0016 59.9996 36.0016C71.9096 36.0016 81.5996 45.6916 81.5996 57.6016V58.8016H79.1996C77.2148 58.8016 75.5996 60.4168 75.5996 62.4016V72.0016C75.5996 73.2796 76.2872 74.4748 77.396 75.118C77.966 75.4504 78.7016 75.2584 79.0352 74.6836C79.3688 74.11 79.1732 73.3768 78.6008 73.0444C78.23 72.8272 77.9996 72.4276 77.9996 72.0016V62.4016C77.9996 61.7392 78.5372 61.2016 79.1996 61.2016H81.5996C81.5996 61.5208 81.7256 61.8256 81.9512 62.05L83.9996 64.0984V70.3048L81.9512 72.3532C81.7256 72.5776 81.5996 72.8824 81.5996 73.2016V78.0016C81.5996 79.9864 79.9844 81.6016 77.9996 81.6016H66.9788C66.482 80.2084 65.162 79.2016 63.5996 79.2016H56.3996C54.4148 79.2016 52.7996 80.8168 52.7996 82.8016C52.7996 84.7864 54.4148 86.4016 56.3996 86.4016H63.5996C65.162 86.4016 66.482 85.3948 66.9788 84.0016H77.9996C81.308 84.0016 83.9996 81.31 83.9996 78.0016V73.6984L86.048 71.65C86.2736 71.4256 86.3996 71.1208 86.3996 70.8016V63.6016C86.3996 63.2824 86.2736 62.9776 86.048 62.7532ZM63.5996 84.0016H56.3996C55.7372 84.0016 55.1996 83.464 55.1996 82.8016C55.1996 82.1392 55.7372 81.6016 56.3996 81.6016H63.5996C64.262 81.6016 64.7996 82.1392 64.7996 82.8016C64.7996 83.464 64.262 84.0016 63.5996 84.0016Z" fill="#4B329E"/>
<path d="M56.0356 74.4L59.3332 76.5984C59.5348 76.7328 59.7676 76.8 59.9992 76.8C60.2308 76.8 60.4636 76.7328 60.6652 76.5984L63.9628 74.4H67.1992C69.184 74.4 70.7992 72.7848 70.7992 70.8V63.6C70.7992 61.6152 69.184 60 67.1992 60H52.7992C50.8144 60 49.1992 61.6152 49.1992 63.6V70.8C49.1992 72.7848 50.8144 74.4 52.7992 74.4H56.0356ZM51.5992 70.8V63.6C51.5992 62.9376 52.1368 62.4 52.7992 62.4H67.1992C67.8616 62.4 68.3992 62.9376 68.3992 63.6V70.8C68.3992 71.4624 67.8616 72 67.1992 72H63.5992C63.3628 72 63.13 72.0708 62.9332 72.2016L59.9992 74.1576L57.0652 72.2016C56.8684 72.0708 56.6356 72 56.3992 72H52.7992C52.1368 72 51.5992 71.4624 51.5992 70.8Z" fill="#4B329E"/>
</g>
<defs>
<clipPath id="clip0_818_78114">
<rect width="52.8" height="52.8" fill="white" transform="translate(33.5996 33.6016)"/>
</clipPath>
</defs>
</svg>
