<svg width="1361" height="656" viewBox="0 0 1361 656" fill="none" xmlns="http://www.w3.org/2000/svg">
<g clip-path="url(#clip0_195_14969)">
<circle opacity="0.9" cx="680" cy="382.5" r="130.5" stroke="url(#paint0_linear_195_14969)" stroke-opacity="0.6" stroke-width="2"/>
<circle opacity="0.8" cx="679.5" cy="341" r="172" stroke="url(#paint1_linear_195_14969)" stroke-opacity="0.6" stroke-width="2"/>
<circle opacity="0.6" cx="679" cy="286.5" r="226.5" stroke="url(#paint2_linear_195_14969)" stroke-opacity="0.6" stroke-width="2"/>
<circle opacity="0.4" cx="679.5" cy="233" r="280" stroke="url(#paint3_linear_195_14969)" stroke-opacity="0.6" stroke-width="2"/>
<circle opacity="0.2" cx="679.5" cy="59.5" r="453.5" stroke="url(#paint4_linear_195_14969)" stroke-opacity="0.8" stroke-width="2"/>
<g filter="url(#filter0_d_195_14969)">
<rect x="594.453" y="295" width="172.099" height="175" rx="86.0497" fill="url(#paint5_linear_195_14969)"/>
</g>
<path fill-rule="evenodd" clip-rule="evenodd" d="M660.023 343C654.487 343 650 347.487 650 353.023V388.59V418H670.045V417.998H682.651C683.096 417.998 683.534 417.967 683.962 417.907C700.208 416.735 713 404.057 713 388.59C713 372.349 698.897 359.184 681.5 359.184C677.459 359.184 673.596 359.894 670.045 361.188V353.023C670.045 347.487 665.558 343 660.023 343ZM670.045 389.162V388.458C670.244 383.003 675.044 378.637 680.937 378.637C686.955 378.637 691.835 383.191 691.835 388.81C691.835 394.429 686.955 398.983 680.937 398.983C675.044 398.983 670.244 394.617 670.045 389.162Z" fill="white"/>
<g clip-path="url(#clip1_195_14969)">
<path fill-rule="evenodd" clip-rule="evenodd" d="M660.023 343C654.487 343 650 347.487 650 353.023V388.59V418H670.045V415.991C658.312 411.713 650 401.058 650 388.59C650 376.122 658.312 365.466 670.045 361.188V353.023C670.045 347.487 665.558 343 660.023 343Z" fill="#D4CFEE"/>
</g>
<circle cx="885.5" cy="229.5" r="4.5" fill="#EA4335"/>
<circle cx="178.5" cy="82.5" r="6.5" fill="#0066D9"/>
<circle cx="1052" cy="381.5" r="6.5" fill="#0066D9"/>
<g filter="url(#filter1_d_195_14969)">
<circle cx="451" cy="299" r="70" fill="white"/>
</g>
<path d="M419.972 304V294.2H424.578C425.241 294.2 425.819 294.312 426.314 294.536C426.809 294.76 427.196 295.077 427.476 295.488C427.756 295.889 427.896 296.356 427.896 296.888C427.896 297.317 427.784 297.714 427.56 298.078C427.345 298.433 427.051 298.722 426.678 298.946C427.154 299.17 427.532 299.473 427.812 299.856C428.092 300.239 428.232 300.673 428.232 301.158C428.232 301.718 428.087 302.213 427.798 302.642C427.518 303.071 427.117 303.407 426.594 303.65C426.081 303.883 425.483 304 424.802 304H419.972ZM422.002 298.204H424.452C424.891 298.204 425.236 298.101 425.488 297.896C425.749 297.681 425.88 297.397 425.88 297.042C425.88 296.687 425.749 296.407 425.488 296.202C425.236 295.987 424.891 295.88 424.452 295.88H422.002V298.204ZM422.002 302.32H424.648C425.115 302.32 425.488 302.208 425.768 301.984C426.048 301.751 426.188 301.443 426.188 301.06C426.188 300.668 426.048 300.36 425.768 300.136C425.488 299.903 425.115 299.786 424.648 299.786H422.002V302.32ZM431.85 304.126C431.327 304.126 430.865 304.033 430.464 303.846C430.062 303.65 429.75 303.384 429.526 303.048C429.302 302.712 429.19 302.325 429.19 301.886C429.19 301.186 429.451 300.645 429.974 300.262C430.506 299.87 431.234 299.674 432.158 299.674C432.792 299.674 433.39 299.772 433.95 299.968V299.436C433.95 299.016 433.819 298.699 433.558 298.484C433.296 298.269 432.914 298.162 432.41 298.162C432.102 298.162 431.77 298.213 431.416 298.316C431.061 298.409 430.65 298.559 430.184 298.764L429.484 297.35C430.062 297.089 430.613 296.893 431.136 296.762C431.668 296.631 432.2 296.566 432.732 296.566C433.712 296.566 434.472 296.804 435.014 297.28C435.564 297.747 435.84 298.409 435.84 299.268V304H433.95V303.482C433.651 303.706 433.329 303.869 432.984 303.972C432.638 304.075 432.26 304.126 431.85 304.126ZM431.01 301.844C431.01 302.124 431.131 302.348 431.374 302.516C431.616 302.675 431.938 302.754 432.34 302.754C432.657 302.754 432.951 302.717 433.222 302.642C433.492 302.558 433.735 302.437 433.95 302.278V301.214C433.716 301.121 433.474 301.051 433.222 301.004C432.97 300.957 432.699 300.934 432.41 300.934C431.971 300.934 431.626 301.018 431.374 301.186C431.131 301.345 431.01 301.564 431.01 301.844ZM437.291 304V296.706H439.209V297.308C439.76 296.813 440.441 296.566 441.253 296.566C441.822 296.566 442.322 296.692 442.751 296.944C443.19 297.187 443.53 297.527 443.773 297.966C444.016 298.395 444.137 298.899 444.137 299.478V304H442.219V299.758C442.219 299.282 442.084 298.909 441.813 298.638C441.542 298.358 441.174 298.218 440.707 298.218C440.38 298.218 440.091 298.283 439.839 298.414C439.587 298.535 439.377 298.713 439.209 298.946V304H437.291ZM451.008 306.856V303.426C450.42 303.874 449.739 304.098 448.964 304.098C448.273 304.098 447.648 303.93 447.088 303.594C446.528 303.258 446.08 302.81 445.744 302.25C445.417 301.681 445.254 301.046 445.254 300.346C445.254 299.646 445.417 299.016 445.744 298.456C446.08 297.887 446.533 297.439 447.102 297.112C447.671 296.776 448.311 296.608 449.02 296.608C449.393 296.608 449.748 296.659 450.084 296.762C450.429 296.865 450.747 297.009 451.036 297.196V296.706H452.926V306.856H451.008ZM449.272 302.46C449.627 302.46 449.949 302.404 450.238 302.292C450.537 302.171 450.793 301.993 451.008 301.76V298.918C450.793 298.703 450.537 298.535 450.238 298.414C449.939 298.293 449.617 298.232 449.272 298.232C448.871 298.232 448.507 298.325 448.18 298.512C447.863 298.689 447.611 298.941 447.424 299.268C447.237 299.585 447.144 299.945 447.144 300.346C447.144 300.747 447.237 301.107 447.424 301.424C447.611 301.741 447.863 301.993 448.18 302.18C448.507 302.367 448.871 302.46 449.272 302.46ZM457.25 304.14C456.69 304.14 456.191 304.019 455.752 303.776C455.323 303.524 454.982 303.179 454.73 302.74C454.487 302.301 454.366 301.797 454.366 301.228V296.706H456.284V300.948C456.284 301.415 456.419 301.788 456.69 302.068C456.97 302.348 457.343 302.488 457.81 302.488C458.127 302.488 458.412 302.427 458.664 302.306C458.925 302.175 459.14 301.993 459.308 301.76V296.706H461.226V304H459.308V303.412C458.748 303.897 458.062 304.14 457.25 304.14ZM466.291 304.14C465.563 304.14 464.9 303.972 464.303 303.636C463.715 303.3 463.248 302.847 462.903 302.278C462.558 301.709 462.385 301.069 462.385 300.36C462.385 299.651 462.548 299.011 462.875 298.442C463.211 297.873 463.664 297.42 464.233 297.084C464.802 296.748 465.437 296.58 466.137 296.58C466.837 296.58 467.458 296.753 467.999 297.098C468.54 297.443 468.965 297.91 469.273 298.498C469.59 299.086 469.749 299.753 469.749 300.5V301.004H464.345C464.429 301.293 464.564 301.555 464.751 301.788C464.947 302.021 465.185 302.203 465.465 302.334C465.754 302.465 466.062 302.53 466.389 302.53C466.716 302.53 467.014 302.479 467.285 302.376C467.565 302.273 467.803 302.129 467.999 301.942L469.259 303.09C468.811 303.454 468.349 303.72 467.873 303.888C467.406 304.056 466.879 304.14 466.291 304.14ZM464.317 299.632H467.859C467.794 299.343 467.672 299.091 467.495 298.876C467.327 298.652 467.122 298.479 466.879 298.358C466.646 298.227 466.384 298.162 466.095 298.162C465.796 298.162 465.526 298.223 465.283 298.344C465.04 298.465 464.835 298.638 464.667 298.862C464.508 299.077 464.392 299.333 464.317 299.632ZM474.177 304.112C473.365 304.112 472.749 303.93 472.329 303.566C471.918 303.193 471.713 302.651 471.713 301.942V298.302H470.215V296.706H471.713V294.844L473.631 294.41V296.706H475.717V298.302H473.631V301.55C473.631 301.886 473.706 302.129 473.855 302.278C474.004 302.418 474.266 302.488 474.639 302.488C474.826 302.488 474.994 302.479 475.143 302.46C475.302 302.432 475.474 302.385 475.661 302.32V303.902C475.465 303.967 475.218 304.019 474.919 304.056C474.63 304.093 474.382 304.112 474.177 304.112ZM479.519 304.14C478.847 304.14 478.227 304.056 477.657 303.888C477.088 303.711 476.593 303.459 476.173 303.132L477.125 301.858C477.545 302.138 477.947 302.348 478.329 302.488C478.721 302.628 479.109 302.698 479.491 302.698C479.921 302.698 480.261 302.628 480.513 302.488C480.775 302.339 480.905 302.147 480.905 301.914C480.905 301.727 480.831 301.578 480.681 301.466C480.541 301.354 480.313 301.275 479.995 301.228L478.595 301.018C477.867 300.906 477.317 300.673 476.943 300.318C476.57 299.954 476.383 299.478 476.383 298.89C476.383 298.414 476.505 298.008 476.747 297.672C476.999 297.327 477.349 297.061 477.797 296.874C478.255 296.678 478.796 296.58 479.421 296.58C479.953 296.58 480.471 296.655 480.975 296.804C481.489 296.953 481.969 297.182 482.417 297.49L481.493 298.736C481.092 298.484 480.709 298.302 480.345 298.19C479.981 298.078 479.613 298.022 479.239 298.022C478.894 298.022 478.614 298.087 478.399 298.218C478.194 298.349 478.091 298.521 478.091 298.736C478.091 298.932 478.166 299.086 478.315 299.198C478.465 299.31 478.721 299.389 479.085 299.436L480.471 299.646C481.199 299.749 481.755 299.982 482.137 300.346C482.52 300.701 482.711 301.163 482.711 301.732C482.711 302.199 482.571 302.614 482.291 302.978C482.011 303.333 481.633 303.617 481.157 303.832C480.681 304.037 480.135 304.14 479.519 304.14Z" fill="#20184E"/>
<g filter="url(#filter2_d_195_14969)">
<circle cx="928" cy="375" r="70" fill="white"/>
</g>
<path d="M883.776 380L881.606 370.2H883.692L885.022 376.836L886.926 370.2H888.844L890.748 376.822L892.078 370.2H894.094L891.938 380H889.796L887.864 373.168L885.904 380H883.776ZM898.16 380.14C897.432 380.14 896.769 379.972 896.172 379.636C895.584 379.3 895.117 378.847 894.772 378.278C894.427 377.709 894.254 377.069 894.254 376.36C894.254 375.651 894.417 375.011 894.744 374.442C895.08 373.873 895.533 373.42 896.102 373.084C896.671 372.748 897.306 372.58 898.006 372.58C898.706 372.58 899.327 372.753 899.868 373.098C900.409 373.443 900.834 373.91 901.142 374.498C901.459 375.086 901.618 375.753 901.618 376.5V377.004H896.214C896.298 377.293 896.433 377.555 896.62 377.788C896.816 378.021 897.054 378.203 897.334 378.334C897.623 378.465 897.931 378.53 898.258 378.53C898.585 378.53 898.883 378.479 899.154 378.376C899.434 378.273 899.672 378.129 899.868 377.942L901.128 379.09C900.68 379.454 900.218 379.72 899.742 379.888C899.275 380.056 898.748 380.14 898.16 380.14ZM896.186 375.632H899.728C899.663 375.343 899.541 375.091 899.364 374.876C899.196 374.652 898.991 374.479 898.748 374.358C898.515 374.227 898.253 374.162 897.964 374.162C897.665 374.162 897.395 374.223 897.152 374.344C896.909 374.465 896.704 374.638 896.536 374.862C896.377 375.077 896.261 375.333 896.186 375.632ZM906.222 380.098C905.531 380.098 904.906 379.93 904.346 379.594C903.786 379.258 903.338 378.81 903.002 378.25C902.675 377.681 902.512 377.046 902.512 376.346C902.512 375.646 902.675 375.016 903.002 374.456C903.338 373.887 903.79 373.439 904.36 373.112C904.929 372.776 905.568 372.608 906.278 372.608C906.642 372.608 906.992 372.659 907.328 372.762C907.664 372.855 907.976 372.995 908.266 373.182V370.2L910.184 369.878V380H908.294V379.398C907.696 379.865 907.006 380.098 906.222 380.098ZM906.53 378.46C906.884 378.46 907.206 378.404 907.496 378.292C907.794 378.171 908.051 377.993 908.266 377.76V374.918C908.051 374.703 907.794 374.535 907.496 374.414C907.197 374.293 906.875 374.232 906.53 374.232C906.128 374.232 905.764 374.325 905.438 374.512C905.12 374.689 904.868 374.941 904.682 375.268C904.495 375.585 904.402 375.945 904.402 376.346C904.402 376.747 904.495 377.107 904.682 377.424C904.868 377.741 905.12 377.993 905.438 378.18C905.764 378.367 906.128 378.46 906.53 378.46ZM915.054 380.098C914.363 380.098 913.738 379.93 913.178 379.594C912.618 379.258 912.17 378.81 911.834 378.25C911.507 377.681 911.344 377.046 911.344 376.346C911.344 375.646 911.507 375.016 911.834 374.456C912.17 373.887 912.622 373.439 913.192 373.112C913.761 372.776 914.4 372.608 915.11 372.608C915.474 372.608 915.824 372.659 916.16 372.762C916.496 372.855 916.808 372.995 917.098 373.182V370.2L919.016 369.878V380H917.126V379.398C916.528 379.865 915.838 380.098 915.054 380.098ZM915.362 378.46C915.716 378.46 916.038 378.404 916.328 378.292C916.626 378.171 916.883 377.993 917.098 377.76V374.918C916.883 374.703 916.626 374.535 916.328 374.414C916.029 374.293 915.707 374.232 915.362 374.232C914.96 374.232 914.596 374.325 914.27 374.512C913.952 374.689 913.7 374.941 913.514 375.268C913.327 375.585 913.234 375.945 913.234 376.346C913.234 376.747 913.327 377.107 913.514 377.424C913.7 377.741 913.952 377.993 914.27 378.18C914.596 378.367 914.96 378.46 915.362 378.46ZM920.512 380V372.706H922.43V380H920.512ZM921.464 371.838C921.165 371.838 920.909 371.731 920.694 371.516C920.479 371.301 920.372 371.045 920.372 370.746C920.372 370.438 920.479 370.181 920.694 369.976C920.909 369.761 921.165 369.654 921.464 369.654C921.772 369.654 922.029 369.761 922.234 369.976C922.449 370.181 922.556 370.438 922.556 370.746C922.556 371.045 922.449 371.301 922.234 371.516C922.029 371.731 921.772 371.838 921.464 371.838ZM923.93 380V372.706H925.848V373.308C926.398 372.813 927.08 372.566 927.892 372.566C928.461 372.566 928.96 372.692 929.39 372.944C929.828 373.187 930.169 373.527 930.412 373.966C930.654 374.395 930.776 374.899 930.776 375.478V380H928.858V375.758C928.858 375.282 928.722 374.909 928.452 374.638C928.181 374.358 927.812 374.218 927.346 374.218C927.019 374.218 926.73 374.283 926.478 374.414C926.226 374.535 926.016 374.713 925.848 374.946V380H923.93ZM935.897 382.996C935.337 382.996 934.795 382.935 934.273 382.814C933.75 382.702 933.279 382.539 932.859 382.324L933.531 380.84C933.932 381.036 934.324 381.181 934.707 381.274C935.089 381.367 935.472 381.414 935.855 381.414C936.424 381.414 936.853 381.293 937.143 381.05C937.441 380.807 937.591 380.443 937.591 379.958V379.384C936.993 379.823 936.326 380.042 935.589 380.042C934.898 380.042 934.273 379.879 933.713 379.552C933.162 379.216 932.719 378.763 932.383 378.194C932.056 377.625 931.893 376.995 931.893 376.304C931.893 375.613 932.056 374.988 932.383 374.428C932.719 373.868 933.171 373.425 933.741 373.098C934.31 372.762 934.945 372.594 935.645 372.594C935.999 372.594 936.345 372.645 936.681 372.748C937.017 372.851 937.329 372.995 937.619 373.182V372.706H939.509V379.986C939.509 380.947 939.196 381.689 938.571 382.212C937.955 382.735 937.063 382.996 935.897 382.996ZM935.883 378.418C936.237 378.418 936.559 378.362 936.849 378.25C937.138 378.129 937.385 377.961 937.591 377.746V374.89C937.385 374.685 937.133 374.526 936.835 374.414C936.545 374.293 936.233 374.232 935.897 374.232C935.495 374.232 935.136 374.325 934.819 374.512C934.501 374.689 934.249 374.937 934.063 375.254C933.876 375.562 933.783 375.912 933.783 376.304C933.783 376.705 933.871 377.065 934.049 377.382C934.235 377.699 934.487 377.951 934.805 378.138C935.131 378.325 935.491 378.418 935.883 378.418ZM943.948 380V370.2H945.978V374.148H950.486V370.2H952.516V380H950.486V375.982H945.978V380H943.948ZM956.359 380.126C955.837 380.126 955.375 380.033 954.973 379.846C954.572 379.65 954.259 379.384 954.035 379.048C953.811 378.712 953.699 378.325 953.699 377.886C953.699 377.186 953.961 376.645 954.483 376.262C955.015 375.87 955.743 375.674 956.667 375.674C957.302 375.674 957.899 375.772 958.459 375.968V375.436C958.459 375.016 958.329 374.699 958.067 374.484C957.806 374.269 957.423 374.162 956.919 374.162C956.611 374.162 956.28 374.213 955.925 374.316C955.571 374.409 955.16 374.559 954.693 374.764L953.993 373.35C954.572 373.089 955.123 372.893 955.645 372.762C956.177 372.631 956.709 372.566 957.241 372.566C958.221 372.566 958.982 372.804 959.523 373.28C960.074 373.747 960.349 374.409 960.349 375.268V380H958.459V379.482C958.161 379.706 957.839 379.869 957.493 379.972C957.148 380.075 956.77 380.126 956.359 380.126ZM955.519 377.844C955.519 378.124 955.641 378.348 955.883 378.516C956.126 378.675 956.448 378.754 956.849 378.754C957.167 378.754 957.461 378.717 957.731 378.642C958.002 378.558 958.245 378.437 958.459 378.278V377.214C958.226 377.121 957.983 377.051 957.731 377.004C957.479 376.957 957.209 376.934 956.919 376.934C956.481 376.934 956.135 377.018 955.883 377.186C955.641 377.345 955.519 377.564 955.519 377.844ZM961.801 380V370.2L963.719 369.878V380H961.801ZM965.219 380V370.2L967.137 369.878V380H965.219ZM971.367 380.14C970.695 380.14 970.074 380.056 969.505 379.888C968.936 379.711 968.441 379.459 968.021 379.132L968.973 377.858C969.393 378.138 969.794 378.348 970.177 378.488C970.569 378.628 970.956 378.698 971.339 378.698C971.768 378.698 972.109 378.628 972.361 378.488C972.622 378.339 972.753 378.147 972.753 377.914C972.753 377.727 972.678 377.578 972.529 377.466C972.389 377.354 972.16 377.275 971.843 377.228L970.443 377.018C969.715 376.906 969.164 376.673 968.791 376.318C968.418 375.954 968.231 375.478 968.231 374.89C968.231 374.414 968.352 374.008 968.595 373.672C968.847 373.327 969.197 373.061 969.645 372.874C970.102 372.678 970.644 372.58 971.269 372.58C971.801 372.58 972.319 372.655 972.823 372.804C973.336 372.953 973.817 373.182 974.265 373.49L973.341 374.736C972.94 374.484 972.557 374.302 972.193 374.19C971.829 374.078 971.46 374.022 971.087 374.022C970.742 374.022 970.462 374.087 970.247 374.218C970.042 374.349 969.939 374.521 969.939 374.736C969.939 374.932 970.014 375.086 970.163 375.198C970.312 375.31 970.569 375.389 970.933 375.436L972.319 375.646C973.047 375.749 973.602 375.982 973.985 376.346C974.368 376.701 974.559 377.163 974.559 377.732C974.559 378.199 974.419 378.614 974.139 378.978C973.859 379.333 973.481 379.617 973.005 379.832C972.529 380.037 971.983 380.14 971.367 380.14Z" fill="#20184E"/>
<g filter="url(#filter3_d_195_14969)">
<circle cx="946" cy="97" r="41" fill="white"/>
</g>
<path d="M921.021 102V92.2H923.051V100.208H928.413V102H921.021ZM932.968 102.14C932.24 102.14 931.582 101.972 930.994 101.636C930.406 101.3 929.94 100.847 929.594 100.278C929.249 99.7087 929.076 99.0693 929.076 98.36C929.076 97.6507 929.244 97.0113 929.58 96.442C929.926 95.8633 930.392 95.406 930.98 95.07C931.578 94.734 932.24 94.566 932.968 94.566C933.696 94.566 934.354 94.734 934.942 95.07C935.54 95.406 936.006 95.8633 936.342 96.442C936.688 97.0113 936.86 97.6507 936.86 98.36C936.86 99.0693 936.688 99.7087 936.342 100.278C936.006 100.847 935.544 101.3 934.956 101.636C934.368 101.972 933.706 102.14 932.968 102.14ZM932.968 100.474C933.351 100.474 933.692 100.381 933.99 100.194C934.298 100.007 934.541 99.7553 934.718 99.438C934.905 99.1113 934.998 98.752 934.998 98.36C934.998 97.9587 934.905 97.5993 934.718 97.282C934.541 96.9647 934.298 96.7127 933.99 96.526C933.692 96.33 933.351 96.232 932.968 96.232C932.595 96.232 932.254 96.33 931.946 96.526C931.638 96.7127 931.396 96.9647 931.218 97.282C931.041 97.5993 930.952 97.9587 930.952 98.36C930.952 98.752 931.041 99.1113 931.218 99.438C931.396 99.7553 931.638 100.007 931.946 100.194C932.254 100.381 932.595 100.474 932.968 100.474ZM940.867 102.14C940.307 102.14 939.808 102.019 939.369 101.776C938.94 101.524 938.599 101.179 938.347 100.74C938.105 100.301 937.983 99.7973 937.983 99.228V94.706H939.901V98.948C939.901 99.4147 940.037 99.788 940.307 100.068C940.587 100.348 940.961 100.488 941.427 100.488C941.745 100.488 942.029 100.427 942.281 100.306C942.543 100.175 942.757 99.9933 942.925 99.76V94.706H944.843V102H942.925V101.412C942.365 101.897 941.679 102.14 940.867 102.14ZM946.338 102V94.706H948.256V95.308C948.807 94.8133 949.488 94.566 950.3 94.566C950.869 94.566 951.369 94.692 951.798 94.944C952.237 95.1867 952.577 95.5273 952.82 95.966C953.063 96.3953 953.184 96.8993 953.184 97.478V102H951.266V97.758C951.266 97.282 951.131 96.9087 950.86 96.638C950.589 96.358 950.221 96.218 949.754 96.218C949.427 96.218 949.138 96.2833 948.886 96.414C948.634 96.5353 948.424 96.7127 948.256 96.946V102H946.338ZM958.305 104.996C957.745 104.996 957.204 104.935 956.681 104.814C956.158 104.702 955.687 104.539 955.267 104.324L955.939 102.84C956.34 103.036 956.732 103.181 957.115 103.274C957.498 103.367 957.88 103.414 958.263 103.414C958.832 103.414 959.262 103.293 959.551 103.05C959.85 102.807 959.999 102.443 959.999 101.958V101.384C959.402 101.823 958.734 102.042 957.997 102.042C957.306 102.042 956.681 101.879 956.121 101.552C955.57 101.216 955.127 100.763 954.791 100.194C954.464 99.6247 954.301 98.9947 954.301 98.304C954.301 97.6133 954.464 96.988 954.791 96.428C955.127 95.868 955.58 95.4247 956.149 95.098C956.718 94.762 957.353 94.594 958.053 94.594C958.408 94.594 958.753 94.6453 959.089 94.748C959.425 94.8507 959.738 94.9953 960.027 95.182V94.706H961.917V101.986C961.917 102.947 961.604 103.689 960.979 104.212C960.363 104.735 959.472 104.996 958.305 104.996ZM958.291 100.418C958.646 100.418 958.968 100.362 959.257 100.25C959.546 100.129 959.794 99.9607 959.999 99.746V96.89C959.794 96.6847 959.542 96.526 959.243 96.414C958.954 96.2927 958.641 96.232 958.305 96.232C957.904 96.232 957.544 96.3253 957.227 96.512C956.91 96.6893 956.658 96.9367 956.471 97.254C956.284 97.562 956.191 97.912 956.191 98.304C956.191 98.7053 956.28 99.0647 956.457 99.382C956.644 99.6993 956.896 99.9513 957.213 100.138C957.54 100.325 957.899 100.418 958.291 100.418ZM966.984 102.14C966.256 102.14 965.594 101.972 964.996 101.636C964.408 101.3 963.942 100.847 963.596 100.278C963.251 99.7087 963.078 99.0693 963.078 98.36C963.078 97.6507 963.242 97.0113 963.568 96.442C963.904 95.8727 964.357 95.42 964.926 95.084C965.496 94.748 966.13 94.58 966.83 94.58C967.53 94.58 968.151 94.7527 968.692 95.098C969.234 95.4433 969.658 95.91 969.966 96.498C970.284 97.086 970.442 97.7533 970.442 98.5V99.004H965.038C965.122 99.2933 965.258 99.5547 965.444 99.788C965.64 100.021 965.878 100.203 966.158 100.334C966.448 100.465 966.756 100.53 967.082 100.53C967.409 100.53 967.708 100.479 967.978 100.376C968.258 100.273 968.496 100.129 968.692 99.942L969.952 101.09C969.504 101.454 969.042 101.72 968.566 101.888C968.1 102.056 967.572 102.14 966.984 102.14ZM965.01 97.632H968.552C968.487 97.3427 968.366 97.0907 968.188 96.876C968.02 96.652 967.815 96.4793 967.572 96.358C967.339 96.2273 967.078 96.162 966.788 96.162C966.49 96.162 966.219 96.2227 965.976 96.344C965.734 96.4653 965.528 96.638 965.36 96.862C965.202 97.0767 965.085 97.3333 965.01 97.632Z" fill="#20184E"/>
<g filter="url(#filter4_d_195_14969)">
<circle cx="1208" cy="222" r="70" fill="white"/>
</g>
<path d="M1187.68 227V217.2H1189.71V225.208H1195.07V227H1187.68ZM1198.67 227.126C1198.14 227.126 1197.68 227.033 1197.28 226.846C1196.88 226.65 1196.57 226.384 1196.34 226.048C1196.12 225.712 1196.01 225.325 1196.01 224.886C1196.01 224.186 1196.27 223.645 1196.79 223.262C1197.32 222.87 1198.05 222.674 1198.97 222.674C1199.61 222.674 1200.21 222.772 1200.77 222.968V222.436C1200.77 222.016 1200.64 221.699 1200.37 221.484C1200.11 221.269 1199.73 221.162 1199.23 221.162C1198.92 221.162 1198.59 221.213 1198.23 221.316C1197.88 221.409 1197.47 221.559 1197 221.764L1196.3 220.35C1196.88 220.089 1197.43 219.893 1197.95 219.762C1198.48 219.631 1199.02 219.566 1199.55 219.566C1200.53 219.566 1201.29 219.804 1201.83 220.28C1202.38 220.747 1202.66 221.409 1202.66 222.268V227H1200.77V226.482C1200.47 226.706 1200.15 226.869 1199.8 226.972C1199.45 227.075 1199.08 227.126 1198.67 227.126ZM1197.83 224.844C1197.83 225.124 1197.95 225.348 1198.19 225.516C1198.43 225.675 1198.75 225.754 1199.16 225.754C1199.47 225.754 1199.77 225.717 1200.04 225.642C1200.31 225.558 1200.55 225.437 1200.77 225.278V224.214C1200.53 224.121 1200.29 224.051 1200.04 224.004C1199.79 223.957 1199.52 223.934 1199.23 223.934C1198.79 223.934 1198.44 224.018 1198.19 224.186C1197.95 224.345 1197.83 224.564 1197.83 224.844ZM1205.36 227L1203.35 219.706H1205.17L1206.38 224.41L1207.83 219.706H1209.44L1210.89 224.424L1212.09 219.706H1213.88L1211.87 227H1210.03L1208.62 222.338L1207.2 227H1205.36ZM1214.79 227V219.706H1216.7V220.308C1217.25 219.813 1217.94 219.566 1218.75 219.566C1219.32 219.566 1219.82 219.692 1220.25 219.944C1220.68 220.187 1221.02 220.527 1221.27 220.966C1221.51 221.395 1221.63 221.899 1221.63 222.478V227H1219.71V222.758C1219.71 222.282 1219.58 221.909 1219.31 221.638C1219.04 221.358 1218.67 221.218 1218.2 221.218C1217.87 221.218 1217.59 221.283 1217.33 221.414C1217.08 221.535 1216.87 221.713 1216.7 221.946V227H1214.79ZM1225.81 227.14C1225.14 227.14 1224.52 227.056 1223.95 226.888C1223.38 226.711 1222.89 226.459 1222.47 226.132L1223.42 224.858C1223.84 225.138 1224.24 225.348 1224.62 225.488C1225.02 225.628 1225.4 225.698 1225.79 225.698C1226.22 225.698 1226.56 225.628 1226.81 225.488C1227.07 225.339 1227.2 225.147 1227.2 224.914C1227.2 224.727 1227.13 224.578 1226.98 224.466C1226.84 224.354 1226.61 224.275 1226.29 224.228L1224.89 224.018C1224.16 223.906 1223.61 223.673 1223.24 223.318C1222.86 222.954 1222.68 222.478 1222.68 221.89C1222.68 221.414 1222.8 221.008 1223.04 220.672C1223.29 220.327 1223.64 220.061 1224.09 219.874C1224.55 219.678 1225.09 219.58 1225.72 219.58C1226.25 219.58 1226.77 219.655 1227.27 219.804C1227.78 219.953 1228.26 220.182 1228.71 220.49L1227.79 221.736C1227.39 221.484 1227 221.302 1226.64 221.19C1226.28 221.078 1225.91 221.022 1225.53 221.022C1225.19 221.022 1224.91 221.087 1224.69 221.218C1224.49 221.349 1224.39 221.521 1224.39 221.736C1224.39 221.932 1224.46 222.086 1224.61 222.198C1224.76 222.31 1225.02 222.389 1225.38 222.436L1226.77 222.646C1227.49 222.749 1228.05 222.982 1228.43 223.346C1228.81 223.701 1229.01 224.163 1229.01 224.732C1229.01 225.199 1228.87 225.614 1228.59 225.978C1228.31 226.333 1227.93 226.617 1227.45 226.832C1226.98 227.037 1226.43 227.14 1225.81 227.14Z" fill="#20184E"/>
<g filter="url(#filter5_d_195_14969)">
<circle cx="306.5" cy="104.5" r="57.5" fill="white"/>
</g>
<path d="M271.005 102.12C270.381 102.12 269.797 102.012 269.253 101.796C268.709 101.572 268.233 101.264 267.825 100.872C267.425 100.48 267.109 100.024 266.877 99.504C266.653 98.976 266.541 98.408 266.541 97.8C266.541 97.184 266.653 96.616 266.877 96.096C267.109 95.568 267.429 95.108 267.837 94.716C268.245 94.324 268.717 94.02 269.253 93.804C269.797 93.58 270.381 93.468 271.005 93.468C271.469 93.468 271.917 93.532 272.349 93.66C272.781 93.788 273.181 93.968 273.549 94.2C273.925 94.432 274.245 94.712 274.509 95.04L273.333 96.204C273.029 95.828 272.677 95.544 272.277 95.352C271.885 95.16 271.461 95.064 271.005 95.064C270.629 95.064 270.277 95.136 269.949 95.28C269.621 95.416 269.337 95.608 269.097 95.856C268.857 96.096 268.669 96.384 268.533 96.72C268.397 97.048 268.329 97.408 268.329 97.8C268.329 98.184 268.397 98.544 268.533 98.88C268.669 99.208 268.861 99.496 269.109 99.744C269.357 99.984 269.645 100.172 269.973 100.308C270.309 100.444 270.673 100.512 271.065 100.512C271.505 100.512 271.917 100.42 272.301 100.236C272.685 100.052 273.025 99.788 273.321 99.444L274.461 100.572C274.197 100.892 273.881 101.168 273.513 101.4C273.145 101.632 272.745 101.812 272.313 101.94C271.889 102.06 271.453 102.12 271.005 102.12ZM278.243 102.12C277.619 102.12 277.055 101.976 276.551 101.688C276.047 101.4 275.647 101.012 275.351 100.524C275.055 100.036 274.907 99.488 274.907 98.88C274.907 98.272 275.051 97.724 275.339 97.236C275.635 96.74 276.035 96.348 276.539 96.06C277.051 95.772 277.619 95.628 278.243 95.628C278.867 95.628 279.431 95.772 279.935 96.06C280.447 96.348 280.847 96.74 281.135 97.236C281.431 97.724 281.579 98.272 281.579 98.88C281.579 99.488 281.431 100.036 281.135 100.524C280.847 101.012 280.451 101.4 279.947 101.688C279.443 101.976 278.875 102.12 278.243 102.12ZM278.243 100.692C278.571 100.692 278.863 100.612 279.119 100.452C279.383 100.292 279.591 100.076 279.743 99.804C279.903 99.524 279.983 99.216 279.983 98.88C279.983 98.536 279.903 98.228 279.743 97.956C279.591 97.684 279.383 97.468 279.119 97.308C278.863 97.14 278.571 97.056 278.243 97.056C277.923 97.056 277.631 97.14 277.367 97.308C277.103 97.468 276.895 97.684 276.743 97.956C276.591 98.228 276.515 98.536 276.515 98.88C276.515 99.216 276.591 99.524 276.743 99.804C276.895 100.076 277.103 100.292 277.367 100.452C277.631 100.612 277.923 100.692 278.243 100.692ZM282.589 102V95.748H284.233V96.264C284.705 95.84 285.289 95.628 285.985 95.628C286.473 95.628 286.901 95.736 287.269 95.952C287.645 96.16 287.937 96.452 288.145 96.828C288.353 97.196 288.457 97.628 288.457 98.124V102H286.813V98.364C286.813 97.956 286.697 97.636 286.465 97.404C286.233 97.164 285.917 97.044 285.517 97.044C285.237 97.044 284.989 97.1 284.773 97.212C284.557 97.316 284.377 97.468 284.233 97.668V102H282.589ZM290.487 102V97.116H289.095V95.748H290.487V95.148C290.487 94.444 290.691 93.908 291.099 93.54C291.507 93.164 292.095 92.976 292.863 92.976C293.031 92.976 293.203 92.984 293.379 93C293.555 93.016 293.707 93.044 293.835 93.084V94.464C293.683 94.432 293.551 94.408 293.439 94.392C293.327 94.376 293.203 94.368 293.067 94.368C292.755 94.368 292.519 94.436 292.359 94.572C292.207 94.7 292.131 94.904 292.131 95.184V95.748H293.835V97.116H292.131V102H290.487ZM297.497 102.12C296.873 102.12 296.305 101.976 295.793 101.688C295.289 101.4 294.889 101.012 294.593 100.524C294.297 100.036 294.149 99.488 294.149 98.88C294.149 98.272 294.289 97.724 294.569 97.236C294.857 96.748 295.245 96.36 295.733 96.072C296.221 95.784 296.765 95.64 297.365 95.64C297.965 95.64 298.497 95.788 298.961 96.084C299.425 96.38 299.789 96.78 300.053 97.284C300.325 97.788 300.461 98.36 300.461 99V99.432H295.829C295.901 99.68 296.017 99.904 296.177 100.104C296.345 100.304 296.549 100.46 296.789 100.572C297.037 100.684 297.301 100.74 297.581 100.74C297.861 100.74 298.117 100.696 298.349 100.608C298.589 100.52 298.793 100.396 298.961 100.236L300.041 101.22C299.657 101.532 299.261 101.76 298.853 101.904C298.453 102.048 298.001 102.12 297.497 102.12ZM295.805 98.256H298.841C298.785 98.008 298.681 97.792 298.529 97.608C298.385 97.416 298.209 97.268 298.001 97.164C297.801 97.052 297.577 96.996 297.329 96.996C297.073 96.996 296.841 97.048 296.633 97.152C296.425 97.256 296.249 97.404 296.105 97.596C295.969 97.78 295.869 98 295.805 98.256ZM301.468 102V95.748H303.112V96.444C303.312 96.172 303.552 95.964 303.832 95.82C304.112 95.676 304.428 95.604 304.78 95.604C305.084 95.612 305.312 95.66 305.464 95.748V97.188C305.344 97.132 305.212 97.092 305.068 97.068C304.924 97.036 304.776 97.02 304.624 97.02C304.304 97.02 304.012 97.1 303.748 97.26C303.484 97.42 303.272 97.648 303.112 97.944V102H301.468ZM309.181 102.12C308.557 102.12 307.989 101.976 307.477 101.688C306.973 101.4 306.573 101.012 306.277 100.524C305.981 100.036 305.833 99.488 305.833 98.88C305.833 98.272 305.973 97.724 306.253 97.236C306.541 96.748 306.929 96.36 307.417 96.072C307.905 95.784 308.449 95.64 309.049 95.64C309.649 95.64 310.181 95.788 310.645 96.084C311.109 96.38 311.473 96.78 311.737 97.284C312.009 97.788 312.145 98.36 312.145 99V99.432H307.513C307.585 99.68 307.701 99.904 307.861 100.104C308.029 100.304 308.233 100.46 308.473 100.572C308.721 100.684 308.985 100.74 309.265 100.74C309.545 100.74 309.801 100.696 310.033 100.608C310.273 100.52 310.477 100.396 310.645 100.236L311.725 101.22C311.341 101.532 310.945 101.76 310.537 101.904C310.137 102.048 309.685 102.12 309.181 102.12ZM307.489 98.256H310.525C310.469 98.008 310.365 97.792 310.213 97.608C310.069 97.416 309.893 97.268 309.685 97.164C309.485 97.052 309.261 96.996 309.013 96.996C308.757 96.996 308.525 97.048 308.317 97.152C308.109 97.256 307.933 97.404 307.789 97.596C307.653 97.78 307.553 98 307.489 98.256ZM313.152 102V95.748H314.796V96.264C315.268 95.84 315.852 95.628 316.548 95.628C317.036 95.628 317.464 95.736 317.832 95.952C318.208 96.16 318.5 96.452 318.708 96.828C318.916 97.196 319.02 97.628 319.02 98.124V102H317.376V98.364C317.376 97.956 317.26 97.636 317.028 97.404C316.796 97.164 316.48 97.044 316.08 97.044C315.8 97.044 315.552 97.1 315.336 97.212C315.12 97.316 314.94 97.468 314.796 97.668V102H313.152ZM323.253 102.12C322.637 102.12 322.081 101.98 321.585 101.7C321.089 101.412 320.697 101.024 320.409 100.536C320.121 100.04 319.977 99.488 319.977 98.88C319.977 98.264 320.121 97.712 320.409 97.224C320.697 96.736 321.089 96.348 321.585 96.06C322.081 95.772 322.637 95.628 323.253 95.628C323.749 95.628 324.221 95.724 324.669 95.916C325.125 96.108 325.517 96.384 325.845 96.744L324.837 97.812C324.605 97.556 324.361 97.368 324.105 97.248C323.857 97.12 323.585 97.056 323.289 97.056C322.969 97.056 322.681 97.136 322.425 97.296C322.177 97.456 321.977 97.672 321.825 97.944C321.681 98.216 321.609 98.528 321.609 98.88C321.609 99.216 321.681 99.524 321.825 99.804C321.977 100.076 322.185 100.292 322.449 100.452C322.713 100.604 323.005 100.68 323.325 100.68C323.605 100.68 323.865 100.624 324.105 100.512C324.353 100.392 324.589 100.216 324.813 99.984L325.797 101.016C325.477 101.36 325.093 101.632 324.645 101.832C324.197 102.024 323.733 102.12 323.253 102.12ZM329.536 102.12C328.912 102.12 328.344 101.976 327.832 101.688C327.328 101.4 326.928 101.012 326.632 100.524C326.336 100.036 326.188 99.488 326.188 98.88C326.188 98.272 326.328 97.724 326.608 97.236C326.896 96.748 327.284 96.36 327.772 96.072C328.26 95.784 328.804 95.64 329.404 95.64C330.004 95.64 330.536 95.788 331 96.084C331.464 96.38 331.828 96.78 332.092 97.284C332.364 97.788 332.5 98.36 332.5 99V99.432H327.868C327.94 99.68 328.056 99.904 328.216 100.104C328.384 100.304 328.588 100.46 328.828 100.572C329.076 100.684 329.34 100.74 329.62 100.74C329.9 100.74 330.156 100.696 330.388 100.608C330.628 100.52 330.832 100.396 331 100.236L332.08 101.22C331.696 101.532 331.3 101.76 330.892 101.904C330.492 102.048 330.04 102.12 329.536 102.12ZM327.844 98.256H330.88C330.824 98.008 330.72 97.792 330.568 97.608C330.424 97.416 330.248 97.268 330.04 97.164C329.84 97.052 329.616 96.996 329.368 96.996C329.112 96.996 328.88 97.048 328.672 97.152C328.464 97.256 328.288 97.404 328.144 97.596C328.008 97.78 327.908 98 327.844 98.256ZM338.525 102.132C337.941 102.132 337.425 102.032 336.977 101.832C336.537 101.632 336.193 101.352 335.945 100.992C335.697 100.624 335.573 100.204 335.573 99.732C335.573 99.396 335.625 99.096 335.729 98.832C335.833 98.568 336.001 98.324 336.233 98.1C336.473 97.876 336.793 97.648 337.193 97.416C336.937 97.088 336.757 96.784 336.653 96.504C336.549 96.216 336.497 95.908 336.497 95.58C336.497 95.18 336.597 94.82 336.797 94.5C336.997 94.18 337.273 93.928 337.625 93.744C337.985 93.56 338.389 93.468 338.837 93.468C339.277 93.468 339.665 93.556 340.001 93.732C340.345 93.9 340.617 94.132 340.817 94.428C341.017 94.724 341.117 95.064 341.117 95.448C341.117 95.816 341.017 96.152 340.817 96.456C340.625 96.752 340.329 97.024 339.929 97.272L339.317 97.644C339.557 97.892 339.813 98.152 340.085 98.424C340.357 98.688 340.637 98.952 340.925 99.216C341.069 98.952 341.193 98.66 341.297 98.34C341.409 98.02 341.505 97.68 341.585 97.32L343.001 97.548C342.881 98.076 342.737 98.556 342.569 98.988C342.401 99.42 342.205 99.804 341.981 100.14C342.189 100.316 342.385 100.48 342.569 100.632C342.761 100.776 342.965 100.928 343.181 101.088L342.197 102.252C342.013 102.1 341.817 101.948 341.609 101.796C341.409 101.636 341.209 101.472 341.009 101.304C340.673 101.576 340.293 101.784 339.869 101.928C339.453 102.064 339.005 102.132 338.525 102.132ZM338.525 96.708L339.017 96.42C339.233 96.284 339.389 96.144 339.485 96C339.581 95.848 339.629 95.68 339.629 95.496C339.629 95.264 339.549 95.072 339.389 94.92C339.229 94.76 339.033 94.68 338.801 94.68C338.561 94.68 338.361 94.764 338.201 94.932C338.049 95.092 337.973 95.3 337.973 95.556C337.973 95.732 338.013 95.904 338.093 96.072C338.173 96.24 338.317 96.452 338.525 96.708ZM338.645 100.836C338.893 100.836 339.129 100.8 339.353 100.728C339.577 100.656 339.781 100.544 339.965 100.392C339.605 100.064 339.257 99.732 338.921 99.396C338.593 99.06 338.281 98.724 337.985 98.388C337.761 98.516 337.581 98.644 337.445 98.772C337.317 98.892 337.225 99.02 337.169 99.156C337.113 99.292 337.085 99.444 337.085 99.612C337.085 99.988 337.225 100.288 337.505 100.512C337.785 100.728 338.165 100.836 338.645 100.836ZM265.248 118V109.6H267.48L269.784 114.136L272.088 109.6H274.32V118H272.676V111.82L269.76 117.4L266.856 111.796V118H265.248ZM278.782 118.12C278.158 118.12 277.59 117.976 277.078 117.688C276.574 117.4 276.174 117.012 275.878 116.524C275.582 116.036 275.434 115.488 275.434 114.88C275.434 114.272 275.574 113.724 275.854 113.236C276.142 112.748 276.53 112.36 277.018 112.072C277.506 111.784 278.05 111.64 278.65 111.64C279.25 111.64 279.782 111.788 280.246 112.084C280.71 112.38 281.074 112.78 281.338 113.284C281.61 113.788 281.746 114.36 281.746 115V115.432H277.114C277.186 115.68 277.302 115.904 277.462 116.104C277.63 116.304 277.834 116.46 278.074 116.572C278.322 116.684 278.586 116.74 278.866 116.74C279.146 116.74 279.402 116.696 279.634 116.608C279.874 116.52 280.078 116.396 280.246 116.236L281.326 117.22C280.942 117.532 280.546 117.76 280.138 117.904C279.738 118.048 279.286 118.12 278.782 118.12ZM277.09 114.256H280.126C280.07 114.008 279.966 113.792 279.814 113.608C279.67 113.416 279.494 113.268 279.286 113.164C279.086 113.052 278.862 112.996 278.614 112.996C278.358 112.996 278.126 113.048 277.918 113.152C277.71 113.256 277.534 113.404 277.39 113.596C277.254 113.78 277.154 114 277.09 114.256ZM285.86 118.12C285.236 118.12 284.668 117.976 284.156 117.688C283.652 117.4 283.252 117.012 282.956 116.524C282.66 116.036 282.512 115.488 282.512 114.88C282.512 114.272 282.652 113.724 282.932 113.236C283.22 112.748 283.608 112.36 284.096 112.072C284.584 111.784 285.128 111.64 285.728 111.64C286.328 111.64 286.86 111.788 287.324 112.084C287.788 112.38 288.152 112.78 288.416 113.284C288.688 113.788 288.824 114.36 288.824 115V115.432H284.192C284.264 115.68 284.38 115.904 284.54 116.104C284.708 116.304 284.912 116.46 285.152 116.572C285.4 116.684 285.664 116.74 285.944 116.74C286.224 116.74 286.48 116.696 286.712 116.608C286.952 116.52 287.156 116.396 287.324 116.236L288.404 117.22C288.02 117.532 287.624 117.76 287.216 117.904C286.816 118.048 286.364 118.12 285.86 118.12ZM284.168 114.256H287.204C287.148 114.008 287.044 113.792 286.892 113.608C286.748 113.416 286.572 113.268 286.364 113.164C286.164 113.052 285.94 112.996 285.692 112.996C285.436 112.996 285.204 113.048 284.996 113.152C284.788 113.256 284.612 113.404 284.468 113.596C284.332 113.78 284.232 114 284.168 114.256ZM292.62 118.096C291.924 118.096 291.396 117.94 291.036 117.628C290.684 117.308 290.508 116.844 290.508 116.236V113.116H289.224V111.748H290.508V110.152L292.152 109.78V111.748H293.94V113.116H292.152V115.9C292.152 116.188 292.216 116.396 292.344 116.524C292.472 116.644 292.696 116.704 293.016 116.704C293.176 116.704 293.32 116.696 293.448 116.68C293.584 116.656 293.732 116.616 293.892 116.56V117.916C293.724 117.972 293.512 118.016 293.256 118.048C293.008 118.08 292.796 118.096 292.62 118.096ZM294.742 118V111.748H296.386V118H294.742ZM295.558 111.004C295.302 111.004 295.082 110.912 294.898 110.728C294.714 110.544 294.622 110.324 294.622 110.068C294.622 109.804 294.714 109.584 294.898 109.408C295.082 109.224 295.302 109.132 295.558 109.132C295.822 109.132 296.042 109.224 296.218 109.408C296.402 109.584 296.494 109.804 296.494 110.068C296.494 110.324 296.402 110.544 296.218 110.728C296.042 110.912 295.822 111.004 295.558 111.004ZM297.671 118V111.748H299.315V112.264C299.787 111.84 300.371 111.628 301.067 111.628C301.555 111.628 301.983 111.736 302.351 111.952C302.727 112.16 303.019 112.452 303.227 112.828C303.435 113.196 303.539 113.628 303.539 114.124V118H301.895V114.364C301.895 113.956 301.779 113.636 301.547 113.404C301.315 113.164 300.999 113.044 300.599 113.044C300.319 113.044 300.071 113.1 299.855 113.212C299.639 113.316 299.459 113.468 299.315 113.668V118H297.671ZM307.929 120.568C307.449 120.568 306.985 120.516 306.537 120.412C306.089 120.316 305.685 120.176 305.325 119.992L305.901 118.72C306.245 118.888 306.581 119.012 306.909 119.092C307.237 119.172 307.565 119.212 307.893 119.212C308.381 119.212 308.749 119.108 308.997 118.9C309.253 118.692 309.381 118.38 309.381 117.964V117.472C308.869 117.848 308.297 118.036 307.665 118.036C307.073 118.036 306.537 117.896 306.057 117.616C305.585 117.328 305.205 116.94 304.917 116.452C304.637 115.964 304.497 115.424 304.497 114.832C304.497 114.24 304.637 113.704 304.917 113.224C305.205 112.744 305.593 112.364 306.081 112.084C306.569 111.796 307.113 111.652 307.713 111.652C308.017 111.652 308.313 111.696 308.601 111.784C308.889 111.872 309.157 111.996 309.405 112.156V111.748H311.025V117.988C311.025 118.812 310.757 119.448 310.221 119.896C309.693 120.344 308.929 120.568 307.929 120.568ZM307.917 116.644C308.221 116.644 308.497 116.596 308.745 116.5C308.993 116.396 309.205 116.252 309.381 116.068V113.62C309.205 113.444 308.989 113.308 308.733 113.212C308.485 113.108 308.217 113.056 307.929 113.056C307.585 113.056 307.277 113.136 307.005 113.296C306.733 113.448 306.517 113.66 306.357 113.932C306.197 114.196 306.117 114.496 306.117 114.832C306.117 115.176 306.193 115.484 306.345 115.756C306.505 116.028 306.721 116.244 306.993 116.404C307.273 116.564 307.581 116.644 307.917 116.644ZM314.83 118V109.6H318.934C319.502 109.6 320.002 109.712 320.434 109.936C320.874 110.152 321.214 110.456 321.454 110.848C321.702 111.24 321.826 111.692 321.826 112.204C321.826 112.74 321.678 113.212 321.382 113.62C321.086 114.028 320.69 114.332 320.194 114.532L322.054 118H320.11L318.466 114.784H316.57V118H314.83ZM316.57 113.356H318.778C319.17 113.356 319.482 113.252 319.714 113.044C319.954 112.836 320.074 112.564 320.074 112.228C320.074 111.892 319.954 111.62 319.714 111.412C319.482 111.204 319.17 111.1 318.778 111.1H316.57V113.356ZM325.551 118.12C324.927 118.12 324.363 117.976 323.859 117.688C323.355 117.4 322.955 117.012 322.659 116.524C322.363 116.036 322.215 115.488 322.215 114.88C322.215 114.272 322.359 113.724 322.647 113.236C322.943 112.74 323.343 112.348 323.847 112.06C324.359 111.772 324.927 111.628 325.551 111.628C326.175 111.628 326.739 111.772 327.243 112.06C327.755 112.348 328.155 112.74 328.443 113.236C328.739 113.724 328.887 114.272 328.887 114.88C328.887 115.488 328.739 116.036 328.443 116.524C328.155 117.012 327.759 117.4 327.255 117.688C326.751 117.976 326.183 118.12 325.551 118.12ZM325.551 116.692C325.879 116.692 326.171 116.612 326.427 116.452C326.691 116.292 326.899 116.076 327.051 115.804C327.211 115.524 327.291 115.216 327.291 114.88C327.291 114.536 327.211 114.228 327.051 113.956C326.899 113.684 326.691 113.468 326.427 113.308C326.171 113.14 325.879 113.056 325.551 113.056C325.231 113.056 324.939 113.14 324.675 113.308C324.411 113.468 324.203 113.684 324.051 113.956C323.899 114.228 323.823 114.536 323.823 114.88C323.823 115.216 323.899 115.524 324.051 115.804C324.203 116.076 324.411 116.292 324.675 116.452C324.939 116.612 325.231 116.692 325.551 116.692ZM332.946 118.12C332.322 118.12 331.758 117.976 331.254 117.688C330.75 117.4 330.35 117.012 330.054 116.524C329.758 116.036 329.61 115.488 329.61 114.88C329.61 114.272 329.754 113.724 330.042 113.236C330.338 112.74 330.738 112.348 331.242 112.06C331.754 111.772 332.322 111.628 332.946 111.628C333.57 111.628 334.134 111.772 334.638 112.06C335.15 112.348 335.55 112.74 335.838 113.236C336.134 113.724 336.282 114.272 336.282 114.88C336.282 115.488 336.134 116.036 335.838 116.524C335.55 117.012 335.154 117.4 334.65 117.688C334.146 117.976 333.578 118.12 332.946 118.12ZM332.946 116.692C333.274 116.692 333.566 116.612 333.822 116.452C334.086 116.292 334.294 116.076 334.446 115.804C334.606 115.524 334.686 115.216 334.686 114.88C334.686 114.536 334.606 114.228 334.446 113.956C334.294 113.684 334.086 113.468 333.822 113.308C333.566 113.14 333.274 113.056 332.946 113.056C332.626 113.056 332.334 113.14 332.07 113.308C331.806 113.468 331.598 113.684 331.446 113.956C331.294 114.228 331.218 114.536 331.218 114.88C331.218 115.216 331.294 115.524 331.446 115.804C331.598 116.076 331.806 116.292 332.07 116.452C332.334 116.612 332.626 116.692 332.946 116.692ZM337.293 118V111.748H338.937V112.228C339.385 111.828 339.929 111.628 340.569 111.628C340.977 111.628 341.341 111.712 341.661 111.88C341.981 112.04 342.245 112.268 342.453 112.564C342.709 112.26 343.009 112.028 343.353 111.868C343.705 111.708 344.093 111.628 344.517 111.628C344.989 111.628 345.401 111.736 345.753 111.952C346.113 112.16 346.393 112.452 346.593 112.828C346.801 113.196 346.905 113.628 346.905 114.124V118H345.273V114.364C345.273 113.956 345.165 113.636 344.949 113.404C344.733 113.164 344.445 113.044 344.085 113.044C343.837 113.044 343.609 113.096 343.401 113.2C343.201 113.304 343.029 113.46 342.885 113.668C342.893 113.74 342.901 113.812 342.909 113.884C342.917 113.956 342.921 114.036 342.921 114.124V118H341.277V114.364C341.277 113.956 341.169 113.636 340.953 113.404C340.745 113.164 340.461 113.044 340.101 113.044C339.853 113.044 339.629 113.092 339.429 113.188C339.237 113.284 339.073 113.428 338.937 113.62V118H337.293Z" fill="#20184E"/>
<g filter="url(#filter6_d_195_14969)">
<circle cx="689.5" cy="122.5" r="57.5" fill="white"/>
</g>
<path d="M665.652 118V109.992H662.348V108.2H670.972V109.992H667.682V118H665.652ZM671.384 118V110.706H673.302V111.518C673.535 111.201 673.815 110.958 674.142 110.79C674.468 110.622 674.837 110.538 675.248 110.538C675.602 110.547 675.868 110.603 676.046 110.706V112.386C675.906 112.321 675.752 112.274 675.584 112.246C675.416 112.209 675.243 112.19 675.066 112.19C674.692 112.19 674.352 112.283 674.044 112.47C673.736 112.657 673.488 112.923 673.302 113.268V118H671.384ZM679.217 118.126C678.695 118.126 678.233 118.033 677.831 117.846C677.43 117.65 677.117 117.384 676.893 117.048C676.669 116.712 676.557 116.325 676.557 115.886C676.557 115.186 676.819 114.645 677.341 114.262C677.873 113.87 678.601 113.674 679.525 113.674C680.16 113.674 680.757 113.772 681.317 113.968V113.436C681.317 113.016 681.187 112.699 680.925 112.484C680.664 112.269 680.281 112.162 679.777 112.162C679.469 112.162 679.138 112.213 678.783 112.316C678.429 112.409 678.018 112.559 677.551 112.764L676.851 111.35C677.43 111.089 677.981 110.893 678.503 110.762C679.035 110.631 679.567 110.566 680.099 110.566C681.079 110.566 681.84 110.804 682.381 111.28C682.932 111.747 683.207 112.409 683.207 113.268V118H681.317V117.482C681.019 117.706 680.697 117.869 680.351 117.972C680.006 118.075 679.628 118.126 679.217 118.126ZM678.377 115.844C678.377 116.124 678.499 116.348 678.741 116.516C678.984 116.675 679.306 116.754 679.707 116.754C680.025 116.754 680.319 116.717 680.589 116.642C680.86 116.558 681.103 116.437 681.317 116.278V115.214C681.084 115.121 680.841 115.051 680.589 115.004C680.337 114.957 680.067 114.934 679.777 114.934C679.339 114.934 678.993 115.018 678.741 115.186C678.499 115.345 678.377 115.564 678.377 115.844ZM684.659 118V110.706H686.577V118H684.659ZM685.611 109.838C685.312 109.838 685.056 109.731 684.841 109.516C684.626 109.301 684.519 109.045 684.519 108.746C684.519 108.438 684.626 108.181 684.841 107.976C685.056 107.761 685.312 107.654 685.611 107.654C685.919 107.654 686.176 107.761 686.381 107.976C686.596 108.181 686.703 108.438 686.703 108.746C686.703 109.045 686.596 109.301 686.381 109.516C686.176 109.731 685.919 109.838 685.611 109.838ZM688.077 118V110.706H689.995V111.308C690.546 110.813 691.227 110.566 692.039 110.566C692.608 110.566 693.108 110.692 693.537 110.944C693.976 111.187 694.316 111.527 694.559 111.966C694.802 112.395 694.923 112.899 694.923 113.478V118H693.005V113.758C693.005 113.282 692.87 112.909 692.599 112.638C692.328 112.358 691.96 112.218 691.493 112.218C691.166 112.218 690.877 112.283 690.625 112.414C690.373 112.535 690.163 112.713 689.995 112.946V118H688.077ZM696.376 118V110.706H698.294V118H696.376ZM697.328 109.838C697.029 109.838 696.772 109.731 696.558 109.516C696.343 109.301 696.236 109.045 696.236 108.746C696.236 108.438 696.343 108.181 696.558 107.976C696.772 107.761 697.029 107.654 697.328 107.654C697.636 107.654 697.892 107.761 698.098 107.976C698.312 108.181 698.42 108.438 698.42 108.746C698.42 109.045 698.312 109.301 698.098 109.516C697.892 109.731 697.636 109.838 697.328 109.838ZM699.794 118V110.706H701.712V111.308C702.262 110.813 702.944 110.566 703.756 110.566C704.325 110.566 704.824 110.692 705.254 110.944C705.692 111.187 706.033 111.527 706.276 111.966C706.518 112.395 706.64 112.899 706.64 113.478V118H704.722V113.758C704.722 113.282 704.586 112.909 704.316 112.638C704.045 112.358 703.676 112.218 703.21 112.218C702.883 112.218 702.594 112.283 702.342 112.414C702.09 112.535 701.88 112.713 701.712 112.946V118H699.794ZM711.76 120.996C711.2 120.996 710.659 120.935 710.136 120.814C709.614 120.702 709.142 120.539 708.722 120.324L709.394 118.84C709.796 119.036 710.188 119.181 710.57 119.274C710.953 119.367 711.336 119.414 711.718 119.414C712.288 119.414 712.717 119.293 713.006 119.05C713.305 118.807 713.454 118.443 713.454 117.958V117.384C712.857 117.823 712.19 118.042 711.452 118.042C710.762 118.042 710.136 117.879 709.576 117.552C709.026 117.216 708.582 116.763 708.246 116.194C707.92 115.625 707.756 114.995 707.756 114.304C707.756 113.613 707.92 112.988 708.246 112.428C708.582 111.868 709.035 111.425 709.604 111.098C710.174 110.762 710.808 110.594 711.508 110.594C711.863 110.594 712.208 110.645 712.544 110.748C712.88 110.851 713.193 110.995 713.482 111.182V110.706H715.372V117.986C715.372 118.947 715.06 119.689 714.434 120.212C713.818 120.735 712.927 120.996 711.76 120.996ZM711.746 116.418C712.101 116.418 712.423 116.362 712.712 116.25C713.002 116.129 713.249 115.961 713.454 115.746V112.89C713.249 112.685 712.997 112.526 712.698 112.414C712.409 112.293 712.096 112.232 711.76 112.232C711.359 112.232 711 112.325 710.682 112.512C710.365 112.689 710.113 112.937 709.926 113.254C709.74 113.562 709.646 113.912 709.646 114.304C709.646 114.705 709.735 115.065 709.912 115.382C710.099 115.699 710.351 115.951 710.668 116.138C710.995 116.325 711.354 116.418 711.746 116.418ZM667.046 136V126.2H671.834C672.496 126.2 673.08 126.331 673.584 126.592C674.097 126.844 674.494 127.199 674.774 127.656C675.063 128.113 675.208 128.641 675.208 129.238C675.208 129.863 675.035 130.414 674.69 130.89C674.344 131.366 673.882 131.721 673.304 131.954L675.474 136H673.206L671.288 132.248H669.076V136H667.046ZM669.076 130.582H671.652C672.109 130.582 672.473 130.461 672.744 130.218C673.024 129.975 673.164 129.658 673.164 129.266C673.164 128.874 673.024 128.557 672.744 128.314C672.473 128.071 672.109 127.95 671.652 127.95H669.076V130.582ZM679.554 136.14C678.826 136.14 678.168 135.972 677.58 135.636C676.992 135.3 676.525 134.847 676.18 134.278C675.834 133.709 675.662 133.069 675.662 132.36C675.662 131.651 675.83 131.011 676.166 130.442C676.511 129.863 676.978 129.406 677.566 129.07C678.163 128.734 678.826 128.566 679.554 128.566C680.282 128.566 680.94 128.734 681.528 129.07C682.125 129.406 682.592 129.863 682.928 130.442C683.273 131.011 683.446 131.651 683.446 132.36C683.446 133.069 683.273 133.709 682.928 134.278C682.592 134.847 682.13 135.3 681.542 135.636C680.954 135.972 680.291 136.14 679.554 136.14ZM679.554 134.474C679.936 134.474 680.277 134.381 680.576 134.194C680.884 134.007 681.126 133.755 681.304 133.438C681.49 133.111 681.584 132.752 681.584 132.36C681.584 131.959 681.49 131.599 681.304 131.282C681.126 130.965 680.884 130.713 680.576 130.526C680.277 130.33 679.936 130.232 679.554 130.232C679.18 130.232 678.84 130.33 678.532 130.526C678.224 130.713 677.981 130.965 677.804 131.282C677.626 131.599 677.538 131.959 677.538 132.36C677.538 132.752 677.626 133.111 677.804 133.438C677.981 133.755 678.224 134.007 678.532 134.194C678.84 134.381 679.18 134.474 679.554 134.474ZM688.181 136.14C687.453 136.14 686.795 135.972 686.207 135.636C685.619 135.3 685.152 134.847 684.807 134.278C684.461 133.709 684.289 133.069 684.289 132.36C684.289 131.651 684.457 131.011 684.793 130.442C685.138 129.863 685.605 129.406 686.193 129.07C686.79 128.734 687.453 128.566 688.181 128.566C688.909 128.566 689.567 128.734 690.155 129.07C690.752 129.406 691.219 129.863 691.555 130.442C691.9 131.011 692.073 131.651 692.073 132.36C692.073 133.069 691.9 133.709 691.555 134.278C691.219 134.847 690.757 135.3 690.169 135.636C689.581 135.972 688.918 136.14 688.181 136.14ZM688.181 134.474C688.563 134.474 688.904 134.381 689.203 134.194C689.511 134.007 689.753 133.755 689.931 133.438C690.117 133.111 690.211 132.752 690.211 132.36C690.211 131.959 690.117 131.599 689.931 131.282C689.753 130.965 689.511 130.713 689.203 130.526C688.904 130.33 688.563 130.232 688.181 130.232C687.807 130.232 687.467 130.33 687.159 130.526C686.851 130.713 686.608 130.965 686.431 131.282C686.253 131.599 686.165 131.959 686.165 132.36C686.165 132.752 686.253 133.111 686.431 133.438C686.608 133.755 686.851 134.007 687.159 134.194C687.467 134.381 687.807 134.474 688.181 134.474ZM693.252 136V128.706H695.17V129.266C695.692 128.799 696.327 128.566 697.074 128.566C697.55 128.566 697.974 128.664 698.348 128.86C698.721 129.047 699.029 129.313 699.272 129.658C699.57 129.303 699.92 129.033 700.322 128.846C700.732 128.659 701.185 128.566 701.68 128.566C702.23 128.566 702.711 128.692 703.122 128.944C703.542 129.187 703.868 129.527 704.102 129.966C704.344 130.395 704.466 130.899 704.466 131.478V136H702.562V131.758C702.562 131.282 702.436 130.909 702.184 130.638C701.932 130.358 701.596 130.218 701.176 130.218C700.886 130.218 700.62 130.279 700.378 130.4C700.144 130.521 699.944 130.703 699.776 130.946C699.785 131.03 699.794 131.114 699.804 131.198C699.813 131.282 699.818 131.375 699.818 131.478V136H697.9V131.758C697.9 131.282 697.774 130.909 697.522 130.638C697.279 130.358 696.948 130.218 696.528 130.218C696.238 130.218 695.977 130.274 695.744 130.386C695.52 130.498 695.328 130.666 695.17 130.89V136H693.252ZM708.655 136.14C707.983 136.14 707.363 136.056 706.793 135.888C706.224 135.711 705.729 135.459 705.309 135.132L706.261 133.858C706.681 134.138 707.083 134.348 707.465 134.488C707.857 134.628 708.245 134.698 708.627 134.698C709.057 134.698 709.397 134.628 709.649 134.488C709.911 134.339 710.041 134.147 710.041 133.914C710.041 133.727 709.967 133.578 709.817 133.466C709.677 133.354 709.449 133.275 709.131 133.228L707.731 133.018C707.003 132.906 706.453 132.673 706.079 132.318C705.706 131.954 705.519 131.478 705.519 130.89C705.519 130.414 705.641 130.008 705.883 129.672C706.135 129.327 706.485 129.061 706.933 128.874C707.391 128.678 707.932 128.58 708.557 128.58C709.089 128.58 709.607 128.655 710.111 128.804C710.625 128.953 711.105 129.182 711.553 129.49L710.629 130.736C710.228 130.484 709.845 130.302 709.481 130.19C709.117 130.078 708.749 130.022 708.375 130.022C708.03 130.022 707.75 130.087 707.535 130.218C707.33 130.349 707.227 130.521 707.227 130.736C707.227 130.932 707.302 131.086 707.451 131.198C707.601 131.31 707.857 131.389 708.221 131.436L709.607 131.646C710.335 131.749 710.891 131.982 711.273 132.346C711.656 132.701 711.847 133.163 711.847 133.732C711.847 134.199 711.707 134.614 711.427 134.978C711.147 135.333 710.769 135.617 710.293 135.832C709.817 136.037 709.271 136.14 708.655 136.14Z" fill="#20184E"/>
<g filter="url(#filter7_d_195_14969)">
<circle cx="1098" cy="516" r="40" fill="white"/>
</g>
<path d="M1080.06 520.12C1079.38 520.12 1078.72 519.996 1078.07 519.748C1077.42 519.492 1076.85 519.132 1076.34 518.668L1077.34 517.42C1077.83 517.852 1078.3 518.164 1078.74 518.356C1079.2 518.548 1079.68 518.644 1080.18 518.644C1080.54 518.644 1080.84 518.604 1081.1 518.524C1081.35 518.436 1081.55 518.312 1081.68 518.152C1081.83 517.992 1081.9 517.804 1081.9 517.588C1081.9 517.3 1081.8 517.08 1081.59 516.928C1081.38 516.768 1081.02 516.644 1080.52 516.556L1078.85 516.268C1078.14 516.148 1077.6 515.896 1077.22 515.512C1076.85 515.128 1076.67 514.632 1076.67 514.024C1076.67 513.504 1076.8 513.052 1077.06 512.668C1077.34 512.284 1077.72 511.992 1078.2 511.792C1078.7 511.584 1079.29 511.48 1079.97 511.48C1080.58 511.48 1081.2 511.584 1081.8 511.792C1082.42 512 1082.96 512.288 1083.44 512.656L1082.5 513.952C1081.62 513.28 1080.74 512.944 1079.85 512.944C1079.54 512.944 1079.26 512.984 1079.03 513.064C1078.8 513.144 1078.62 513.256 1078.49 513.4C1078.37 513.536 1078.31 513.7 1078.31 513.892C1078.31 514.148 1078.4 514.348 1078.59 514.492C1078.77 514.628 1079.08 514.732 1079.51 514.804L1081.1 515.068C1081.94 515.204 1082.56 515.472 1082.98 515.872C1083.4 516.264 1083.6 516.784 1083.6 517.432C1083.6 517.976 1083.46 518.452 1083.17 518.86C1082.88 519.26 1082.47 519.572 1081.94 519.796C1081.41 520.012 1080.78 520.12 1080.06 520.12ZM1087.32 520.096C1086.62 520.096 1086.09 519.94 1085.73 519.628C1085.38 519.308 1085.2 518.844 1085.2 518.236V515.116H1083.92V513.748H1085.2V512.152L1086.85 511.78V513.748H1088.64V515.116H1086.85V517.9C1086.85 518.188 1086.91 518.396 1087.04 518.524C1087.17 518.644 1087.39 518.704 1087.71 518.704C1087.87 518.704 1088.02 518.696 1088.14 518.68C1088.28 518.656 1088.43 518.616 1088.59 518.56V519.916C1088.42 519.972 1088.21 520.016 1087.95 520.048C1087.7 520.08 1087.49 520.096 1087.32 520.096ZM1091.86 520.12C1091.38 520.12 1090.95 520.016 1090.58 519.808C1090.21 519.592 1089.92 519.296 1089.7 518.92C1089.49 518.544 1089.39 518.112 1089.39 517.624V513.748H1091.03V517.384C1091.03 517.784 1091.15 518.104 1091.38 518.344C1091.62 518.584 1091.94 518.704 1092.34 518.704C1092.61 518.704 1092.86 518.652 1093.07 518.548C1093.3 518.436 1093.48 518.28 1093.63 518.08V513.748H1095.27V520H1093.63V519.496C1093.15 519.912 1092.56 520.12 1091.86 520.12ZM1099.44 520.084C1098.85 520.084 1098.31 519.94 1097.83 519.652C1097.35 519.364 1096.97 518.98 1096.68 518.5C1096.4 518.012 1096.26 517.468 1096.26 516.868C1096.26 516.268 1096.4 515.728 1096.68 515.248C1096.97 514.76 1097.36 514.376 1097.85 514.096C1098.33 513.808 1098.88 513.664 1099.49 513.664C1099.8 513.664 1100.1 513.708 1100.39 513.796C1100.68 513.876 1100.95 513.996 1101.19 514.156V511.6L1102.84 511.324V520H1101.22V519.484C1100.71 519.884 1100.11 520.084 1099.44 520.084ZM1099.71 518.68C1100.01 518.68 1100.29 518.632 1100.53 518.536C1100.79 518.432 1101.01 518.28 1101.19 518.08V515.644C1101.01 515.46 1100.79 515.316 1100.53 515.212C1100.28 515.108 1100 515.056 1099.71 515.056C1099.36 515.056 1099.05 515.136 1098.77 515.296C1098.5 515.448 1098.28 515.664 1098.12 515.944C1097.96 516.216 1097.88 516.524 1097.88 516.868C1097.88 517.212 1097.96 517.52 1098.12 517.792C1098.28 518.064 1098.5 518.28 1098.77 518.44C1099.05 518.6 1099.36 518.68 1099.71 518.68ZM1104.12 520V513.748H1105.76V520H1104.12ZM1104.94 513.004C1104.68 513.004 1104.46 512.912 1104.28 512.728C1104.09 512.544 1104 512.324 1104 512.068C1104 511.804 1104.09 511.584 1104.28 511.408C1104.46 511.224 1104.68 511.132 1104.94 511.132C1105.2 511.132 1105.42 511.224 1105.6 511.408C1105.78 511.584 1105.87 511.804 1105.87 512.068C1105.87 512.324 1105.78 512.544 1105.6 512.728C1105.42 512.912 1105.2 513.004 1104.94 513.004ZM1110.1 520.12C1109.47 520.12 1108.91 519.976 1108.41 519.688C1107.9 519.4 1107.5 519.012 1107.21 518.524C1106.91 518.036 1106.76 517.488 1106.76 516.88C1106.76 516.272 1106.91 515.724 1107.19 515.236C1107.49 514.74 1107.89 514.348 1108.39 514.06C1108.91 513.772 1109.47 513.628 1110.1 513.628C1110.72 513.628 1111.29 513.772 1111.79 514.06C1112.3 514.348 1112.7 514.74 1112.99 515.236C1113.29 515.724 1113.43 516.272 1113.43 516.88C1113.43 517.488 1113.29 518.036 1112.99 518.524C1112.7 519.012 1112.31 519.4 1111.8 519.688C1111.3 519.976 1110.73 520.12 1110.1 520.12ZM1110.1 518.692C1110.43 518.692 1110.72 518.612 1110.97 518.452C1111.24 518.292 1111.45 518.076 1111.6 517.804C1111.76 517.524 1111.84 517.216 1111.84 516.88C1111.84 516.536 1111.76 516.228 1111.6 515.956C1111.45 515.684 1111.24 515.468 1110.97 515.308C1110.72 515.14 1110.43 515.056 1110.1 515.056C1109.78 515.056 1109.49 515.14 1109.22 515.308C1108.96 515.468 1108.75 515.684 1108.6 515.956C1108.45 516.228 1108.37 516.536 1108.37 516.88C1108.37 517.216 1108.45 517.524 1108.6 517.804C1108.75 518.076 1108.96 518.292 1109.22 518.452C1109.49 518.612 1109.78 518.692 1110.1 518.692ZM1116.78 520.12C1116.21 520.12 1115.68 520.048 1115.19 519.904C1114.7 519.752 1114.28 519.536 1113.92 519.256L1114.73 518.164C1115.09 518.404 1115.44 518.584 1115.76 518.704C1116.1 518.824 1116.43 518.884 1116.76 518.884C1117.13 518.884 1117.42 518.824 1117.64 518.704C1117.86 518.576 1117.97 518.412 1117.97 518.212C1117.97 518.052 1117.91 517.924 1117.78 517.828C1117.66 517.732 1117.46 517.664 1117.19 517.624L1115.99 517.444C1115.37 517.348 1114.9 517.148 1114.58 516.844C1114.26 516.532 1114.1 516.124 1114.1 515.62C1114.1 515.212 1114.2 514.864 1114.41 514.576C1114.62 514.28 1114.92 514.052 1115.31 513.892C1115.7 513.724 1116.16 513.64 1116.7 513.64C1117.16 513.64 1117.6 513.704 1118.03 513.832C1118.47 513.96 1118.88 514.156 1119.27 514.42L1118.48 515.488C1118.13 515.272 1117.8 515.116 1117.49 515.02C1117.18 514.924 1116.86 514.876 1116.54 514.876C1116.25 514.876 1116.01 514.932 1115.82 515.044C1115.65 515.156 1115.56 515.304 1115.56 515.488C1115.56 515.656 1115.62 515.788 1115.75 515.884C1115.88 515.98 1116.1 516.048 1116.41 516.088L1117.6 516.268C1118.22 516.356 1118.7 516.556 1119.03 516.868C1119.36 517.172 1119.52 517.568 1119.52 518.056C1119.52 518.456 1119.4 518.812 1119.16 519.124C1118.92 519.428 1118.6 519.672 1118.19 519.856C1117.78 520.032 1117.31 520.12 1116.78 520.12Z" fill="#20184E"/>
<g filter="url(#filter8_d_195_14969)">
<circle cx="141" cy="254" r="58" fill="white"/>
</g>
<path d="M103.606 249.16C102.774 249.16 101.995 249.016 101.27 248.728C100.545 248.429 99.9101 248.019 99.3661 247.496C98.8328 246.973 98.4115 246.365 98.1021 245.672C97.8035 244.968 97.6541 244.211 97.6541 243.4C97.6541 242.579 97.8035 241.821 98.1021 241.128C98.4115 240.424 98.8381 239.811 99.3821 239.288C99.9261 238.765 100.555 238.36 101.27 238.072C101.995 237.773 102.774 237.624 103.606 237.624C104.225 237.624 104.822 237.709 105.398 237.88C105.974 238.051 106.507 238.291 106.998 238.6C107.499 238.909 107.926 239.283 108.278 239.72L106.71 241.272C106.305 240.771 105.835 240.392 105.302 240.136C104.779 239.88 104.214 239.752 103.606 239.752C103.105 239.752 102.635 239.848 102.198 240.04C101.761 240.221 101.382 240.477 101.062 240.808C100.742 241.128 100.491 241.512 100.31 241.96C100.129 242.397 100.038 242.877 100.038 243.4C100.038 243.912 100.129 244.392 100.31 244.84C100.491 245.277 100.747 245.661 101.078 245.992C101.409 246.312 101.793 246.563 102.23 246.744C102.678 246.925 103.163 247.016 103.686 247.016C104.273 247.016 104.822 246.893 105.334 246.648C105.846 246.403 106.299 246.051 106.694 245.592L108.214 247.096C107.862 247.523 107.441 247.891 106.95 248.2C106.459 248.509 105.926 248.749 105.35 248.92C104.785 249.08 104.203 249.16 103.606 249.16ZM113.256 249.16C112.424 249.16 111.672 248.968 111 248.584C110.328 248.2 109.795 247.683 109.4 247.032C109.005 246.381 108.808 245.651 108.808 244.84C108.808 244.029 109 243.299 109.384 242.648C109.779 241.987 110.312 241.464 110.984 241.08C111.667 240.696 112.424 240.504 113.256 240.504C114.088 240.504 114.84 240.696 115.512 241.08C116.195 241.464 116.728 241.987 117.112 242.648C117.507 243.299 117.704 244.029 117.704 244.84C117.704 245.651 117.507 246.381 117.112 247.032C116.728 247.683 116.2 248.2 115.528 248.584C114.856 248.968 114.099 249.16 113.256 249.16ZM113.256 247.256C113.693 247.256 114.083 247.149 114.424 246.936C114.776 246.723 115.053 246.435 115.256 246.072C115.469 245.699 115.576 245.288 115.576 244.84C115.576 244.381 115.469 243.971 115.256 243.608C115.053 243.245 114.776 242.957 114.424 242.744C114.083 242.52 113.693 242.408 113.256 242.408C112.829 242.408 112.44 242.52 112.088 242.744C111.736 242.957 111.459 243.245 111.256 243.608C111.053 243.971 110.952 244.381 110.952 244.84C110.952 245.288 111.053 245.699 111.256 246.072C111.459 246.435 111.736 246.723 112.088 246.936C112.44 247.149 112.829 247.256 113.256 247.256ZM119.052 249V240.664H121.244V241.352C121.873 240.787 122.652 240.504 123.58 240.504C124.23 240.504 124.801 240.648 125.292 240.936C125.793 241.213 126.182 241.603 126.46 242.104C126.737 242.595 126.876 243.171 126.876 243.832V249H124.684V244.152C124.684 243.608 124.529 243.181 124.22 242.872C123.91 242.552 123.489 242.392 122.956 242.392C122.582 242.392 122.252 242.467 121.964 242.616C121.676 242.755 121.436 242.957 121.244 243.224V249H119.052ZM130.787 249L127.219 240.664H129.603L131.891 246.216L134.163 240.664H136.499L132.915 249H130.787ZM141.21 249.16C140.378 249.16 139.62 248.968 138.938 248.584C138.266 248.2 137.732 247.683 137.338 247.032C136.943 246.381 136.746 245.651 136.746 244.84C136.746 244.029 136.932 243.299 137.306 242.648C137.69 241.997 138.207 241.48 138.858 241.096C139.508 240.712 140.234 240.52 141.034 240.52C141.834 240.52 142.543 240.717 143.162 241.112C143.78 241.507 144.266 242.04 144.618 242.712C144.98 243.384 145.162 244.147 145.162 245V245.576H138.986C139.082 245.907 139.236 246.205 139.45 246.472C139.674 246.739 139.946 246.947 140.266 247.096C140.596 247.245 140.948 247.32 141.322 247.32C141.695 247.32 142.036 247.261 142.346 247.144C142.666 247.027 142.938 246.861 143.162 246.648L144.602 247.96C144.09 248.376 143.562 248.68 143.018 248.872C142.484 249.064 141.882 249.16 141.21 249.16ZM138.954 244.008H143.002C142.927 243.677 142.788 243.389 142.586 243.144C142.394 242.888 142.159 242.691 141.882 242.552C141.615 242.403 141.316 242.328 140.986 242.328C140.644 242.328 140.335 242.397 140.058 242.536C139.78 242.675 139.546 242.872 139.354 243.128C139.172 243.373 139.039 243.667 138.954 244.008ZM146.505 249V240.664H148.697V241.352C149.326 240.787 150.105 240.504 151.033 240.504C151.683 240.504 152.254 240.648 152.745 240.936C153.246 241.213 153.635 241.603 153.913 242.104C154.19 242.595 154.329 243.171 154.329 243.832V249H152.137V244.152C152.137 243.608 151.982 243.181 151.673 242.872C151.363 242.552 150.942 242.392 150.409 242.392C150.035 242.392 149.705 242.467 149.417 242.616C149.129 242.755 148.889 242.957 148.697 243.224V249H146.505ZM159.707 249.128C158.779 249.128 158.075 248.92 157.595 248.504C157.125 248.077 156.891 247.459 156.891 246.648V242.488H155.179V240.664H156.891V238.536L159.083 238.04V240.664H161.467V242.488H159.083V246.2C159.083 246.584 159.168 246.861 159.339 247.032C159.509 247.192 159.808 247.272 160.235 247.272C160.448 247.272 160.64 247.261 160.811 247.24C160.992 247.208 161.189 247.155 161.403 247.08V248.888C161.179 248.963 160.896 249.021 160.555 249.064C160.224 249.107 159.941 249.128 159.707 249.128ZM162.536 249V240.664H164.728V249H162.536ZM163.624 239.672C163.283 239.672 162.989 239.549 162.744 239.304C162.499 239.059 162.376 238.765 162.376 238.424C162.376 238.072 162.499 237.779 162.744 237.544C162.989 237.299 163.283 237.176 163.624 237.176C163.976 237.176 164.269 237.299 164.504 237.544C164.749 237.779 164.872 238.072 164.872 238.424C164.872 238.765 164.749 239.059 164.504 239.304C164.269 239.549 163.976 239.672 163.624 239.672ZM170.506 249.16C169.674 249.16 168.922 248.968 168.25 248.584C167.578 248.2 167.045 247.683 166.65 247.032C166.255 246.381 166.058 245.651 166.058 244.84C166.058 244.029 166.25 243.299 166.634 242.648C167.029 241.987 167.562 241.464 168.234 241.08C168.917 240.696 169.674 240.504 170.506 240.504C171.338 240.504 172.09 240.696 172.762 241.08C173.445 241.464 173.978 241.987 174.362 242.648C174.757 243.299 174.954 244.029 174.954 244.84C174.954 245.651 174.757 246.381 174.362 247.032C173.978 247.683 173.45 248.2 172.778 248.584C172.106 248.968 171.349 249.16 170.506 249.16ZM170.506 247.256C170.943 247.256 171.333 247.149 171.674 246.936C172.026 246.723 172.303 246.435 172.506 246.072C172.719 245.699 172.826 245.288 172.826 244.84C172.826 244.381 172.719 243.971 172.506 243.608C172.303 243.245 172.026 242.957 171.674 242.744C171.333 242.52 170.943 242.408 170.506 242.408C170.079 242.408 169.69 242.52 169.338 242.744C168.986 242.957 168.709 243.245 168.506 243.608C168.303 243.971 168.202 244.381 168.202 244.84C168.202 245.288 168.303 245.699 168.506 246.072C168.709 246.435 168.986 246.723 169.338 246.936C169.69 247.149 170.079 247.256 170.506 247.256ZM176.302 249V240.664H178.494V241.352C179.123 240.787 179.902 240.504 180.83 240.504C181.48 240.504 182.051 240.648 182.542 240.936C183.043 241.213 183.432 241.603 183.71 242.104C183.987 242.595 184.126 243.171 184.126 243.832V249H181.934V244.152C181.934 243.608 181.779 243.181 181.47 242.872C181.16 242.552 180.739 242.392 180.206 242.392C179.832 242.392 179.502 242.467 179.214 242.616C178.926 242.755 178.686 242.957 178.494 243.224V249H176.302ZM121.411 270.16C120.579 270.16 119.8 270.016 119.075 269.728C118.349 269.429 117.715 269.019 117.171 268.496C116.637 267.973 116.216 267.365 115.907 266.672C115.608 265.968 115.459 265.211 115.459 264.4C115.459 263.579 115.608 262.821 115.907 262.128C116.216 261.424 116.643 260.811 117.187 260.288C117.731 259.765 118.36 259.36 119.075 259.072C119.8 258.773 120.579 258.624 121.411 258.624C122.029 258.624 122.627 258.709 123.203 258.88C123.779 259.051 124.312 259.291 124.803 259.6C125.304 259.909 125.731 260.283 126.083 260.72L124.515 262.272C124.109 261.771 123.64 261.392 123.107 261.136C122.584 260.88 122.019 260.752 121.411 260.752C120.909 260.752 120.44 260.848 120.003 261.04C119.565 261.221 119.187 261.477 118.867 261.808C118.547 262.128 118.296 262.512 118.115 262.96C117.933 263.397 117.843 263.877 117.843 264.4C117.843 264.912 117.933 265.392 118.115 265.84C118.296 266.277 118.552 266.661 118.883 266.992C119.213 267.312 119.597 267.563 120.035 267.744C120.483 267.925 120.968 268.016 121.491 268.016C122.077 268.016 122.627 267.893 123.139 267.648C123.651 267.403 124.104 267.051 124.499 266.592L126.019 268.096C125.667 268.523 125.245 268.891 124.755 269.2C124.264 269.509 123.731 269.749 123.155 269.92C122.589 270.08 122.008 270.16 121.411 270.16ZM131.077 270.16C130.245 270.16 129.487 269.968 128.805 269.584C128.133 269.2 127.599 268.683 127.205 268.032C126.81 267.381 126.613 266.651 126.613 265.84C126.613 265.029 126.799 264.299 127.173 263.648C127.557 262.997 128.074 262.48 128.725 262.096C129.375 261.712 130.101 261.52 130.901 261.52C131.701 261.52 132.41 261.717 133.029 262.112C133.647 262.507 134.133 263.04 134.485 263.712C134.847 264.384 135.029 265.147 135.029 266V266.576H128.853C128.949 266.907 129.103 267.205 129.317 267.472C129.541 267.739 129.813 267.947 130.133 268.096C130.463 268.245 130.815 268.32 131.189 268.32C131.562 268.32 131.903 268.261 132.213 268.144C132.533 268.027 132.805 267.861 133.029 267.648L134.469 268.96C133.957 269.376 133.429 269.68 132.885 269.872C132.351 270.064 131.749 270.16 131.077 270.16ZM128.821 265.008H132.869C132.794 264.677 132.655 264.389 132.453 264.144C132.261 263.888 132.026 263.691 131.749 263.552C131.482 263.403 131.183 263.328 130.853 263.328C130.511 263.328 130.202 263.397 129.925 263.536C129.647 263.675 129.413 263.872 129.221 264.128C129.039 264.373 128.906 264.667 128.821 265.008ZM136.372 270V261.664H138.564V262.352C139.193 261.787 139.972 261.504 140.9 261.504C141.55 261.504 142.121 261.648 142.612 261.936C143.113 262.213 143.502 262.603 143.78 263.104C144.057 263.595 144.196 264.171 144.196 264.832V270H142.004V265.152C142.004 264.608 141.849 264.181 141.54 263.872C141.23 263.552 140.809 263.392 140.276 263.392C139.902 263.392 139.572 263.467 139.284 263.616C138.996 263.755 138.756 263.957 138.564 264.224V270H136.372ZM149.574 270.128C148.646 270.128 147.942 269.92 147.462 269.504C146.992 269.077 146.758 268.459 146.758 267.648V263.488H145.046V261.664H146.758V259.536L148.95 259.04V261.664H151.334V263.488H148.95V267.2C148.95 267.584 149.035 267.861 149.206 268.032C149.376 268.192 149.675 268.272 150.102 268.272C150.315 268.272 150.507 268.261 150.678 268.24C150.859 268.208 151.056 268.155 151.27 268.08V269.888C151.046 269.963 150.763 270.021 150.422 270.064C150.091 270.107 149.808 270.128 149.574 270.128ZM152.403 270V261.664H154.595V262.592C154.862 262.229 155.182 261.952 155.555 261.76C155.928 261.568 156.35 261.472 156.819 261.472C157.224 261.483 157.528 261.547 157.731 261.664V263.584C157.571 263.509 157.395 263.456 157.203 263.424C157.011 263.381 156.814 263.36 156.611 263.36C156.184 263.36 155.795 263.467 155.443 263.68C155.091 263.893 154.808 264.197 154.595 264.592V270H152.403ZM162.686 270.16C161.854 270.16 161.097 269.968 160.414 269.584C159.742 269.2 159.209 268.683 158.814 268.032C158.42 267.381 158.222 266.651 158.222 265.84C158.222 265.029 158.409 264.299 158.782 263.648C159.166 262.997 159.684 262.48 160.334 262.096C160.985 261.712 161.71 261.52 162.51 261.52C163.31 261.52 164.02 261.717 164.638 262.112C165.257 262.507 165.742 263.04 166.094 263.712C166.457 264.384 166.638 265.147 166.638 266V266.576H160.462C160.558 266.907 160.713 267.205 160.926 267.472C161.15 267.739 161.422 267.947 161.742 268.096C162.073 268.245 162.425 268.32 162.798 268.32C163.172 268.32 163.513 268.261 163.822 268.144C164.142 268.027 164.414 267.861 164.638 267.648L166.078 268.96C165.566 269.376 165.038 269.68 164.494 269.872C163.961 270.064 163.358 270.16 162.686 270.16ZM160.43 265.008H164.478C164.404 264.677 164.265 264.389 164.062 264.144C163.87 263.888 163.636 263.691 163.358 263.552C163.092 263.403 162.793 263.328 162.462 263.328C162.121 263.328 161.812 263.397 161.534 263.536C161.257 263.675 161.022 263.872 160.83 264.128C160.649 264.373 160.516 264.667 160.43 265.008Z" fill="#20184E"/>
<g filter="url(#filter9_d_195_14969)">
<circle cx="561" cy="523" r="40" fill="white"/>
</g>
<path d="M552.296 527V520.136H549.464V518.6H556.856V520.136H554.036V527H552.296ZM559.644 527.12C559.164 527.12 558.736 527.016 558.36 526.808C557.992 526.592 557.7 526.296 557.484 525.92C557.276 525.544 557.172 525.112 557.172 524.624V520.748H558.816V524.384C558.816 524.784 558.932 525.104 559.164 525.344C559.404 525.584 559.724 525.704 560.124 525.704C560.396 525.704 560.64 525.652 560.856 525.548C561.08 525.436 561.264 525.28 561.408 525.08V520.748H563.052V527H561.408V526.496C560.928 526.912 560.34 527.12 559.644 527.12ZM564.334 527V520.748H565.978V521.444C566.178 521.172 566.418 520.964 566.698 520.82C566.978 520.676 567.294 520.604 567.646 520.604C567.95 520.612 568.178 520.66 568.33 520.748V522.188C568.21 522.132 568.078 522.092 567.934 522.068C567.79 522.036 567.642 522.02 567.49 522.02C567.17 522.02 566.878 522.1 566.614 522.26C566.35 522.42 566.138 522.648 565.978 522.944V527H564.334ZM570.192 527V522.116H568.8V520.748H570.192V520.148C570.192 519.444 570.396 518.908 570.804 518.54C571.212 518.164 571.8 517.976 572.568 517.976C572.736 517.976 572.908 517.984 573.084 518C573.26 518.016 573.412 518.044 573.54 518.084V519.464C573.388 519.432 573.256 519.408 573.144 519.392C573.032 519.376 572.908 519.368 572.772 519.368C572.46 519.368 572.224 519.436 572.064 519.572C571.912 519.7 571.836 519.904 571.836 520.184V520.748H573.54V522.116H571.836V527H570.192Z" fill="#20184E"/>
<g filter="url(#filter10_d_195_14969)">
<circle cx="225" cy="454" r="40" fill="white"/>
</g>
<path d="M207.068 458V451.136H204.236V449.6H211.628V451.136H208.808V458H207.068ZM214.138 458.12C213.514 458.12 212.946 457.976 212.434 457.688C211.93 457.4 211.53 457.012 211.234 456.524C210.938 456.036 210.79 455.488 210.79 454.88C210.79 454.272 210.93 453.724 211.21 453.236C211.498 452.748 211.886 452.36 212.374 452.072C212.862 451.784 213.406 451.64 214.006 451.64C214.606 451.64 215.138 451.788 215.602 452.084C216.066 452.38 216.43 452.78 216.694 453.284C216.966 453.788 217.102 454.36 217.102 455V455.432H212.47C212.542 455.68 212.658 455.904 212.818 456.104C212.986 456.304 213.19 456.46 213.43 456.572C213.678 456.684 213.942 456.74 214.222 456.74C214.502 456.74 214.758 456.696 214.99 456.608C215.23 456.52 215.434 456.396 215.602 456.236L216.682 457.22C216.298 457.532 215.902 457.76 215.494 457.904C215.094 458.048 214.642 458.12 214.138 458.12ZM212.446 454.256H215.482C215.426 454.008 215.322 453.792 215.17 453.608C215.026 453.416 214.85 453.268 214.642 453.164C214.442 453.052 214.218 452.996 213.97 452.996C213.714 452.996 213.482 453.048 213.274 453.152C213.066 453.256 212.89 453.404 212.746 453.596C212.61 453.78 212.51 454 212.446 454.256ZM218.109 458V451.748H219.753V452.444C219.953 452.172 220.193 451.964 220.473 451.82C220.753 451.676 221.069 451.604 221.421 451.604C221.725 451.612 221.953 451.66 222.105 451.748V453.188C221.985 453.132 221.853 453.092 221.709 453.068C221.565 453.036 221.417 453.02 221.265 453.02C220.945 453.02 220.653 453.1 220.389 453.26C220.125 453.42 219.913 453.648 219.753 453.944V458H218.109ZM223.007 458V451.748H224.651V452.444C224.851 452.172 225.091 451.964 225.371 451.82C225.651 451.676 225.967 451.604 226.319 451.604C226.623 451.612 226.851 451.66 227.003 451.748V453.188C226.883 453.132 226.751 453.092 226.607 453.068C226.463 453.036 226.315 453.02 226.163 453.02C225.843 453.02 225.551 453.1 225.287 453.26C225.023 453.42 224.811 453.648 224.651 453.944V458H223.007ZM229.722 458.108C229.274 458.108 228.878 458.028 228.534 457.868C228.19 457.7 227.922 457.472 227.73 457.184C227.538 456.896 227.442 456.564 227.442 456.188C227.442 455.588 227.666 455.124 228.114 454.796C228.57 454.46 229.194 454.292 229.986 454.292C230.53 454.292 231.042 454.376 231.522 454.544V454.088C231.522 453.728 231.41 453.456 231.186 453.272C230.962 453.088 230.634 452.996 230.202 452.996C229.938 452.996 229.654 453.04 229.35 453.128C229.046 453.208 228.694 453.336 228.294 453.512L227.694 452.3C228.19 452.076 228.662 451.908 229.11 451.796C229.566 451.684 230.022 451.628 230.478 451.628C231.318 451.628 231.97 451.832 232.434 452.24C232.906 452.64 233.142 453.208 233.142 453.944V458H231.522V457.556C231.266 457.748 230.99 457.888 230.694 457.976C230.398 458.064 230.074 458.108 229.722 458.108ZM229.002 456.152C229.002 456.392 229.106 456.584 229.314 456.728C229.522 456.864 229.798 456.932 230.142 456.932C230.414 456.932 230.666 456.9 230.898 456.836C231.13 456.764 231.338 456.66 231.522 456.524V455.612C231.322 455.532 231.114 455.472 230.898 455.432C230.682 455.392 230.45 455.372 230.202 455.372C229.826 455.372 229.53 455.444 229.314 455.588C229.106 455.724 229.002 455.912 229.002 456.152ZM237.374 458.12C236.758 458.12 236.202 457.98 235.706 457.7C235.21 457.412 234.818 457.024 234.53 456.536C234.242 456.04 234.098 455.488 234.098 454.88C234.098 454.264 234.242 453.712 234.53 453.224C234.818 452.736 235.21 452.348 235.706 452.06C236.202 451.772 236.758 451.628 237.374 451.628C237.87 451.628 238.342 451.724 238.79 451.916C239.246 452.108 239.638 452.384 239.966 452.744L238.958 453.812C238.726 453.556 238.482 453.368 238.226 453.248C237.978 453.12 237.706 453.056 237.41 453.056C237.09 453.056 236.802 453.136 236.546 453.296C236.298 453.456 236.098 453.672 235.946 453.944C235.802 454.216 235.73 454.528 235.73 454.88C235.73 455.216 235.802 455.524 235.946 455.804C236.098 456.076 236.306 456.292 236.57 456.452C236.834 456.604 237.126 456.68 237.446 456.68C237.726 456.68 237.986 456.624 238.226 456.512C238.474 456.392 238.71 456.216 238.934 455.984L239.918 457.016C239.598 457.36 239.214 457.632 238.766 457.832C238.318 458.024 237.854 458.12 237.374 458.12ZM243.657 458.12C243.033 458.12 242.465 457.976 241.953 457.688C241.449 457.4 241.049 457.012 240.753 456.524C240.457 456.036 240.309 455.488 240.309 454.88C240.309 454.272 240.449 453.724 240.729 453.236C241.017 452.748 241.405 452.36 241.893 452.072C242.381 451.784 242.925 451.64 243.525 451.64C244.125 451.64 244.657 451.788 245.121 452.084C245.585 452.38 245.949 452.78 246.213 453.284C246.485 453.788 246.621 454.36 246.621 455V455.432H241.989C242.061 455.68 242.177 455.904 242.337 456.104C242.505 456.304 242.709 456.46 242.949 456.572C243.197 456.684 243.461 456.74 243.741 456.74C244.021 456.74 244.277 456.696 244.509 456.608C244.749 456.52 244.953 456.396 245.121 456.236L246.201 457.22C245.817 457.532 245.421 457.76 245.013 457.904C244.613 458.048 244.161 458.12 243.657 458.12ZM241.965 454.256H245.001C244.945 454.008 244.841 453.792 244.689 453.608C244.545 453.416 244.369 453.268 244.161 453.164C243.961 453.052 243.737 452.996 243.489 452.996C243.233 452.996 243.001 453.048 242.793 453.152C242.585 453.256 242.409 453.404 242.265 453.596C242.129 453.78 242.029 454 241.965 454.256Z" fill="#20184E"/>
</g>
<defs>
<filter id="filter0_d_195_14969" x="550.453" y="273" width="272.098" height="275" filterUnits="userSpaceOnUse" color-interpolation-filters="sRGB">
<feFlood flood-opacity="0" result="BackgroundImageFix"/>
<feColorMatrix in="SourceAlpha" type="matrix" values="0 0 0 0 0 0 0 0 0 0 0 0 0 0 0 0 0 0 127 0" result="hardAlpha"/>
<feOffset dx="6" dy="28"/>
<feGaussianBlur stdDeviation="25"/>
<feColorMatrix type="matrix" values="0 0 0 0 0.191202 0 0 0 0 0.347754 0 0 0 0 0.829152 0 0 0 0.19 0"/>
<feBlend mode="normal" in2="BackgroundImageFix" result="effect1_dropShadow_195_14969"/>
<feBlend mode="normal" in="SourceGraphic" in2="effect1_dropShadow_195_14969" result="shape"/>
</filter>
<filter id="filter1_d_195_14969" x="314" y="188" width="340" height="340" filterUnits="userSpaceOnUse" color-interpolation-filters="sRGB">
<feFlood flood-opacity="0" result="BackgroundImageFix"/>
<feColorMatrix in="SourceAlpha" type="matrix" values="0 0 0 0 0 0 0 0 0 0 0 0 0 0 0 0 0 0 127 0" result="hardAlpha"/>
<feOffset dx="33" dy="59"/>
<feGaussianBlur stdDeviation="50"/>
<feColorMatrix type="matrix" values="0 0 0 0 0.191202 0 0 0 0 0.347754 0 0 0 0 0.829152 0 0 0 0.12 0"/>
<feBlend mode="normal" in2="BackgroundImageFix" result="effect1_dropShadow_195_14969"/>
<feBlend mode="normal" in="SourceGraphic" in2="effect1_dropShadow_195_14969" result="shape"/>
</filter>
<filter id="filter2_d_195_14969" x="791" y="264" width="340" height="340" filterUnits="userSpaceOnUse" color-interpolation-filters="sRGB">
<feFlood flood-opacity="0" result="BackgroundImageFix"/>
<feColorMatrix in="SourceAlpha" type="matrix" values="0 0 0 0 0 0 0 0 0 0 0 0 0 0 0 0 0 0 127 0" result="hardAlpha"/>
<feOffset dx="33" dy="59"/>
<feGaussianBlur stdDeviation="50"/>
<feColorMatrix type="matrix" values="0 0 0 0 0.191202 0 0 0 0 0.347754 0 0 0 0 0.829152 0 0 0 0.12 0"/>
<feBlend mode="normal" in2="BackgroundImageFix" result="effect1_dropShadow_195_14969"/>
<feBlend mode="normal" in="SourceGraphic" in2="effect1_dropShadow_195_14969" result="shape"/>
</filter>
<filter id="filter3_d_195_14969" x="838" y="15" width="282" height="282" filterUnits="userSpaceOnUse" color-interpolation-filters="sRGB">
<feFlood flood-opacity="0" result="BackgroundImageFix"/>
<feColorMatrix in="SourceAlpha" type="matrix" values="0 0 0 0 0 0 0 0 0 0 0 0 0 0 0 0 0 0 127 0" result="hardAlpha"/>
<feOffset dx="33" dy="59"/>
<feGaussianBlur stdDeviation="50"/>
<feColorMatrix type="matrix" values="0 0 0 0 0.191202 0 0 0 0 0.347754 0 0 0 0 0.829152 0 0 0 0.12 0"/>
<feBlend mode="normal" in2="BackgroundImageFix" result="effect1_dropShadow_195_14969"/>
<feBlend mode="normal" in="SourceGraphic" in2="effect1_dropShadow_195_14969" result="shape"/>
</filter>
<filter id="filter4_d_195_14969" x="1071" y="111" width="340" height="340" filterUnits="userSpaceOnUse" color-interpolation-filters="sRGB">
<feFlood flood-opacity="0" result="BackgroundImageFix"/>
<feColorMatrix in="SourceAlpha" type="matrix" values="0 0 0 0 0 0 0 0 0 0 0 0 0 0 0 0 0 0 127 0" result="hardAlpha"/>
<feOffset dx="33" dy="59"/>
<feGaussianBlur stdDeviation="50"/>
<feColorMatrix type="matrix" values="0 0 0 0 0.191202 0 0 0 0 0.347754 0 0 0 0 0.829152 0 0 0 0.12 0"/>
<feBlend mode="normal" in2="BackgroundImageFix" result="effect1_dropShadow_195_14969"/>
<feBlend mode="normal" in="SourceGraphic" in2="effect1_dropShadow_195_14969" result="shape"/>
</filter>
<filter id="filter5_d_195_14969" x="182" y="6" width="315" height="315" filterUnits="userSpaceOnUse" color-interpolation-filters="sRGB">
<feFlood flood-opacity="0" result="BackgroundImageFix"/>
<feColorMatrix in="SourceAlpha" type="matrix" values="0 0 0 0 0 0 0 0 0 0 0 0 0 0 0 0 0 0 127 0" result="hardAlpha"/>
<feOffset dx="33" dy="59"/>
<feGaussianBlur stdDeviation="50"/>
<feColorMatrix type="matrix" values="0 0 0 0 0.191202 0 0 0 0 0.347754 0 0 0 0 0.829152 0 0 0 0.12 0"/>
<feBlend mode="normal" in2="BackgroundImageFix" result="effect1_dropShadow_195_14969"/>
<feBlend mode="normal" in="SourceGraphic" in2="effect1_dropShadow_195_14969" result="shape"/>
</filter>
<filter id="filter6_d_195_14969" x="565" y="24" width="315" height="315" filterUnits="userSpaceOnUse" color-interpolation-filters="sRGB">
<feFlood flood-opacity="0" result="BackgroundImageFix"/>
<feColorMatrix in="SourceAlpha" type="matrix" values="0 0 0 0 0 0 0 0 0 0 0 0 0 0 0 0 0 0 127 0" result="hardAlpha"/>
<feOffset dx="33" dy="59"/>
<feGaussianBlur stdDeviation="50"/>
<feColorMatrix type="matrix" values="0 0 0 0 0.191202 0 0 0 0 0.347754 0 0 0 0 0.829152 0 0 0 0.12 0"/>
<feBlend mode="normal" in2="BackgroundImageFix" result="effect1_dropShadow_195_14969"/>
<feBlend mode="normal" in="SourceGraphic" in2="effect1_dropShadow_195_14969" result="shape"/>
</filter>
<filter id="filter7_d_195_14969" x="979" y="423" width="304" height="304" filterUnits="userSpaceOnUse" color-interpolation-filters="sRGB">
<feFlood flood-opacity="0" result="BackgroundImageFix"/>
<feColorMatrix in="SourceAlpha" type="matrix" values="0 0 0 0 0 0 0 0 0 0 0 0 0 0 0 0 0 0 127 0" result="hardAlpha"/>
<feMorphology radius="12" operator="dilate" in="SourceAlpha" result="effect1_dropShadow_195_14969"/>
<feOffset dx="33" dy="59"/>
<feGaussianBlur stdDeviation="50"/>
<feColorMatrix type="matrix" values="0 0 0 0 0.191202 0 0 0 0 0.347754 0 0 0 0 0.829152 0 0 0 0.12 0"/>
<feBlend mode="normal" in2="BackgroundImageFix" result="effect1_dropShadow_195_14969"/>
<feBlend mode="normal" in="SourceGraphic" in2="effect1_dropShadow_195_14969" result="shape"/>
</filter>
<filter id="filter8_d_195_14969" x="4" y="143" width="340" height="340" filterUnits="userSpaceOnUse" color-interpolation-filters="sRGB">
<feFlood flood-opacity="0" result="BackgroundImageFix"/>
<feColorMatrix in="SourceAlpha" type="matrix" values="0 0 0 0 0 0 0 0 0 0 0 0 0 0 0 0 0 0 127 0" result="hardAlpha"/>
<feMorphology radius="12" operator="dilate" in="SourceAlpha" result="effect1_dropShadow_195_14969"/>
<feOffset dx="33" dy="59"/>
<feGaussianBlur stdDeviation="50"/>
<feColorMatrix type="matrix" values="0 0 0 0 0.191202 0 0 0 0 0.347754 0 0 0 0 0.829152 0 0 0 0.12 0"/>
<feBlend mode="normal" in2="BackgroundImageFix" result="effect1_dropShadow_195_14969"/>
<feBlend mode="normal" in="SourceGraphic" in2="effect1_dropShadow_195_14969" result="shape"/>
</filter>
<filter id="filter9_d_195_14969" x="441" y="429" width="306" height="306" filterUnits="userSpaceOnUse" color-interpolation-filters="sRGB">
<feFlood flood-opacity="0" result="BackgroundImageFix"/>
<feColorMatrix in="SourceAlpha" type="matrix" values="0 0 0 0 0 0 0 0 0 0 0 0 0 0 0 0 0 0 127 0" result="hardAlpha"/>
<feMorphology radius="13" operator="dilate" in="SourceAlpha" result="effect1_dropShadow_195_14969"/>
<feOffset dx="33" dy="59"/>
<feGaussianBlur stdDeviation="50"/>
<feColorMatrix type="matrix" values="0 0 0 0 0.191202 0 0 0 0 0.347754 0 0 0 0 0.829152 0 0 0 0.12 0"/>
<feBlend mode="normal" in2="BackgroundImageFix" result="effect1_dropShadow_195_14969"/>
<feBlend mode="normal" in="SourceGraphic" in2="effect1_dropShadow_195_14969" result="shape"/>
</filter>
<filter id="filter10_d_195_14969" x="106" y="361" width="304" height="304" filterUnits="userSpaceOnUse" color-interpolation-filters="sRGB">
<feFlood flood-opacity="0" result="BackgroundImageFix"/>
<feColorMatrix in="SourceAlpha" type="matrix" values="0 0 0 0 0 0 0 0 0 0 0 0 0 0 0 0 0 0 127 0" result="hardAlpha"/>
<feMorphology radius="12" operator="dilate" in="SourceAlpha" result="effect1_dropShadow_195_14969"/>
<feOffset dx="33" dy="59"/>
<feGaussianBlur stdDeviation="50"/>
<feColorMatrix type="matrix" values="0 0 0 0 0.191202 0 0 0 0 0.347754 0 0 0 0 0.829152 0 0 0 0.12 0"/>
<feBlend mode="normal" in2="BackgroundImageFix" result="effect1_dropShadow_195_14969"/>
<feBlend mode="normal" in="SourceGraphic" in2="effect1_dropShadow_195_14969" result="shape"/>
</filter>
<linearGradient id="paint0_linear_195_14969" x1="625" y1="542.5" x2="589.879" y2="256.468" gradientUnits="userSpaceOnUse">
<stop stop-color="#2D8BFF" stop-opacity="0"/>
<stop offset="0.519043" stop-color="#6480FD" stop-opacity="0.31"/>
<stop offset="1" stop-color="#9F74FB" stop-opacity="0"/>
</linearGradient>
<linearGradient id="paint1_linear_195_14969" x1="607.143" y1="551.494" x2="560.938" y2="175.193" gradientUnits="userSpaceOnUse">
<stop stop-color="#2D8BFF" stop-opacity="0"/>
<stop offset="0.519043" stop-color="#6480FD" stop-opacity="0.31"/>
<stop offset="1" stop-color="#9F74FB" stop-opacity="0"/>
</linearGradient>
<linearGradient id="paint2_linear_195_14969" x1="583.848" y1="563.306" x2="523.087" y2="68.4593" gradientUnits="userSpaceOnUse">
<stop stop-color="#2D8BFF" stop-opacity="0"/>
<stop offset="0.519043" stop-color="#6480FD" stop-opacity="0.31"/>
<stop offset="1" stop-color="#9F74FB" stop-opacity="0"/>
</linearGradient>
<linearGradient id="paint3_linear_195_14969" x1="561.971" y1="574.901" x2="486.922" y2="-36.3162" gradientUnits="userSpaceOnUse">
<stop stop-color="#2D8BFF" stop-opacity="0"/>
<stop offset="0.519043" stop-color="#6480FD" stop-opacity="0.31"/>
<stop offset="1" stop-color="#9F74FB" stop-opacity="0"/>
</linearGradient>
<linearGradient id="paint4_linear_195_14969" x1="489.405" y1="612.504" x2="368.017" y2="-376.102" gradientUnits="userSpaceOnUse">
<stop stop-color="#2D8BFF" stop-opacity="0"/>
<stop offset="0.519043" stop-color="#6480FD" stop-opacity="0.31"/>
<stop offset="1" stop-color="#9F74FB" stop-opacity="0"/>
</linearGradient>
<linearGradient id="paint5_linear_195_14969" x1="591.465" y1="312.264" x2="803.451" y2="356.611" gradientUnits="userSpaceOnUse">
<stop stop-color="#9A93FF"/>
<stop offset="1" stop-color="#6042E0"/>
</linearGradient>
<clipPath id="clip0_195_14969">
<rect width="1361" height="656" fill="white"/>
</clipPath>
<clipPath id="clip1_195_14969">
<rect width="20.0455" height="46.4851" fill="white" transform="translate(650 343)"/>
</clipPath>
</defs>
</svg>
