<svg width="1180" height="193" viewBox="0 0 1180 193" fill="none" xmlns="http://www.w3.org/2000/svg">
<path d="M420 86.8335L414.422 85.3438L415.921 90.9193L420 86.8335ZM122.62 37.3248C123.336 38.1624 124.091 39.0132 124.885 39.8754L125.621 39.1976C124.834 38.3443 124.087 37.5029 123.38 36.6752L122.62 37.3248ZM129.724 44.7902C131.309 46.3038 133.004 47.8413 134.811 49.3946L135.463 48.6364C133.669 47.094 131.986 45.5682 130.415 44.0672L129.724 44.7902ZM140.13 53.7566C141.882 55.1283 143.717 56.5065 145.635 57.886L146.219 57.0741C144.311 55.7025 142.487 54.3325 140.747 52.9694L140.13 53.7566ZM151.294 61.7938C153.158 63.0305 155.089 64.2642 157.087 65.491L157.611 64.6388C155.623 63.4181 153.701 62.1907 151.847 60.9606L151.294 61.7938ZM162.999 68.9871C164.95 70.0979 166.956 71.2 169.019 72.2903L169.486 71.4063C167.433 70.3208 165.435 69.2238 163.494 68.1181L162.999 68.9871ZM175.14 75.4079C177.163 76.4007 179.235 77.3808 181.354 78.3457L181.769 77.4356C179.658 76.4746 177.595 75.4987 175.58 74.5102L175.14 75.4079ZM187.659 81.1088C189.742 81.987 191.867 82.8498 194.035 83.6951L194.398 82.7635C192.239 81.9214 190.122 81.062 188.048 80.1874L187.659 81.1088ZM200.443 86.0975C202.567 86.8619 204.729 87.6091 206.928 88.3374L207.242 87.3881C205.051 86.6625 202.898 85.9181 200.782 85.1566L200.443 86.0975ZM213.486 90.4179C215.656 91.0762 217.859 91.7158 220.096 92.3352L220.363 91.3714C218.134 90.7542 215.938 90.1169 213.777 89.461L213.486 90.4179ZM226.71 94.0807C228.906 94.6325 231.133 95.1647 233.391 95.676L233.612 94.7007C231.362 94.1911 229.142 93.6608 226.954 93.1109L226.71 94.0807ZM240.137 97.1213C242.346 97.568 244.582 97.9946 246.847 98.4L247.023 97.4157C244.766 97.0116 242.537 96.5864 240.336 96.1412L240.137 97.1213ZM253.622 99.5357C255.868 99.8868 258.14 100.217 260.438 100.525L260.571 99.5342C258.28 99.2268 256.015 98.8977 253.777 98.5477L253.622 99.5357ZM267.222 101.363C269.482 101.617 271.765 101.851 274.073 102.063L274.165 101.067C271.864 100.856 269.587 100.623 267.334 100.369L267.222 101.363ZM280.902 102.619C283.163 102.78 285.445 102.919 287.749 103.037L287.801 102.039C285.503 101.921 283.227 101.782 280.973 101.621L280.902 102.619ZM294.631 103.322C296.888 103.393 299.166 103.443 301.464 103.472L301.476 102.472C299.185 102.443 296.913 102.393 294.662 102.322L294.631 103.322ZM308.373 103.492C310.626 103.478 312.899 103.442 315.19 103.386L315.165 102.386C312.88 102.443 310.614 102.478 308.366 102.492L308.373 103.492ZM322.081 103.152C324.339 103.055 326.613 102.938 328.905 102.799L328.845 101.801C326.559 101.939 324.29 102.057 322.038 102.153L322.081 103.152ZM335.775 102.323C338.031 102.147 340.302 101.951 342.59 101.734L342.496 100.738C340.213 100.955 337.947 101.151 335.697 101.326L335.775 102.323ZM349.437 101.025C351.686 100.774 353.95 100.502 356.23 100.21L356.102 99.2179C353.828 99.5096 351.569 99.7807 349.326 100.032L349.437 101.025ZM363.053 99.279C365.291 98.9556 367.543 98.6123 369.81 98.2487L369.652 97.2613C367.39 97.6241 365.143 97.9666 362.91 98.2893L363.053 99.279ZM376.612 97.1039C378.835 96.7122 381.072 96.3011 383.322 95.8701L383.134 94.888C380.889 95.318 378.657 95.7282 376.438 96.1191L376.612 97.1039ZM390.106 94.5189C392.312 94.0628 394.53 93.5877 396.76 93.0933L396.544 92.117C394.318 92.6104 392.104 93.0845 389.904 93.5396L390.106 94.5189ZM403.489 91.5519C405.687 91.0321 407.897 90.4936 410.119 89.9362L409.875 88.9662C407.658 89.5226 405.452 90.06 403.259 90.5787L403.489 91.5519Z" fill="#5E4765" fill-opacity="0.6"/>
<path d="M1110 81.3436L1104.43 79.8322L1105.9 85.4135L1110 81.3436ZM798.622 30.3278C799.346 31.1607 800.107 32.0062 800.908 32.8626L801.638 32.1799C800.846 31.3319 800.092 30.4955 799.378 29.6722L798.622 30.3278ZM805.793 37.766C807.388 39.2736 809.092 40.8048 810.904 42.352L811.554 41.5913C809.753 40.0547 808.062 38.5349 806.48 37.0393L805.793 37.766ZM816.241 46.701C817.997 48.0701 819.837 49.4461 821.758 50.8242L822.341 50.0116C820.43 48.6411 818.601 47.273 816.856 45.9122L816.241 46.701ZM827.427 54.7335C829.295 55.9724 831.228 57.2091 833.228 58.4401L833.753 57.5885C831.762 56.3634 829.838 55.1327 827.98 53.9002L827.427 54.7335ZM839.149 61.9538C841.103 63.0722 843.113 64.1828 845.179 65.2829L845.649 64.4002C843.592 63.3049 841.591 62.1992 839.646 61.0858L839.149 61.9538ZM851.311 68.4345C853.339 69.4398 855.414 70.4335 857.538 71.4134L857.957 70.5054C855.842 69.5294 853.774 68.5397 851.755 67.5385L851.311 68.4345ZM863.8 74.2006C865.873 75.0905 867.988 75.9663 870.145 76.8262L870.516 75.8973C868.367 75.0406 866.26 74.1681 864.194 73.2817L863.8 74.2006ZM876.573 79.2941C878.705 80.0818 880.874 80.8534 883.081 81.6073L883.404 80.661C881.205 79.9098 879.043 79.1409 876.919 78.3561L876.573 79.2941ZM889.597 83.7455C891.754 84.4251 893.946 85.0875 896.171 85.7312L896.449 84.7706C894.231 84.129 892.047 83.4689 889.897 82.7917L889.597 83.7455ZM902.82 87.5719C905.011 88.1513 907.232 88.7125 909.484 89.2543L909.718 88.282C907.474 87.742 905.259 87.1827 903.076 86.6051L902.82 87.5719ZM916.173 90.7854C918.399 91.2693 920.653 91.7341 922.935 92.1787L923.127 91.1972C920.851 90.754 918.604 90.2906 916.385 89.8082L916.173 90.7854ZM929.682 93.4191C931.917 93.8057 934.178 94.173 936.465 94.5199L936.615 93.5313C934.335 93.1854 932.081 92.8192 929.852 92.4337L929.682 93.4191ZM943.306 95.4861C945.546 95.7793 947.81 96.0529 950.097 96.3061L950.207 95.3122C947.927 95.0597 945.67 94.7869 943.436 94.4946L943.306 95.4861ZM956.965 96.9981C959.221 97.2032 961.499 97.3884 963.799 97.5531L963.871 96.5556C961.577 96.3914 959.306 96.2067 957.056 96.0022L956.965 96.9981ZM970.667 97.9796C972.938 98.0993 975.23 98.199 977.542 98.278L977.576 97.2786C975.27 97.1998 972.985 97.1004 970.72 96.981L970.667 97.9796ZM984.403 98.4502C986.683 98.4868 988.983 98.5035 991.302 98.4994L991.3 97.4994C988.987 97.5034 986.693 97.4869 984.419 97.4503L984.403 98.4502ZM998.15 98.4278C1000.43 98.3841 1002.74 98.3205 1005.06 98.2363L1005.02 97.237C1002.71 97.321 1000.41 97.3844 998.131 97.428L998.15 98.4278ZM1011.89 97.9311C1014.17 97.8101 1016.47 97.6693 1018.79 97.5081L1018.72 96.5105C1016.41 96.6713 1014.11 96.8118 1011.84 96.9325L1011.89 97.9311ZM1025.6 96.9788C1027.88 96.7837 1030.17 96.569 1032.48 96.3342L1032.38 95.3393C1030.08 95.5736 1027.79 95.7878 1025.52 95.9825L1025.6 96.9788ZM1039.28 95.5895C1041.55 95.3236 1043.83 95.0384 1046.13 94.7336L1046 93.7423C1043.71 94.0464 1041.43 94.331 1039.17 94.5963L1039.28 95.5895ZM1052.92 93.7811C1055.17 93.448 1057.44 93.0959 1059.72 92.7246L1059.56 91.7376C1057.28 92.1081 1055.02 92.4594 1052.77 92.7919L1052.92 93.7811ZM1066.5 91.5712C1068.73 91.1742 1070.98 90.7589 1073.24 90.3247L1073.05 89.3427C1070.8 89.7759 1068.55 90.1905 1066.32 90.5865L1066.5 91.5712ZM1080.02 88.9759C1082.23 88.5189 1084.46 88.0438 1086.7 87.5505L1086.48 86.5739C1084.25 87.0663 1082.03 87.5404 1079.81 87.9965L1080.02 88.9759ZM1093.45 86.0154C1095.65 85.5003 1097.86 84.9676 1100.09 84.4171L1099.85 83.4464C1097.63 83.9959 1095.42 84.5276 1093.23 85.0417L1093.45 86.0154Z" fill="#5E4765" fill-opacity="0.6"/>
<path d="M761 31.9216L755.428 33.4333L756.905 27.8519L761 31.9216ZM463.622 80.6724C464.376 79.804 465.173 78.9213 466.014 78.0263L466.743 78.711C465.91 79.5968 465.122 80.4697 464.378 81.3276L463.622 80.6724ZM471.109 72.9623C472.781 71.4027 474.574 69.8182 476.488 68.2177L477.13 68.9849C475.229 70.5742 473.449 72.1468 471.791 73.6936L471.109 72.9623ZM482.116 63.7368C483.967 62.3317 485.908 60.9208 487.939 59.5098L488.51 60.331C486.49 61.7341 484.56 63.1368 482.721 64.5333L482.116 63.7368ZM493.911 55.5306C495.876 54.2745 497.913 53.0227 500.021 51.7794L500.529 52.6407C498.431 53.878 496.405 55.1236 494.45 56.3732L493.911 55.5306ZM506.262 48.2397C508.319 47.1177 510.437 46.0061 512.613 44.9082L513.064 45.801C510.896 46.8942 508.789 48.0008 506.74 49.1177L506.262 48.2397ZM519.053 41.784C521.178 40.7923 523.355 39.8149 525.583 38.8546L525.978 39.7728C523.76 40.7293 521.592 41.7027 519.475 42.6902L519.053 41.784ZM532.198 36.114C534.386 35.2439 536.618 34.391 538.895 33.5574L539.239 34.4964C536.971 35.3269 534.747 36.1765 532.568 37.0432L532.198 36.114ZM545.671 31.1803C547.913 30.4271 550.196 29.6931 552.519 28.9802L552.812 29.9362C550.498 30.6466 548.223 31.3779 545.989 32.1283L545.671 31.1803ZM559.369 26.9726C561.639 26.3384 563.945 25.7246 566.286 25.1328L566.532 26.1023C564.198 26.6921 561.9 27.3038 559.638 27.9358L559.369 26.9726ZM573.27 23.458C575.577 22.9342 577.917 22.4319 580.289 21.9525L580.487 22.9327C578.122 23.4106 575.791 23.9112 573.491 24.4332L573.27 23.458ZM587.304 20.6191C589.633 20.2041 591.992 19.8112 594.381 19.4416L594.533 20.4299C592.152 20.7983 589.801 21.19 587.479 21.6036L587.304 20.6191ZM601.494 18.4222C603.829 18.1141 606.19 17.8283 608.578 17.5657L608.687 18.5597C606.306 18.8215 603.952 19.1065 601.625 19.4136L601.494 18.4222ZM615.724 16.8576C618.08 16.6493 620.462 16.4637 622.869 16.3017L622.936 17.2994C620.536 17.461 618.161 17.6461 615.812 17.8537L615.724 16.8576ZM630.004 15.8945C632.381 15.7831 634.781 15.6947 637.205 15.63L637.232 16.6296C634.815 16.6941 632.421 16.7823 630.051 16.8934L630.004 15.8945ZM644.328 15.5096C646.7 15.4925 649.094 15.4982 651.508 15.5273L651.496 16.5272C649.088 16.4982 646.701 16.4925 644.335 16.5095L644.328 15.5096ZM658.664 15.681C661.028 15.7539 663.412 15.8492 665.816 15.9676L665.767 16.9664C663.369 16.8483 660.991 16.7532 658.633 16.6805L658.664 15.681ZM672.986 16.3858C675.34 16.5444 677.713 16.7251 680.104 16.9284L680.019 17.9248C677.634 17.722 675.267 17.5418 672.918 17.3836L672.986 16.3858ZM687.271 17.6006C689.615 17.8408 691.975 18.1027 694.353 18.3868L694.234 19.3797C691.862 19.0963 689.507 18.835 687.169 18.5954L687.271 17.6006ZM701.502 19.3016C703.834 19.6196 706.182 19.9589 708.545 20.32L708.394 21.3085C706.036 20.9483 703.693 20.6097 701.367 20.2924L701.502 19.3016ZM715.663 21.4654C717.983 21.8578 720.319 22.271 722.669 22.7055L722.487 23.6889C720.142 23.2553 717.811 22.8429 715.496 22.4514L715.663 21.4654ZM729.742 24.0693C732.052 24.5329 734.376 25.0169 736.713 25.5219L736.502 26.4994C734.169 25.9954 731.85 25.5123 729.545 25.0498L729.742 24.0693ZM743.731 27.0914C746.032 27.6235 748.346 28.1758 750.673 28.7485L750.434 29.7195C748.111 29.1479 745.802 28.5967 743.506 28.0657L743.731 27.0914Z" fill="#5E4765" fill-opacity="0.6"/>
<path d="M1026.7 154V140.646H1021.28V138.6H1034.42V140.646H1029.01V154H1026.7ZM1037.29 154.198C1036.48 154.198 1035.77 154.059 1035.15 153.78C1034.54 153.487 1034.05 153.083 1033.7 152.57C1033.35 152.057 1033.17 151.463 1033.17 150.788C1033.17 149.732 1033.58 148.903 1034.38 148.302C1035.19 147.686 1036.3 147.378 1037.71 147.378C1038.81 147.378 1039.82 147.591 1040.76 148.016V146.828C1040.76 146.021 1040.53 145.42 1040.06 145.024C1039.6 144.628 1038.93 144.43 1038.04 144.43C1037.52 144.43 1036.99 144.511 1036.43 144.672C1035.87 144.819 1035.25 145.053 1034.56 145.376L1033.75 143.726C1034.6 143.33 1035.39 143.044 1036.12 142.868C1036.85 142.677 1037.6 142.582 1038.34 142.582C1039.8 142.582 1040.92 142.927 1041.71 143.616C1042.52 144.305 1042.92 145.288 1042.92 146.564V154H1040.76V153.032C1040.26 153.428 1039.73 153.721 1039.16 153.912C1038.59 154.103 1037.96 154.198 1037.29 154.198ZM1035.29 150.744C1035.29 151.287 1035.51 151.727 1035.97 152.064C1036.44 152.387 1037.05 152.548 1037.79 152.548C1038.38 152.548 1038.92 152.467 1039.4 152.306C1039.9 152.13 1040.35 151.859 1040.76 151.492V149.6C1040.34 149.351 1039.89 149.175 1039.42 149.072C1038.97 148.955 1038.45 148.896 1037.88 148.896C1037.07 148.896 1036.44 149.065 1035.97 149.402C1035.51 149.725 1035.29 150.172 1035.29 150.744ZM1045.45 154V138.6L1047.65 138.182V147.708L1053.09 142.802H1055.66L1049.88 148.038L1055.97 154H1053.07L1047.65 148.742V154H1045.45ZM1061.37 154.198C1060.27 154.198 1059.27 153.941 1058.38 153.428C1057.5 152.915 1056.8 152.218 1056.27 151.338C1055.75 150.458 1055.5 149.475 1055.5 148.39C1055.5 147.319 1055.75 146.351 1056.25 145.486C1056.74 144.606 1057.42 143.909 1058.27 143.396C1059.12 142.868 1060.07 142.604 1061.11 142.604C1062.15 142.604 1063.07 142.868 1063.88 143.396C1064.69 143.909 1065.32 144.613 1065.79 145.508C1066.28 146.388 1066.52 147.385 1066.52 148.5V149.116H1057.7C1057.81 149.732 1058.04 150.282 1058.38 150.766C1058.73 151.25 1059.17 151.631 1059.7 151.91C1060.24 152.189 1060.83 152.328 1061.46 152.328C1062 152.328 1062.52 152.247 1063.02 152.086C1063.53 151.91 1063.96 151.661 1064.3 151.338L1065.71 152.724C1065.05 153.223 1064.36 153.597 1063.66 153.846C1062.97 154.081 1062.21 154.198 1061.37 154.198ZM1057.72 147.466H1064.34C1064.25 146.879 1064.05 146.366 1063.73 145.926C1063.42 145.471 1063.03 145.119 1062.56 144.87C1062.1 144.606 1061.61 144.474 1061.06 144.474C1060.51 144.474 1059.99 144.599 1059.52 144.848C1059.05 145.097 1058.66 145.449 1058.34 145.904C1058.03 146.344 1057.82 146.865 1057.72 147.466ZM1078.1 154V147.884L1071.89 138.6H1074.58L1079.31 145.838L1084.04 138.6H1086.61L1080.41 147.928V154H1078.1ZM1090.4 154.22C1089.31 154.22 1088.32 153.963 1087.43 153.45C1086.55 152.937 1085.85 152.24 1085.34 151.36C1084.82 150.48 1084.57 149.497 1084.57 148.412C1084.57 147.327 1084.82 146.344 1085.34 145.464C1085.85 144.584 1086.55 143.887 1087.43 143.374C1088.32 142.846 1089.31 142.582 1090.4 142.582C1091.5 142.582 1092.49 142.846 1093.37 143.374C1094.25 143.887 1094.94 144.584 1095.46 145.464C1095.97 146.344 1096.23 147.327 1096.23 148.412C1096.23 149.497 1095.97 150.48 1095.46 151.36C1094.94 152.24 1094.25 152.937 1093.37 153.45C1092.49 153.963 1091.5 154.22 1090.4 154.22ZM1090.4 152.284C1091.08 152.284 1091.71 152.115 1092.27 151.778C1092.82 151.426 1093.26 150.957 1093.59 150.37C1093.91 149.783 1094.07 149.123 1094.07 148.39C1094.07 147.671 1093.9 147.026 1093.56 146.454C1093.24 145.867 1092.8 145.398 1092.24 145.046C1091.7 144.694 1091.08 144.518 1090.4 144.518C1089.71 144.518 1089.08 144.694 1088.53 145.046C1087.98 145.398 1087.54 145.867 1087.21 146.454C1086.88 147.026 1086.72 147.671 1086.72 148.39C1086.72 149.123 1086.88 149.783 1087.21 150.37C1087.53 150.957 1087.97 151.426 1088.53 151.778C1089.08 152.115 1089.71 152.284 1090.4 152.284ZM1102.64 154.22C1101.77 154.22 1101.01 154.037 1100.35 153.67C1099.69 153.303 1099.18 152.79 1098.81 152.13C1098.45 151.455 1098.26 150.685 1098.26 149.82V142.802H1100.44V149.446C1100.44 150.326 1100.69 151.023 1101.19 151.536C1101.7 152.049 1102.38 152.306 1103.23 152.306C1103.84 152.306 1104.37 152.181 1104.84 151.932C1105.31 151.668 1105.69 151.301 1105.98 150.832V142.802H1108.18V154H1105.98V152.856C1105.12 153.765 1104 154.22 1102.64 154.22ZM1110.79 154V142.802H1112.99V144.232C1113.34 143.704 1113.77 143.293 1114.29 143C1114.81 142.692 1115.41 142.538 1116.07 142.538C1116.52 142.553 1116.9 142.619 1117.19 142.736V144.716C1116.98 144.628 1116.77 144.569 1116.55 144.54C1116.33 144.496 1116.11 144.474 1115.89 144.474C1115.25 144.474 1114.67 144.65 1114.18 145.002C1113.68 145.339 1113.28 145.838 1112.99 146.498V154H1110.79ZM1123.81 154V138.6H1135.21V140.624H1126.12V145.354H1132.11V147.312H1126.12V154H1123.81ZM1136.87 154V142.802H1139.07V154H1136.87ZM1137.97 140.998C1137.6 140.998 1137.29 140.866 1137.02 140.602C1136.76 140.323 1136.63 140.001 1136.63 139.634C1136.63 139.253 1136.76 138.937 1137.02 138.688C1137.29 138.424 1137.6 138.292 1137.97 138.292C1138.35 138.292 1138.67 138.424 1138.94 138.688C1139.2 138.937 1139.33 139.253 1139.33 139.634C1139.33 140.001 1139.2 140.323 1138.94 140.602C1138.67 140.866 1138.35 140.998 1137.97 140.998ZM1141.66 154V142.802H1143.86V144.232C1144.21 143.704 1144.65 143.293 1145.16 143C1145.69 142.692 1146.28 142.538 1146.94 142.538C1147.4 142.553 1147.77 142.619 1148.06 142.736V144.716C1147.86 144.628 1147.65 144.569 1147.43 144.54C1147.21 144.496 1146.99 144.474 1146.77 144.474C1146.12 144.474 1145.55 144.65 1145.05 145.002C1144.55 145.339 1144.15 145.838 1143.86 146.498V154H1141.66ZM1153.68 154.22C1152.71 154.22 1151.8 154.081 1150.95 153.802C1150.11 153.509 1149.39 153.098 1148.77 152.57L1149.98 151.118C1150.55 151.573 1151.14 151.925 1151.74 152.174C1152.36 152.409 1152.98 152.526 1153.61 152.526C1154.4 152.526 1155.05 152.372 1155.55 152.064C1156.04 151.756 1156.29 151.353 1156.29 150.854C1156.29 150.443 1156.15 150.121 1155.85 149.886C1155.56 149.651 1155.11 149.49 1154.49 149.402L1152.47 149.116C1151.35 148.955 1150.51 148.61 1149.96 148.082C1149.4 147.554 1149.12 146.85 1149.12 145.97C1149.12 145.295 1149.3 144.709 1149.67 144.21C1150.04 143.697 1150.55 143.301 1151.21 143.022C1151.87 142.729 1152.64 142.582 1153.52 142.582C1154.33 142.582 1155.11 142.699 1155.85 142.934C1156.6 143.169 1157.32 143.535 1158.01 144.034L1156.89 145.486C1156.27 145.075 1155.67 144.775 1155.08 144.584C1154.51 144.393 1153.93 144.298 1153.35 144.298C1152.67 144.298 1152.13 144.445 1151.72 144.738C1151.31 145.017 1151.1 145.383 1151.1 145.838C1151.1 146.249 1151.24 146.571 1151.52 146.806C1151.81 147.026 1152.29 147.18 1152.95 147.268L1154.97 147.554C1156.09 147.715 1156.93 148.06 1157.5 148.588C1158.08 149.101 1158.36 149.798 1158.36 150.678C1158.36 151.353 1158.16 151.961 1157.75 152.504C1157.33 153.032 1156.78 153.45 1156.07 153.758C1155.37 154.066 1154.57 154.22 1153.68 154.22ZM1164.63 154.198C1163.55 154.198 1162.72 153.949 1162.15 153.45C1161.58 152.937 1161.29 152.196 1161.29 151.228V144.65H1158.91V142.802H1161.29V139.942L1163.47 139.414V142.802H1166.77V144.65H1163.47V150.722C1163.47 151.294 1163.59 151.705 1163.84 151.954C1164.11 152.189 1164.53 152.306 1165.12 152.306C1165.43 152.306 1165.7 152.284 1165.93 152.24C1166.18 152.196 1166.44 152.13 1166.72 152.042V153.89C1166.43 153.993 1166.09 154.066 1165.69 154.11C1165.31 154.169 1164.96 154.198 1164.63 154.198ZM1054.02 188V172.6H1060.69C1061.7 172.6 1062.58 172.769 1063.33 173.106C1064.08 173.443 1064.66 173.92 1065.07 174.536C1065.48 175.137 1065.68 175.849 1065.68 176.67C1065.68 177.418 1065.49 178.078 1065.11 178.65C1064.73 179.222 1064.19 179.677 1063.5 180.014C1064.37 180.322 1065.04 180.791 1065.53 181.422C1066.03 182.038 1066.28 182.764 1066.28 183.6C1066.28 184.495 1066.06 185.272 1065.62 185.932C1065.19 186.592 1064.57 187.105 1063.77 187.472C1062.98 187.824 1062.04 188 1060.97 188H1054.02ZM1056.33 179.134H1060.56C1061.42 179.134 1062.11 178.929 1062.62 178.518C1063.14 178.107 1063.39 177.55 1063.39 176.846C1063.39 176.142 1063.14 175.585 1062.62 175.174C1062.11 174.763 1061.42 174.558 1060.56 174.558H1056.33V179.134ZM1056.33 186.042H1060.8C1061.77 186.042 1062.53 185.815 1063.09 185.36C1063.66 184.905 1063.94 184.289 1063.94 183.512C1063.94 182.749 1063.66 182.141 1063.09 181.686C1062.53 181.217 1061.77 180.982 1060.8 180.982H1056.33V186.042ZM1073.63 188.22C1072.54 188.22 1071.55 187.963 1070.66 187.45C1069.78 186.937 1069.08 186.24 1068.57 185.36C1068.05 184.48 1067.8 183.497 1067.8 182.412C1067.8 181.327 1068.05 180.344 1068.57 179.464C1069.08 178.584 1069.78 177.887 1070.66 177.374C1071.55 176.846 1072.54 176.582 1073.63 176.582C1074.73 176.582 1075.72 176.846 1076.6 177.374C1077.48 177.887 1078.17 178.584 1078.69 179.464C1079.2 180.344 1079.46 181.327 1079.46 182.412C1079.46 183.497 1079.2 184.48 1078.69 185.36C1078.17 186.24 1077.48 186.937 1076.6 187.45C1075.72 187.963 1074.73 188.22 1073.63 188.22ZM1073.63 186.284C1074.32 186.284 1074.94 186.115 1075.5 185.778C1076.05 185.426 1076.49 184.957 1076.82 184.37C1077.14 183.783 1077.3 183.123 1077.3 182.39C1077.3 181.671 1077.13 181.026 1076.79 180.454C1076.47 179.867 1076.03 179.398 1075.47 179.046C1074.93 178.694 1074.32 178.518 1073.63 178.518C1072.94 178.518 1072.31 178.694 1071.76 179.046C1071.21 179.398 1070.77 179.867 1070.44 180.454C1070.11 181.026 1069.95 181.671 1069.95 182.39C1069.95 183.123 1070.11 183.783 1070.44 184.37C1070.76 184.957 1071.2 185.426 1071.76 185.778C1072.31 186.115 1072.94 186.284 1073.63 186.284ZM1086.86 188.22C1085.78 188.22 1084.79 187.963 1083.89 187.45C1083.01 186.937 1082.31 186.24 1081.8 185.36C1081.29 184.48 1081.03 183.497 1081.03 182.412C1081.03 181.327 1081.29 180.344 1081.8 179.464C1082.31 178.584 1083.01 177.887 1083.89 177.374C1084.79 176.846 1085.78 176.582 1086.86 176.582C1087.96 176.582 1088.95 176.846 1089.83 177.374C1090.71 177.887 1091.41 178.584 1091.92 179.464C1092.43 180.344 1092.69 181.327 1092.69 182.412C1092.69 183.497 1092.43 184.48 1091.92 185.36C1091.41 186.24 1090.71 186.937 1089.83 187.45C1088.95 187.963 1087.96 188.22 1086.86 188.22ZM1086.86 186.284C1087.55 186.284 1088.17 186.115 1088.73 185.778C1089.29 185.426 1089.73 184.957 1090.05 184.37C1090.37 183.783 1090.54 183.123 1090.54 182.39C1090.54 181.671 1090.37 181.026 1090.03 180.454C1089.71 179.867 1089.27 179.398 1088.71 179.046C1088.17 178.694 1087.55 178.518 1086.86 178.518C1086.17 178.518 1085.55 178.694 1084.99 179.046C1084.45 179.398 1084.01 179.867 1083.67 180.454C1083.35 181.026 1083.19 181.671 1083.19 182.39C1083.19 183.123 1083.35 183.783 1083.67 184.37C1083.99 184.957 1084.43 185.426 1084.99 185.778C1085.55 186.115 1086.17 186.284 1086.86 186.284ZM1094.77 188V172.6L1096.97 172.182V181.708L1102.41 176.802H1104.98L1099.19 182.038L1105.29 188H1102.38L1096.97 182.742V188H1094.77ZM1106.31 188V176.802H1108.51V188H1106.31ZM1107.41 174.998C1107.04 174.998 1106.73 174.866 1106.46 174.602C1106.2 174.323 1106.07 174.001 1106.07 173.634C1106.07 173.253 1106.2 172.937 1106.46 172.688C1106.73 172.424 1107.04 172.292 1107.41 172.292C1107.79 172.292 1108.11 172.424 1108.38 172.688C1108.64 172.937 1108.77 173.253 1108.77 173.634C1108.77 174.001 1108.64 174.323 1108.38 174.602C1108.11 174.866 1107.79 174.998 1107.41 174.998ZM1111.1 188V176.802H1113.3V177.946C1114.17 177.037 1115.29 176.582 1116.67 176.582C1117.53 176.582 1118.29 176.765 1118.93 177.132C1119.59 177.499 1120.11 178.012 1120.47 178.672C1120.85 179.332 1121.04 180.095 1121.04 180.96V188H1118.84V181.334C1118.84 180.454 1118.59 179.765 1118.1 179.266C1117.61 178.753 1116.93 178.496 1116.05 178.496C1115.46 178.496 1114.94 178.621 1114.47 178.87C1114 179.119 1113.61 179.479 1113.3 179.948V188H1111.1ZM1129.13 192.708C1128.3 192.708 1127.51 192.613 1126.73 192.422C1125.95 192.231 1125.25 191.96 1124.62 191.608L1125.45 189.892C1126.11 190.229 1126.73 190.471 1127.3 190.618C1127.89 190.779 1128.47 190.86 1129.06 190.86C1130.04 190.86 1130.78 190.633 1131.28 190.178C1131.8 189.723 1132.05 189.056 1132.05 188.176V186.9C1131.07 187.677 1129.95 188.066 1128.69 188.066C1127.66 188.066 1126.71 187.817 1125.85 187.318C1125 186.805 1124.32 186.115 1123.82 185.25C1123.33 184.37 1123.08 183.402 1123.08 182.346C1123.08 181.275 1123.33 180.307 1123.82 179.442C1124.34 178.562 1125.02 177.873 1125.87 177.374C1126.74 176.861 1127.7 176.604 1128.77 176.604C1129.38 176.604 1129.95 176.707 1130.51 176.912C1131.08 177.103 1131.6 177.381 1132.07 177.748V176.802H1134.25V188.176C1134.25 189.628 1133.8 190.743 1132.91 191.52C1132.03 192.312 1130.77 192.708 1129.13 192.708ZM1128.97 186.174C1129.62 186.174 1130.2 186.064 1130.73 185.844C1131.26 185.609 1131.7 185.279 1132.05 184.854V179.838C1131.7 179.427 1131.25 179.105 1130.71 178.87C1130.18 178.635 1129.6 178.518 1128.97 178.518C1128.27 178.518 1127.63 178.687 1127.06 179.024C1126.5 179.361 1126.05 179.823 1125.72 180.41C1125.39 180.982 1125.23 181.627 1125.23 182.346C1125.23 183.065 1125.39 183.717 1125.72 184.304C1126.05 184.876 1126.5 185.331 1127.06 185.668C1127.63 186.005 1128.27 186.174 1128.97 186.174Z" fill="#20184E"/>
<rect x="1068" y="30" width="74" height="76.3871" rx="15.914" fill="#19C3C0"/>
<path d="M702.354 133V117.6H704.598L713.2 129.04V117.6H715.378V133H713.354L704.554 121.208V133H702.354ZM723.592 133.22C722.506 133.22 721.516 132.963 720.622 132.45C719.742 131.937 719.045 131.24 718.532 130.36C718.018 129.48 717.762 128.497 717.762 127.412C717.762 126.327 718.018 125.344 718.532 124.464C719.045 123.584 719.742 122.887 720.622 122.374C721.516 121.846 722.506 121.582 723.592 121.582C724.692 121.582 725.682 121.846 726.562 122.374C727.442 122.887 728.138 123.584 728.652 124.464C729.165 125.344 729.422 126.327 729.422 127.412C729.422 128.497 729.165 129.48 728.652 130.36C728.138 131.24 727.442 131.937 726.562 132.45C725.682 132.963 724.692 133.22 723.592 133.22ZM723.592 131.284C724.281 131.284 724.904 131.115 725.462 130.778C726.019 130.426 726.459 129.957 726.782 129.37C727.104 128.783 727.266 128.123 727.266 127.39C727.266 126.671 727.097 126.026 726.76 125.454C726.437 124.867 725.997 124.398 725.44 124.046C724.897 123.694 724.281 123.518 723.592 123.518C722.902 123.518 722.279 123.694 721.722 124.046C721.179 124.398 720.739 124.867 720.402 125.454C720.079 126.026 719.918 126.671 719.918 127.39C719.918 128.123 720.079 128.783 720.402 129.37C720.724 129.957 721.164 130.426 721.722 130.778C722.279 131.115 722.902 131.284 723.592 131.284ZM733.377 133L730.253 121.802H732.387L734.565 130.03L737.117 121.802H739.009L741.561 130.03L743.739 121.802H745.807L742.661 133H740.549L738.041 124.794L735.511 133H733.377ZM757.455 133.22C756.223 133.22 755.035 132.978 753.891 132.494C752.747 132.01 751.735 131.328 750.855 130.448L752.263 128.82C753.099 129.641 753.949 130.25 754.815 130.646C755.695 131.042 756.611 131.24 757.565 131.24C758.313 131.24 758.965 131.137 759.523 130.932C760.095 130.712 760.535 130.404 760.843 130.008C761.151 129.612 761.305 129.165 761.305 128.666C761.305 127.977 761.063 127.449 760.579 127.082C760.095 126.715 759.295 126.437 758.181 126.246L755.607 125.828C754.199 125.579 753.143 125.124 752.439 124.464C751.749 123.804 751.405 122.924 751.405 121.824C751.405 120.944 751.639 120.174 752.109 119.514C752.578 118.839 753.238 118.319 754.089 117.952C754.954 117.585 755.951 117.402 757.081 117.402C758.195 117.402 759.288 117.585 760.359 117.952C761.444 118.304 762.419 118.817 763.285 119.492L762.009 121.252C760.351 119.991 758.672 119.36 756.971 119.36C756.296 119.36 755.709 119.455 755.211 119.646C754.712 119.837 754.323 120.108 754.045 120.46C753.766 120.797 753.627 121.193 753.627 121.648C753.627 122.279 753.839 122.763 754.265 123.1C754.69 123.423 755.394 123.657 756.377 123.804L758.863 124.222C760.491 124.486 761.686 124.963 762.449 125.652C763.211 126.341 763.593 127.287 763.593 128.49C763.593 129.429 763.336 130.257 762.823 130.976C762.309 131.68 761.591 132.23 760.667 132.626C759.743 133.022 758.672 133.22 757.455 133.22ZM771.052 133.198C769.952 133.198 768.954 132.941 768.06 132.428C767.18 131.915 766.476 131.218 765.948 130.338C765.434 129.458 765.178 128.475 765.178 127.39C765.178 126.319 765.427 125.351 765.926 124.486C766.424 123.606 767.099 122.909 767.95 122.396C768.8 121.868 769.746 121.604 770.788 121.604C771.829 121.604 772.753 121.868 773.56 122.396C774.366 122.909 775.004 123.613 775.474 124.508C775.958 125.388 776.2 126.385 776.2 127.5V128.116H767.378C767.495 128.732 767.722 129.282 768.06 129.766C768.412 130.25 768.852 130.631 769.38 130.91C769.922 131.189 770.509 131.328 771.14 131.328C771.682 131.328 772.203 131.247 772.702 131.086C773.215 130.91 773.64 130.661 773.978 130.338L775.386 131.724C774.726 132.223 774.044 132.597 773.34 132.846C772.65 133.081 771.888 133.198 771.052 133.198ZM767.4 126.466H774.022C773.934 125.879 773.728 125.366 773.406 124.926C773.098 124.471 772.709 124.119 772.24 123.87C771.785 123.606 771.286 123.474 770.744 123.474C770.186 123.474 769.673 123.599 769.204 123.848C768.734 124.097 768.338 124.449 768.016 124.904C767.708 125.344 767.502 125.865 767.4 126.466ZM782.769 133.198C781.683 133.198 780.855 132.949 780.283 132.45C779.711 131.937 779.425 131.196 779.425 130.228V123.65H777.049V121.802H779.425V118.942L781.603 118.414V121.802H784.903V123.65H781.603V129.722C781.603 130.294 781.727 130.705 781.977 130.954C782.241 131.189 782.666 131.306 783.253 131.306C783.561 131.306 783.832 131.284 784.067 131.24C784.316 131.196 784.58 131.13 784.859 131.042V132.89C784.565 132.993 784.221 133.066 783.825 133.11C783.443 133.169 783.091 133.198 782.769 133.198ZM797.655 133.242C796.321 133.242 795.162 132.963 794.179 132.406C793.197 131.849 792.441 131.064 791.913 130.052C791.385 129.025 791.121 127.815 791.121 126.422V117.6H793.431V126.422C793.431 127.375 793.6 128.204 793.937 128.908C794.289 129.612 794.781 130.155 795.411 130.536C796.057 130.917 796.805 131.108 797.655 131.108C798.535 131.108 799.291 130.917 799.921 130.536C800.552 130.155 801.036 129.612 801.373 128.908C801.725 128.204 801.901 127.375 801.901 126.422V117.6H804.211V126.422C804.211 127.815 803.94 129.025 803.397 130.052C802.869 131.064 802.114 131.849 801.131 132.406C800.149 132.963 798.99 133.242 797.655 133.242ZM806.805 137.488V121.802H808.983V122.88C809.922 122.044 811.066 121.626 812.415 121.626C813.471 121.626 814.424 121.883 815.275 122.396C816.14 122.909 816.822 123.599 817.321 124.464C817.82 125.329 818.069 126.305 818.069 127.39C818.069 128.475 817.812 129.458 817.299 130.338C816.8 131.203 816.118 131.893 815.253 132.406C814.402 132.919 813.442 133.176 812.371 133.176C811.755 133.176 811.161 133.081 810.589 132.89C810.017 132.685 809.489 132.399 809.005 132.032V137.488H806.805ZM812.129 131.262C812.848 131.262 813.486 131.093 814.043 130.756C814.615 130.419 815.07 129.964 815.407 129.392C815.744 128.805 815.913 128.145 815.913 127.412C815.913 126.679 815.744 126.019 815.407 125.432C815.07 124.845 814.615 124.383 814.043 124.046C813.486 123.709 812.848 123.54 812.129 123.54C811.498 123.54 810.912 123.657 810.369 123.892C809.826 124.127 809.372 124.457 809.005 124.882V129.942C809.372 130.353 809.826 130.675 810.369 130.91C810.926 131.145 811.513 131.262 812.129 131.262ZM829.65 133V126.884L823.446 117.6H826.13L830.86 124.838L835.59 117.6H838.164L831.96 126.928V133H829.65ZM841.949 133.22C840.864 133.22 839.874 132.963 838.979 132.45C838.099 131.937 837.402 131.24 836.889 130.36C836.376 129.48 836.119 128.497 836.119 127.412C836.119 126.327 836.376 125.344 836.889 124.464C837.402 123.584 838.099 122.887 838.979 122.374C839.874 121.846 840.864 121.582 841.949 121.582C843.049 121.582 844.039 121.846 844.919 122.374C845.799 122.887 846.496 123.584 847.009 124.464C847.522 125.344 847.779 126.327 847.779 127.412C847.779 128.497 847.522 129.48 847.009 130.36C846.496 131.24 845.799 131.937 844.919 132.45C844.039 132.963 843.049 133.22 841.949 133.22ZM841.949 131.284C842.638 131.284 843.262 131.115 843.819 130.778C844.376 130.426 844.816 129.957 845.139 129.37C845.462 128.783 845.623 128.123 845.623 127.39C845.623 126.671 845.454 126.026 845.117 125.454C844.794 124.867 844.354 124.398 843.797 124.046C843.254 123.694 842.638 123.518 841.949 123.518C841.26 123.518 840.636 123.694 840.079 124.046C839.536 124.398 839.096 124.867 838.759 125.454C838.436 126.026 838.275 126.671 838.275 127.39C838.275 128.123 838.436 128.783 838.759 129.37C839.082 129.957 839.522 130.426 840.079 130.778C840.636 131.115 841.26 131.284 841.949 131.284ZM854.194 133.22C853.328 133.22 852.566 133.037 851.906 132.67C851.246 132.303 850.732 131.79 850.366 131.13C849.999 130.455 849.816 129.685 849.816 128.82V121.802H851.994V128.446C851.994 129.326 852.243 130.023 852.742 130.536C853.255 131.049 853.937 131.306 854.788 131.306C855.389 131.306 855.924 131.181 856.394 130.932C856.863 130.668 857.244 130.301 857.538 129.832V121.802H859.738V133H857.538V131.856C856.672 132.765 855.558 133.22 854.194 133.22ZM862.342 133V121.802H864.542V123.232C864.894 122.704 865.327 122.293 865.84 122C866.368 121.692 866.962 121.538 867.622 121.538C868.077 121.553 868.451 121.619 868.744 121.736V123.716C868.539 123.628 868.326 123.569 868.106 123.54C867.886 123.496 867.666 123.474 867.446 123.474C866.801 123.474 866.229 123.65 865.73 124.002C865.231 124.339 864.835 124.838 864.542 125.498V133H862.342ZM754.146 167L747.854 151.6H750.34L755.554 164.712L760.856 151.6H763.232L756.852 167H754.146ZM768.42 167.198C767.32 167.198 766.323 166.941 765.428 166.428C764.548 165.915 763.844 165.218 763.316 164.338C762.803 163.458 762.546 162.475 762.546 161.39C762.546 160.319 762.795 159.351 763.294 158.486C763.793 157.606 764.467 156.909 765.318 156.396C766.169 155.868 767.115 155.604 768.156 155.604C769.197 155.604 770.121 155.868 770.928 156.396C771.735 156.909 772.373 157.613 772.842 158.508C773.326 159.388 773.568 160.385 773.568 161.5V162.116H764.746C764.863 162.732 765.091 163.282 765.428 163.766C765.78 164.25 766.22 164.631 766.748 164.91C767.291 165.189 767.877 165.328 768.508 165.328C769.051 165.328 769.571 165.247 770.07 165.086C770.583 164.91 771.009 164.661 771.346 164.338L772.754 165.724C772.094 166.223 771.412 166.597 770.708 166.846C770.019 167.081 769.256 167.198 768.42 167.198ZM764.768 160.466H771.39C771.302 159.879 771.097 159.366 770.774 158.926C770.466 158.471 770.077 158.119 769.608 157.87C769.153 157.606 768.655 157.474 768.112 157.474C767.555 157.474 767.041 157.599 766.572 157.848C766.103 158.097 765.707 158.449 765.384 158.904C765.076 159.344 764.871 159.865 764.768 160.466ZM775.663 167V155.802H777.863V156.946C778.729 156.037 779.851 155.582 781.229 155.582C782.095 155.582 782.85 155.765 783.495 156.132C784.155 156.499 784.669 157.012 785.035 157.672C785.417 158.332 785.607 159.095 785.607 159.96V167H783.407V160.334C783.407 159.454 783.158 158.765 782.659 158.266C782.175 157.753 781.493 157.496 780.613 157.496C780.027 157.496 779.499 157.621 779.029 157.87C778.56 158.119 778.171 158.479 777.863 158.948V167H775.663ZM792.372 167.22C791.507 167.22 790.744 167.037 790.084 166.67C789.424 166.303 788.911 165.79 788.544 165.13C788.178 164.455 787.994 163.685 787.994 162.82V155.802H790.172V162.446C790.172 163.326 790.422 164.023 790.92 164.536C791.434 165.049 792.116 165.306 792.966 165.306C793.568 165.306 794.103 165.181 794.572 164.932C795.042 164.668 795.423 164.301 795.716 163.832V155.802H797.916V167H795.716V165.856C794.851 166.765 793.736 167.22 792.372 167.22ZM805.889 167.198C804.789 167.198 803.791 166.941 802.897 166.428C802.017 165.915 801.313 165.218 800.785 164.338C800.271 163.458 800.015 162.475 800.015 161.39C800.015 160.319 800.264 159.351 800.763 158.486C801.261 157.606 801.936 156.909 802.787 156.396C803.637 155.868 804.583 155.604 805.625 155.604C806.666 155.604 807.59 155.868 808.397 156.396C809.203 156.909 809.841 157.613 810.311 158.508C810.795 159.388 811.037 160.385 811.037 161.5V162.116H802.215C802.332 162.732 802.559 163.282 802.897 163.766C803.249 164.25 803.689 164.631 804.217 164.91C804.759 165.189 805.346 165.328 805.977 165.328C806.519 165.328 807.04 165.247 807.539 165.086C808.052 164.91 808.477 164.661 808.815 164.338L810.223 165.724C809.563 166.223 808.881 166.597 808.177 166.846C807.487 167.081 806.725 167.198 805.889 167.198ZM802.237 160.466H808.859C808.771 159.879 808.565 159.366 808.243 158.926C807.935 158.471 807.546 158.119 807.077 157.87C806.622 157.606 806.123 157.474 805.581 157.474C805.023 157.474 804.51 157.599 804.041 157.848C803.571 158.097 803.175 158.449 802.853 158.904C802.545 159.344 802.339 159.865 802.237 160.466ZM817.089 167.22C816.121 167.22 815.212 167.081 814.361 166.802C813.525 166.509 812.799 166.098 812.183 165.57L813.393 164.118C813.965 164.573 814.552 164.925 815.153 165.174C815.769 165.409 816.393 165.526 817.023 165.526C817.815 165.526 818.461 165.372 818.959 165.064C819.458 164.756 819.707 164.353 819.707 163.854C819.707 163.443 819.561 163.121 819.267 162.886C818.974 162.651 818.519 162.49 817.903 162.402L815.879 162.116C814.765 161.955 813.929 161.61 813.371 161.082C812.814 160.554 812.535 159.85 812.535 158.97C812.535 158.295 812.719 157.709 813.085 157.21C813.452 156.697 813.965 156.301 814.625 156.022C815.285 155.729 816.055 155.582 816.935 155.582C817.742 155.582 818.519 155.699 819.267 155.934C820.015 156.169 820.734 156.535 821.423 157.034L820.301 158.486C819.685 158.075 819.084 157.775 818.497 157.584C817.925 157.393 817.346 157.298 816.759 157.298C816.085 157.298 815.542 157.445 815.131 157.738C814.721 158.017 814.515 158.383 814.515 158.838C814.515 159.249 814.655 159.571 814.933 159.806C815.227 160.026 815.703 160.18 816.363 160.268L818.387 160.554C819.502 160.715 820.345 161.06 820.917 161.588C821.489 162.101 821.775 162.798 821.775 163.678C821.775 164.353 821.57 164.961 821.159 165.504C820.749 166.032 820.191 166.45 819.487 166.758C818.783 167.066 817.984 167.22 817.089 167.22Z" fill="#20184E"/>
<rect x="742" y="9" width="74" height="76.3871" rx="15.914" fill="#7D63EC"/>
<path d="M351.955 154V138.6H354.265V151.954H363.131V154H351.955ZM370.014 154.198C368.914 154.198 367.916 153.941 367.022 153.428C366.142 152.915 365.438 152.218 364.91 151.338C364.396 150.458 364.14 149.475 364.14 148.39C364.14 147.319 364.389 146.351 364.888 145.486C365.386 144.606 366.061 143.909 366.912 143.396C367.762 142.868 368.708 142.604 369.75 142.604C370.791 142.604 371.715 142.868 372.522 143.396C373.328 143.909 373.966 144.613 374.436 145.508C374.92 146.388 375.162 147.385 375.162 148.5V149.116H366.34C366.457 149.732 366.684 150.282 367.022 150.766C367.374 151.25 367.814 151.631 368.342 151.91C368.884 152.189 369.471 152.328 370.102 152.328C370.644 152.328 371.165 152.247 371.664 152.086C372.177 151.91 372.602 151.661 372.94 151.338L374.348 152.724C373.688 153.223 373.006 153.597 372.302 153.846C371.612 154.081 370.85 154.198 370.014 154.198ZM366.362 147.466H372.984C372.896 146.879 372.69 146.366 372.368 145.926C372.06 145.471 371.671 145.119 371.202 144.87C370.747 144.606 370.248 144.474 369.706 144.474C369.148 144.474 368.635 144.599 368.166 144.848C367.696 145.097 367.3 145.449 366.978 145.904C366.67 146.344 366.464 146.865 366.362 147.466ZM381.731 154.198C380.645 154.198 379.817 153.949 379.245 153.45C378.673 152.937 378.387 152.196 378.387 151.228V144.65H376.011V142.802H378.387V139.942L380.565 139.414V142.802H383.865V144.65H380.565V150.722C380.565 151.294 380.689 151.705 380.939 151.954C381.203 152.189 381.628 152.306 382.215 152.306C382.523 152.306 382.794 152.284 383.029 152.24C383.278 152.196 383.542 152.13 383.821 152.042V153.89C383.527 153.993 383.183 154.066 382.787 154.11C382.405 154.169 382.053 154.198 381.731 154.198ZM394.417 154.22C393.552 154.22 392.789 154.037 392.129 153.67C391.469 153.303 390.956 152.79 390.589 152.13C390.222 151.455 390.039 150.685 390.039 149.82V142.802H392.217V149.446C392.217 150.326 392.466 151.023 392.965 151.536C393.478 152.049 394.16 152.306 395.011 152.306C395.612 152.306 396.148 152.181 396.617 151.932C397.086 151.668 397.468 151.301 397.761 150.832V142.802H399.961V154H397.761V152.856C396.896 153.765 395.781 154.22 394.417 154.22ZM406.416 154.22C405.448 154.22 404.538 154.081 403.688 153.802C402.852 153.509 402.126 153.098 401.51 152.57L402.72 151.118C403.292 151.573 403.878 151.925 404.48 152.174C405.096 152.409 405.719 152.526 406.35 152.526C407.142 152.526 407.787 152.372 408.286 152.064C408.784 151.756 409.034 151.353 409.034 150.854C409.034 150.443 408.887 150.121 408.594 149.886C408.3 149.651 407.846 149.49 407.23 149.402L405.206 149.116C404.091 148.955 403.255 148.61 402.698 148.082C402.14 147.554 401.862 146.85 401.862 145.97C401.862 145.295 402.045 144.709 402.412 144.21C402.778 143.697 403.292 143.301 403.952 143.022C404.612 142.729 405.382 142.582 406.262 142.582C407.068 142.582 407.846 142.699 408.594 142.934C409.342 143.169 410.06 143.535 410.75 144.034L409.628 145.486C409.012 145.075 408.41 144.775 407.824 144.584C407.252 144.393 406.672 144.298 406.086 144.298C405.411 144.298 404.868 144.445 404.458 144.738C404.047 145.017 403.842 145.383 403.842 145.838C403.842 146.249 403.981 146.571 404.26 146.806C404.553 147.026 405.03 147.18 405.69 147.268L407.714 147.554C408.828 147.715 409.672 148.06 410.244 148.588C410.816 149.101 411.102 149.798 411.102 150.678C411.102 151.353 410.896 151.961 410.486 152.504C410.075 153.032 409.518 153.45 408.814 153.758C408.11 154.066 407.31 154.22 406.416 154.22ZM422.406 154L416.114 138.6H418.6L423.814 151.712L429.116 138.6H431.492L425.112 154H422.406ZM436.68 154.198C435.58 154.198 434.582 153.941 433.688 153.428C432.808 152.915 432.104 152.218 431.576 151.338C431.062 150.458 430.806 149.475 430.806 148.39C430.806 147.319 431.055 146.351 431.554 145.486C432.052 144.606 432.727 143.909 433.578 143.396C434.428 142.868 435.374 142.604 436.416 142.604C437.457 142.604 438.381 142.868 439.188 143.396C439.994 143.909 440.632 144.613 441.102 145.508C441.586 146.388 441.828 147.385 441.828 148.5V149.116H433.006C433.123 149.732 433.35 150.282 433.688 150.766C434.04 151.25 434.48 151.631 435.008 151.91C435.55 152.189 436.137 152.328 436.768 152.328C437.31 152.328 437.831 152.247 438.33 152.086C438.843 151.91 439.268 151.661 439.606 151.338L441.014 152.724C440.354 153.223 439.672 153.597 438.968 153.846C438.278 154.081 437.516 154.198 436.68 154.198ZM433.028 147.466H439.65C439.562 146.879 439.356 146.366 439.034 145.926C438.726 145.471 438.337 145.119 437.868 144.87C437.413 144.606 436.914 144.474 436.372 144.474C435.814 144.474 435.301 144.599 434.832 144.848C434.362 145.097 433.966 145.449 433.644 145.904C433.336 146.344 433.13 146.865 433.028 147.466ZM443.923 154V142.802H446.123V144.232C446.475 143.704 446.908 143.293 447.421 143C447.949 142.692 448.543 142.538 449.203 142.538C449.658 142.553 450.032 142.619 450.325 142.736V144.716C450.12 144.628 449.907 144.569 449.687 144.54C449.467 144.496 449.247 144.474 449.027 144.474C448.382 144.474 447.81 144.65 447.311 145.002C446.812 145.339 446.416 145.838 446.123 146.498V154H443.923ZM452.087 154V142.802H454.287V154H452.087ZM453.187 140.998C452.82 140.998 452.505 140.866 452.241 140.602C451.977 140.323 451.845 140.001 451.845 139.634C451.845 139.253 451.977 138.937 452.241 138.688C452.505 138.424 452.82 138.292 453.187 138.292C453.568 138.292 453.891 138.424 454.155 138.688C454.419 138.937 454.551 139.253 454.551 139.634C454.551 140.001 454.419 140.323 454.155 140.602C453.891 140.866 453.568 140.998 453.187 140.998ZM458.55 154V144.65H455.954V142.802H458.55V141.108C458.55 139.935 458.873 139.04 459.518 138.424C460.178 137.808 461.117 137.5 462.334 137.5C462.642 137.5 462.928 137.522 463.192 137.566C463.471 137.595 463.72 137.647 463.94 137.72V139.612C463.676 139.539 463.441 139.487 463.236 139.458C463.031 139.414 462.803 139.392 462.554 139.392C461.938 139.392 461.476 139.539 461.168 139.832C460.875 140.111 460.728 140.558 460.728 141.174V142.802H463.94V144.65H460.728V154H458.55ZM466.499 158.73C466.264 158.73 466.044 158.715 465.839 158.686C465.634 158.671 465.465 158.642 465.333 158.598V156.662C465.597 156.721 465.92 156.75 466.301 156.75C467.328 156.75 468.068 156.2 468.523 155.1L469.007 154.022L464.519 142.802H466.961L470.217 151.338L473.825 142.802H476.201L470.789 155.386C470.437 156.178 470.063 156.816 469.667 157.3C469.271 157.799 468.816 158.158 468.303 158.378C467.79 158.613 467.188 158.73 466.499 158.73ZM487.049 154V147.884L480.845 138.6H483.529L488.259 145.838L492.989 138.6H495.563L489.359 147.928V154H487.049ZM499.349 154.22C498.263 154.22 497.273 153.963 496.379 153.45C495.499 152.937 494.802 152.24 494.289 151.36C493.775 150.48 493.519 149.497 493.519 148.412C493.519 147.327 493.775 146.344 494.289 145.464C494.802 144.584 495.499 143.887 496.379 143.374C497.273 142.846 498.263 142.582 499.349 142.582C500.449 142.582 501.439 142.846 502.319 143.374C503.199 143.887 503.895 144.584 504.409 145.464C504.922 146.344 505.179 147.327 505.179 148.412C505.179 149.497 504.922 150.48 504.409 151.36C503.895 152.24 503.199 152.937 502.319 153.45C501.439 153.963 500.449 154.22 499.349 154.22ZM499.349 152.284C500.038 152.284 500.661 152.115 501.219 151.778C501.776 151.426 502.216 150.957 502.539 150.37C502.861 149.783 503.023 149.123 503.023 148.39C503.023 147.671 502.854 147.026 502.517 146.454C502.194 145.867 501.754 145.398 501.197 145.046C500.654 144.694 500.038 144.518 499.349 144.518C498.659 144.518 498.036 144.694 497.479 145.046C496.936 145.398 496.496 145.867 496.159 146.454C495.836 147.026 495.675 147.671 495.675 148.39C495.675 149.123 495.836 149.783 496.159 150.37C496.481 150.957 496.921 151.426 497.479 151.778C498.036 152.115 498.659 152.284 499.349 152.284ZM511.593 154.22C510.728 154.22 509.965 154.037 509.305 153.67C508.645 153.303 508.132 152.79 507.765 152.13C507.398 151.455 507.215 150.685 507.215 149.82V142.802H509.393V149.446C509.393 150.326 509.642 151.023 510.141 151.536C510.654 152.049 511.336 152.306 512.187 152.306C512.788 152.306 513.324 152.181 513.793 151.932C514.262 151.668 514.644 151.301 514.937 150.832V142.802H517.137V154H514.937V152.856C514.072 153.765 512.957 154.22 511.593 154.22ZM519.741 154V142.802H521.941V144.232C522.293 143.704 522.726 143.293 523.239 143C523.767 142.692 524.361 142.538 525.021 142.538C525.476 142.553 525.85 142.619 526.143 142.736V144.716C525.938 144.628 525.725 144.569 525.505 144.54C525.285 144.496 525.065 144.474 524.845 144.474C524.2 144.474 523.628 144.65 523.129 145.002C522.631 145.339 522.235 145.838 521.941 146.498V154H519.741ZM396.735 188L403.093 172.6H405.821L412.113 188H409.605L407.823 183.49H400.937L399.133 188H396.735ZM401.685 181.576H407.075L404.391 174.8L401.685 181.576ZM418.115 188.198C417.044 188.198 416.069 187.941 415.189 187.428C414.309 186.915 413.612 186.218 413.099 185.338C412.6 184.458 412.351 183.475 412.351 182.39C412.351 181.305 412.607 180.329 413.121 179.464C413.634 178.584 414.323 177.887 415.189 177.374C416.069 176.846 417.044 176.582 418.115 176.582C418.965 176.582 419.779 176.743 420.557 177.066C421.349 177.389 422.031 177.843 422.603 178.43L421.239 179.948C420.813 179.479 420.337 179.127 419.809 178.892C419.281 178.657 418.731 178.54 418.159 178.54C417.484 178.54 416.868 178.709 416.311 179.046C415.768 179.383 415.335 179.845 415.013 180.432C414.69 181.019 414.529 181.671 414.529 182.39C414.529 183.109 414.69 183.761 415.013 184.348C415.335 184.935 415.775 185.404 416.333 185.756C416.89 186.093 417.513 186.262 418.203 186.262C418.775 186.262 419.31 186.152 419.809 185.932C420.307 185.697 420.777 185.36 421.217 184.92L422.559 186.328C421.972 186.929 421.29 187.391 420.513 187.714C419.75 188.037 418.951 188.198 418.115 188.198ZM429.265 188.198C428.194 188.198 427.219 187.941 426.339 187.428C425.459 186.915 424.762 186.218 424.249 185.338C423.75 184.458 423.501 183.475 423.501 182.39C423.501 181.305 423.758 180.329 424.271 179.464C424.784 178.584 425.474 177.887 426.339 177.374C427.219 176.846 428.194 176.582 429.265 176.582C430.116 176.582 430.93 176.743 431.707 177.066C432.499 177.389 433.181 177.843 433.753 178.43L432.389 179.948C431.964 179.479 431.487 179.127 430.959 178.892C430.431 178.657 429.881 178.54 429.309 178.54C428.634 178.54 428.018 178.709 427.461 179.046C426.918 179.383 426.486 179.845 426.163 180.432C425.84 181.019 425.679 181.671 425.679 182.39C425.679 183.109 425.84 183.761 426.163 184.348C426.486 184.935 426.926 185.404 427.483 185.756C428.04 186.093 428.664 186.262 429.353 186.262C429.925 186.262 430.46 186.152 430.959 185.932C431.458 185.697 431.927 185.36 432.367 184.92L433.709 186.328C433.122 186.929 432.44 187.391 431.663 187.714C430.9 188.037 430.101 188.198 429.265 188.198ZM440.481 188.22C439.396 188.22 438.406 187.963 437.511 187.45C436.631 186.937 435.935 186.24 435.421 185.36C434.908 184.48 434.651 183.497 434.651 182.412C434.651 181.327 434.908 180.344 435.421 179.464C435.935 178.584 436.631 177.887 437.511 177.374C438.406 176.846 439.396 176.582 440.481 176.582C441.581 176.582 442.571 176.846 443.451 177.374C444.331 177.887 445.028 178.584 445.541 179.464C446.055 180.344 446.311 181.327 446.311 182.412C446.311 183.497 446.055 184.48 445.541 185.36C445.028 186.24 444.331 186.937 443.451 187.45C442.571 187.963 441.581 188.22 440.481 188.22ZM440.481 186.284C441.171 186.284 441.794 186.115 442.351 185.778C442.909 185.426 443.349 184.957 443.671 184.37C443.994 183.783 444.155 183.123 444.155 182.39C444.155 181.671 443.987 181.026 443.649 180.454C443.327 179.867 442.887 179.398 442.329 179.046C441.787 178.694 441.171 178.518 440.481 178.518C439.792 178.518 439.169 178.694 438.611 179.046C438.069 179.398 437.629 179.867 437.291 180.454C436.969 181.026 436.807 181.671 436.807 182.39C436.807 183.123 436.969 183.783 437.291 184.37C437.614 184.957 438.054 185.426 438.611 185.778C439.169 186.115 439.792 186.284 440.481 186.284ZM452.726 188.22C451.86 188.22 451.098 188.037 450.438 187.67C449.778 187.303 449.264 186.79 448.898 186.13C448.531 185.455 448.348 184.685 448.348 183.82V176.802H450.526V183.446C450.526 184.326 450.775 185.023 451.274 185.536C451.787 186.049 452.469 186.306 453.32 186.306C453.921 186.306 454.456 186.181 454.926 185.932C455.395 185.668 455.776 185.301 456.07 184.832V176.802H458.27V188H456.07V186.856C455.204 187.765 454.09 188.22 452.726 188.22ZM460.874 188V176.802H463.074V177.946C463.94 177.037 465.062 176.582 466.44 176.582C467.306 176.582 468.061 176.765 468.706 177.132C469.366 177.499 469.88 178.012 470.246 178.672C470.628 179.332 470.818 180.095 470.818 180.96V188H468.618V181.334C468.618 180.454 468.369 179.765 467.87 179.266C467.386 178.753 466.704 178.496 465.824 178.496C465.238 178.496 464.71 178.621 464.24 178.87C463.771 179.119 463.382 179.479 463.074 179.948V188H460.874ZM477.83 188.198C476.745 188.198 475.916 187.949 475.344 187.45C474.772 186.937 474.486 186.196 474.486 185.228V178.65H472.11V176.802H474.486V173.942L476.664 173.414V176.802H479.964V178.65H476.664V184.722C476.664 185.294 476.789 185.705 477.038 185.954C477.302 186.189 477.728 186.306 478.314 186.306C478.622 186.306 478.894 186.284 479.128 186.24C479.378 186.196 479.642 186.13 479.92 186.042V187.89C479.627 187.993 479.282 188.066 478.886 188.11C478.505 188.169 478.153 188.198 477.83 188.198Z" fill="#20184E"/>
<rect x="412" y="30" width="74" height="76.3871" rx="15.914" fill="#19C3C0"/>
<path d="M28.1285 124.22C26.8965 124.22 25.7085 123.978 24.5645 123.494C23.4205 123.01 22.4085 122.328 21.5285 121.448L22.9365 119.82C23.7725 120.641 24.6232 121.25 25.4885 121.646C26.3685 122.042 27.2852 122.24 28.2385 122.24C28.9865 122.24 29.6392 122.137 30.1965 121.932C30.7685 121.712 31.2085 121.404 31.5165 121.008C31.8245 120.612 31.9785 120.165 31.9785 119.666C31.9785 118.977 31.7365 118.449 31.2525 118.082C30.7685 117.715 29.9692 117.437 28.8545 117.246L26.2805 116.828C24.8725 116.579 23.8165 116.124 23.1125 115.464C22.4232 114.804 22.0785 113.924 22.0785 112.824C22.0785 111.944 22.3132 111.174 22.7825 110.514C23.2519 109.839 23.9119 109.319 24.7625 108.952C25.6279 108.585 26.6252 108.402 27.7545 108.402C28.8692 108.402 29.9619 108.585 31.0325 108.952C32.1179 109.304 33.0932 109.817 33.9585 110.492L32.6825 112.252C31.0252 110.991 29.3459 110.36 27.6445 110.36C26.9699 110.36 26.3832 110.455 25.8845 110.646C25.3859 110.837 24.9972 111.108 24.7185 111.46C24.4399 111.797 24.3005 112.193 24.3005 112.648C24.3005 113.279 24.5132 113.763 24.9385 114.1C25.3639 114.423 26.0679 114.657 27.0505 114.804L29.5365 115.222C31.1645 115.486 32.3599 115.963 33.1225 116.652C33.8852 117.341 34.2665 118.287 34.2665 119.49C34.2665 120.429 34.0099 121.257 33.4965 121.976C32.9832 122.68 32.2645 123.23 31.3405 123.626C30.4165 124.022 29.3459 124.22 28.1285 124.22ZM36.1427 124V112.802H38.3427V124H36.1427ZM37.2427 110.998C36.8761 110.998 36.5607 110.866 36.2967 110.602C36.0327 110.323 35.9007 110.001 35.9007 109.634C35.9007 109.253 36.0327 108.937 36.2967 108.688C36.5607 108.424 36.8761 108.292 37.2427 108.292C37.6241 108.292 37.9467 108.424 38.2107 108.688C38.4747 108.937 38.6067 109.253 38.6067 109.634C38.6067 110.001 38.4747 110.323 38.2107 110.602C37.9467 110.866 37.6241 110.998 37.2427 110.998ZM46.4777 128.708C45.6564 128.708 44.8571 128.613 44.0797 128.422C43.3024 128.231 42.5984 127.96 41.9677 127.608L42.8037 125.892C43.4637 126.229 44.0797 126.471 44.6517 126.618C45.2384 126.779 45.8251 126.86 46.4117 126.86C47.3944 126.86 48.1351 126.633 48.6337 126.178C49.1471 125.723 49.4037 125.056 49.4037 124.176V122.9C48.4211 123.677 47.2991 124.066 46.0377 124.066C45.0111 124.066 44.0651 123.817 43.1997 123.318C42.3491 122.805 41.6744 122.115 41.1757 121.25C40.6771 120.37 40.4277 119.402 40.4277 118.346C40.4277 117.275 40.6771 116.307 41.1757 115.442C41.6891 114.562 42.3711 113.873 43.2217 113.374C44.0871 112.861 45.0551 112.604 46.1257 112.604C46.7271 112.604 47.3064 112.707 47.8637 112.912C48.4357 113.103 48.9564 113.381 49.4257 113.748V112.802H51.6037V124.176C51.6037 125.628 51.1564 126.743 50.2617 127.52C49.3817 128.312 48.1204 128.708 46.4777 128.708ZM46.3237 122.174C46.9691 122.174 47.5557 122.064 48.0837 121.844C48.6117 121.609 49.0517 121.279 49.4037 120.854V115.838C49.0517 115.427 48.6044 115.105 48.0617 114.87C47.5337 114.635 46.9544 114.518 46.3237 114.518C45.6197 114.518 44.9817 114.687 44.4097 115.024C43.8524 115.361 43.4051 115.823 43.0677 116.41C42.7451 116.982 42.5837 117.627 42.5837 118.346C42.5837 119.065 42.7451 119.717 43.0677 120.304C43.4051 120.876 43.8524 121.331 44.4097 121.668C44.9817 122.005 45.6197 122.174 46.3237 122.174ZM54.1896 124V112.802H56.3896V113.946C57.2549 113.037 58.3769 112.582 59.7556 112.582C60.6209 112.582 61.3763 112.765 62.0216 113.132C62.6816 113.499 63.1949 114.012 63.5616 114.672C63.9429 115.332 64.1336 116.095 64.1336 116.96V124H61.9336V117.334C61.9336 116.454 61.6843 115.765 61.1856 115.266C60.7016 114.753 60.0196 114.496 59.1396 114.496C58.5529 114.496 58.0249 114.621 57.5556 114.87C57.0863 115.119 56.6976 115.479 56.3896 115.948V124H54.1896ZM77.8037 124.242C76.469 124.242 75.3103 123.963 74.3277 123.406C73.345 122.849 72.5897 122.064 72.0617 121.052C71.5337 120.025 71.2697 118.815 71.2697 117.422V108.6H73.5797V117.422C73.5797 118.375 73.7483 119.204 74.0857 119.908C74.4377 120.612 74.929 121.155 75.5597 121.536C76.205 121.917 76.953 122.108 77.8037 122.108C78.6837 122.108 79.439 121.917 80.0697 121.536C80.7003 121.155 81.1843 120.612 81.5217 119.908C81.8737 119.204 82.0497 118.375 82.0497 117.422V108.6H84.3597V117.422C84.3597 118.815 84.0883 120.025 83.5457 121.052C83.0177 122.064 82.2623 122.849 81.2797 123.406C80.297 123.963 79.1383 124.242 77.8037 124.242ZM86.9533 128.488V112.802H89.1313V113.88C90.0699 113.044 91.2139 112.626 92.5633 112.626C93.6193 112.626 94.5726 112.883 95.4233 113.396C96.2886 113.909 96.9706 114.599 97.4693 115.464C97.9679 116.329 98.2173 117.305 98.2173 118.39C98.2173 119.475 97.9606 120.458 97.4473 121.338C96.9486 122.203 96.2666 122.893 95.4013 123.406C94.5506 123.919 93.5899 124.176 92.5193 124.176C91.9033 124.176 91.3093 124.081 90.7373 123.89C90.1653 123.685 89.6373 123.399 89.1533 123.032V128.488H86.9533ZM92.2773 122.262C92.9959 122.262 93.6339 122.093 94.1913 121.756C94.7633 121.419 95.2179 120.964 95.5553 120.392C95.8926 119.805 96.0613 119.145 96.0613 118.412C96.0613 117.679 95.8926 117.019 95.5553 116.432C95.2179 115.845 94.7633 115.383 94.1913 115.046C93.6339 114.709 92.9959 114.54 92.2773 114.54C91.6466 114.54 91.0599 114.657 90.5173 114.892C89.9746 115.127 89.5199 115.457 89.1533 115.882V120.942C89.5199 121.353 89.9746 121.675 90.5173 121.91C91.0746 122.145 91.6613 122.262 92.2773 122.262ZM104.914 124V112.802H107.114V124H104.914ZM106.014 110.998C105.648 110.998 105.332 110.866 105.068 110.602C104.804 110.323 104.672 110.001 104.672 109.634C104.672 109.253 104.804 108.937 105.068 108.688C105.332 108.424 105.648 108.292 106.014 108.292C106.396 108.292 106.718 108.424 106.982 108.688C107.246 108.937 107.378 109.253 107.378 109.634C107.378 110.001 107.246 110.323 106.982 110.602C106.718 110.866 106.396 110.998 106.014 110.998ZM109.705 124V112.802H111.905V113.946C112.771 113.037 113.893 112.582 115.271 112.582C116.137 112.582 116.892 112.765 117.537 113.132C118.197 113.499 118.711 114.012 119.077 114.672C119.459 115.332 119.649 116.095 119.649 116.96V124H117.449V117.334C117.449 116.454 117.2 115.765 116.701 115.266C116.217 114.753 115.535 114.496 114.655 114.496C114.069 114.496 113.541 114.621 113.071 114.87C112.602 115.119 112.213 115.479 111.905 115.948V124H109.705ZM130.327 124.198C129.521 124.198 128.809 124.059 128.193 123.78C127.577 123.487 127.093 123.083 126.741 122.57C126.389 122.057 126.213 121.463 126.213 120.788C126.213 119.732 126.617 118.903 127.423 118.302C128.23 117.686 129.337 117.378 130.745 117.378C131.845 117.378 132.865 117.591 133.803 118.016V116.828C133.803 116.021 133.569 115.42 133.099 115.024C132.645 114.628 131.97 114.43 131.075 114.43C130.562 114.43 130.027 114.511 129.469 114.672C128.912 114.819 128.289 115.053 127.599 115.376L126.785 113.726C127.636 113.33 128.428 113.044 129.161 112.868C129.895 112.677 130.635 112.582 131.383 112.582C132.835 112.582 133.957 112.927 134.749 113.616C135.556 114.305 135.959 115.288 135.959 116.564V124H133.803V123.032C133.305 123.428 132.769 123.721 132.197 123.912C131.625 124.103 131.002 124.198 130.327 124.198ZM128.325 120.744C128.325 121.287 128.553 121.727 129.007 122.064C129.477 122.387 130.085 122.548 130.833 122.548C131.42 122.548 131.955 122.467 132.439 122.306C132.938 122.13 133.393 121.859 133.803 121.492V119.6C133.378 119.351 132.931 119.175 132.461 119.072C132.007 118.955 131.493 118.896 130.921 118.896C130.115 118.896 129.477 119.065 129.007 119.402C128.553 119.725 128.325 120.172 128.325 120.744ZM143.356 124V108.6H154.752V110.624H145.666V115.354H151.65V117.312H145.666V124H143.356ZM159.825 124.198C158.725 124.198 157.728 123.941 156.833 123.428C155.953 122.915 155.249 122.218 154.721 121.338C154.208 120.458 153.951 119.475 153.951 118.39C153.951 117.319 154.201 116.351 154.699 115.486C155.198 114.606 155.873 113.909 156.723 113.396C157.574 112.868 158.52 112.604 159.561 112.604C160.603 112.604 161.527 112.868 162.333 113.396C163.14 113.909 163.778 114.613 164.247 115.508C164.731 116.388 164.973 117.385 164.973 118.5V119.116H156.151C156.269 119.732 156.496 120.282 156.833 120.766C157.185 121.25 157.625 121.631 158.153 121.91C158.696 122.189 159.283 122.328 159.913 122.328C160.456 122.328 160.977 122.247 161.475 122.086C161.989 121.91 162.414 121.661 162.751 121.338L164.159 122.724C163.499 123.223 162.817 123.597 162.113 123.846C161.424 124.081 160.661 124.198 159.825 124.198ZM156.173 117.466H162.795C162.707 116.879 162.502 116.366 162.179 115.926C161.871 115.471 161.483 115.119 161.013 114.87C160.559 114.606 160.06 114.474 159.517 114.474C158.96 114.474 158.447 114.599 157.977 114.848C157.508 115.097 157.112 115.449 156.789 115.904C156.481 116.344 156.276 116.865 156.173 117.466ZM168.944 124L165.82 112.802H167.954L170.132 121.03L172.684 112.802H174.576L177.128 121.03L179.306 112.802H181.374L178.228 124H176.116L173.608 115.794L171.078 124H168.944ZM63.1011 158V142.6H66.2031L71.0211 152.456L75.8391 142.6H78.9191V158H76.7411V145.416L70.9991 156.9L65.2571 145.416V158H63.1011ZM81.7863 158V146.802H83.9863V158H81.7863ZM82.8863 144.998C82.5196 144.998 82.2043 144.866 81.9403 144.602C81.6763 144.323 81.5443 144.001 81.5443 143.634C81.5443 143.253 81.6763 142.937 81.9403 142.688C82.2043 142.424 82.5196 142.292 82.8863 142.292C83.2676 142.292 83.5903 142.424 83.8543 142.688C84.1183 142.937 84.2503 143.253 84.2503 143.634C84.2503 144.001 84.1183 144.323 83.8543 144.602C83.5903 144.866 83.2676 144.998 82.8863 144.998ZM86.5773 158V146.802H88.7773V147.946C89.6426 147.037 90.7646 146.582 92.1433 146.582C93.0086 146.582 93.764 146.765 94.4093 147.132C95.0693 147.499 95.5826 148.012 95.9493 148.672C96.3306 149.332 96.5213 150.095 96.5213 150.96V158H94.3213V151.334C94.3213 150.454 94.072 149.765 93.5733 149.266C93.0893 148.753 92.4073 148.496 91.5273 148.496C90.9406 148.496 90.4126 148.621 89.9433 148.87C89.474 149.119 89.0853 149.479 88.7773 149.948V158H86.5773ZM103.286 158.22C102.421 158.22 101.658 158.037 100.998 157.67C100.338 157.303 99.825 156.79 99.4583 156.13C99.0916 155.455 98.9083 154.685 98.9083 153.82V146.802H101.086V153.446C101.086 154.326 101.336 155.023 101.834 155.536C102.348 156.049 103.03 156.306 103.88 156.306C104.482 156.306 105.017 156.181 105.486 155.932C105.956 155.668 106.337 155.301 106.63 154.832V146.802H108.83V158H106.63V156.856C105.765 157.765 104.65 158.22 103.286 158.22ZM116.231 158.198C115.145 158.198 114.317 157.949 113.745 157.45C113.173 156.937 112.887 156.196 112.887 155.228V148.65H110.511V146.802H112.887V143.942L115.065 143.414V146.802H118.365V148.65H115.065V154.722C115.065 155.294 115.189 155.705 115.439 155.954C115.703 156.189 116.128 156.306 116.715 156.306C117.023 156.306 117.294 156.284 117.529 156.24C117.778 156.196 118.042 156.13 118.321 156.042V157.89C118.027 157.993 117.683 158.066 117.287 158.11C116.905 158.169 116.553 158.198 116.231 158.198ZM125.182 158.198C124.082 158.198 123.084 157.941 122.19 157.428C121.31 156.915 120.606 156.218 120.078 155.338C119.564 154.458 119.308 153.475 119.308 152.39C119.308 151.319 119.557 150.351 120.056 149.486C120.554 148.606 121.229 147.909 122.08 147.396C122.93 146.868 123.876 146.604 124.918 146.604C125.959 146.604 126.883 146.868 127.69 147.396C128.496 147.909 129.134 148.613 129.604 149.508C130.088 150.388 130.33 151.385 130.33 152.5V153.116H121.508C121.625 153.732 121.852 154.282 122.19 154.766C122.542 155.25 122.982 155.631 123.51 155.91C124.052 156.189 124.639 156.328 125.27 156.328C125.812 156.328 126.333 156.247 126.832 156.086C127.345 155.91 127.77 155.661 128.108 155.338L129.516 156.724C128.856 157.223 128.174 157.597 127.47 157.846C126.78 158.081 126.018 158.198 125.182 158.198ZM121.53 151.466H128.152C128.064 150.879 127.858 150.366 127.536 149.926C127.228 149.471 126.839 149.119 126.37 148.87C125.915 148.606 125.416 148.474 124.874 148.474C124.316 148.474 123.803 148.599 123.334 148.848C122.864 149.097 122.468 149.449 122.146 149.904C121.838 150.344 121.632 150.865 121.53 151.466ZM136.382 158.22C135.414 158.22 134.505 158.081 133.654 157.802C132.818 157.509 132.092 157.098 131.476 156.57L132.686 155.118C133.258 155.573 133.845 155.925 134.446 156.174C135.062 156.409 135.686 156.526 136.316 156.526C137.108 156.526 137.754 156.372 138.252 156.064C138.751 155.756 139 155.353 139 154.854C139 154.443 138.854 154.121 138.56 153.886C138.267 153.651 137.812 153.49 137.196 153.402L135.172 153.116C134.058 152.955 133.222 152.61 132.664 152.082C132.107 151.554 131.828 150.85 131.828 149.97C131.828 149.295 132.012 148.709 132.378 148.21C132.745 147.697 133.258 147.301 133.918 147.022C134.578 146.729 135.348 146.582 136.228 146.582C137.035 146.582 137.812 146.699 138.56 146.934C139.308 147.169 140.027 147.535 140.716 148.034L139.594 149.486C138.978 149.075 138.377 148.775 137.79 148.584C137.218 148.393 136.639 148.298 136.052 148.298C135.378 148.298 134.835 148.445 134.424 148.738C134.014 149.017 133.808 149.383 133.808 149.838C133.808 150.249 133.948 150.571 134.226 150.806C134.52 151.026 134.996 151.18 135.656 151.268L137.68 151.554C138.795 151.715 139.638 152.06 140.21 152.588C140.782 153.101 141.068 153.798 141.068 154.678C141.068 155.353 140.863 155.961 140.452 156.504C140.042 157.032 139.484 157.45 138.78 157.758C138.076 158.066 137.277 158.22 136.382 158.22Z" fill="#20184E"/>
<rect x="75" width="74" height="76.3871" rx="15.914" fill="#7D63EC"/>
<path d="M1059.07 86.557C1069.3 86.557 1073.81 81.9414 1073.81 67.6496C1073.81 53.3578 1069.3 48.7422 1059.07 48.7422C1048.84 48.7422 1044.34 53.3578 1044.34 67.6496C1044.34 81.9414 1048.84 86.557 1059.07 86.557ZM1059.07 80.1618C1054.07 80.1618 1051.84 77.0477 1051.84 67.6496C1051.84 58.3071 1054.07 55.1373 1059.07 55.1373C1064.08 55.1373 1066.3 58.3071 1066.3 67.6496C1066.3 77.0477 1064.08 80.1618 1059.07 80.1618Z" fill="#6742CD" fill-opacity="0.22"/>
<path d="M1107.3 86.0009V77.6594H1110.7V71.2642H1107.3V60.4203L1099.8 61.5325V71.2642H1089.23L1100.85 49.2983H1092.68L1081.06 71.2642V77.6594H1099.8V86.0009H1107.3Z" fill="white"/>
<path d="M734.073 65.557C744.305 65.557 748.809 60.9414 748.809 46.6496C748.809 32.3578 744.305 27.7422 734.073 27.7422C723.84 27.7422 719.336 32.3578 719.336 46.6496C719.336 60.9414 723.84 65.557 734.073 65.557ZM734.073 59.1618C729.068 59.1618 726.843 56.0477 726.843 46.6496C726.843 37.3071 729.068 34.1373 734.073 34.1373C739.077 34.1373 741.302 37.3071 741.302 46.6496C741.302 56.0477 739.077 59.1618 734.073 59.1618Z" fill="#EADDFA"/>
<path d="M781.359 34.6934V28.2983H756.335V34.6934H771.628L764.843 42.7569V48.874H768.903C773.574 48.874 775.187 50.7647 775.187 53.8789C775.187 56.7706 774.075 59.1618 768.625 59.1618C765.121 59.1618 762.73 57.9384 762.73 54.435H755.223C755.223 62.4984 761.284 65.557 768.736 65.557C779.191 65.557 782.694 60.5521 782.694 53.8789C782.694 47.595 779.469 43.9247 772.684 42.9793C774.075 41.8115 775.465 40.6993 776.744 39.3647L781.359 34.6934Z" fill="white"/>
<path d="M403.073 86.557C413.305 86.557 417.809 81.9414 417.809 67.6496C417.809 53.3578 413.305 48.7422 403.073 48.7422C392.84 48.7422 388.336 53.3578 388.336 67.6496C388.336 81.9414 392.84 86.557 403.073 86.557ZM403.073 80.1618C398.068 80.1618 395.843 77.0477 395.843 67.6496C395.843 58.3071 398.068 55.1373 403.073 55.1373C408.078 55.1373 410.302 58.3071 410.302 67.6496C410.302 77.0477 408.078 80.1618 403.073 80.1618Z" fill="#6742CD" fill-opacity="0.22"/>
<path d="M450.361 86.0009V79.6057H433.289L446.302 66.4818C446.802 65.9813 450.195 63.1452 450.195 57.8622C450.195 52.1344 446.191 48.7422 437.071 48.7422C428.618 48.7422 424.113 51.6339 424.113 59.8642H431.565C431.565 56.1939 433.178 55.1373 437.182 55.1373C441.13 55.1373 442.687 56.1939 442.687 58.4739C442.687 61.2544 439.351 64.313 438.405 65.2027L423.947 79.6057V86.0009H450.361Z" fill="white"/>
<path d="M67.0726 56.557C77.3048 56.557 81.8092 51.9414 81.8092 37.6496C81.8092 23.3578 77.3048 18.7422 67.0726 18.7422C56.8403 18.7422 52.3359 23.3578 52.3359 37.6496C52.3359 51.9414 56.8403 56.557 67.0726 56.557ZM67.0726 50.1618C62.0677 50.1618 59.8433 47.0477 59.8433 37.6496C59.8433 28.3071 62.0677 25.1373 67.0726 25.1373C72.0775 25.1373 74.3019 28.3071 74.3019 37.6496C74.3019 47.0477 72.0775 50.1618 67.0726 50.1618Z" fill="#EADDFA"/>
<path d="M107.873 49.6057H101.756V19.2983L88.1313 21.5227V27.9178L94.2484 26.9169V49.6057H88.1313V56.0009H107.873V49.6057Z" fill="white"/>
</svg>
