<svg width="328" height="613" viewBox="0 0 328 613" fill="none" xmlns="http://www.w3.org/2000/svg">
<path d="M246.95 485.917L245.319 480.379L250.931 481.736L246.95 485.917ZM167.233 376.6C168.387 376.706 169.574 376.837 170.788 376.994L170.66 377.986C169.457 377.83 168.283 377.701 167.142 377.596L167.233 376.6ZM177.853 378.151C180.119 378.598 182.448 379.129 184.817 379.75L184.563 380.717C182.214 380.102 179.906 379.575 177.659 379.132L177.853 378.151ZM191.675 381.772C193.906 382.504 196.155 383.317 198.405 384.214L198.034 385.143C195.804 384.254 193.575 383.448 191.363 382.722L191.675 381.772ZM204.964 387.08C207.099 388.098 209.22 389.197 211.313 390.38L210.821 391.251C208.749 390.079 206.648 388.991 204.534 387.982L204.964 387.08ZM217.414 394.137C219.386 395.457 221.319 396.863 223.198 398.356L222.576 399.139C220.719 397.663 218.808 396.274 216.857 394.968L217.414 394.137ZM228.612 403.053C230.334 404.688 231.993 406.41 233.575 408.222L232.821 408.88C231.261 407.092 229.624 405.392 227.923 403.779L228.612 403.053ZM238.019 413.851C239.389 415.778 240.677 417.792 241.87 419.896L241 420.389C239.824 418.315 238.555 416.33 237.204 414.431L238.019 413.851ZM245.082 426.317C246.022 428.466 246.867 430.697 247.611 433.013L246.658 433.318C245.926 431.035 245.092 428.835 244.166 426.717L245.082 426.317ZM249.463 439.944C249.957 442.229 250.356 444.587 250.652 447.021L249.66 447.142C249.367 444.738 248.973 442.41 248.486 440.156L249.463 439.944ZM251.214 454.144C251.301 456.464 251.299 458.848 251.204 461.294L250.205 461.256C250.299 458.834 250.301 456.476 250.215 454.181L251.214 454.144ZM250.677 468.427C250.428 470.735 250.099 473.095 249.687 475.509L248.701 475.34C249.11 472.946 249.436 470.607 249.683 468.32L250.677 468.427Z" fill="#5E4765" fill-opacity="0.6"/>
<path d="M254.175 155.377L251.466 150.279L257.236 150.481L254.175 155.377ZM132.975 31.5983C134.124 31.5417 135.302 31.5026 136.507 31.4822L136.524 32.482C135.329 32.5023 134.162 32.5411 133.025 32.5971L132.975 31.5983ZM143.585 31.5716C145.883 31.6663 148.252 31.8258 150.678 32.0565L150.584 33.052C148.176 32.823 145.824 32.6647 143.544 32.5708L143.585 31.5716ZM157.697 32.9066C159.995 33.2447 162.329 33.6469 164.689 34.118L164.493 35.0986C162.15 34.6309 159.833 34.2316 157.552 33.896L157.697 32.9066ZM171.6 35.6833C173.862 36.2574 176.137 36.897 178.418 37.6061L178.121 38.561C175.858 37.8573 173.599 37.2225 171.354 36.6525L171.6 35.6833ZM185.131 39.8959C187.329 40.7141 189.523 41.6004 191.705 42.5586L191.303 43.4743C189.139 42.524 186.962 41.6448 184.782 40.8331L185.131 39.8959ZM198.106 45.5991C200.195 46.6703 202.267 47.8126 204.312 49.0294L203.801 49.8889C201.774 48.6831 199.721 47.5509 197.65 46.489L198.106 45.5991ZM210.288 52.8546C212.224 54.1867 214.129 55.5926 215.996 57.0754L215.374 57.8585C213.525 56.3903 211.639 54.9979 209.721 53.6784L210.288 52.8546ZM221.39 61.6803C223.117 63.2645 224.802 64.9234 226.439 66.6599L225.711 67.3457C224.091 65.6273 222.424 63.9853 220.714 62.4173L221.39 61.6803ZM231.11 71.9972C232.584 73.8122 234.008 75.701 235.376 77.666L234.555 78.2374C233.201 76.2927 231.792 74.4236 230.334 72.6276L231.11 71.9972ZM239.214 83.6335C240.402 85.6385 241.536 87.7141 242.61 89.8621L241.716 90.3094C240.652 88.1826 239.53 86.128 238.353 84.1435L239.214 83.6335ZM245.562 96.3116C246.456 98.4559 247.294 100.665 248.072 102.942L247.126 103.265C246.354 101.009 245.524 98.8204 244.639 96.6964L245.562 96.3116ZM250.153 109.715C250.765 111.951 251.323 114.245 251.823 116.6L250.845 116.807C250.349 114.471 249.796 112.196 249.188 109.98L250.153 109.715ZM253.103 123.567C253.461 125.858 253.767 128.202 254.018 130.6L253.023 130.704C252.774 128.323 252.47 125.996 252.115 123.722L253.103 123.567ZM254.59 137.683C254.723 139.993 254.808 142.351 254.842 144.756L253.842 144.77C253.808 142.379 253.724 140.036 253.592 137.741L254.59 137.683Z" fill="#5E4765" fill-opacity="0.6"/>
<path d="M115.346 330.963L117.039 325.443L111.412 326.737L115.346 330.963ZM212.328 176.976C211.223 177.161 210.094 177.368 208.944 177.598L209.139 178.578C210.28 178.35 211.398 178.145 212.493 177.962L212.328 176.976ZM202.213 179.145C200.046 179.707 197.825 180.344 195.563 181.057L195.864 182.011C198.109 181.303 200.314 180.671 202.464 180.113L202.213 179.145ZM189.027 183.3C186.91 184.085 184.769 184.937 182.615 185.857L183.008 186.776C185.147 185.863 187.272 185.017 189.375 184.237L189.027 183.3ZM176.323 188.727C174.276 189.722 172.225 190.78 170.18 191.903L170.661 192.78C172.692 191.665 174.727 190.615 176.76 189.627L176.323 188.727ZM164.215 195.377C162.272 196.576 160.342 197.835 158.432 199.158L159.001 199.98C160.897 198.668 162.812 197.418 164.74 196.228L164.215 195.377ZM152.857 203.245C151.049 204.649 149.267 206.113 147.517 207.639L148.174 208.393C149.91 206.879 151.677 205.427 153.47 204.035L152.857 203.245ZM142.438 212.336C140.805 213.939 139.208 215.602 137.654 217.327L138.397 217.996C139.937 216.287 141.52 214.639 143.139 213.049L142.438 212.336ZM133.191 222.605C131.771 224.396 130.397 226.247 129.075 228.158L129.897 228.727C131.207 226.834 132.568 225.001 133.975 223.226L133.191 222.605ZM125.329 233.969C124.157 235.927 123.037 237.943 121.977 240.016L122.867 240.472C123.918 238.418 125.026 236.422 126.187 234.483L125.329 233.969ZM119.034 246.273C118.133 248.364 117.291 250.51 116.511 252.71L117.453 253.044C118.226 250.865 119.061 248.74 119.952 246.668L119.034 246.273ZM114.412 259.297C113.792 261.482 113.231 263.717 112.734 266.003L113.711 266.216C114.204 263.95 114.759 261.735 115.374 259.57L114.412 259.297ZM111.469 272.801C111.12 275.043 110.831 277.33 110.603 279.664L111.598 279.761C111.824 277.446 112.111 275.177 112.457 272.954L111.469 272.801ZM110.12 286.573C110.023 288.833 109.983 291.133 110.001 293.475L111.001 293.467C110.983 291.142 111.023 288.859 111.119 286.616L110.12 286.573ZM110.222 300.356C110.347 302.611 110.526 304.902 110.76 307.23L111.755 307.13C111.522 304.817 111.345 302.54 111.22 300.3L110.222 300.356ZM111.598 314.097C111.92 316.346 112.292 318.627 112.716 320.941L113.699 320.761C113.278 318.459 112.908 316.191 112.588 313.955L111.598 314.097Z" fill="#5E4765" fill-opacity="0.6"/>
<rect x="78" y="0.234375" width="74" height="76.3871" rx="15.914" fill="#7D63EC"/>
<path d="M73.7367 64.0492C83.9689 64.0492 88.4733 59.4335 88.4733 45.1418C88.4733 30.85 83.9689 26.2344 73.7367 26.2344C63.5044 26.2344 59 30.85 59 45.1418C59 59.4335 63.5044 64.0492 73.7367 64.0492ZM73.7367 57.654C68.7318 57.654 66.5073 54.5399 66.5073 45.1418C66.5073 35.7993 68.7318 32.6295 73.7367 32.6295C78.7416 32.6295 80.966 35.7993 80.966 45.1418C80.966 54.5399 78.7416 57.654 73.7367 57.654Z" fill="#EADDFA"/>
<path d="M114.537 57.0979H108.42V26.7905L94.7953 29.0149V35.41L100.912 34.409V57.0979H94.7953V63.4931H114.537V57.0979Z" fill="white"/>
<path d="M10.8926 118.801C9.88463 118.801 8.91263 118.603 7.97663 118.207C7.04063 117.811 6.21263 117.253 5.49263 116.533L6.64463 115.201C7.32863 115.873 8.02463 116.371 8.73263 116.695C9.45263 117.019 10.2026 117.181 10.9826 117.181C11.5946 117.181 12.1286 117.097 12.5846 116.929C13.0526 116.749 13.4126 116.497 13.6646 116.173C13.9166 115.849 14.0426 115.483 14.0426 115.075C14.0426 114.511 13.8446 114.079 13.4486 113.779C13.0526 113.479 12.3986 113.251 11.4866 113.095L9.38063 112.753C8.22863 112.549 7.36463 112.177 6.78863 111.637C6.22463 111.097 5.94263 110.377 5.94263 109.477C5.94263 108.757 6.13463 108.127 6.51863 107.587C6.90263 107.035 7.44263 106.609 8.13863 106.309C8.84663 106.009 9.66263 105.859 10.5866 105.859C11.4986 105.859 12.3926 106.009 13.2686 106.309C14.1566 106.597 14.9546 107.017 15.6626 107.569L14.6186 109.009C13.2626 107.977 11.8886 107.461 10.4966 107.461C9.94463 107.461 9.46463 107.539 9.05663 107.695C8.64863 107.851 8.33063 108.073 8.10263 108.361C7.87463 108.637 7.76063 108.961 7.76063 109.333C7.76063 109.849 7.93463 110.245 8.28263 110.521C8.63063 110.785 9.20663 110.977 10.0106 111.097L12.0446 111.439C13.3766 111.655 14.3546 112.045 14.9786 112.609C15.6026 113.173 15.9146 113.947 15.9146 114.931C15.9146 115.699 15.7046 116.377 15.2846 116.965C14.8646 117.541 14.2766 117.991 13.5206 118.315C12.7646 118.639 11.8886 118.801 10.8926 118.801ZM17.4497 118.621V109.459H19.2497V118.621H17.4497ZM18.3497 107.983C18.0497 107.983 17.7917 107.875 17.5757 107.659C17.3597 107.431 17.2517 107.167 17.2517 106.867C17.2517 106.555 17.3597 106.297 17.5757 106.093C17.7917 105.877 18.0497 105.769 18.3497 105.769C18.6617 105.769 18.9257 105.877 19.1417 106.093C19.3577 106.297 19.4657 106.555 19.4657 106.867C19.4657 107.167 19.3577 107.431 19.1417 107.659C18.9257 107.875 18.6617 107.983 18.3497 107.983ZM25.9056 122.473C25.2336 122.473 24.5796 122.395 23.9436 122.239C23.3076 122.083 22.7316 121.861 22.2156 121.573L22.8996 120.169C23.4396 120.445 23.9436 120.643 24.4116 120.763C24.8916 120.895 25.3716 120.961 25.8516 120.961C26.6556 120.961 27.2616 120.775 27.6696 120.403C28.0896 120.031 28.2996 119.485 28.2996 118.765V117.721C27.4956 118.357 26.5776 118.675 25.5456 118.675C24.7056 118.675 23.9316 118.471 23.2236 118.063C22.5276 117.643 21.9756 117.079 21.5676 116.371C21.1596 115.651 20.9556 114.859 20.9556 113.995C20.9556 113.119 21.1596 112.327 21.5676 111.619C21.9876 110.899 22.5456 110.335 23.2416 109.927C23.9496 109.507 24.7416 109.297 25.6176 109.297C26.1096 109.297 26.5836 109.381 27.0396 109.549C27.5076 109.705 27.9336 109.933 28.3176 110.233V109.459H30.0996V118.765C30.0996 119.953 29.7336 120.865 29.0016 121.501C28.2816 122.149 27.2496 122.473 25.9056 122.473ZM25.7796 117.127C26.3076 117.127 26.7876 117.037 27.2196 116.857C27.6516 116.665 28.0116 116.395 28.2996 116.047V111.943C28.0116 111.607 27.6456 111.343 27.2016 111.151C26.7696 110.959 26.2956 110.863 25.7796 110.863C25.2036 110.863 24.6816 111.001 24.2136 111.277C23.7576 111.553 23.3916 111.931 23.1156 112.411C22.8516 112.879 22.7196 113.407 22.7196 113.995C22.7196 114.583 22.8516 115.117 23.1156 115.597C23.3916 116.065 23.7576 116.437 24.2136 116.713C24.6816 116.989 25.2036 117.127 25.7796 117.127ZM32.2153 118.621V109.459H34.0153V110.395C34.7233 109.651 35.6413 109.279 36.7693 109.279C37.4773 109.279 38.0953 109.429 38.6233 109.729C39.1633 110.029 39.5833 110.449 39.8833 110.989C40.1953 111.529 40.3513 112.153 40.3513 112.861V118.621H38.5513V113.167C38.5513 112.447 38.3473 111.883 37.9393 111.475C37.5433 111.055 36.9853 110.845 36.2653 110.845C35.7853 110.845 35.3533 110.947 34.9693 111.151C34.5853 111.355 34.2673 111.649 34.0153 112.033V118.621H32.2153ZM51.5359 118.819C50.4439 118.819 49.4959 118.591 48.6919 118.135C47.8879 117.679 47.2699 117.037 46.8379 116.209C46.4059 115.369 46.1899 114.379 46.1899 113.239V106.021H48.0799V113.239C48.0799 114.019 48.2179 114.697 48.4939 115.273C48.7819 115.849 49.1839 116.293 49.6999 116.605C50.2279 116.917 50.8399 117.073 51.5359 117.073C52.2559 117.073 52.8739 116.917 53.3899 116.605C53.9059 116.293 54.3019 115.849 54.5779 115.273C54.8659 114.697 55.0099 114.019 55.0099 113.239V106.021H56.8999V113.239C56.8999 114.379 56.6779 115.369 56.2339 116.209C55.8019 117.037 55.1839 117.679 54.3799 118.135C53.5759 118.591 52.6279 118.819 51.5359 118.819ZM59.022 122.293V109.459H60.804V110.341C61.572 109.657 62.508 109.315 63.612 109.315C64.476 109.315 65.256 109.525 65.952 109.945C66.66 110.365 67.218 110.929 67.626 111.637C68.034 112.345 68.238 113.143 68.238 114.031C68.238 114.919 68.028 115.723 67.608 116.443C67.2 117.151 66.642 117.715 65.934 118.135C65.238 118.555 64.452 118.765 63.576 118.765C63.072 118.765 62.586 118.687 62.118 118.531C61.65 118.363 61.218 118.129 60.822 117.829V122.293H59.022ZM63.378 117.199C63.966 117.199 64.488 117.061 64.944 116.785C65.412 116.509 65.784 116.137 66.06 115.669C66.336 115.189 66.474 114.649 66.474 114.049C66.474 113.449 66.336 112.909 66.06 112.429C65.784 111.949 65.412 111.571 64.944 111.295C64.488 111.019 63.966 110.881 63.378 110.881C62.862 110.881 62.382 110.977 61.938 111.169C61.494 111.361 61.122 111.631 60.822 111.979V116.119C61.122 116.455 61.494 116.719 61.938 116.911C62.394 117.103 62.874 117.199 63.378 117.199ZM73.7173 118.621V109.459H75.5173V118.621H73.7173ZM74.6173 107.983C74.3173 107.983 74.0593 107.875 73.8433 107.659C73.6273 107.431 73.5193 107.167 73.5193 106.867C73.5193 106.555 73.6273 106.297 73.8433 106.093C74.0593 105.877 74.3173 105.769 74.6173 105.769C74.9293 105.769 75.1933 105.877 75.4093 106.093C75.6253 106.297 75.7333 106.555 75.7333 106.867C75.7333 107.167 75.6253 107.431 75.4093 107.659C75.1933 107.875 74.9293 107.983 74.6173 107.983ZM77.6372 118.621V109.459H79.4372V110.395C80.1452 109.651 81.0632 109.279 82.1912 109.279C82.8992 109.279 83.5172 109.429 84.0452 109.729C84.5852 110.029 85.0052 110.449 85.3052 110.989C85.6172 111.529 85.7732 112.153 85.7732 112.861V118.621H83.9732V113.167C83.9732 112.447 83.7692 111.883 83.3612 111.475C82.9652 111.055 82.4072 110.845 81.6872 110.845C81.2072 110.845 80.7752 110.947 80.3912 111.151C80.0072 111.355 79.6892 111.649 79.4372 112.033V118.621H77.6372ZM94.5098 118.783C93.8498 118.783 93.2678 118.669 92.7638 118.441C92.2598 118.201 91.8638 117.871 91.5758 117.451C91.2878 117.031 91.1438 116.545 91.1438 115.993C91.1438 115.129 91.4738 114.451 92.1338 113.959C92.7938 113.455 93.6998 113.203 94.8518 113.203C95.7518 113.203 96.5858 113.377 97.3538 113.725V112.753C97.3538 112.093 97.1618 111.601 96.7778 111.277C96.4058 110.953 95.8538 110.791 95.1218 110.791C94.7018 110.791 94.2638 110.857 93.8078 110.989C93.3518 111.109 92.8418 111.301 92.2778 111.565L91.6118 110.215C92.3078 109.891 92.9558 109.657 93.5558 109.513C94.1558 109.357 94.7618 109.279 95.3738 109.279C96.5618 109.279 97.4798 109.561 98.1278 110.125C98.7878 110.689 99.1178 111.493 99.1178 112.537V118.621H97.3538V117.829C96.9458 118.153 96.5078 118.393 96.0398 118.549C95.5718 118.705 95.0618 118.783 94.5098 118.783ZM92.8718 115.957C92.8718 116.401 93.0578 116.761 93.4298 117.037C93.8138 117.301 94.3118 117.433 94.9238 117.433C95.4038 117.433 95.8418 117.367 96.2378 117.235C96.6458 117.091 97.0178 116.869 97.3538 116.569V115.021C97.0058 114.817 96.6398 114.673 96.2558 114.589C95.8838 114.493 95.4638 114.445 94.9958 114.445C94.3358 114.445 93.8138 114.583 93.4298 114.859C93.0578 115.123 92.8718 115.489 92.8718 115.957ZM105.17 118.621V106.021H114.494V107.677H107.06V111.547H111.956V113.149H107.06V118.621H105.17ZM118.644 118.783C117.744 118.783 116.928 118.573 116.196 118.153C115.476 117.733 114.9 117.163 114.468 116.443C114.048 115.723 113.838 114.919 113.838 114.031C113.838 113.155 114.042 112.363 114.45 111.655C114.858 110.935 115.41 110.365 116.106 109.945C116.802 109.513 117.576 109.297 118.428 109.297C119.28 109.297 120.036 109.513 120.696 109.945C121.356 110.365 121.878 110.941 122.262 111.673C122.658 112.393 122.856 113.209 122.856 114.121V114.625H115.638C115.734 115.129 115.92 115.579 116.196 115.975C116.484 116.371 116.844 116.683 117.276 116.911C117.72 117.139 118.2 117.253 118.716 117.253C119.16 117.253 119.586 117.187 119.994 117.055C120.414 116.911 120.762 116.707 121.038 116.443L122.19 117.577C121.65 117.985 121.092 118.291 120.516 118.495C119.952 118.687 119.328 118.783 118.644 118.783ZM115.656 113.275H121.074C121.002 112.795 120.834 112.375 120.57 112.015C120.318 111.643 120 111.355 119.616 111.151C119.244 110.935 118.836 110.827 118.392 110.827C117.936 110.827 117.516 110.929 117.132 111.133C116.748 111.337 116.424 111.625 116.16 111.997C115.908 112.357 115.74 112.783 115.656 113.275ZM126.105 118.621L123.549 109.459H125.295L127.077 116.191L129.165 109.459H130.713L132.801 116.191L134.583 109.459H136.275L133.701 118.621H131.973L129.921 111.907L127.851 118.621H126.105ZM141.539 118.621V106.021H144.077L148.019 114.085L151.961 106.021H154.481V118.621H152.699V108.325L148.001 117.721L143.303 108.325V118.621H141.539ZM156.827 118.621V109.459H158.627V118.621H156.827ZM157.727 107.983C157.427 107.983 157.169 107.875 156.953 107.659C156.737 107.431 156.629 107.167 156.629 106.867C156.629 106.555 156.737 106.297 156.953 106.093C157.169 105.877 157.427 105.769 157.727 105.769C158.039 105.769 158.303 105.877 158.519 106.093C158.735 106.297 158.843 106.555 158.843 106.867C158.843 107.167 158.735 107.431 158.519 107.659C158.303 107.875 158.039 107.983 157.727 107.983ZM160.747 118.621V109.459H162.547V110.395C163.255 109.651 164.173 109.279 165.301 109.279C166.009 109.279 166.627 109.429 167.155 109.729C167.695 110.029 168.115 110.449 168.415 110.989C168.727 111.529 168.883 112.153 168.883 112.861V118.621H167.083V113.167C167.083 112.447 166.879 111.883 166.471 111.475C166.075 111.055 165.517 110.845 164.797 110.845C164.317 110.845 163.885 110.947 163.501 111.151C163.117 111.355 162.799 111.649 162.547 112.033V118.621H160.747ZM174.418 118.801C173.71 118.801 173.086 118.651 172.546 118.351C172.006 118.051 171.586 117.631 171.286 117.091C170.986 116.539 170.836 115.909 170.836 115.201V109.459H172.618V114.895C172.618 115.615 172.822 116.185 173.23 116.605C173.65 117.025 174.208 117.235 174.904 117.235C175.396 117.235 175.834 117.133 176.218 116.929C176.602 116.713 176.914 116.413 177.154 116.029V109.459H178.954V118.621H177.154V117.685C176.446 118.429 175.534 118.801 174.418 118.801ZM185.008 118.783C184.12 118.783 183.442 118.579 182.974 118.171C182.506 117.751 182.272 117.145 182.272 116.353V110.971H180.328V109.459H182.272V107.119L184.054 106.687V109.459H186.754V110.971H184.054V115.939C184.054 116.407 184.156 116.743 184.36 116.947C184.576 117.139 184.924 117.235 185.404 117.235C185.656 117.235 185.878 117.217 186.07 117.181C186.274 117.145 186.49 117.091 186.718 117.019V118.531C186.478 118.615 186.196 118.675 185.872 118.711C185.56 118.759 185.272 118.783 185.008 118.783ZM192.332 118.783C191.432 118.783 190.616 118.573 189.884 118.153C189.164 117.733 188.588 117.163 188.156 116.443C187.736 115.723 187.526 114.919 187.526 114.031C187.526 113.155 187.73 112.363 188.138 111.655C188.546 110.935 189.098 110.365 189.794 109.945C190.49 109.513 191.264 109.297 192.116 109.297C192.968 109.297 193.724 109.513 194.384 109.945C195.044 110.365 195.566 110.941 195.95 111.673C196.346 112.393 196.544 113.209 196.544 114.121V114.625H189.326C189.422 115.129 189.608 115.579 189.884 115.975C190.172 116.371 190.532 116.683 190.964 116.911C191.408 117.139 191.888 117.253 192.404 117.253C192.848 117.253 193.274 117.187 193.682 117.055C194.102 116.911 194.45 116.707 194.726 116.443L195.878 117.577C195.338 117.985 194.78 118.291 194.204 118.495C193.64 118.687 193.016 118.783 192.332 118.783ZM189.344 113.275H194.762C194.69 112.795 194.522 112.375 194.258 112.015C194.006 111.643 193.688 111.355 193.304 111.151C192.932 110.935 192.524 110.827 192.08 110.827C191.624 110.827 191.204 110.929 190.82 111.133C190.436 111.337 190.112 111.625 189.848 111.997C189.596 112.357 189.428 112.783 189.344 113.275ZM201.496 118.801C200.704 118.801 199.96 118.687 199.264 118.459C198.58 118.219 197.986 117.883 197.482 117.451L198.472 116.263C198.94 116.635 199.42 116.923 199.912 117.127C200.416 117.319 200.926 117.415 201.442 117.415C202.09 117.415 202.618 117.289 203.026 117.037C203.434 116.785 203.638 116.455 203.638 116.047C203.638 115.711 203.518 115.447 203.278 115.255C203.038 115.063 202.666 114.931 202.162 114.859L200.506 114.625C199.594 114.493 198.91 114.211 198.454 113.779C197.998 113.347 197.77 112.771 197.77 112.051C197.77 111.499 197.92 111.019 198.22 110.611C198.52 110.191 198.94 109.867 199.48 109.639C200.02 109.399 200.65 109.279 201.37 109.279C202.03 109.279 202.666 109.375 203.278 109.567C203.89 109.759 204.478 110.059 205.042 110.467L204.124 111.655C203.62 111.319 203.128 111.073 202.648 110.917C202.18 110.761 201.706 110.683 201.226 110.683C200.674 110.683 200.23 110.803 199.894 111.043C199.558 111.271 199.39 111.571 199.39 111.943C199.39 112.279 199.504 112.543 199.732 112.735C199.972 112.915 200.362 113.041 200.902 113.113L202.558 113.347C203.47 113.479 204.16 113.761 204.628 114.193C205.096 114.613 205.33 115.183 205.33 115.903C205.33 116.455 205.162 116.953 204.826 117.397C204.49 117.829 204.034 118.171 203.458 118.423C202.882 118.675 202.228 118.801 201.496 118.801Z" fill="#20184E"/>
<rect x="208.5" y="160.621" width="74" height="76.3871" rx="15.914" fill="#21C4C1"/>
<path d="M200.237 225.436C210.469 225.436 214.973 220.82 214.973 206.528C214.973 192.237 210.469 187.621 200.237 187.621C190.004 187.621 185.5 192.237 185.5 206.528C185.5 220.82 190.004 225.436 200.237 225.436ZM200.237 219.041C195.232 219.041 193.007 215.927 193.007 206.528C193.007 197.186 195.232 194.016 200.237 194.016C205.242 194.016 207.466 197.186 207.466 206.528C207.466 215.927 205.242 219.041 200.237 219.041Z" fill="#6742CD" fill-opacity="0.22"/>
<path d="M247.525 224.88V218.485H230.453L243.466 205.361C243.966 204.86 247.359 202.024 247.359 196.741C247.359 191.013 243.355 187.621 234.235 187.621C225.782 187.621 221.278 190.513 221.278 198.743H228.729C228.729 195.073 230.342 194.016 234.346 194.016C238.294 194.016 239.851 195.073 239.851 197.353C239.851 200.133 236.515 203.192 235.569 204.082L221.111 218.485V224.88H247.525Z" fill="white"/>
<path d="M143.717 267.008L140.963 254.408H142.907L144.869 264.038L147.713 254.408H149.513L152.357 264.02L154.337 254.408H156.191L153.437 267.008H151.493L148.595 257.108L145.679 267.008H143.717ZM161.398 267.17C160.498 267.17 159.682 266.96 158.95 266.54C158.23 266.12 157.654 265.55 157.222 264.83C156.802 264.11 156.592 263.306 156.592 262.418C156.592 261.542 156.796 260.75 157.204 260.042C157.612 259.322 158.164 258.752 158.86 258.332C159.556 257.9 160.33 257.684 161.182 257.684C162.034 257.684 162.79 257.9 163.45 258.332C164.11 258.752 164.632 259.328 165.016 260.06C165.412 260.78 165.61 261.596 165.61 262.508V263.012H158.392C158.488 263.516 158.674 263.966 158.95 264.362C159.238 264.758 159.598 265.07 160.03 265.298C160.474 265.526 160.954 265.64 161.47 265.64C161.914 265.64 162.34 265.574 162.748 265.442C163.168 265.298 163.516 265.094 163.792 264.83L164.944 265.964C164.404 266.372 163.846 266.678 163.27 266.882C162.706 267.074 162.082 267.17 161.398 267.17ZM158.41 261.662H163.828C163.756 261.182 163.588 260.762 163.324 260.402C163.072 260.03 162.754 259.742 162.37 259.538C161.998 259.322 161.59 259.214 161.146 259.214C160.69 259.214 160.27 259.316 159.886 259.52C159.502 259.724 159.178 260.012 158.914 260.384C158.662 260.744 158.494 261.17 158.41 261.662ZM175.118 267.206C173.954 267.206 172.958 266.912 172.13 266.324C171.302 265.724 170.702 264.878 170.33 263.786L172.058 263.102C172.358 263.906 172.76 264.506 173.264 264.902C173.78 265.286 174.398 265.478 175.118 265.478C176.054 265.478 176.798 265.178 177.35 264.578C177.914 263.978 178.196 263.174 178.196 262.166V254.408H180.086V262.202C180.086 263.21 179.882 264.092 179.474 264.848C179.066 265.592 178.49 266.174 177.746 266.594C177.002 267.002 176.126 267.206 175.118 267.206ZM185.742 267.188C185.034 267.188 184.41 267.038 183.87 266.738C183.33 266.438 182.91 266.018 182.61 265.478C182.31 264.926 182.16 264.296 182.16 263.588V257.846H183.942V263.282C183.942 264.002 184.146 264.572 184.554 264.992C184.974 265.412 185.532 265.622 186.228 265.622C186.72 265.622 187.158 265.52 187.542 265.316C187.926 265.1 188.238 264.8 188.478 264.416V257.846H190.278V267.008H188.478V266.072C187.77 266.816 186.858 267.188 185.742 267.188ZM195.559 267.188C194.767 267.188 194.023 267.074 193.327 266.846C192.643 266.606 192.049 266.27 191.545 265.838L192.535 264.65C193.003 265.022 193.483 265.31 193.975 265.514C194.479 265.706 194.989 265.802 195.505 265.802C196.153 265.802 196.681 265.676 197.089 265.424C197.497 265.172 197.701 264.842 197.701 264.434C197.701 264.098 197.581 263.834 197.341 263.642C197.101 263.45 196.729 263.318 196.225 263.246L194.569 263.012C193.657 262.88 192.973 262.598 192.517 262.166C192.061 261.734 191.833 261.158 191.833 260.438C191.833 259.886 191.983 259.406 192.283 258.998C192.583 258.578 193.003 258.254 193.543 258.026C194.083 257.786 194.713 257.666 195.433 257.666C196.093 257.666 196.729 257.762 197.341 257.954C197.953 258.146 198.541 258.446 199.105 258.854L198.187 260.042C197.683 259.706 197.191 259.46 196.711 259.304C196.243 259.148 195.769 259.07 195.289 259.07C194.737 259.07 194.293 259.19 193.957 259.43C193.621 259.658 193.453 259.958 193.453 260.33C193.453 260.666 193.567 260.93 193.795 261.122C194.035 261.302 194.425 261.428 194.965 261.5L196.621 261.734C197.533 261.866 198.223 262.148 198.691 262.58C199.159 263 199.393 263.57 199.393 264.29C199.393 264.842 199.225 265.34 198.889 265.784C198.553 266.216 198.097 266.558 197.521 266.81C196.945 267.062 196.291 267.188 195.559 267.188ZM204.524 267.17C203.636 267.17 202.958 266.966 202.49 266.558C202.022 266.138 201.788 265.532 201.788 264.74V259.358H199.844V257.846H201.788V255.506L203.57 255.074V257.846H206.27V259.358H203.57V264.326C203.57 264.794 203.672 265.13 203.876 265.334C204.092 265.526 204.44 265.622 204.92 265.622C205.172 265.622 205.394 265.604 205.586 265.568C205.79 265.532 206.006 265.478 206.234 265.406V266.918C205.994 267.002 205.712 267.062 205.388 267.098C205.076 267.146 204.788 267.17 204.524 267.17ZM211.358 267.008V254.408L213.158 254.012V258.782C213.866 258.038 214.784 257.666 215.912 257.666C216.62 257.666 217.238 257.816 217.766 258.116C218.306 258.416 218.726 258.836 219.026 259.376C219.338 259.916 219.494 260.54 219.494 261.248V267.008H217.694V261.554C217.694 260.834 217.49 260.27 217.082 259.862C216.674 259.442 216.116 259.232 215.408 259.232C214.928 259.232 214.496 259.334 214.112 259.538C213.728 259.742 213.41 260.036 213.158 260.42V267.008H211.358ZM224.469 267.17C223.809 267.17 223.227 267.056 222.723 266.828C222.219 266.588 221.823 266.258 221.535 265.838C221.247 265.418 221.103 264.932 221.103 264.38C221.103 263.516 221.433 262.838 222.093 262.346C222.753 261.842 223.659 261.59 224.811 261.59C225.711 261.59 226.545 261.764 227.313 262.112V261.14C227.313 260.48 227.121 259.988 226.737 259.664C226.365 259.34 225.813 259.178 225.081 259.178C224.661 259.178 224.223 259.244 223.767 259.376C223.311 259.496 222.801 259.688 222.237 259.952L221.571 258.602C222.267 258.278 222.915 258.044 223.515 257.9C224.115 257.744 224.721 257.666 225.333 257.666C226.521 257.666 227.439 257.948 228.087 258.512C228.747 259.076 229.077 259.88 229.077 260.924V267.008H227.313V266.216C226.905 266.54 226.467 266.78 225.999 266.936C225.531 267.092 225.021 267.17 224.469 267.17ZM222.831 264.344C222.831 264.788 223.017 265.148 223.389 265.424C223.773 265.688 224.271 265.82 224.883 265.82C225.363 265.82 225.801 265.754 226.197 265.622C226.605 265.478 226.977 265.256 227.313 264.956V263.408C226.965 263.204 226.599 263.06 226.215 262.976C225.843 262.88 225.423 262.832 224.955 262.832C224.295 262.832 223.773 262.97 223.389 263.246C223.017 263.51 222.831 263.876 222.831 264.344ZM233.628 267.008L229.668 257.846H231.648L234.51 264.704L237.372 257.846H239.28L235.356 267.008H233.628ZM244.525 267.17C243.625 267.17 242.809 266.96 242.077 266.54C241.357 266.12 240.781 265.55 240.349 264.83C239.929 264.11 239.719 263.306 239.719 262.418C239.719 261.542 239.923 260.75 240.331 260.042C240.739 259.322 241.291 258.752 241.987 258.332C242.683 257.9 243.457 257.684 244.309 257.684C245.161 257.684 245.917 257.9 246.577 258.332C247.237 258.752 247.759 259.328 248.143 260.06C248.539 260.78 248.737 261.596 248.737 262.508V263.012H241.519C241.615 263.516 241.801 263.966 242.077 264.362C242.365 264.758 242.725 265.07 243.157 265.298C243.601 265.526 244.081 265.64 244.597 265.64C245.041 265.64 245.467 265.574 245.875 265.442C246.295 265.298 246.643 265.094 246.919 264.83L248.071 265.964C247.531 266.372 246.973 266.678 246.397 266.882C245.833 267.074 245.209 267.17 244.525 267.17ZM241.537 261.662H246.955C246.883 261.182 246.715 260.762 246.451 260.402C246.199 260.03 245.881 259.742 245.497 259.538C245.125 259.322 244.717 259.214 244.273 259.214C243.817 259.214 243.397 259.316 243.013 259.52C242.629 259.724 242.305 260.012 242.041 260.384C241.789 260.744 241.621 261.17 241.537 261.662ZM258.137 267.17C257.249 267.17 256.571 266.966 256.103 266.558C255.635 266.138 255.401 265.532 255.401 264.74V259.358H253.457V257.846H255.401V255.506L257.183 255.074V257.846H259.883V259.358H257.183V264.326C257.183 264.794 257.285 265.13 257.489 265.334C257.705 265.526 258.053 265.622 258.533 265.622C258.785 265.622 259.007 265.604 259.199 265.568C259.403 265.532 259.619 265.478 259.847 265.406V266.918C259.607 267.002 259.325 267.062 259.001 267.098C258.689 267.146 258.401 267.17 258.137 267.17ZM265.425 267.188C264.537 267.188 263.727 266.978 262.995 266.558C262.275 266.138 261.705 265.568 261.285 264.848C260.865 264.128 260.655 263.324 260.655 262.436C260.655 261.548 260.865 260.744 261.285 260.024C261.705 259.304 262.275 258.734 262.995 258.314C263.727 257.882 264.537 257.666 265.425 257.666C266.325 257.666 267.135 257.882 267.855 258.314C268.575 258.734 269.145 259.304 269.565 260.024C269.985 260.744 270.195 261.548 270.195 262.436C270.195 263.324 269.985 264.128 269.565 264.848C269.145 265.568 268.575 266.138 267.855 266.558C267.135 266.978 266.325 267.188 265.425 267.188ZM265.425 265.604C265.989 265.604 266.499 265.466 266.955 265.19C267.411 264.902 267.771 264.518 268.035 264.038C268.299 263.558 268.431 263.018 268.431 262.418C268.431 261.83 268.293 261.302 268.017 260.834C267.753 260.354 267.393 259.97 266.937 259.682C266.493 259.394 265.989 259.25 265.425 259.25C264.861 259.25 264.351 259.394 263.895 259.682C263.451 259.97 263.091 260.354 262.815 260.834C262.551 261.302 262.419 261.83 262.419 262.418C262.419 263.018 262.551 263.558 262.815 264.038C263.079 264.518 263.439 264.902 263.895 265.19C264.351 265.466 264.861 265.604 265.425 265.604ZM283.524 267.008L278.376 254.408H280.41L284.676 265.136L289.014 254.408H290.958L285.738 267.008H283.524ZM295.203 267.17C294.303 267.17 293.487 266.96 292.755 266.54C292.035 266.12 291.459 265.55 291.027 264.83C290.607 264.11 290.397 263.306 290.397 262.418C290.397 261.542 290.601 260.75 291.009 260.042C291.417 259.322 291.969 258.752 292.665 258.332C293.361 257.9 294.135 257.684 294.987 257.684C295.839 257.684 296.595 257.9 297.255 258.332C297.915 258.752 298.437 259.328 298.821 260.06C299.217 260.78 299.415 261.596 299.415 262.508V263.012H292.197C292.293 263.516 292.479 263.966 292.755 264.362C293.043 264.758 293.403 265.07 293.835 265.298C294.279 265.526 294.759 265.64 295.275 265.64C295.719 265.64 296.145 265.574 296.553 265.442C296.973 265.298 297.321 265.094 297.597 264.83L298.749 265.964C298.209 266.372 297.651 266.678 297.075 266.882C296.511 267.074 295.887 267.17 295.203 267.17ZM292.215 261.662H297.633C297.561 261.182 297.393 260.762 297.129 260.402C296.877 260.03 296.559 259.742 296.175 259.538C295.803 259.322 295.395 259.214 294.951 259.214C294.495 259.214 294.075 259.316 293.691 259.52C293.307 259.724 292.983 260.012 292.719 260.384C292.467 260.744 292.299 261.17 292.215 261.662ZM301.129 267.008V257.846H302.929V259.016C303.217 258.584 303.571 258.248 303.991 258.008C304.423 257.756 304.909 257.63 305.449 257.63C305.821 257.642 306.127 257.696 306.367 257.792V259.412C306.199 259.34 306.025 259.292 305.845 259.268C305.665 259.232 305.485 259.214 305.305 259.214C304.777 259.214 304.309 259.358 303.901 259.646C303.493 259.922 303.169 260.33 302.929 260.87V267.008H301.129ZM307.809 267.008V257.846H309.609V267.008H307.809ZM308.709 256.37C308.409 256.37 308.151 256.262 307.935 256.046C307.719 255.818 307.611 255.554 307.611 255.254C307.611 254.942 307.719 254.684 307.935 254.48C308.151 254.264 308.409 254.156 308.709 254.156C309.021 254.156 309.285 254.264 309.501 254.48C309.717 254.684 309.825 254.942 309.825 255.254C309.825 255.554 309.717 255.818 309.501 256.046C309.285 256.262 309.021 256.37 308.709 256.37ZM313.097 267.008V259.358H310.973V257.846H313.097V256.46C313.097 255.5 313.361 254.768 313.889 254.264C314.429 253.76 315.197 253.508 316.193 253.508C316.445 253.508 316.679 253.526 316.895 253.562C317.123 253.586 317.327 253.628 317.507 253.688V255.236C317.291 255.176 317.099 255.134 316.931 255.11C316.763 255.074 316.577 255.056 316.373 255.056C315.869 255.056 315.491 255.176 315.239 255.416C314.999 255.644 314.879 256.01 314.879 256.514V257.846H317.507V259.358H314.879V267.008H313.097ZM319.601 270.878C319.409 270.878 319.229 270.866 319.061 270.842C318.893 270.83 318.755 270.806 318.647 270.77V269.186C318.863 269.234 319.127 269.258 319.439 269.258C320.279 269.258 320.885 268.808 321.257 267.908L321.653 267.026L317.981 257.846H319.979L322.643 264.83L325.595 257.846H327.539L323.111 268.142C322.823 268.79 322.517 269.312 322.193 269.708C321.869 270.116 321.497 270.41 321.077 270.59C320.657 270.782 320.165 270.878 319.601 270.878ZM186.754 289.008V284.004L181.678 276.408H183.874L187.744 282.33L191.614 276.408H193.72L188.644 284.04V289.008H186.754ZM196.817 289.188C195.929 289.188 195.119 288.978 194.387 288.558C193.667 288.138 193.097 287.568 192.677 286.848C192.257 286.128 192.047 285.324 192.047 284.436C192.047 283.548 192.257 282.744 192.677 282.024C193.097 281.304 193.667 280.734 194.387 280.314C195.119 279.882 195.929 279.666 196.817 279.666C197.717 279.666 198.527 279.882 199.247 280.314C199.967 280.734 200.537 281.304 200.957 282.024C201.377 282.744 201.587 283.548 201.587 284.436C201.587 285.324 201.377 286.128 200.957 286.848C200.537 287.568 199.967 288.138 199.247 288.558C198.527 288.978 197.717 289.188 196.817 289.188ZM196.817 287.604C197.381 287.604 197.891 287.466 198.347 287.19C198.803 286.902 199.163 286.518 199.427 286.038C199.691 285.558 199.823 285.018 199.823 284.418C199.823 283.83 199.685 283.302 199.409 282.834C199.145 282.354 198.785 281.97 198.329 281.682C197.885 281.394 197.381 281.25 196.817 281.25C196.253 281.25 195.743 281.394 195.287 281.682C194.843 281.97 194.483 282.354 194.207 282.834C193.943 283.302 193.811 283.83 193.811 284.418C193.811 285.018 193.943 285.558 194.207 286.038C194.471 286.518 194.831 286.902 195.287 287.19C195.743 287.466 196.253 287.604 196.817 287.604ZM206.836 289.188C206.128 289.188 205.504 289.038 204.964 288.738C204.424 288.438 204.004 288.018 203.704 287.478C203.404 286.926 203.254 286.296 203.254 285.588V279.846H205.036V285.282C205.036 286.002 205.24 286.572 205.648 286.992C206.068 287.412 206.626 287.622 207.322 287.622C207.814 287.622 208.252 287.52 208.636 287.316C209.02 287.1 209.332 286.8 209.572 286.416V279.846H211.372V289.008H209.572V288.072C208.864 288.816 207.952 289.188 206.836 289.188ZM213.502 289.008V279.846H215.302V281.016C215.59 280.584 215.944 280.248 216.364 280.008C216.796 279.756 217.282 279.63 217.822 279.63C218.194 279.642 218.5 279.696 218.74 279.792V281.412C218.572 281.34 218.398 281.292 218.218 281.268C218.038 281.232 217.858 281.214 217.678 281.214C217.15 281.214 216.682 281.358 216.274 281.646C215.866 281.922 215.542 282.33 215.302 282.87V289.008H213.502ZM224.16 289.008V276.408H226.05V289.008H224.16ZM232.621 289.152C231.769 289.152 230.989 288.942 230.281 288.522C229.573 288.102 229.015 287.538 228.607 286.83C228.199 286.11 227.995 285.306 227.995 284.418C227.995 283.53 228.199 282.732 228.607 282.024C229.027 281.316 229.591 280.752 230.299 280.332C231.007 279.912 231.793 279.702 232.657 279.702C233.161 279.702 233.647 279.78 234.115 279.936C234.583 280.092 235.015 280.32 235.411 280.62V276.408L237.211 276.066V289.008H235.429V288.126C234.649 288.81 233.713 289.152 232.621 289.152ZM232.855 287.586C233.383 287.586 233.863 287.49 234.295 287.298C234.739 287.106 235.111 286.83 235.411 286.47V282.348C235.111 282.012 234.739 281.748 234.295 281.556C233.863 281.352 233.383 281.25 232.855 281.25C232.279 281.25 231.757 281.388 231.289 281.664C230.821 281.94 230.449 282.318 230.173 282.798C229.897 283.266 229.759 283.8 229.759 284.4C229.759 285 229.897 285.54 230.173 286.02C230.449 286.5 230.821 286.884 231.289 287.172C231.757 287.448 232.279 287.586 232.855 287.586ZM243.734 289.17C242.834 289.17 242.018 288.96 241.286 288.54C240.566 288.12 239.99 287.55 239.558 286.83C239.138 286.11 238.928 285.306 238.928 284.418C238.928 283.542 239.132 282.75 239.54 282.042C239.948 281.322 240.5 280.752 241.196 280.332C241.892 279.9 242.666 279.684 243.518 279.684C244.37 279.684 245.126 279.9 245.786 280.332C246.446 280.752 246.968 281.328 247.352 282.06C247.748 282.78 247.946 283.596 247.946 284.508V285.012H240.728C240.824 285.516 241.01 285.966 241.286 286.362C241.574 286.758 241.934 287.07 242.366 287.298C242.81 287.526 243.29 287.64 243.806 287.64C244.25 287.64 244.676 287.574 245.084 287.442C245.504 287.298 245.852 287.094 246.128 286.83L247.28 287.964C246.74 288.372 246.182 288.678 245.606 288.882C245.042 289.074 244.418 289.17 243.734 289.17ZM240.746 283.662H246.164C246.092 283.182 245.924 282.762 245.66 282.402C245.408 282.03 245.09 281.742 244.706 281.538C244.334 281.322 243.926 281.214 243.482 281.214C243.026 281.214 242.606 281.316 242.222 281.52C241.838 281.724 241.514 282.012 241.25 282.384C240.998 282.744 240.83 283.17 240.746 283.662ZM249.661 289.008V279.846H251.461V280.782C252.169 280.038 253.087 279.666 254.215 279.666C254.923 279.666 255.541 279.816 256.069 280.116C256.609 280.416 257.029 280.836 257.329 281.376C257.641 281.916 257.797 282.54 257.797 283.248V289.008H255.997V283.554C255.997 282.834 255.793 282.27 255.385 281.862C254.989 281.442 254.431 281.232 253.711 281.232C253.231 281.232 252.799 281.334 252.415 281.538C252.031 281.742 251.713 282.036 251.461 282.42V289.008H249.661ZM263.534 289.17C262.646 289.17 261.968 288.966 261.5 288.558C261.032 288.138 260.798 287.532 260.798 286.74V281.358H258.854V279.846H260.798V277.506L262.58 277.074V279.846H265.28V281.358H262.58V286.326C262.58 286.794 262.682 287.13 262.886 287.334C263.102 287.526 263.45 287.622 263.93 287.622C264.182 287.622 264.404 287.604 264.596 287.568C264.8 287.532 265.016 287.478 265.244 287.406V288.918C265.004 289.002 264.722 289.062 264.398 289.098C264.086 289.146 263.798 289.17 263.534 289.17ZM266.606 289.008V279.846H268.406V289.008H266.606ZM267.506 278.37C267.206 278.37 266.948 278.262 266.732 278.046C266.516 277.818 266.408 277.554 266.408 277.254C266.408 276.942 266.516 276.684 266.732 276.48C266.948 276.264 267.206 276.156 267.506 276.156C267.818 276.156 268.082 276.264 268.298 276.48C268.514 276.684 268.622 276.942 268.622 277.254C268.622 277.554 268.514 277.818 268.298 278.046C268.082 278.262 267.818 278.37 267.506 278.37ZM274.45 289.17C273.562 289.17 272.884 288.966 272.416 288.558C271.948 288.138 271.714 287.532 271.714 286.74V281.358H269.77V279.846H271.714V277.506L273.496 277.074V279.846H276.196V281.358H273.496V286.326C273.496 286.794 273.598 287.13 273.802 287.334C274.018 287.526 274.366 287.622 274.846 287.622C275.098 287.622 275.32 287.604 275.512 287.568C275.716 287.532 275.932 287.478 276.16 287.406V288.918C275.92 289.002 275.638 289.062 275.314 289.098C275.002 289.146 274.714 289.17 274.45 289.17ZM278.31 292.878C278.118 292.878 277.938 292.866 277.77 292.842C277.602 292.83 277.464 292.806 277.356 292.77V291.186C277.572 291.234 277.836 291.258 278.148 291.258C278.988 291.258 279.594 290.808 279.966 289.908L280.362 289.026L276.69 279.846H278.688L281.352 286.83L284.304 279.846H286.248L281.82 290.142C281.532 290.79 281.226 291.312 280.902 291.708C280.578 292.116 280.206 292.41 279.786 292.59C279.366 292.782 278.874 292.878 278.31 292.878Z" fill="#20184E"/>
<rect x="88.5" y="330.008" width="74" height="76.3871" rx="15.914" fill="#7D63EC"/>
<path d="M83.2366 396.823C93.4689 396.823 97.9733 392.207 97.9733 377.915C97.9733 363.623 93.4689 359.008 83.2366 359.008C73.0044 359.008 68.5 363.623 68.5 377.915C68.5 392.207 73.0044 396.823 83.2366 396.823ZM83.2366 390.427C78.2317 390.427 76.0073 387.313 76.0073 377.915C76.0073 368.573 78.2317 365.403 83.2366 365.403C88.2415 365.403 90.4659 368.573 90.4659 377.915C90.4659 387.313 88.2415 390.427 83.2366 390.427Z" fill="#EADDFA"/>
<path d="M130.523 365.959V359.564H105.499V365.959H120.792L114.007 374.023V380.14H118.067C122.738 380.14 124.351 382.03 124.351 385.145C124.351 388.036 123.239 390.427 117.789 390.427C114.285 390.427 111.894 389.204 111.894 385.701H104.387C104.387 393.764 110.448 396.823 117.9 396.823C128.355 396.823 131.858 391.818 131.858 385.145C131.858 378.861 128.633 375.19 121.848 374.245C123.239 373.077 124.629 371.965 125.908 370.63L130.523 365.959Z" fill="white"/>
<path d="M2.80516 448.395L0.0511641 435.795H1.99516L3.95716 445.425L6.80116 435.795H8.60116L11.4452 445.407L13.4252 435.795H15.2792L12.5252 448.395H10.5812L7.68316 438.495L4.76716 448.395H2.80516ZM20.4862 448.557C19.5862 448.557 18.7702 448.347 18.0382 447.927C17.3182 447.507 16.7422 446.937 16.3102 446.217C15.8902 445.497 15.6802 444.693 15.6802 443.805C15.6802 442.929 15.8842 442.137 16.2922 441.429C16.7002 440.709 17.2522 440.139 17.9482 439.719C18.6442 439.287 19.4182 439.071 20.2702 439.071C21.1222 439.071 21.8782 439.287 22.5382 439.719C23.1982 440.139 23.7202 440.715 24.1042 441.447C24.5002 442.167 24.6982 442.983 24.6982 443.895V444.399H17.4802C17.5762 444.903 17.7622 445.353 18.0382 445.749C18.3262 446.145 18.6862 446.457 19.1182 446.685C19.5622 446.913 20.0422 447.027 20.5582 447.027C21.0022 447.027 21.4282 446.961 21.8362 446.829C22.2562 446.685 22.6042 446.481 22.8802 446.217L24.0322 447.351C23.4922 447.759 22.9342 448.065 22.3582 448.269C21.7942 448.461 21.1702 448.557 20.4862 448.557ZM17.4982 443.049H22.9162C22.8442 442.569 22.6762 442.149 22.4122 441.789C22.1602 441.417 21.8422 441.129 21.4582 440.925C21.0862 440.709 20.6782 440.601 20.2342 440.601C19.7782 440.601 19.3582 440.703 18.9742 440.907C18.5902 441.111 18.2662 441.399 18.0022 441.771C17.7502 442.131 17.5822 442.557 17.4982 443.049ZM31.8843 448.395L29.3283 439.233H31.0743L32.8563 445.965L34.9443 439.233H36.4923L38.5803 445.965L40.3623 439.233H42.0543L39.4803 448.395H37.7523L35.7003 441.681L33.6303 448.395H31.8843ZM43.3403 448.395V439.233H45.1403V448.395H43.3403ZM44.2403 437.757C43.9403 437.757 43.6823 437.649 43.4663 437.433C43.2503 437.205 43.1423 436.941 43.1423 436.641C43.1423 436.329 43.2503 436.071 43.4663 435.867C43.6823 435.651 43.9403 435.543 44.2403 435.543C44.5523 435.543 44.8163 435.651 45.0323 435.867C45.2483 436.071 45.3563 436.329 45.3563 436.641C45.3563 436.941 45.2483 437.205 45.0323 437.433C44.8163 437.649 44.5523 437.757 44.2403 437.757ZM47.2602 448.395V435.795L49.0602 435.453V448.395H47.2602ZM51.1802 448.395V435.795L52.9802 435.453V448.395H51.1802ZM58.8618 448.395V439.233H60.6618V448.395H58.8618ZM59.7618 437.757C59.4618 437.757 59.2038 437.649 58.9878 437.433C58.7718 437.205 58.6638 436.941 58.6638 436.641C58.6638 436.329 58.7718 436.071 58.9878 435.867C59.2038 435.651 59.4618 435.543 59.7618 435.543C60.0738 435.543 60.3378 435.651 60.5538 435.867C60.7698 436.071 60.8778 436.329 60.8778 436.641C60.8778 436.941 60.7698 437.205 60.5538 437.433C60.3378 437.649 60.0738 437.757 59.7618 437.757ZM62.7817 448.395V439.233H64.5817V440.169C65.2897 439.425 66.2077 439.053 67.3357 439.053C68.0437 439.053 68.6617 439.203 69.1897 439.503C69.7297 439.803 70.1497 440.223 70.4497 440.763C70.7617 441.303 70.9177 441.927 70.9177 442.635V448.395H69.1177V442.941C69.1177 442.221 68.9137 441.657 68.5057 441.249C68.1097 440.829 67.5517 440.619 66.8317 440.619C66.3517 440.619 65.9197 440.721 65.5357 440.925C65.1517 441.129 64.8337 441.423 64.5817 441.807V448.395H62.7817ZM76.1446 448.575C75.3526 448.575 74.6086 448.461 73.9126 448.233C73.2286 447.993 72.6346 447.657 72.1306 447.225L73.1206 446.037C73.5886 446.409 74.0686 446.697 74.5606 446.901C75.0646 447.093 75.5746 447.189 76.0906 447.189C76.7386 447.189 77.2666 447.063 77.6746 446.811C78.0826 446.559 78.2866 446.229 78.2866 445.821C78.2866 445.485 78.1666 445.221 77.9266 445.029C77.6866 444.837 77.3146 444.705 76.8106 444.633L75.1546 444.399C74.2426 444.267 73.5586 443.985 73.1026 443.553C72.6466 443.121 72.4186 442.545 72.4186 441.825C72.4186 441.273 72.5686 440.793 72.8686 440.385C73.1686 439.965 73.5886 439.641 74.1286 439.413C74.6686 439.173 75.2986 439.053 76.0186 439.053C76.6786 439.053 77.3146 439.149 77.9266 439.341C78.5386 439.533 79.1266 439.833 79.6906 440.241L78.7726 441.429C78.2686 441.093 77.7766 440.847 77.2966 440.691C76.8286 440.535 76.3546 440.457 75.8746 440.457C75.3226 440.457 74.8786 440.577 74.5426 440.817C74.2066 441.045 74.0386 441.345 74.0386 441.717C74.0386 442.053 74.1526 442.317 74.3806 442.509C74.6206 442.689 75.0106 442.815 75.5506 442.887L77.2066 443.121C78.1186 443.253 78.8086 443.535 79.2766 443.967C79.7446 444.387 79.9786 444.957 79.9786 445.677C79.9786 446.229 79.8106 446.727 79.4746 447.171C79.1386 447.603 78.6826 447.945 78.1066 448.197C77.5306 448.449 76.8766 448.575 76.1446 448.575ZM85.11 448.557C84.222 448.557 83.544 448.353 83.076 447.945C82.608 447.525 82.374 446.919 82.374 446.127V440.745H80.43V439.233H82.374V436.893L84.156 436.461V439.233H86.856V440.745H84.156V445.713C84.156 446.181 84.258 446.517 84.462 446.721C84.678 446.913 85.026 447.009 85.506 447.009C85.758 447.009 85.98 446.991 86.172 446.955C86.376 446.919 86.592 446.865 86.82 446.793V448.305C86.58 448.389 86.298 448.449 85.974 448.485C85.662 448.533 85.374 448.557 85.11 448.557ZM91.0801 448.557C90.4201 448.557 89.8381 448.443 89.3341 448.215C88.8301 447.975 88.4341 447.645 88.1461 447.225C87.8581 446.805 87.7141 446.319 87.7141 445.767C87.7141 444.903 88.0441 444.225 88.7041 443.733C89.3641 443.229 90.2701 442.977 91.4221 442.977C92.3221 442.977 93.1561 443.151 93.9241 443.499V442.527C93.9241 441.867 93.7321 441.375 93.3481 441.051C92.9761 440.727 92.4241 440.565 91.6921 440.565C91.2721 440.565 90.8341 440.631 90.3781 440.763C89.9221 440.883 89.4121 441.075 88.8481 441.339L88.1821 439.989C88.8781 439.665 89.5261 439.431 90.1261 439.287C90.7261 439.131 91.3321 439.053 91.9441 439.053C93.1321 439.053 94.0501 439.335 94.6981 439.899C95.3581 440.463 95.6881 441.267 95.6881 442.311V448.395H93.9241V447.603C93.5161 447.927 93.0781 448.167 92.6101 448.323C92.1421 448.479 91.6321 448.557 91.0801 448.557ZM89.4421 445.731C89.4421 446.175 89.6281 446.535 90.0001 446.811C90.3841 447.075 90.8821 447.207 91.4941 447.207C91.9741 447.207 92.4121 447.141 92.8081 447.009C93.2161 446.865 93.5881 446.643 93.9241 446.343V444.795C93.5761 444.591 93.2101 444.447 92.8261 444.363C92.4541 444.267 92.0341 444.219 91.5661 444.219C90.9061 444.219 90.3841 444.357 90.0001 444.633C89.6281 444.897 89.4421 445.263 89.4421 445.731ZM97.7622 448.395V435.795L99.5622 435.453V448.395H97.7622ZM101.682 448.395V435.795L103.482 435.453V448.395H101.682ZM113.288 448.557C112.4 448.557 111.722 448.353 111.254 447.945C110.786 447.525 110.552 446.919 110.552 446.127V440.745H108.608V439.233H110.552V436.893L112.334 436.461V439.233H115.034V440.745H112.334V445.713C112.334 446.181 112.436 446.517 112.64 446.721C112.856 446.913 113.204 447.009 113.684 447.009C113.936 447.009 114.158 446.991 114.35 446.955C114.554 446.919 114.77 446.865 114.998 446.793V448.305C114.758 448.389 114.476 448.449 114.152 448.485C113.84 448.533 113.552 448.557 113.288 448.557ZM116.36 448.395V435.795L118.16 435.399V440.169C118.868 439.425 119.786 439.053 120.914 439.053C121.622 439.053 122.24 439.203 122.768 439.503C123.308 439.803 123.728 440.223 124.028 440.763C124.34 441.303 124.496 441.927 124.496 442.635V448.395H122.696V442.941C122.696 442.221 122.492 441.657 122.084 441.249C121.676 440.829 121.118 440.619 120.41 440.619C119.93 440.619 119.498 440.721 119.114 440.925C118.73 441.129 118.412 441.423 118.16 441.807V448.395H116.36ZM126.573 448.395V439.233H128.373V448.395H126.573ZM127.473 437.757C127.173 437.757 126.915 437.649 126.699 437.433C126.483 437.205 126.375 436.941 126.375 436.641C126.375 436.329 126.483 436.071 126.699 435.867C126.915 435.651 127.173 435.543 127.473 435.543C127.785 435.543 128.049 435.651 128.265 435.867C128.481 436.071 128.589 436.329 128.589 436.641C128.589 436.941 128.481 437.205 128.265 437.433C128.049 437.649 127.785 437.757 127.473 437.757ZM133.643 448.575C132.851 448.575 132.107 448.461 131.411 448.233C130.727 447.993 130.133 447.657 129.629 447.225L130.619 446.037C131.087 446.409 131.567 446.697 132.059 446.901C132.563 447.093 133.073 447.189 133.589 447.189C134.237 447.189 134.765 447.063 135.173 446.811C135.581 446.559 135.785 446.229 135.785 445.821C135.785 445.485 135.665 445.221 135.425 445.029C135.185 444.837 134.813 444.705 134.309 444.633L132.653 444.399C131.741 444.267 131.057 443.985 130.601 443.553C130.145 443.121 129.917 442.545 129.917 441.825C129.917 441.273 130.067 440.793 130.367 440.385C130.667 439.965 131.087 439.641 131.627 439.413C132.167 439.173 132.797 439.053 133.517 439.053C134.177 439.053 134.813 439.149 135.425 439.341C136.037 439.533 136.625 439.833 137.189 440.241L136.271 441.429C135.767 441.093 135.275 440.847 134.795 440.691C134.327 440.535 133.853 440.457 133.373 440.457C132.821 440.457 132.377 440.577 132.041 440.817C131.705 441.045 131.537 441.345 131.537 441.717C131.537 442.053 131.651 442.317 131.879 442.509C132.119 442.689 132.509 442.815 133.049 442.887L134.705 443.121C135.617 443.253 136.307 443.535 136.775 443.967C137.243 444.387 137.477 444.957 137.477 445.677C137.477 446.229 137.309 446.727 136.973 447.171C136.637 447.603 136.181 447.945 135.605 448.197C135.029 448.449 134.375 448.575 133.643 448.575ZM145.52 448.557C144.86 448.557 144.278 448.443 143.774 448.215C143.27 447.975 142.874 447.645 142.586 447.225C142.298 446.805 142.154 446.319 142.154 445.767C142.154 444.903 142.484 444.225 143.144 443.733C143.804 443.229 144.71 442.977 145.862 442.977C146.762 442.977 147.596 443.151 148.364 443.499V442.527C148.364 441.867 148.172 441.375 147.788 441.051C147.416 440.727 146.864 440.565 146.132 440.565C145.712 440.565 145.274 440.631 144.818 440.763C144.362 440.883 143.852 441.075 143.288 441.339L142.622 439.989C143.318 439.665 143.966 439.431 144.566 439.287C145.166 439.131 145.772 439.053 146.384 439.053C147.572 439.053 148.49 439.335 149.138 439.899C149.798 440.463 150.128 441.267 150.128 442.311V448.395H148.364V447.603C147.956 447.927 147.518 448.167 147.05 448.323C146.582 448.479 146.072 448.557 145.52 448.557ZM143.882 445.731C143.882 446.175 144.068 446.535 144.44 446.811C144.824 447.075 145.322 447.207 145.934 447.207C146.414 447.207 146.852 447.141 147.248 447.009C147.656 446.865 148.028 446.643 148.364 446.343V444.795C148.016 444.591 147.65 444.447 147.266 444.363C146.894 444.267 146.474 444.219 146.006 444.219C145.346 444.219 144.824 444.357 144.44 444.633C144.068 444.897 143.882 445.263 143.882 445.731ZM152.202 452.067V439.233H153.984V440.115C154.752 439.431 155.688 439.089 156.792 439.089C157.656 439.089 158.436 439.299 159.132 439.719C159.84 440.139 160.398 440.703 160.806 441.411C161.214 442.119 161.418 442.917 161.418 443.805C161.418 444.693 161.208 445.497 160.788 446.217C160.38 446.925 159.822 447.489 159.114 447.909C158.418 448.329 157.632 448.539 156.756 448.539C156.252 448.539 155.766 448.461 155.298 448.305C154.83 448.137 154.398 447.903 154.002 447.603V452.067H152.202ZM156.558 446.973C157.146 446.973 157.668 446.835 158.124 446.559C158.592 446.283 158.964 445.911 159.24 445.443C159.516 444.963 159.654 444.423 159.654 443.823C159.654 443.223 159.516 442.683 159.24 442.203C158.964 441.723 158.592 441.345 158.124 441.069C157.668 440.793 157.146 440.655 156.558 440.655C156.042 440.655 155.562 440.751 155.118 440.943C154.674 441.135 154.302 441.405 154.002 441.753V445.893C154.302 446.229 154.674 446.493 155.118 446.685C155.574 446.877 156.054 446.973 156.558 446.973ZM163.135 452.067V439.233H164.917V440.115C165.685 439.431 166.621 439.089 167.725 439.089C168.589 439.089 169.369 439.299 170.065 439.719C170.773 440.139 171.331 440.703 171.739 441.411C172.147 442.119 172.351 442.917 172.351 443.805C172.351 444.693 172.141 445.497 171.721 446.217C171.313 446.925 170.755 447.489 170.047 447.909C169.351 448.329 168.565 448.539 167.689 448.539C167.185 448.539 166.699 448.461 166.231 448.305C165.763 448.137 165.331 447.903 164.935 447.603V452.067H163.135ZM167.491 446.973C168.079 446.973 168.601 446.835 169.057 446.559C169.525 446.283 169.897 445.911 170.173 445.443C170.449 444.963 170.587 444.423 170.587 443.823C170.587 443.223 170.449 442.683 170.173 442.203C169.897 441.723 169.525 441.345 169.057 441.069C168.601 440.793 168.079 440.655 167.491 440.655C166.975 440.655 166.495 440.751 166.051 440.943C165.607 441.135 165.235 441.405 164.935 441.753V445.893C165.235 446.229 165.607 446.493 166.051 446.685C166.507 446.877 166.987 446.973 167.491 446.973ZM174.069 448.395V435.795L175.869 435.453V448.395H174.069ZM177.989 448.395V439.233H179.789V448.395H177.989ZM178.889 437.757C178.589 437.757 178.331 437.649 178.115 437.433C177.899 437.205 177.791 436.941 177.791 436.641C177.791 436.329 177.899 436.071 178.115 435.867C178.331 435.651 178.589 435.543 178.889 435.543C179.201 435.543 179.465 435.651 179.681 435.867C179.897 436.071 180.005 436.329 180.005 436.641C180.005 436.941 179.897 437.205 179.681 437.433C179.465 437.649 179.201 437.757 178.889 437.757ZM186.211 448.557C185.335 448.557 184.537 448.347 183.817 447.927C183.097 447.507 182.527 446.937 182.107 446.217C181.699 445.497 181.495 444.693 181.495 443.805C181.495 442.917 181.705 442.119 182.125 441.411C182.545 440.691 183.109 440.121 183.817 439.701C184.537 439.269 185.335 439.053 186.211 439.053C186.907 439.053 187.573 439.185 188.209 439.449C188.857 439.713 189.415 440.085 189.883 440.565L188.767 441.807C188.419 441.423 188.029 441.135 187.597 440.943C187.165 440.751 186.715 440.655 186.247 440.655C185.695 440.655 185.191 440.793 184.735 441.069C184.291 441.345 183.937 441.723 183.673 442.203C183.409 442.683 183.277 443.217 183.277 443.805C183.277 444.393 183.409 444.927 183.673 445.407C183.937 445.887 184.297 446.271 184.753 446.559C185.209 446.835 185.719 446.973 186.283 446.973C186.751 446.973 187.189 446.883 187.597 446.703C188.005 446.511 188.389 446.235 188.749 445.875L189.847 447.027C189.367 447.519 188.809 447.897 188.173 448.161C187.549 448.425 186.895 448.557 186.211 448.557ZM194.193 448.557C193.533 448.557 192.951 448.443 192.447 448.215C191.943 447.975 191.547 447.645 191.259 447.225C190.971 446.805 190.827 446.319 190.827 445.767C190.827 444.903 191.157 444.225 191.817 443.733C192.477 443.229 193.383 442.977 194.535 442.977C195.435 442.977 196.269 443.151 197.037 443.499V442.527C197.037 441.867 196.845 441.375 196.461 441.051C196.089 440.727 195.537 440.565 194.805 440.565C194.385 440.565 193.947 440.631 193.491 440.763C193.035 440.883 192.525 441.075 191.961 441.339L191.295 439.989C191.991 439.665 192.639 439.431 193.239 439.287C193.839 439.131 194.445 439.053 195.057 439.053C196.245 439.053 197.163 439.335 197.811 439.899C198.471 440.463 198.801 441.267 198.801 442.311V448.395H197.037V447.603C196.629 447.927 196.191 448.167 195.723 448.323C195.255 448.479 194.745 448.557 194.193 448.557ZM192.555 445.731C192.555 446.175 192.741 446.535 193.113 446.811C193.497 447.075 193.995 447.207 194.607 447.207C195.087 447.207 195.525 447.141 195.921 447.009C196.329 446.865 196.701 446.643 197.037 446.343V444.795C196.689 444.591 196.323 444.447 195.939 444.363C195.567 444.267 195.147 444.219 194.679 444.219C194.019 444.219 193.497 444.357 193.113 444.633C192.741 444.897 192.555 445.263 192.555 445.731ZM204.536 448.557C203.648 448.557 202.97 448.353 202.502 447.945C202.034 447.525 201.8 446.919 201.8 446.127V440.745H199.856V439.233H201.8V436.893L203.582 436.461V439.233H206.282V440.745H203.582V445.713C203.582 446.181 203.684 446.517 203.888 446.721C204.104 446.913 204.452 447.009 204.932 447.009C205.184 447.009 205.406 446.991 205.598 446.955C205.802 446.919 206.018 446.865 206.246 446.793V448.305C206.006 448.389 205.724 448.449 205.4 448.485C205.088 448.533 204.8 448.557 204.536 448.557ZM207.608 448.395V439.233H209.408V448.395H207.608ZM208.508 437.757C208.208 437.757 207.95 437.649 207.734 437.433C207.518 437.205 207.41 436.941 207.41 436.641C207.41 436.329 207.518 436.071 207.734 435.867C207.95 435.651 208.208 435.543 208.508 435.543C208.82 435.543 209.084 435.651 209.3 435.867C209.516 436.071 209.624 436.329 209.624 436.641C209.624 436.941 209.516 437.205 209.3 437.433C209.084 437.649 208.82 437.757 208.508 437.757ZM215.884 448.575C214.996 448.575 214.186 448.365 213.454 447.945C212.734 447.525 212.164 446.955 211.744 446.235C211.324 445.515 211.114 444.711 211.114 443.823C211.114 442.935 211.324 442.131 211.744 441.411C212.164 440.691 212.734 440.121 213.454 439.701C214.186 439.269 214.996 439.053 215.884 439.053C216.784 439.053 217.594 439.269 218.314 439.701C219.034 440.121 219.604 440.691 220.024 441.411C220.444 442.131 220.654 442.935 220.654 443.823C220.654 444.711 220.444 445.515 220.024 446.235C219.604 446.955 219.034 447.525 218.314 447.945C217.594 448.365 216.784 448.575 215.884 448.575ZM215.884 446.991C216.448 446.991 216.958 446.853 217.414 446.577C217.87 446.289 218.23 445.905 218.494 445.425C218.758 444.945 218.89 444.405 218.89 443.805C218.89 443.217 218.752 442.689 218.476 442.221C218.212 441.741 217.852 441.357 217.396 441.069C216.952 440.781 216.448 440.637 215.884 440.637C215.32 440.637 214.81 440.781 214.354 441.069C213.91 441.357 213.55 441.741 213.274 442.221C213.01 442.689 212.878 443.217 212.878 443.805C212.878 444.405 213.01 444.945 213.274 445.425C213.538 445.905 213.898 446.289 214.354 446.577C214.81 446.853 215.32 446.991 215.884 446.991ZM222.356 448.395V439.233H224.156V440.169C224.864 439.425 225.782 439.053 226.91 439.053C227.618 439.053 228.236 439.203 228.764 439.503C229.304 439.803 229.724 440.223 230.024 440.763C230.336 441.303 230.492 441.927 230.492 442.635V448.395H228.692V442.941C228.692 442.221 228.488 441.657 228.08 441.249C227.684 440.829 227.126 440.619 226.406 440.619C225.926 440.619 225.494 440.721 225.11 440.925C224.726 441.129 224.408 441.423 224.156 441.807V448.395H222.356Z" fill="#20184E"/>
<rect x="201.75" y="490.395" width="74" height="76.3871" rx="15.914" fill="#21C4C1"/>
<path d="M192.987 555.209C203.219 555.209 207.723 550.594 207.723 536.302C207.723 522.01 203.219 517.395 192.987 517.395C182.754 517.395 178.25 522.01 178.25 536.302C178.25 550.594 182.754 555.209 192.987 555.209ZM192.987 548.814C187.982 548.814 185.757 545.7 185.757 536.302C185.757 526.959 187.982 523.79 192.987 523.79C197.992 523.79 200.216 526.959 200.216 536.302C200.216 545.7 197.992 548.814 192.987 548.814Z" fill="#6742CD" fill-opacity="0.22"/>
<path d="M241.219 554.653V546.312H244.611V539.917H241.219V529.073L233.712 530.185V539.917H223.146L234.768 517.951H226.594L214.971 539.917V546.312H233.712V554.653H241.219Z" fill="white"/>
<path d="M131.716 607.961C130.708 607.961 129.736 607.763 128.8 607.367C127.864 606.971 127.036 606.413 126.316 605.693L127.468 604.361C128.152 605.033 128.848 605.531 129.556 605.855C130.276 606.179 131.026 606.341 131.806 606.341C132.418 606.341 132.952 606.257 133.408 606.089C133.876 605.909 134.236 605.657 134.488 605.333C134.74 605.009 134.866 604.643 134.866 604.235C134.866 603.671 134.668 603.239 134.272 602.939C133.876 602.639 133.222 602.411 132.31 602.255L130.204 601.913C129.052 601.709 128.188 601.337 127.612 600.797C127.048 600.257 126.766 599.537 126.766 598.637C126.766 597.917 126.958 597.287 127.342 596.747C127.726 596.195 128.266 595.769 128.962 595.469C129.67 595.169 130.486 595.019 131.41 595.019C132.322 595.019 133.216 595.169 134.092 595.469C134.98 595.757 135.778 596.177 136.486 596.729L135.442 598.169C134.086 597.137 132.712 596.621 131.32 596.621C130.768 596.621 130.288 596.699 129.88 596.855C129.472 597.011 129.154 597.233 128.926 597.521C128.698 597.797 128.584 598.121 128.584 598.493C128.584 599.009 128.758 599.405 129.106 599.681C129.454 599.945 130.03 600.137 130.834 600.257L132.868 600.599C134.2 600.815 135.178 601.205 135.802 601.769C136.426 602.333 136.738 603.107 136.738 604.091C136.738 604.859 136.528 605.537 136.108 606.125C135.688 606.701 135.1 607.151 134.344 607.475C133.588 607.799 132.712 607.961 131.716 607.961ZM142.841 607.943C141.941 607.943 141.125 607.733 140.393 607.313C139.673 606.893 139.097 606.323 138.665 605.603C138.245 604.883 138.035 604.079 138.035 603.191C138.035 602.315 138.239 601.523 138.647 600.815C139.055 600.095 139.607 599.525 140.303 599.105C140.999 598.673 141.773 598.457 142.625 598.457C143.477 598.457 144.233 598.673 144.893 599.105C145.553 599.525 146.075 600.101 146.459 600.833C146.855 601.553 147.053 602.369 147.053 603.281V603.785H139.835C139.931 604.289 140.117 604.739 140.393 605.135C140.681 605.531 141.041 605.843 141.473 606.071C141.917 606.299 142.397 606.413 142.913 606.413C143.357 606.413 143.783 606.347 144.191 606.215C144.611 606.071 144.959 605.867 145.235 605.603L146.387 606.737C145.847 607.145 145.289 607.451 144.713 607.655C144.149 607.847 143.525 607.943 142.841 607.943ZM139.853 602.435H145.271C145.199 601.955 145.031 601.535 144.767 601.175C144.515 600.803 144.197 600.515 143.813 600.311C143.441 600.095 143.033 599.987 142.589 599.987C142.133 599.987 141.713 600.089 141.329 600.293C140.945 600.497 140.621 600.785 140.357 601.157C140.105 601.517 139.937 601.943 139.853 602.435ZM148.767 607.781V598.619H150.567V599.555C151.275 598.811 152.193 598.439 153.321 598.439C154.029 598.439 154.647 598.589 155.175 598.889C155.715 599.189 156.135 599.609 156.435 600.149C156.747 600.689 156.903 601.313 156.903 602.021V607.781H155.103V602.327C155.103 601.607 154.899 601.043 154.491 600.635C154.095 600.215 153.537 600.005 152.817 600.005C152.337 600.005 151.905 600.107 151.521 600.311C151.137 600.515 150.819 600.809 150.567 601.193V607.781H148.767ZM163.192 607.925C162.34 607.925 161.56 607.715 160.852 607.295C160.144 606.875 159.586 606.311 159.178 605.603C158.77 604.883 158.566 604.079 158.566 603.191C158.566 602.303 158.77 601.505 159.178 600.797C159.598 600.089 160.162 599.525 160.87 599.105C161.578 598.685 162.364 598.475 163.228 598.475C163.732 598.475 164.218 598.553 164.686 598.709C165.154 598.865 165.586 599.093 165.982 599.393V595.181L167.782 594.839V607.781H166V606.899C165.22 607.583 164.284 607.925 163.192 607.925ZM163.426 606.359C163.954 606.359 164.434 606.263 164.866 606.071C165.31 605.879 165.682 605.603 165.982 605.243V601.121C165.682 600.785 165.31 600.521 164.866 600.329C164.434 600.125 163.954 600.023 163.426 600.023C162.85 600.023 162.328 600.161 161.86 600.437C161.392 600.713 161.02 601.091 160.744 601.571C160.468 602.039 160.33 602.573 160.33 603.173C160.33 603.773 160.468 604.313 160.744 604.793C161.02 605.273 161.392 605.657 161.86 605.945C162.328 606.221 162.85 606.359 163.426 606.359ZM177.671 607.781V602.777L172.595 595.181H174.791L178.661 601.103L182.531 595.181H184.637L179.561 602.813V607.781H177.671ZM187.734 607.961C186.846 607.961 186.036 607.751 185.304 607.331C184.584 606.911 184.014 606.341 183.594 605.621C183.174 604.901 182.964 604.097 182.964 603.209C182.964 602.321 183.174 601.517 183.594 600.797C184.014 600.077 184.584 599.507 185.304 599.087C186.036 598.655 186.846 598.439 187.734 598.439C188.634 598.439 189.444 598.655 190.164 599.087C190.884 599.507 191.454 600.077 191.874 600.797C192.294 601.517 192.504 602.321 192.504 603.209C192.504 604.097 192.294 604.901 191.874 605.621C191.454 606.341 190.884 606.911 190.164 607.331C189.444 607.751 188.634 607.961 187.734 607.961ZM187.734 606.377C188.298 606.377 188.808 606.239 189.264 605.963C189.72 605.675 190.08 605.291 190.344 604.811C190.608 604.331 190.74 603.791 190.74 603.191C190.74 602.603 190.602 602.075 190.326 601.607C190.062 601.127 189.702 600.743 189.246 600.455C188.802 600.167 188.298 600.023 187.734 600.023C187.17 600.023 186.66 600.167 186.204 600.455C185.76 600.743 185.4 601.127 185.124 601.607C184.86 602.075 184.728 602.603 184.728 603.191C184.728 603.791 184.86 604.331 185.124 604.811C185.388 605.291 185.748 605.675 186.204 605.963C186.66 606.239 187.17 606.377 187.734 606.377ZM197.753 607.961C197.045 607.961 196.421 607.811 195.881 607.511C195.341 607.211 194.921 606.791 194.621 606.251C194.321 605.699 194.171 605.069 194.171 604.361V598.619H195.953V604.055C195.953 604.775 196.157 605.345 196.565 605.765C196.985 606.185 197.543 606.395 198.239 606.395C198.731 606.395 199.169 606.293 199.553 606.089C199.937 605.873 200.249 605.573 200.489 605.189V598.619H202.289V607.781H200.489V606.845C199.781 607.589 198.869 607.961 197.753 607.961ZM204.419 607.781V598.619H206.219V599.789C206.507 599.357 206.861 599.021 207.281 598.781C207.713 598.529 208.199 598.403 208.739 598.403C209.111 598.415 209.417 598.469 209.657 598.565V600.185C209.489 600.113 209.315 600.065 209.135 600.041C208.955 600.005 208.775 599.987 208.595 599.987C208.067 599.987 207.599 600.131 207.191 600.419C206.783 600.695 206.459 601.103 206.219 601.643V607.781H204.419ZM215.077 607.781V595.181H224.401V596.837H216.967V600.707H221.863V602.309H216.967V607.781H215.077ZM225.759 607.781V598.619H227.559V607.781H225.759ZM226.659 597.143C226.359 597.143 226.101 597.035 225.885 596.819C225.669 596.591 225.561 596.327 225.561 596.027C225.561 595.715 225.669 595.457 225.885 595.253C226.101 595.037 226.359 594.929 226.659 594.929C226.971 594.929 227.235 595.037 227.451 595.253C227.667 595.457 227.775 595.715 227.775 596.027C227.775 596.327 227.667 596.591 227.451 596.819C227.235 597.035 226.971 597.143 226.659 597.143ZM229.679 607.781V598.619H231.479V599.789C231.767 599.357 232.121 599.021 232.541 598.781C232.973 598.529 233.459 598.403 233.999 598.403C234.371 598.415 234.677 598.469 234.917 598.565V600.185C234.749 600.113 234.575 600.065 234.395 600.041C234.215 600.005 234.035 599.987 233.855 599.987C233.327 599.987 232.859 600.131 232.451 600.419C232.043 600.695 231.719 601.103 231.479 601.643V607.781H229.679ZM239.509 607.961C238.717 607.961 237.973 607.847 237.277 607.619C236.593 607.379 235.999 607.043 235.495 606.611L236.485 605.423C236.953 605.795 237.433 606.083 237.925 606.287C238.429 606.479 238.939 606.575 239.455 606.575C240.103 606.575 240.631 606.449 241.039 606.197C241.447 605.945 241.651 605.615 241.651 605.207C241.651 604.871 241.531 604.607 241.291 604.415C241.051 604.223 240.679 604.091 240.175 604.019L238.519 603.785C237.607 603.653 236.923 603.371 236.467 602.939C236.011 602.507 235.783 601.931 235.783 601.211C235.783 600.659 235.933 600.179 236.233 599.771C236.533 599.351 236.953 599.027 237.493 598.799C238.033 598.559 238.663 598.439 239.383 598.439C240.043 598.439 240.679 598.535 241.291 598.727C241.903 598.919 242.491 599.219 243.055 599.627L242.137 600.815C241.633 600.479 241.141 600.233 240.661 600.077C240.193 599.921 239.719 599.843 239.239 599.843C238.687 599.843 238.243 599.963 237.907 600.203C237.571 600.431 237.403 600.731 237.403 601.103C237.403 601.439 237.517 601.703 237.745 601.895C237.985 602.075 238.375 602.201 238.915 602.273L240.571 602.507C241.483 602.639 242.173 602.921 242.641 603.353C243.109 603.773 243.343 604.343 243.343 605.063C243.343 605.615 243.175 606.113 242.839 606.557C242.503 606.989 242.047 607.331 241.471 607.583C240.895 607.835 240.241 607.961 239.509 607.961ZM248.474 607.943C247.586 607.943 246.908 607.739 246.44 607.331C245.972 606.911 245.738 606.305 245.738 605.513V600.131H243.794V598.619H245.738V596.279L247.52 595.847V598.619H250.22V600.131H247.52V605.099C247.52 605.567 247.622 605.903 247.826 606.107C248.042 606.299 248.39 606.395 248.87 606.395C249.122 606.395 249.344 606.377 249.536 606.341C249.74 606.305 249.956 606.251 250.184 606.179V607.691C249.944 607.775 249.662 607.835 249.338 607.871C249.026 607.919 248.738 607.943 248.474 607.943ZM255.524 607.781V595.181H261.356C262.184 595.181 262.904 595.343 263.516 595.667C264.128 595.979 264.608 596.417 264.956 596.981C265.304 597.545 265.478 598.199 265.478 598.943C265.478 599.687 265.304 600.341 264.956 600.905C264.608 601.469 264.122 601.913 263.498 602.237C262.886 602.549 262.172 602.705 261.356 602.705H257.414V607.781H255.524ZM257.414 601.103H261.158C261.902 601.103 262.49 600.911 262.922 600.527C263.366 600.131 263.588 599.609 263.588 598.961C263.588 598.313 263.366 597.797 262.922 597.413C262.49 597.029 261.902 596.837 261.158 596.837H257.414V601.103ZM269.649 607.943C268.989 607.943 268.407 607.829 267.903 607.601C267.399 607.361 267.003 607.031 266.715 606.611C266.427 606.191 266.283 605.705 266.283 605.153C266.283 604.289 266.613 603.611 267.273 603.119C267.933 602.615 268.839 602.363 269.991 602.363C270.891 602.363 271.725 602.537 272.493 602.885V601.913C272.493 601.253 272.301 600.761 271.917 600.437C271.545 600.113 270.993 599.951 270.261 599.951C269.841 599.951 269.403 600.017 268.947 600.149C268.491 600.269 267.981 600.461 267.417 600.725L266.751 599.375C267.447 599.051 268.095 598.817 268.695 598.673C269.295 598.517 269.901 598.439 270.513 598.439C271.701 598.439 272.619 598.721 273.267 599.285C273.927 599.849 274.257 600.653 274.257 601.697V607.781H272.493V606.989C272.085 607.313 271.647 607.553 271.179 607.709C270.711 607.865 270.201 607.943 269.649 607.943ZM268.011 605.117C268.011 605.561 268.197 605.921 268.569 606.197C268.953 606.461 269.451 606.593 270.063 606.593C270.543 606.593 270.981 606.527 271.377 606.395C271.785 606.251 272.157 606.029 272.493 605.729V604.181C272.145 603.977 271.779 603.833 271.395 603.749C271.023 603.653 270.603 603.605 270.135 603.605C269.475 603.605 268.953 603.743 268.569 604.019C268.197 604.283 268.011 604.649 268.011 605.117ZM276.768 611.651C276.576 611.651 276.396 611.639 276.228 611.615C276.06 611.603 275.922 611.579 275.814 611.543V609.959C276.03 610.007 276.294 610.031 276.606 610.031C277.446 610.031 278.052 609.581 278.424 608.681L278.82 607.799L275.148 598.619H277.146L279.81 605.603L282.762 598.619H284.706L280.278 608.915C279.99 609.563 279.684 610.085 279.36 610.481C279.036 610.889 278.664 611.183 278.244 611.363C277.824 611.555 277.332 611.651 276.768 611.651ZM285.824 607.781V598.619H287.624V599.501C288.308 598.793 289.166 598.439 290.198 598.439C290.822 598.439 291.374 598.577 291.854 598.853C292.346 599.129 292.736 599.501 293.024 599.969C293.408 599.465 293.858 599.087 294.374 598.835C294.89 598.571 295.472 598.439 296.12 598.439C296.804 598.439 297.398 598.589 297.902 598.889C298.418 599.189 298.82 599.609 299.108 600.149C299.408 600.689 299.558 601.313 299.558 602.021V607.781H297.758V602.327C297.758 601.607 297.566 601.043 297.182 600.635C296.81 600.215 296.3 600.005 295.652 600.005C295.208 600.005 294.806 600.107 294.446 600.311C294.086 600.515 293.774 600.827 293.51 601.247C293.534 601.367 293.552 601.493 293.564 601.625C293.576 601.757 293.582 601.889 293.582 602.021V607.781H291.8V602.327C291.8 601.607 291.608 601.043 291.224 600.635C290.852 600.215 290.342 600.005 289.694 600.005C289.262 600.005 288.872 600.101 288.524 600.293C288.176 600.473 287.876 600.749 287.624 601.121V607.781H285.824ZM306.018 607.943C305.118 607.943 304.302 607.733 303.57 607.313C302.85 606.893 302.274 606.323 301.842 605.603C301.422 604.883 301.212 604.079 301.212 603.191C301.212 602.315 301.416 601.523 301.824 600.815C302.232 600.095 302.784 599.525 303.48 599.105C304.176 598.673 304.95 598.457 305.802 598.457C306.654 598.457 307.41 598.673 308.07 599.105C308.73 599.525 309.252 600.101 309.636 600.833C310.032 601.553 310.23 602.369 310.23 603.281V603.785H303.012C303.108 604.289 303.294 604.739 303.57 605.135C303.858 605.531 304.218 605.843 304.65 606.071C305.094 606.299 305.574 606.413 306.09 606.413C306.534 606.413 306.96 606.347 307.368 606.215C307.788 606.071 308.136 605.867 308.412 605.603L309.564 606.737C309.024 607.145 308.466 607.451 307.89 607.655C307.326 607.847 306.702 607.943 306.018 607.943ZM303.03 602.435H308.448C308.376 601.955 308.208 601.535 307.944 601.175C307.692 600.803 307.374 600.515 306.99 600.311C306.618 600.095 306.21 599.987 305.766 599.987C305.31 599.987 304.89 600.089 304.506 600.293C304.122 600.497 303.798 600.785 303.534 601.157C303.282 601.517 303.114 601.943 303.03 602.435ZM311.945 607.781V598.619H313.745V599.555C314.453 598.811 315.371 598.439 316.499 598.439C317.207 598.439 317.825 598.589 318.353 598.889C318.893 599.189 319.313 599.609 319.613 600.149C319.925 600.689 320.081 601.313 320.081 602.021V607.781H318.281V602.327C318.281 601.607 318.077 601.043 317.669 600.635C317.273 600.215 316.715 600.005 315.995 600.005C315.515 600.005 315.083 600.107 314.699 600.311C314.315 600.515 313.997 600.809 313.745 601.193V607.781H311.945ZM325.818 607.943C324.93 607.943 324.252 607.739 323.784 607.331C323.316 606.911 323.082 606.305 323.082 605.513V600.131H321.138V598.619H323.082V596.279L324.864 595.847V598.619H327.564V600.131H324.864V605.099C324.864 605.567 324.966 605.903 325.17 606.107C325.386 606.299 325.734 606.395 326.214 606.395C326.466 606.395 326.688 606.377 326.88 606.341C327.084 606.305 327.3 606.251 327.528 606.179V607.691C327.288 607.775 327.006 607.835 326.682 607.871C326.37 607.919 326.082 607.943 325.818 607.943Z" fill="#20184E"/>
</svg>
