<svg width="80" height="80" viewBox="0 0 80 80" fill="none" xmlns="http://www.w3.org/2000/svg">
<circle cx="40" cy="40" r="40" fill="#FAFAFA"/>
<g clip-path="url(#clip0_1171_58417)">
<path d="M49.6502 51.4036C49.3481 51.5112 49.0278 51.558 48.7076 51.5415C48.3874 51.525 48.0736 51.4454 47.7841 51.3074C47.4947 51.1694 47.2354 50.9756 47.021 50.7372C46.8066 50.4987 46.6414 50.2204 46.5348 49.918C46.4273 49.6164 46.3805 49.2965 46.3971 48.9767C46.4136 48.657 46.4932 48.3437 46.6313 48.0548C46.7694 47.7659 46.9632 47.5072 47.2016 47.2935C47.44 47.0798 47.7183 46.9153 48.0205 46.8095C48.3221 46.702 48.642 46.6552 48.9617 46.6718C49.2814 46.6883 49.5948 46.7679 49.8836 46.906C50.1725 47.0441 50.4313 47.2379 50.645 47.4763C50.8587 47.7147 51.0232 47.993 51.129 48.2952C51.2364 48.5964 51.2834 48.9158 51.2672 49.2351C51.251 49.5545 51.172 49.8675 51.0346 50.1563C50.8972 50.445 50.7042 50.7039 50.4667 50.9179C50.2291 51.1319 49.9517 51.297 49.6502 51.4036ZM38.2285 34.4629C38.2285 36.3944 36.6604 37.9687 34.7226 37.9687C32.7849 37.9687 31.2168 36.3944 31.2168 34.4629C31.2168 32.5251 32.7849 30.957 34.7226 30.957C36.6604 30.957 38.2285 32.5251 38.2285 34.4629Z" stroke="#7D63EC" stroke-width="2" stroke-miterlimit="10" stroke-linecap="round" stroke-linejoin="round"/>
<path d="M43.317 41.5213L42.1394 38.6323C42.4751 38.0507 42.7347 37.4138 42.9196 36.7423L45.7892 35.5377V33.3728L42.9196 32.1675C42.7381 31.5078 42.4761 30.8731 42.1394 30.2775L43.317 27.4017L41.7835 25.8675L38.8938 27.0458C38.3116 26.71 37.6816 26.4504 37.0177 26.2649L35.8054 23.3967L33.6482 23.3828L32.4297 26.2656C31.772 26.4504 31.1351 26.7177 30.5536 27.0465L27.6639 25.8682L26.1297 27.4024L27.3074 30.2782C26.9723 30.8736 26.712 31.4967 26.5271 32.1682L23.6582 33.3728V35.537L26.5271 36.7423C26.712 37.4138 26.9723 38.0507 27.3074 38.6323L26.1304 41.522L27.6639 43.0416L30.5397 41.8647C31.1213 42.1997 31.7582 42.4739 32.4297 42.6518L33.6413 45.5277H35.7985L37.0031 42.6518C37.6747 42.4739 38.3185 42.1997 38.9 41.864L41.7835 43.0416L43.317 41.5213ZM34.724 37.9684C33.7944 37.9678 32.903 37.5983 32.2456 36.9409C31.5883 36.2836 31.2188 35.3921 31.2182 34.4625C31.2182 32.5247 32.7863 30.9567 34.724 30.9567C36.6618 30.9567 38.2299 32.5247 38.2299 34.4625C38.2293 35.3921 37.8598 36.2836 37.2024 36.9409C36.5451 37.5983 35.6537 37.9678 34.724 37.9684ZM54.7387 48.7047L56.3407 47.246L55.8408 45.8357L53.6774 45.7056C53.402 45.3142 53.08 44.9578 52.7185 44.6443L52.821 42.487L51.4724 41.8294L49.8496 43.2749C49.3823 43.19 48.9058 43.1667 48.4324 43.2057L46.9737 41.6037L45.5559 42.1035L45.4327 44.2677C45.0416 44.5381 44.6852 44.8555 44.3714 45.2127L42.2079 45.1095L41.564 46.4727L43.002 48.0954C42.9171 48.5604 42.8941 49.0346 42.9334 49.5057L41.3314 50.9644L41.8244 52.3815L43.9947 52.5117C44.2689 52.8952 44.5901 53.2517 44.9397 53.5598L44.8373 55.7302L46.1997 56.381L47.8156 54.9361C48.2833 55.0196 48.7595 55.045 49.2334 55.0116L50.6914 56.6136L52.1093 56.1137L52.2325 53.9503C52.6244 53.6808 52.9789 53.3608 53.2869 52.9984L55.4573 53.1008L56.1011 51.7453L54.6632 50.1287C54.747 49.659 54.7724 49.1806 54.7387 48.7047ZM49.6509 51.4026C49.3488 51.5101 49.0285 51.5569 48.7083 51.5404C48.3881 51.5239 48.0743 51.4443 47.7848 51.3063C47.4954 51.1683 47.2361 50.9745 47.0217 50.7361C46.8073 50.4977 46.6421 50.2193 46.5355 49.9169C46.428 49.6153 46.3812 49.2954 46.3978 48.9757C46.4143 48.6559 46.4939 48.3426 46.632 48.0537C46.7701 47.7649 46.9639 47.5061 47.2023 47.2924C47.4407 47.0787 47.719 46.9142 48.0212 46.8084C48.3228 46.7009 48.6427 46.6541 48.9624 46.6707C49.2822 46.6872 49.5955 46.7668 49.8844 46.9049C50.1732 47.043 50.432 47.2368 50.6457 47.4752C50.8594 47.7136 51.0239 47.9919 51.1297 48.2941C51.2371 48.5953 51.2841 48.9147 51.2679 49.2341C51.2517 49.5534 51.1727 49.8665 51.0353 50.1552C50.898 50.444 50.705 50.7028 50.4674 50.9168C50.2298 51.1309 49.9524 51.296 49.6509 51.4026Z" stroke="#7D63EC" stroke-width="0.5" stroke-miterlimit="10" stroke-linecap="round" stroke-linejoin="round"/>
<path d="M49.6509 51.4031C49.3488 51.5106 49.0285 51.5575 48.7083 51.5409C48.3881 51.5244 48.0743 51.4449 47.7849 51.3069C47.4955 51.1688 47.2361 50.9751 47.0217 50.7366C46.8074 50.4982 46.6421 50.2198 46.5355 49.9174C46.428 49.6158 46.3812 49.296 46.3978 48.9762C46.4143 48.6565 46.4939 48.3431 46.632 48.0543C46.7701 47.7654 46.9639 47.5067 47.2023 47.2929C47.4407 47.0792 47.719 46.9147 48.0212 46.809C48.3228 46.7015 48.6427 46.6547 48.9624 46.6712C49.2822 46.6878 49.5955 46.7674 49.8844 46.9055C50.1733 47.0435 50.432 47.2373 50.6457 47.4757C50.8594 47.7142 51.0239 47.9925 51.1297 48.2947C51.2371 48.5958 51.2841 48.9152 51.2679 49.2346C51.2518 49.554 51.1727 49.867 51.0353 50.1558C50.898 50.4445 50.705 50.7033 50.4674 50.9174C50.2298 51.1314 49.9524 51.2965 49.6509 51.4031Z" stroke="#7D63EC" stroke-width="0.5" stroke-miterlimit="10" stroke-linecap="round" stroke-linejoin="round"/>
<path d="M49.8169 51.875C49.4531 52.0044 49.0674 52.0607 48.6818 52.0408C48.2959 52.0209 47.9177 51.925 47.5689 51.7587C47.2201 51.5924 46.9076 51.3588 46.6492 51.0715C46.391 50.7844 46.192 50.4491 46.0635 50.085C45.9341 49.7216 45.8778 49.3362 45.8977 48.9509C45.9177 48.5653 46.0137 48.1875 46.1802 47.8392C46.3467 47.4908 46.5804 47.1789 46.8678 46.9212C47.155 46.6638 47.4901 46.4656 47.854 46.338C48.2172 46.2088 48.6025 46.1525 48.9876 46.1724C49.3731 46.1924 49.7509 46.2884 50.0993 46.4549C50.4476 46.6213 50.7596 46.855 51.0173 47.1425C51.2746 47.4296 51.4728 47.7647 51.6003 48.1285M49.8169 51.875C50.1804 51.7465 50.5149 51.5474 50.8014 51.2894C51.0878 51.0313 51.3205 50.7192 51.4861 50.3711C51.6518 50.0229 51.7471 49.6455 51.7666 49.2604C51.7861 48.8759 51.7296 48.4912 51.6003 48.1285M49.8169 51.875L49.6502 51.4036M49.8169 51.875L49.6502 51.4036M49.8169 51.875C49.8172 51.8749 49.8175 51.8748 49.8178 51.8747L49.6502 51.4036M49.8169 51.875L49.6502 51.4036M51.6003 48.1285C51.6002 48.128 51.6 48.1276 51.5999 48.1272L51.129 48.2952L51.6009 48.13C51.6007 48.1295 51.6005 48.129 51.6003 48.1285ZM34.7226 38.4687C36.9371 38.4687 38.7285 36.67 38.7285 34.4629C38.7285 32.249 36.9366 30.457 34.7226 30.457C32.5087 30.457 30.7168 32.249 30.7168 34.4629C30.7168 36.67 32.5082 38.4687 34.7226 38.4687Z" stroke="#7D63EC" stroke-miterlimit="10" stroke-linecap="round" stroke-linejoin="round"/>
<path d="M43.669 41.8763C43.8124 41.7341 43.8562 41.5196 43.78 41.3325L42.6929 38.6656C42.9557 38.1752 43.1686 37.6533 43.3334 37.1108L45.9827 35.9987C46.1684 35.9207 46.2892 35.739 46.2892 35.5377V33.3728C46.2892 33.1715 46.1684 32.9898 45.9828 32.9118L43.3332 31.7989C43.1694 31.2623 42.9548 30.7425 42.6923 30.2466L43.7797 27.5911C43.856 27.4047 43.813 27.1907 43.6706 27.0482L42.1371 25.514C41.9949 25.3717 41.7811 25.3285 41.5947 25.4045L38.9272 26.4922C38.4387 26.2301 37.9225 26.0172 37.386 25.852L36.266 23.202C36.1882 23.018 36.0084 22.898 35.8086 22.8967L33.6514 22.8828C33.4493 22.8815 33.2663 23.002 33.1877 23.1882L32.0612 25.8533C31.5268 26.0196 31.0084 26.2363 30.5222 26.4937L27.8527 25.4052C27.6664 25.3292 27.4526 25.3724 27.3103 25.5146L25.7762 27.0488C25.6337 27.1913 25.5907 27.4054 25.667 27.5918L26.7545 30.2476C26.4933 30.7417 26.2794 31.2559 26.1135 31.7996L23.4646 32.9118C23.279 32.9898 23.1582 33.1715 23.1582 33.3728V35.537C23.1582 35.7383 23.2789 35.92 23.4645 35.9979L26.1133 37.1108C26.2782 37.6535 26.4916 38.1753 26.7539 38.6655L25.6674 41.3334C25.5912 41.5204 25.635 41.7349 25.7785 41.8771L27.3119 43.3967C27.4545 43.538 27.6676 43.5803 27.8533 43.5043L30.5064 42.4185C30.9928 42.6809 31.5147 42.9033 32.0623 43.0675L33.1805 45.7218C33.2586 45.9071 33.4401 46.0277 33.6413 46.0277H35.7985C36 46.0277 36.1818 45.9067 36.2597 45.7208L37.3711 43.0674C37.9191 42.9034 38.4453 42.6811 38.9336 42.4178L41.5945 43.5045C41.7801 43.5803 41.9931 43.5378 42.1355 43.3967L43.669 41.8763ZM56.6773 47.6157C56.8261 47.4802 56.8792 47.2686 56.8119 47.0789L56.3121 45.6687C56.245 45.4795 56.0713 45.3487 55.8708 45.3366L53.9418 45.2206C53.7265 44.9383 53.4882 44.6744 53.2292 44.4316L53.3204 42.5108C53.3299 42.3112 53.2197 42.1252 53.0401 42.0376L51.6915 41.3799C51.5092 41.291 51.2912 41.3211 51.1398 41.456L49.6942 42.7437C49.3454 42.6953 48.9929 42.678 48.641 42.6921L47.3434 41.267C47.2081 41.1184 46.997 41.0653 46.8075 41.1321L45.3897 41.632C45.1995 41.699 45.0682 41.8737 45.0567 42.0751L44.947 44.0016C44.6659 44.2128 44.4029 44.4471 44.1607 44.702L42.2317 44.6101C42.0299 44.6004 41.8421 44.7133 41.7558 44.896L41.1119 46.2591C41.0265 46.44 41.0571 46.6545 41.1898 46.8043L42.4708 48.2499C42.4225 48.5968 42.4054 48.9473 42.4196 49.2973L40.9948 50.5946C40.8468 50.7294 40.7934 50.9395 40.8592 51.1286L41.3521 52.5458C41.4184 52.7364 41.5929 52.8685 41.7944 52.8806L43.7323 52.9968C43.9444 53.2721 44.1787 53.5322 44.4292 53.7703L44.3378 55.7066C44.3283 55.9076 44.4402 56.0947 44.6218 56.1814L45.9842 56.8321C46.1662 56.9191 46.3827 56.8881 46.533 56.7537L47.972 55.467C48.32 55.515 48.6715 55.5337 49.0226 55.5228L50.3217 56.9501C50.4569 57.0988 50.6681 57.152 50.8577 57.0851L52.2755 56.5853C52.4657 56.5182 52.597 56.3435 52.6085 56.1422L52.7181 54.2168C53.0001 54.0048 53.2625 53.768 53.5021 53.5091L55.4337 53.6003C55.6351 53.6098 55.8224 53.4974 55.9089 53.3153L56.5528 51.9598C56.6389 51.7784 56.6082 51.563 56.4747 51.413L55.194 49.9731C55.2424 49.6227 55.2611 49.2688 55.25 48.9153L56.6773 47.6157ZM49.4842 50.9312L49.4832 50.9315C49.2432 51.017 48.9886 51.0542 48.734 51.0411C48.4795 51.0279 48.2301 50.9647 48.0001 50.855C47.77 50.7453 47.5639 50.5913 47.3935 50.4018C47.2231 50.2123 47.0918 49.991 47.0071 49.7507L47.0065 49.749C46.9211 49.5095 46.8839 49.2555 46.8971 49.0015C46.9102 48.7476 46.9735 48.4988 47.0831 48.2693C47.1928 48.0399 47.3467 47.8344 47.536 47.6647C47.7254 47.495 47.9464 47.3644 48.1864 47.2804L48.1891 47.2794C48.4286 47.194 48.6826 47.1569 48.9366 47.17C49.1905 47.1832 49.4393 47.2464 49.6687 47.356C49.8982 47.4657 50.1036 47.6196 50.2734 47.809L50.6457 47.4752L50.2734 47.809C50.4431 47.9983 50.5737 48.2193 50.6577 48.4593L50.6587 48.4622C50.7441 48.7014 50.7814 48.9551 50.7686 49.2088C50.7557 49.4624 50.6929 49.7111 50.5838 49.9404C50.4747 50.1698 50.3214 50.3754 50.1327 50.5454C49.944 50.7154 49.7236 50.8465 49.4842 50.9312ZM34.724 37.4684C33.927 37.4678 33.1628 37.1509 32.5992 36.5874C32.0355 36.0237 31.7187 35.2593 31.7182 34.4622C31.7184 32.8007 33.0625 31.4567 34.724 31.4567C36.3856 31.4567 37.7297 32.8007 37.7299 34.4622C37.7294 35.2593 37.4126 36.0237 36.8489 36.5874C36.2853 37.1509 35.5211 37.4678 34.724 37.4684Z" stroke="#7D63EC" stroke-miterlimit="10" stroke-linecap="round" stroke-linejoin="round"/>
<path d="M49.6509 51.4031C49.3488 51.5106 49.0285 51.5575 48.7083 51.5409C48.3881 51.5244 48.0743 51.4449 47.7849 51.3069C47.4955 51.1688 47.2361 50.9751 47.0217 50.7366C46.8074 50.4982 46.6421 50.2198 46.5355 49.9174C46.428 49.6158 46.3812 49.296 46.3978 48.9762C46.4143 48.6565 46.4939 48.3431 46.632 48.0543C46.7701 47.7654 46.9639 47.5067 47.2023 47.2929C47.4407 47.0792 47.719 46.9147 48.0212 46.809C48.3228 46.7015 48.6427 46.6547 48.9624 46.6712C49.2822 46.6878 49.5955 46.7674 49.8844 46.9055C50.1733 47.0435 50.432 47.2373 50.6457 47.4757C50.8594 47.7142 51.0239 47.9925 51.1297 48.2947C51.2371 48.5958 51.2841 48.9152 51.2679 49.2346C51.2518 49.554 51.1727 49.867 51.0353 50.1558C50.898 50.4445 50.705 50.7033 50.4674 50.9174C50.2298 51.1314 49.9524 51.2965 49.6509 51.4031Z" stroke="#7D63EC" stroke-miterlimit="10" stroke-linecap="round" stroke-linejoin="round"/>
</g>
<defs>
<clipPath id="clip0_1171_58417">
<rect width="36" height="36" fill="white" transform="translate(22 22)"/>
</clipPath>
</defs>
</svg>
