<svg width="80" height="72" viewBox="0 0 80 72" fill="none" xmlns="http://www.w3.org/2000/svg">
<path d="M41.2661 63.2373C56.9655 63.2373 69.6963 50.5591 69.6963 34.916C69.6963 19.2729 56.9655 6.58984 41.2661 6.58984C25.5618 6.58984 12.8359 19.2729 12.8359 34.916C12.8359 50.5591 25.5618 63.2373 41.2661 63.2373Z" fill="#F8FAFF"/>
<path d="M42.2969 34.9259L61.7032 11.6523" stroke="#C2C8D6" stroke-width="3" stroke-dasharray="4 4"/>
<path d="M42.3042 34.9045L31.7148 8.11719" stroke="#C2C8D6" stroke-width="3" stroke-dasharray="4 4"/>
<path d="M42.3184 34.9043L10.1172 33.5859" stroke="#C2C8D6" stroke-width="3" stroke-dasharray="4 4"/>
<path d="M42.3166 34.9102L29.9648 63.011" stroke="#C2C8D6" stroke-width="3" stroke-dasharray="4 4"/>
<path d="M42.2969 34.9102L70.0822 50.715" stroke="#C2C8D6" stroke-width="3" stroke-dasharray="4 4"/>
<path d="M39.2925 8.32666C39.2925 10.4536 38.4409 12.3453 37.1117 13.7616C37.0181 13.9037 36.8754 13.9968 36.7326 14.0899C35.3148 15.4131 33.4194 16.2168 31.3321 16.2168C29.678 16.2168 28.1125 15.6974 26.8325 14.8006C26.4534 14.5653 26.1236 14.2321 25.7938 13.9478C24.3218 12.5315 23.4258 10.5467 23.4258 8.32666C23.4258 3.98461 26.9753 0.441406 31.3321 0.441406C35.7382 0.441406 39.2925 3.98461 39.2925 8.32666Z" fill="#D5DDEA"/>
<path d="M39.2925 8.31672C39.2925 10.6348 38.2981 12.6637 36.7326 14.129C35.3148 15.4522 33.4194 16.251 31.3321 16.251C29.678 16.251 28.1125 15.7315 26.8325 14.8347C24.7501 13.4184 23.4258 11.0562 23.4258 8.36572C23.4258 4.01878 26.9753 0.480469 31.3321 0.480469C35.6939 0.480469 39.2925 3.97468 39.2925 8.31672Z" fill="#D5DDEA"/>
<path fill-rule="evenodd" clip-rule="evenodd" d="M31.3283 0.980145C27.2422 0.980145 23.9094 4.29792 23.9094 8.37532C23.9094 10.9041 25.1549 13.1143 27.1093 14.4424L27.1142 14.4473C28.3105 15.2854 29.7776 15.7706 31.3283 15.7706C33.2827 15.7706 35.0599 15.0207 36.394 13.7808C37.866 12.3988 38.7964 10.4973 38.7964 8.32633C38.7964 4.25873 35.4242 0.980145 31.3283 0.980145ZM22.9297 8.37532C22.9297 3.75884 26.7007 0 31.3283 0C35.951 0 39.781 3.70494 39.781 8.32633C39.781 10.7865 38.7226 12.9478 37.0684 14.4964C35.5571 15.898 33.5436 16.7507 31.3283 16.7507C29.5708 16.7507 27.9117 16.2018 26.5481 15.2461C24.3376 13.7416 22.9297 11.2324 22.9297 8.37532Z" fill="#D5DDEA"/>
<path d="M37.107 13.7745C37.0134 13.9166 36.8707 14.0097 36.7279 14.1028C35.3101 15.426 33.4147 16.2297 31.3274 16.2297C29.6733 16.2297 28.1078 15.7103 26.8278 14.8135C26.4487 14.5782 26.1189 14.245 25.7891 13.9607C25.9761 13.7255 26.2616 13.5834 26.877 13.3481L27.1133 13.255C27.5859 13.0639 28.2505 12.8286 29.1022 12.4513C29.245 12.4023 29.3385 12.3092 29.4369 12.2161C29.4812 12.167 29.5305 12.118 29.5305 12.0249C29.5748 11.9318 29.624 11.7897 29.624 11.6965V10.0892C29.5748 10.0401 29.5748 10.0401 29.5305 9.99601C29.3877 9.80488 29.2942 9.56967 29.2942 9.28543L29.1957 9.24134C28.7723 9.33445 28.8167 8.90807 28.7231 8.06024C28.6788 7.72699 28.7231 7.6339 28.9151 7.58489L29.0579 7.39866C28.7724 6.73706 28.6296 6.11954 28.6296 5.64907C28.6296 4.84535 28.9594 4.3259 29.4369 4.09067C29.1514 3.52218 29.1514 3.33594 29.1514 3.33594C29.1514 3.33594 30.8105 3.62018 31.3766 3.52217C32.0855 3.38495 33.2227 3.57119 33.651 4.51703C34.3599 4.80127 34.5962 5.22269 34.6947 5.69806C34.7882 6.45277 34.3599 7.25654 34.2664 7.58489V7.63388C34.3599 7.68289 34.4091 7.77599 34.3599 8.10433C34.2664 8.90805 34.2664 9.37854 33.8873 9.28543L33.5082 9.94701C33.5082 10.0401 33.5083 10.0401 33.459 10.0892C33.459 10.2313 33.459 10.4665 33.459 11.7407C33.459 11.8828 33.5083 12.0739 33.6018 12.1671C33.651 12.2161 33.651 12.2601 33.7003 12.2601C33.7938 12.3582 33.8874 12.4513 33.9809 12.4513C34.931 12.8286 35.5907 13.1129 36.1125 13.2991C36.5851 13.4902 36.9199 13.6324 37.107 13.7745Z" fill="white"/>
<path d="M37.107 13.7734C37.0134 13.9156 36.8707 14.0087 36.7279 14.1018C35.3101 15.4251 33.4147 16.2289 31.3274 16.2289C29.6733 16.2289 28.1078 15.7094 26.8278 14.8125C26.4487 14.5772 26.1189 14.244 25.7891 13.9597C25.9761 13.7244 26.2616 13.5823 26.877 13.347L27.1133 13.2539C27.5859 13.0627 28.2505 12.8275 29.1022 12.4501C29.245 12.4011 29.3385 12.308 29.4369 12.2148C29.9095 12.8765 30.6677 13.298 31.5686 13.298C32.4203 13.298 33.1784 12.8765 33.651 12.2589C33.7446 12.357 33.8381 12.4501 33.9365 12.4501C34.8818 12.8275 35.5464 13.1117 36.0682 13.298C36.5851 13.4891 36.9199 13.6313 37.107 13.7734Z" fill="#7D63EC"/>
<path d="M34.1982 7.54113C34.2475 7.34999 34.1539 7.06571 34.0604 6.92358C34.0604 6.87947 34.0111 6.8795 34.0111 6.83049C33.6813 6.16882 32.9675 5.93354 32.3029 5.88453C30.5503 5.79141 30.4125 6.1198 29.8906 5.64928C30.0777 5.88454 30.0777 6.31097 29.7971 6.78149C29.6051 7.11477 29.2752 7.30102 28.9405 7.39904C28.138 5.6003 28.5614 4.46813 29.3195 4.09074C29.0389 3.5222 29.039 3.33594 29.039 3.33594C29.039 3.33594 30.693 3.62021 31.2641 3.52218C31.973 3.38495 33.1102 3.57121 33.5385 4.51714C34.2474 4.80141 34.4838 5.22287 34.5773 5.69828C34.7201 6.40405 34.2967 7.20785 34.1982 7.54113Z" fill="#666666"/>
<path d="M29.6532 11.6815V10.074C29.604 10.025 29.6039 10.0249 29.5547 9.98081V9.88281C29.6531 10.0249 29.7467 10.1671 29.8895 10.2651L31.1645 11.162C31.45 11.3973 31.8784 11.3973 32.1639 11.162L33.3454 10.123C33.3946 10.074 33.4389 10.074 33.4881 10.025C33.4881 10.1671 33.4881 10.4023 33.4881 11.6815C33.4881 11.7746 33.4881 11.8237 33.5374 11.9168H29.6532C29.604 11.8237 29.6532 11.7746 29.6532 11.6815Z" fill="url(#paint0_linear_1325_14142)"/>
<path d="M54.2523 35.0727C54.2523 38.4934 52.8788 41.5319 50.7423 43.8157C50.5896 44.0411 50.3632 44.193 50.1318 44.3449C47.8476 46.4767 44.7953 47.7705 41.4428 47.7705C38.7696 47.7705 36.254 46.9325 34.1962 45.4868C33.5857 45.1094 33.054 44.5753 32.5174 44.1195C30.1544 41.8407 28.707 38.6454 28.707 35.0727C28.707 28.0794 34.4275 22.375 41.4428 22.375C48.5318 22.375 54.2523 28.0794 54.2523 35.0727Z" fill="#D5DDEA"/>
<path d="M54.2523 35.0813C54.2523 38.8059 52.6475 42.0747 50.1318 44.4319C47.8476 46.5588 44.7953 47.8526 41.4428 47.8526C38.7745 47.8526 36.254 47.0146 34.1962 45.5738C30.8436 43.29 28.707 39.4871 28.707 35.1548C28.707 28.1615 34.4275 22.457 41.4428 22.457C48.458 22.457 54.2523 28.0831 54.2523 35.0813Z" fill="#D5DDEA"/>
<path fill-rule="evenodd" clip-rule="evenodd" d="M41.4351 22.9528C34.6906 22.9528 29.1916 28.4367 29.1916 35.1605C29.1916 39.331 31.2446 42.9821 34.4691 45.1727L34.474 45.1776C36.4481 46.5645 38.8702 47.3682 41.4351 47.3682C44.6596 47.3682 47.5888 46.1284 49.7894 44.0799C52.2164 41.8059 53.7523 38.6645 53.7523 35.087C53.7523 28.3681 48.1844 22.9528 41.4351 22.9528ZM28.207 35.1605C28.207 27.8977 34.1441 21.9727 41.4351 21.9727C48.7112 21.9727 54.7369 27.8143 54.7369 35.087C54.7369 38.9586 53.0681 42.3499 50.4638 44.7954H50.4589C48.086 47.0056 44.9156 48.3484 41.4351 48.3484C38.6634 48.3484 36.0494 47.4809 33.9079 45.9813C30.4224 43.6094 28.207 39.6594 28.207 35.1605Z" fill="#D5DDEA"/>
<path d="M50.7355 43.8398C50.5829 44.0652 50.3565 44.2171 50.1251 44.369C47.8408 46.5008 44.7886 47.7946 41.436 47.7946C38.7678 47.7946 36.2522 46.9566 34.1894 45.5109C33.579 45.1335 33.0473 44.5994 32.5156 44.1436C32.8208 43.7613 33.2738 43.5359 34.2682 43.1536L34.6473 43.0017C35.4104 42.6979 36.4787 42.3205 37.8522 41.7079C38.0786 41.6344 38.2312 41.4825 38.3838 41.3306C38.4626 41.2522 38.5364 41.1787 38.5364 41.0268C38.6152 40.8748 38.6891 40.6445 38.6891 40.4925V37.9098C38.6152 37.8314 38.6152 37.8315 38.5364 37.7579C38.31 37.4541 38.1574 37.0719 38.1574 36.6161L38.0048 36.5426C37.3155 36.6945 37.3943 36.0084 37.2417 34.6411C37.1629 34.1069 37.2417 33.955 37.5469 33.8815L37.7734 33.5776C37.3155 32.5093 37.0891 31.5242 37.0891 30.7646C37.0891 29.4708 37.6208 28.6328 38.3838 28.2554C37.926 27.339 37.926 27.0352 37.926 27.0352C37.926 27.0352 40.5942 27.4909 41.5099 27.339C42.657 27.1136 44.4834 27.4174 45.1726 28.9366C46.3148 29.3924 46.6938 30.0785 46.8464 30.8381C46.999 32.0535 46.3148 33.3473 46.1622 33.8815V33.955C46.3148 34.0334 46.3886 34.1853 46.3147 34.7146C46.1621 36.0084 46.1621 36.768 45.5516 36.6161L44.9412 37.6795C44.9412 37.8314 44.9413 37.8314 44.8674 37.9098C44.8674 38.1353 44.8674 38.5176 44.8674 40.571C44.8674 40.7964 44.9412 41.1002 45.0938 41.2522C45.1726 41.3306 45.1726 41.4041 45.2464 41.4041C45.399 41.556 45.5517 41.7079 45.7043 41.7079C47.2304 42.3205 48.2987 42.7763 49.1356 43.0801C49.8986 43.384 50.4303 43.6094 50.7355 43.8398Z" fill="white"/>
<path d="M50.7405 43.8492C50.5879 44.0747 50.3614 44.2266 50.13 44.3786C47.8458 46.5106 44.7935 47.8045 41.441 47.8045C38.7727 47.8045 36.2522 46.9664 34.1944 45.5205C33.5839 45.1431 33.0522 44.6089 32.5156 44.1531C32.8208 43.7708 33.2787 43.5454 34.2732 43.1631L34.6522 43.0111C35.4153 42.7072 36.4836 42.3298 37.8571 41.7172C38.0836 41.6437 38.2361 41.4918 38.3888 41.3398C39.1518 42.4034 40.3727 43.0895 41.8201 43.0895C43.1936 43.0895 44.4145 42.4034 45.1776 41.4133C45.3302 41.5653 45.4778 41.7172 45.6304 41.7172C47.1566 42.3298 48.2248 42.7857 49.0617 43.0895C49.9036 43.3934 50.4353 43.6189 50.7405 43.8492Z" fill="#7D63EC"/>
<path d="M46.234 33.8037C46.3128 33.4998 46.1602 33.044 46.0027 32.8137C46.0027 32.7402 45.9239 32.7401 45.9239 32.6617C45.3824 31.5982 44.2206 31.2208 43.1326 31.1424C40.2625 30.9904 40.0311 31.5246 39.1794 30.765C39.4896 31.1423 39.4896 31.8285 39.0219 32.5882C38.7117 33.1175 38.1702 33.4263 37.6287 33.5782C36.3093 30.6865 37.0084 28.8633 38.249 28.2555C37.7813 27.339 37.7813 27.0352 37.7813 27.0352C37.7813 27.0352 40.4988 27.491 41.4292 27.339C42.591 27.1136 44.4519 27.4175 45.151 28.9368C46.3128 29.3926 46.7017 30.0788 46.8543 30.8385C47.0906 31.9805 46.3916 33.2743 46.234 33.8037Z" fill="#666666"/>
<path d="M38.7532 40.4884V37.9054C38.6793 37.827 38.6793 37.827 38.6055 37.7535V37.6016C38.7532 37.827 38.9058 38.0574 39.1372 38.2093L41.195 39.6552C41.6528 40.0326 42.3371 40.0326 42.7949 39.6552L44.705 37.979C44.7789 37.9054 44.8576 37.9055 44.9315 37.8271C44.9315 38.0574 44.9315 38.4348 44.9315 40.4884C44.9315 40.6403 44.9315 40.7187 45.0103 40.8707H38.7532C38.6793 40.7187 38.7532 40.6403 38.7532 40.4884Z" fill="url(#paint1_linear_1325_14142)"/>
<path d="M66.1765 11.6331C66.1765 12.9908 65.63 14.1965 64.7833 15.1032C64.7242 15.1914 64.6307 15.2551 64.5421 15.3139C63.6313 16.1569 62.4203 16.6716 61.0911 16.6716C60.0326 16.6716 59.0333 16.3383 58.2161 15.7648C57.9748 15.6129 57.7632 15.4022 57.5515 15.2208C56.6112 14.319 56.0352 13.0496 56.0352 11.6331C56.0352 8.85415 58.3047 6.58984 61.0911 6.58984C63.907 6.58984 66.1765 8.85415 66.1765 11.6331Z" fill="#D5DDEA"/>
<path d="M66.1765 11.6379C66.1765 13.1132 65.5414 14.412 64.5421 15.3481C63.6313 16.1911 62.4203 16.7058 61.0911 16.7058C60.0326 16.7058 59.0333 16.3724 58.2161 15.799C56.8819 14.8972 56.0352 13.3877 56.0352 11.6673C56.0352 8.88837 58.3047 6.62891 61.0911 6.62891C63.8775 6.62891 66.1765 8.85893 66.1765 11.6379Z" fill="#D5DDEA"/>
<path fill-rule="evenodd" clip-rule="evenodd" d="M61.0834 7.12858C58.5726 7.12858 56.5198 9.1673 56.5198 11.6765C56.5198 13.23 57.2828 14.5875 58.484 15.4059H58.4889V15.4108C59.2274 15.9254 60.1283 16.2244 61.0834 16.2244C62.2846 16.2244 63.3774 15.7637 64.1946 14.9992C65.1054 14.1465 65.6765 12.9751 65.6765 11.647C65.6765 9.14767 63.6039 7.12858 61.0834 7.12858ZM55.5352 11.6765C55.5352 8.62822 58.0262 6.14844 61.0834 6.14844C64.1307 6.14844 66.6611 8.58898 66.6611 11.647C66.6611 13.2692 65.9571 14.6953 64.8692 15.7147C63.8747 16.6409 62.5455 17.2045 61.0834 17.2045C59.9215 17.2045 58.8237 16.8418 57.9277 16.2096C56.4656 15.2197 55.5352 13.5583 55.5352 11.6765Z" fill="#D5DDEA"/>
<path d="M64.7787 15.108C64.7196 15.1962 64.6261 15.2599 64.5375 15.3187C63.6267 16.1617 62.4157 16.6764 61.0865 16.6764C60.028 16.6764 59.0287 16.3431 58.2115 15.7697C57.9702 15.6177 57.7586 15.407 57.5469 15.2256C57.665 15.0786 57.8471 14.9854 58.241 14.8335L58.3936 14.7747C58.6939 14.6522 59.1173 14.5052 59.6637 14.2601C59.7573 14.2307 59.8164 14.1719 59.8754 14.1131C59.905 14.0787 59.9345 14.0493 59.9345 13.9905C59.969 13.9317 59.9985 13.8386 59.9985 13.7797V12.7505C59.969 12.7211 59.969 12.7211 59.9345 12.6917C59.8459 12.5741 59.7868 12.4222 59.7868 12.2408L59.7228 12.2114C59.452 12.2702 59.4816 12.0006 59.4225 11.4566C59.393 11.2458 59.4225 11.1821 59.5406 11.1527L59.6342 11.0351C59.4521 10.6087 59.3634 10.2166 59.3634 9.91761C59.3634 9.40298 59.5751 9.06975 59.8754 8.92271C59.6933 8.56002 59.6933 8.4375 59.6933 8.4375C59.6933 8.4375 60.7517 8.61884 61.116 8.56003C61.5689 8.46691 62.2975 8.5894 62.5683 9.19224C63.0212 9.37359 63.1738 9.64317 63.2329 9.94704C63.2969 10.4274 63.0212 10.942 62.9621 11.1527V11.1822C63.0212 11.2116 63.0557 11.2753 63.0212 11.486C62.9621 12.0006 62.9621 12.2996 62.7209 12.2408L62.4796 12.6623C62.4796 12.7211 62.4797 12.7211 62.4501 12.7505C62.4501 12.8436 62.4501 12.9956 62.4501 13.8092C62.4501 13.8974 62.4796 14.02 62.5387 14.0788C62.5683 14.1131 62.5683 14.1424 62.5978 14.1424C62.6618 14.2012 62.7209 14.2601 62.78 14.2601C63.3855 14.5052 63.8088 14.6865 64.1436 14.8041C64.4439 14.9267 64.6556 15.0149 64.7787 15.108Z" fill="white"/>
<path d="M64.7787 15.0965C64.7196 15.1847 64.6261 15.2484 64.5375 15.3072C63.6267 16.1502 62.4157 16.6649 61.0865 16.6649C60.028 16.6649 59.0287 16.3316 58.2115 15.7582C57.9702 15.6062 57.7586 15.3955 57.5469 15.2141C57.665 15.0671 57.8471 14.974 58.241 14.822L58.3936 14.7632C58.6939 14.6407 59.1173 14.4937 59.6637 14.2486C59.7523 14.2192 59.8164 14.1604 59.8754 14.1016C60.1807 14.5231 60.6631 14.7926 61.2391 14.7926C61.7806 14.7926 62.268 14.523 62.5683 14.1309C62.6274 14.1898 62.6914 14.2486 62.7504 14.2486C63.356 14.4937 63.7793 14.675 64.1141 14.7926C64.4439 14.9152 64.6556 15.0034 64.7787 15.0965Z" fill="#7D63EC"/>
<path d="M62.9415 11.1233C62.9711 11.0008 62.912 10.8194 62.8529 10.7312C62.8529 10.7018 62.8185 10.7018 62.8185 10.6724C62.6068 10.246 62.1539 10.099 61.7305 10.0647C60.613 10.0059 60.5194 10.2166 60.1896 9.91761C60.3078 10.0646 60.3077 10.3392 60.1256 10.6381C60.0074 10.8538 59.7958 10.9714 59.5841 11.0351C59.0672 9.88821 59.3379 9.16287 59.8253 8.92271C59.6432 8.56002 59.6432 8.4375 59.6432 8.4375C59.6432 8.4375 60.7016 8.61884 61.0659 8.56003C61.5188 8.46691 62.2474 8.5894 62.5182 9.19224C62.9711 9.37359 63.1237 9.64317 63.1827 9.94704C63.2763 10.398 63.0006 10.9126 62.9415 11.1233Z" fill="#666666"/>
<path d="M60.0288 13.764V12.7348C59.9993 12.7054 59.9993 12.7054 59.9648 12.676V12.6172C60.0288 12.7054 60.0879 12.7985 60.1815 12.8573L60.9938 13.4308C61.1759 13.5827 61.4516 13.5827 61.6337 13.4308L62.387 12.7692C62.4165 12.7348 62.4509 12.7348 62.4805 12.7054C62.4805 12.7986 62.4805 12.9505 62.4805 13.764C62.4805 13.8229 62.4805 13.8523 62.51 13.916H60.0288C59.9993 13.8523 60.0288 13.8229 60.0288 13.764Z" fill="url(#paint2_linear_1325_14142)"/>
<path d="M18.6618 33.5891C18.6618 36.2012 17.5493 38.5339 15.7623 40.2002C15.2601 40.6461 14.7629 41.0333 14.1475 41.3665C12.8085 42.1458 11.2479 42.5917 9.57898 42.5917C7.90517 42.5917 6.34461 42.1458 5.01048 41.3665C4.78402 41.2587 4.61664 41.146 4.39511 40.9794C2.0567 39.367 0.496094 36.6472 0.496094 33.5891C0.496094 28.5904 4.56248 24.5865 9.51991 24.5865C14.5955 24.5326 18.6618 28.5904 18.6618 33.5891Z" fill="#D5DDEA"/>
<path fill-rule="evenodd" clip-rule="evenodd" d="M18.1657 33.5948C18.1657 28.8656 14.3209 25.0283 9.52597 25.0822H9.51611C4.82944 25.0822 0.984594 28.8656 0.984594 33.5948C0.984594 36.4813 2.45659 39.0591 4.67193 40.5832L4.67682 40.5881L4.68668 40.593C4.89837 40.7498 5.03622 40.8429 5.2233 40.936L5.23805 40.941L5.25283 40.9508C6.51804 41.6859 7.98999 42.1073 9.57518 42.1073C11.1555 42.1073 12.6324 41.6859 13.8976 40.9508L13.9025 40.9459H13.9074C14.4736 40.6371 14.9462 40.2745 15.4286 39.8432C17.1172 38.2652 18.1657 36.0598 18.1657 33.5948ZM9.51611 24.1021C14.8625 24.0482 19.1503 28.3216 19.1503 33.5948C19.1503 36.349 17.9738 38.8091 16.0981 40.5636L16.0932 40.5685L16.0883 40.5734C15.5714 41.0292 15.0397 41.4457 14.3849 41.7986C12.977 42.617 11.3327 43.0875 9.57518 43.0875C7.81768 43.0875 6.17833 42.6219 4.77036 41.8035C4.51929 41.681 4.33223 41.5536 4.10577 41.382C1.63936 39.6815 0 36.8145 0 33.5948C0 28.3216 4.28792 24.1021 9.51611 24.1021Z" fill="#D5DDEA"/>
<path d="M7.73004 35.5959C7.84327 35.7087 7.95649 35.8753 8.12387 35.9831C8.23218 36.0958 8.3454 36.1497 8.45371 36.2624C8.51278 36.3163 8.62113 36.3752 8.6802 36.4291C8.6802 36.4291 8.73435 36.4291 8.73435 36.483L8.78849 36.5418V37.321C8.78849 37.321 8.7885 37.321 8.73435 37.2622C8.6802 37.2083 8.56693 37.1544 8.51278 37.0956C8.39955 37.0417 8.29125 36.9289 8.17802 36.875C8.12387 36.875 8.12388 36.8211 8.0648 36.8211C7.67589 36.5957 7.34114 36.3752 7.34114 36.0958C7.39529 35.9831 7.50851 35.8165 7.73004 35.5959ZM15.4837 39.8939C15.149 39.1735 14.696 38.4874 13.9182 38.0953C13.5293 37.9287 13.0813 37.7621 12.6333 37.7621C12.525 37.7621 12.3577 37.7621 12.2444 37.7621C12.1903 37.7621 12.1361 37.7621 12.077 37.7621C11.4666 37.7082 11.4075 37.5955 11.4075 37.5955V36.3163C11.8013 35.9831 12.1903 35.5959 12.525 35.2088C12.8007 34.8167 13.0272 34.3757 13.1355 33.817C13.6376 33.7092 13.9723 33.2632 13.9182 32.7045C13.9182 32.484 13.7508 32.2634 13.7508 32.038C13.7508 31.9302 13.7508 31.8175 13.7508 31.7048C13.7508 31.6509 13.7508 31.5381 13.7508 31.4842C13.7508 31.4303 13.7508 31.3176 13.7508 31.2637C13.6967 30.8717 13.5834 30.4845 13.3619 30.0385C12.6924 28.8183 11.4666 28.0391 10.0143 28.0391C9.73862 28.0391 9.45798 28.093 9.1823 28.1518C8.68015 28.2596 8.17803 28.485 7.78912 28.8183C7.73004 28.8722 7.62172 28.931 7.56265 29.0388L7.5085 29.0976C7.06051 29.5386 6.67161 30.0385 6.50423 30.6511C6.28269 31.2637 6.28268 31.8714 6.33683 32.484C6.33683 32.484 6.33683 32.484 6.33683 32.5379V32.5967C6.33683 32.7045 6.39591 32.7045 6.33683 32.7633C6.33683 32.8172 6.28269 32.8173 6.28269 32.8761C6.16946 33.0427 6.11531 33.2632 6.22854 33.5965C6.45008 34.1502 6.78483 34.0963 7.17374 34.3757C7.17374 34.3757 7.1196 34.3757 7.1196 34.4296L6.73067 34.5423C4.94363 35.0961 4.33319 36.5957 5.11102 37.5415C5.39163 37.8748 5.8347 38.1542 6.50423 38.3208C6.33685 38.3208 6.16945 38.4286 6.06115 38.5413C5.2784 39.1539 4.77627 40.0948 4.66797 40.9867C4.66797 41.0406 4.66797 41.0994 4.66797 41.1533C4.8895 41.2661 5.05688 41.4327 5.27841 41.5405L14.0068 41.3396C14.5631 41.0063 14.8093 40.7466 15.3114 40.3055C15.2573 40.0262 15.5379 39.9478 15.4837 39.8939Z" fill="white"/>
<path d="M15.75 40.1962C15.2478 40.6422 14.7506 41.0294 14.1352 41.3627C12.7962 42.142 11.2356 42.588 9.56669 42.588C7.89288 42.588 6.33231 42.142 4.99818 41.3627C4.77173 41.2548 4.60435 41.1421 4.38281 40.9755C4.38281 40.9215 4.38281 40.8627 4.38281 40.8088C4.49604 39.9168 4.99816 38.9758 5.77599 38.3631C5.88922 38.2504 6.05662 38.1965 6.224 38.1426C5.55447 38.0298 5.10648 37.7505 4.83079 37.3633H6.94766C7.55811 38.1965 8.50824 38.6964 9.62083 38.6964C10.571 38.6964 11.4029 38.3092 12.0183 37.6966C12.0725 37.6966 12.1316 37.6966 12.1857 37.6966C12.299 37.6966 12.4072 37.6966 12.5746 37.6966C13.0226 37.6966 13.4657 37.8093 13.8546 38.0298C14.6373 38.417 15.1936 39.0836 15.5825 39.8629C15.6958 39.9756 15.6958 40.0835 15.75 40.1962Z" fill="#21C4C1"/>
<path d="M11.4671 36.3164V37.4829L7.95703 37.5908L8.1244 36.8163C8.17855 36.8163 8.17856 36.8702 8.23272 36.8702C8.34594 36.9242 8.45422 37.0369 8.56744 37.0908C8.6216 37.1496 8.68071 37.2035 8.78901 37.2575C8.78901 37.2575 8.84809 37.2575 8.84809 37.3163V36.537L8.78901 36.4831C9.40439 36.8164 10.2413 37.0369 11.4671 36.3164Z" fill="url(#paint3_linear_1325_14142)"/>
<path d="M13.7664 31.4911C13.0969 31.7116 12.3142 31.8244 11.5905 31.7705C10.4238 31.6578 9.30621 31.2117 8.41515 30.4373C8.13454 31.2705 7.41088 31.8783 6.57889 32.2704C6.46566 32.3243 6.35244 32.3831 6.24413 32.3831C6.24413 32.3831 6.24413 32.3831 6.24413 32.3243C6.18506 31.7117 6.18504 31.1039 6.4115 30.4913C6.57888 29.8786 6.96781 29.3787 7.41088 28.9376L7.46995 28.8788C7.5241 28.8249 7.63734 28.771 7.69149 28.6582C8.0804 28.325 8.58253 28.0995 9.08467 27.9916C9.36528 27.9328 9.641 27.8789 9.92161 27.8789C11.369 27.8789 12.6489 28.6582 13.2643 29.8786C13.4858 30.3246 13.599 30.7706 13.6532 31.1039C13.7664 31.3245 13.7664 31.4372 13.7664 31.4911Z" fill="#666666"/>
<path d="M9.30998 39.7147C8.97522 40.1068 8.41892 40.1069 7.91677 40.1069C8.41892 39.602 8.13829 37.9944 6.35617 38.161C3.90453 37.715 4.12608 35.1566 6.58264 34.3822L6.97154 34.2695L7.02572 34.3234C7.1931 34.8234 7.47369 35.2694 7.74938 35.6026C6.74509 36.4358 8.13831 36.6613 8.80783 37.3279C9.36905 37.6611 9.86628 39.0482 9.30998 39.7147Z" fill="#666666"/>
<path d="M36.1958 64.2944C36.1958 66.387 35.3047 68.2541 33.8771 69.592C33.4734 69.9449 33.0746 70.2586 32.5823 70.5232C31.5091 71.1456 30.2637 71.5033 28.9246 71.5033C27.5856 71.5033 26.3351 71.1456 25.2668 70.5232C25.0847 70.435 24.9517 70.3468 24.7745 70.2144C22.8989 68.9207 21.6484 66.7448 21.6484 64.2944C21.6484 60.2905 24.9074 57.0903 28.8803 57.0903C32.9368 57.0462 36.1958 60.2905 36.1958 64.2944Z" fill="#D5DDEA"/>
<path fill-rule="evenodd" clip-rule="evenodd" d="M35.6919 64.3041C35.6919 60.5746 32.6593 57.5459 28.8736 57.59H28.8686C25.1666 57.59 22.1291 60.5746 22.1291 64.3041C22.1291 66.5829 23.2959 68.6167 25.0435 69.8174L25.0484 69.8272L25.0583 69.832C25.2207 69.9546 25.3291 70.0232 25.4718 70.0967L25.4866 70.1016L25.5013 70.1114C26.4958 70.6897 27.6626 71.0229 28.913 71.0229C30.1634 71.0229 31.3252 70.6897 32.3246 70.1114L32.3295 70.1065H32.3344C32.7775 69.8615 33.1468 69.5772 33.5307 69.2391C34.8649 67.9894 35.6919 66.2497 35.6919 64.3041ZM28.8637 56.6099C33.2009 56.5609 36.6765 60.0306 36.6765 64.3041C36.6765 66.5388 35.7215 68.5333 34.2003 69.9595H34.1953L34.1904 69.9644C33.7769 70.3368 33.3436 70.6701 32.812 70.9592C31.6698 71.6257 30.3357 72.0031 28.913 72.0031C27.4903 72.0031 26.161 71.6257 25.0189 70.9641C24.8121 70.8612 24.6595 70.7583 24.4725 70.6211C22.4787 69.244 21.1445 66.9161 21.1445 64.3041C21.1445 60.0306 24.625 56.6099 28.8637 56.6099Z" fill="#D5DDEA"/>
<path d="M27.4448 65.9157C27.5335 66.0039 27.6221 66.1362 27.755 66.2293C27.8436 66.3175 27.9322 66.3617 28.0257 66.4499C28.07 66.494 28.1586 66.5381 28.2029 66.5822C28.2029 66.5822 28.2473 66.5822 28.2473 66.6263L28.2916 66.6704V67.2977C28.2916 67.2977 28.2916 67.2977 28.2473 67.2487C28.203 67.2046 28.1143 67.1605 28.07 67.1164C27.9765 67.0723 27.8879 66.9841 27.7993 66.94C27.755 66.94 27.7549 66.8959 27.7106 66.8959C27.4005 66.7194 27.1298 66.5381 27.1298 66.3176C27.1741 66.2293 27.2627 66.0922 27.4448 65.9157ZM33.6527 69.356C33.3819 68.7777 33.0225 68.2289 32.3973 67.9201C32.0822 67.7829 31.7278 67.6505 31.3684 67.6505C31.2798 67.6505 31.1469 67.6505 31.0583 67.6505C31.014 67.6505 30.9697 67.6505 30.9254 67.6505C30.4331 67.6064 30.3888 67.5182 30.3888 67.5182V66.494C30.6989 66.2293 31.014 65.9157 31.2798 65.607C31.5013 65.2933 31.6835 64.9356 31.7721 64.4945C32.1709 64.4014 32.4416 64.0485 32.3973 63.6025C32.3973 63.4261 32.2644 63.2448 32.2644 63.0684C32.2644 62.9802 32.2644 62.8919 32.2644 62.8037C32.2644 62.7596 32.2644 62.6665 32.2644 62.6224C32.2644 62.5783 32.2644 62.4901 32.2644 62.446C32.2152 62.1323 32.1265 61.8236 31.9493 61.4658C31.4127 60.4906 30.4331 59.8633 29.2712 59.8633C29.0497 59.8633 28.8282 59.9123 28.6017 59.9564C28.203 60.0446 27.7993 60.221 27.4891 60.4906C27.4448 60.5347 27.3562 60.5788 27.3119 60.667L27.2627 60.7111C26.9082 61.0689 26.5932 61.4658 26.4602 61.9559C26.283 62.446 26.283 62.936 26.3273 63.4261C26.3273 63.4261 26.3273 63.4261 26.3273 63.4702V63.5144C26.3273 63.6026 26.3716 63.6026 26.3273 63.6467C26.3273 63.6908 26.283 63.6908 26.283 63.7349C26.1944 63.8721 26.1501 64.0485 26.2387 64.3132C26.4159 64.7591 26.6867 64.715 26.9968 64.9356C26.9968 64.9356 26.9525 64.9356 26.9525 64.9797L26.6424 65.0728C25.2147 65.5138 24.7224 66.7194 25.3476 67.4741C25.5692 67.7388 25.9286 67.9642 26.4602 68.0965C26.3273 68.0965 26.1944 68.1847 26.1057 68.2729C25.4805 68.763 25.0769 69.5177 24.9883 70.2332C24.9883 70.2773 24.9883 70.3215 24.9883 70.3656C25.1655 70.4538 25.3034 70.5861 25.4806 70.6743L32.4662 70.5125C32.9142 70.2479 33.1112 70.0421 33.5099 69.6844C33.4656 69.4638 33.697 69.4001 33.6527 69.356Z" fill="white"/>
<path d="M33.876 69.6013C33.4723 69.9542 33.0736 70.2679 32.5813 70.5325C31.5081 71.155 30.2626 71.5128 28.9235 71.5128C27.5845 71.5128 26.334 71.155 25.2657 70.5325C25.0836 70.4443 24.9507 70.3561 24.7734 70.2237C24.7734 70.1796 24.7734 70.1355 24.7734 70.0865C24.8621 69.3758 25.2657 68.621 25.886 68.1309C25.9796 68.0427 26.1125 67.9986 26.2454 67.9545C25.7088 67.8663 25.3543 67.6408 25.1279 67.332H26.8263C27.3186 67.9986 28.0768 68.4005 28.9678 68.4005C29.726 68.4005 30.3955 68.0868 30.8878 67.5967C30.9321 67.5967 30.9764 67.5967 31.0207 67.5967C31.1093 67.5967 31.1979 67.5967 31.3309 67.5967C31.6902 67.5967 32.0447 67.685 32.3598 67.8663C32.985 68.1751 33.428 68.7093 33.7431 69.3318C33.8317 69.42 33.8317 69.5082 33.876 69.6013Z" fill="#21C4C1"/>
<path d="M30.4516 66.4883V67.4244L27.6406 67.5126L27.7736 66.8902C27.8179 66.8902 27.8178 66.9343 27.8621 66.9343C27.9507 66.9784 28.0443 67.0666 28.1329 67.1107C28.1772 67.1549 28.2215 67.199 28.3101 67.2431C28.3101 67.2431 28.3544 67.2431 28.3544 67.2921V66.6647L28.3101 66.6206C28.8024 66.8902 29.472 67.0666 30.4516 66.4883Z" fill="url(#paint4_linear_1325_14142)"/>
<path d="M32.2691 62.5948C31.7325 62.7762 31.1073 62.8644 30.5264 62.8203C29.591 62.7321 28.6999 62.3743 27.9812 61.7518C27.7597 62.4184 27.1787 62.9085 26.5092 63.2173C26.4206 63.2663 26.332 63.3105 26.2434 63.3105C26.2434 63.3105 26.2434 63.3104 26.2434 63.2663C26.1991 62.7762 26.1991 62.2861 26.3763 61.7959C26.5092 61.3058 26.8243 60.904 27.1787 60.5511L27.223 60.5069C27.2673 60.4628 27.3609 60.4187 27.4052 60.3256C27.7153 60.0609 28.119 59.8845 28.5178 59.7914C28.7442 59.7473 28.9658 59.7031 29.1873 59.7031C30.3491 59.7031 31.3731 60.3256 31.8654 61.3058C32.0426 61.6636 32.1313 62.0165 32.1756 62.2861C32.2691 62.4625 32.2691 62.5507 32.2691 62.5948Z" fill="#666666"/>
<path d="M28.6863 69.2019C28.4205 69.5107 27.9725 69.5107 27.5737 69.5107C27.9725 69.1137 27.751 67.8247 26.3233 67.957C24.3591 67.5992 24.5412 65.5554 26.5005 64.9281L26.8156 64.8398L26.8599 64.8839C26.9928 65.2858 27.2144 65.6437 27.4408 65.9083C26.6384 66.5749 27.751 66.7562 28.2876 67.2904C28.7356 67.5551 29.1343 68.6677 28.6863 69.2019Z" fill="#666666"/>
<path d="M79.4871 50.9178C79.4871 53.721 78.2908 56.2252 76.3807 58.014C75.8392 58.4943 75.3026 58.9108 74.643 59.2686C73.2104 60.1017 71.5365 60.5771 69.7396 60.5771C67.9477 60.5771 66.2739 60.1017 64.8364 59.2686C64.6001 59.146 64.4179 59.0284 64.1816 58.852C61.666 57.1221 59.9922 54.1964 59.9922 50.9178C59.9922 45.5515 64.3588 41.2584 69.6806 41.2584C75.1254 41.1996 79.4871 45.5515 79.4871 50.9178Z" fill="#D5DDEA"/>
<path fill-rule="evenodd" clip-rule="evenodd" d="M79.0145 50.9273C79.0145 45.8306 74.8743 41.6992 69.7051 41.758H69.7002C64.6492 41.758 60.5041 45.8355 60.5041 50.9273C60.5041 54.0393 62.0942 56.8131 64.4769 58.4549L64.4868 58.4598L64.4917 58.4696C64.7182 58.6362 64.8757 58.7391 65.0775 58.8371L65.0923 58.8469L65.1071 58.8518C66.4658 59.6457 68.0559 60.0966 69.7593 60.0966C71.4675 60.0966 73.0577 59.6457 74.4164 58.8518H74.4214L74.4312 58.8469C75.0416 58.5136 75.5487 58.1216 76.0656 57.6609C77.8871 55.9604 79.0145 53.5835 79.0145 50.9273ZM69.7002 40.7779C75.4158 40.7191 79.9991 45.2915 79.9991 50.9273C79.9991 53.8727 78.7437 56.5044 76.7351 58.3813L76.7302 58.3862L76.7253 58.3911C76.1739 58.8812 75.6078 59.3222 74.9087 59.7045C73.3974 60.5768 71.6399 61.0767 69.7593 61.0767C67.8836 61.0767 66.1262 60.5817 64.6197 59.7094C64.3588 59.5722 64.1569 59.4399 63.9108 59.2586C61.277 57.4404 59.5195 54.3726 59.5195 50.9273C59.5195 45.2915 64.1077 40.7779 69.7002 40.7779Z" fill="#D5DDEA"/>
<path d="M67.7768 53.0678C67.8999 53.1903 68.0181 53.3667 68.1953 53.4843C68.3184 53.6068 68.4365 53.6656 68.5547 53.7832C68.6187 53.8421 68.7368 53.9058 68.7959 53.9646C68.7959 53.9646 68.855 53.9646 68.855 54.0234L68.914 54.0822V54.9153C68.914 54.9153 68.914 54.9153 68.855 54.8565C68.7959 54.7977 68.6777 54.7389 68.6187 54.6801C68.4956 54.6212 68.3774 54.4987 68.2593 54.4399C68.1953 54.4399 68.1953 54.3811 68.1362 54.3811C67.7178 54.141 67.3584 53.9058 67.3584 53.6068C67.4224 53.4843 67.5405 53.3079 67.7768 53.0678ZM76.0966 57.6793C75.7372 56.905 75.2548 56.1699 74.4179 55.7533C73.9994 55.572 73.5219 55.3956 73.0395 55.3956C72.9213 55.3956 72.7441 55.3956 72.621 55.3956C72.562 55.3956 72.5029 55.3956 72.4438 55.3956C71.7841 55.3368 71.725 55.2143 71.725 55.2143V53.842C72.1435 53.4843 72.562 53.0677 72.9213 52.6511C73.2216 52.2346 73.4628 51.7593 73.581 51.1614C74.1176 51.0388 74.477 50.5634 74.4179 49.9656C74.4179 49.7303 74.2357 49.4902 74.2357 49.2501C74.2357 49.1325 74.2357 49.0148 74.2357 48.8923C74.2357 48.8335 74.2357 48.7159 74.2357 48.6571C74.2357 48.5983 74.2357 48.4758 74.2357 48.417C74.1767 48.0004 74.0585 47.5838 73.8173 47.1036C73.1035 45.7951 71.7841 44.957 70.2334 44.957C69.933 44.957 69.6328 45.0207 69.3325 45.0795C68.7959 45.1972 68.2592 45.4373 67.8408 45.795C67.7768 45.8538 67.6586 45.9127 67.5996 46.0303L67.5405 46.094C67.063 46.5693 66.6445 47.1035 66.4624 47.7602C66.2261 48.4169 66.2261 49.0736 66.2852 49.7303C66.2852 49.7303 66.2852 49.7303 66.2852 49.7891V49.8479C66.2852 49.9656 66.3443 49.9656 66.2852 50.0293C66.2852 50.0881 66.2261 50.0881 66.2261 50.1469C66.103 50.3233 66.044 50.5635 66.1621 50.9212C66.4033 51.5191 66.7627 51.4603 67.1811 51.7592C67.1811 51.7592 67.1221 51.7592 67.1221 51.818L66.7036 51.9357C64.7886 52.5335 64.1289 54.141 64.9658 55.1555C65.2661 55.5132 65.7436 55.8121 66.4624 55.9886C66.2852 55.9886 66.103 56.1111 65.9849 56.2287C65.148 56.8854 64.6114 57.8998 64.4883 58.8506C64.4883 58.9143 64.4883 58.9731 64.4883 59.0319C64.7295 59.1495 64.9067 59.3308 65.1479 59.4484L74.5114 59.2328C75.112 58.8751 75.373 58.5957 75.9145 58.1204C75.8554 57.8214 76.1557 57.743 76.0966 57.6793Z" fill="white"/>
<path d="M76.3788 58.0388C75.8372 58.5142 75.3007 58.9357 74.641 59.2934C73.2084 60.1266 71.5346 60.6021 69.7377 60.6021C67.9457 60.6021 66.2719 60.1266 64.8344 59.2934C64.5981 59.1709 64.416 59.0533 64.1797 58.8719C64.1797 58.8131 64.1797 58.7543 64.1797 58.6955C64.2978 57.7398 64.8344 56.7252 65.6713 56.0734C65.7944 55.9509 65.9716 55.8921 66.1489 55.8332C65.435 55.7156 64.9526 55.4166 64.6572 55H66.9267C67.5864 55.892 68.6054 56.4312 69.7968 56.4312C70.8158 56.4312 71.7118 56.0097 72.3715 55.3578C72.4306 55.3578 72.4897 55.3578 72.5487 55.3578C72.6718 55.3578 72.79 55.3578 72.9672 55.3578C73.4496 55.3578 73.9271 55.4755 74.3456 55.7156C75.1825 56.1322 75.7782 56.8478 76.1966 57.681C76.3197 57.7986 76.3197 57.9211 76.3788 58.0388Z" fill="#21C4C1"/>
<path d="M71.7817 53.875V55.1297L68.0156 55.2474L68.1929 54.4141C68.2569 54.4141 68.2569 54.4729 68.316 54.4729C68.4341 54.5317 68.5523 54.6543 68.6753 54.7131C68.7344 54.7719 68.7935 54.8307 68.9116 54.8895C68.9116 54.8895 68.9707 54.8895 68.9707 54.9483V54.1152L68.9116 54.0563C69.5713 54.4141 70.4673 54.6543 71.7817 53.875Z" fill="url(#paint5_linear_1325_14142)"/>
<path d="M74.2313 48.6737C73.5174 48.909 72.6805 49.0315 71.9027 48.9727C70.6474 48.8502 69.4511 48.3747 68.4911 47.5415C68.1908 48.4335 67.4179 49.0903 66.517 49.5069C66.3989 49.5657 66.2807 49.6294 66.1576 49.6294C66.1576 49.6294 66.1576 49.6294 66.1576 49.5657C66.0986 48.909 66.0986 48.2571 66.3398 47.6003C66.517 46.9436 66.9354 46.4044 67.4179 45.929L67.477 45.8702C67.536 45.8114 67.6542 45.7526 67.7133 45.6301C68.1317 45.2723 68.6733 45.037 69.2099 44.9145C69.5102 44.8557 69.8055 44.7969 70.1058 44.7969C71.6615 44.7969 73.035 45.6301 73.6947 46.9436C73.9359 47.419 74.054 47.8993 74.1131 48.2571C74.2313 48.4923 74.2313 48.6149 74.2313 48.6737Z" fill="#666666"/>
<path d="M69.4477 57.5112C69.0884 57.9278 68.4877 57.9278 67.9511 57.9278C68.4877 57.3887 68.1875 55.6585 66.2774 55.8399C63.6436 55.3645 63.8848 52.6198 66.5137 51.7866L66.9321 51.6641L66.9912 51.7229C67.1733 52.262 67.4736 52.7374 67.769 53.0952C66.6958 53.9921 68.1875 54.2274 68.9062 54.9429C69.5068 55.3007 70.0434 56.7956 69.4477 57.5112Z" fill="#666666"/>
<defs>
<linearGradient id="paint0_linear_1325_14142" x1="31.5386" y1="11.8531" x2="31.5386" y2="10.7895" gradientUnits="userSpaceOnUse">
<stop stop-color="white"/>
<stop offset="0.9913" stop-color="#D6DEEA"/>
</linearGradient>
<linearGradient id="paint1_linear_1325_14142" x1="41.7956" y1="40.7677" x2="41.7956" y2="39.0572" gradientUnits="userSpaceOnUse">
<stop stop-color="white"/>
<stop offset="0.9913" stop-color="#D6DEEA"/>
</linearGradient>
<linearGradient id="paint2_linear_1325_14142" x1="61.235" y1="13.8719" x2="61.235" y2="13.1955" gradientUnits="userSpaceOnUse">
<stop stop-color="white"/>
<stop offset="0.9913" stop-color="#D6DEEA"/>
</linearGradient>
<linearGradient id="paint3_linear_1325_14142" x1="9.70467" y1="37.5516" x2="9.70467" y2="36.885" gradientUnits="userSpaceOnUse">
<stop stop-color="white"/>
<stop offset="0.9913" stop-color="#D6DEEA"/>
</linearGradient>
<linearGradient id="paint4_linear_1325_14142" x1="29.0387" y1="67.4783" x2="29.0387" y2="66.9441" gradientUnits="userSpaceOnUse">
<stop stop-color="white"/>
<stop offset="0.9913" stop-color="#D6DEEA"/>
</linearGradient>
<linearGradient id="paint5_linear_1325_14142" x1="69.8913" y1="55.2081" x2="69.8913" y2="54.4877" gradientUnits="userSpaceOnUse">
<stop stop-color="white"/>
<stop offset="0.9913" stop-color="#D6DEEA"/>
</linearGradient>
</defs>
</svg>
