<svg width="84" height="74" viewBox="0 0 84 74" fill="none" xmlns="http://www.w3.org/2000/svg">
<path d="M41.264 71.9999C59.5382 71.9999 74.3522 57.0661 74.3522 38.6444C74.3522 20.2228 59.5382 5.28906 41.264 5.28906C22.9899 5.28906 8.17578 20.2228 8.17578 38.6444C8.17578 57.0661 22.9899 71.9999 41.264 71.9999Z" fill="#F8FAFF"/>
<path d="M7.94066 32.4753C8.18126 32.3954 8.34157 32.1555 8.34157 31.8357L8.18126 31.1961C8.10106 30.9562 7.86046 30.7963 7.61985 30.8763L1.52523 32.4753C1.28465 32.5553 1.12426 32.7952 1.20445 33.035L1.36484 33.6747C1.44504 33.9145 1.68561 34.0744 1.92619 33.9944C2.16677 34.8739 2.80832 35.5935 3.61024 36.0733L4.65274 36.6329C4.81313 36.7129 4.81313 36.8728 4.73293 36.9528L4.0112 37.9122C3.44985 38.6318 3.28947 39.5913 3.44985 40.4708C3.20927 40.5506 3.04889 40.7905 3.12908 41.0304L3.28947 41.67C3.36966 42.0698 3.69043 42.2297 3.93101 42.1498L10.0257 40.5506C10.2662 40.4708 10.4266 40.2309 10.3464 39.991L10.186 39.3514C10.1058 39.1115 9.8653 38.9516 9.62469 39.0315C9.38409 38.152 8.74257 37.4325 7.94066 37.0328L6.81794 36.473C6.65756 36.393 6.65756 36.2332 6.73775 36.1533L7.45945 35.1938C7.94066 34.3143 8.10106 33.4348 7.94066 32.4753ZM6.49718 34.4742L5.69525 35.5935C5.61505 35.7534 5.37448 35.7534 5.29429 35.6735L4.09139 35.0339C3.61024 34.794 3.28947 34.4742 3.04889 33.9944C2.9687 33.8345 3.04889 33.6747 3.20927 33.5947C3.20927 33.5947 3.20927 33.5947 3.28947 33.5947L6.65756 32.7152C6.81794 32.7152 6.97834 32.7952 6.97834 32.955C6.97834 32.955 6.97834 32.955 6.97834 33.035C6.89814 33.5947 6.81794 34.0744 6.49718 34.4742Z" fill="#21C4C1"/>
<path d="M72.3635 24.9566C73.3253 24.0742 73.3921 22.5761 72.5135 21.6106C71.6349 20.645 70.1433 20.5775 69.1816 21.4599C68.2198 22.3423 68.153 23.8404 69.0316 24.8059C69.9102 25.7716 71.4018 25.839 72.3635 24.9566Z" fill="#EAEEF9"/>
<path d="M25.9266 13.194C26.6697 12.9515 27.0763 12.15 26.8347 11.4038C26.5933 10.6576 25.7951 10.2493 25.052 10.4918C24.3089 10.7344 23.9024 11.5359 24.1439 12.2821C24.3854 13.0282 25.1836 13.4366 25.9266 13.194Z" fill="#EAEEF9"/>
<path d="M29.0865 8.48091C29.5819 8.31922 29.8529 7.78488 29.6919 7.28742C29.5309 6.78996 28.9988 6.51776 28.5034 6.67945C28.0081 6.84114 27.737 7.37548 27.898 7.87295C28.059 8.3704 28.5911 8.6426 29.0865 8.48091Z" fill="#EAEEF9"/>
<path d="M72.0358 15.8576C72.2284 15.5047 72.2417 14.9055 72.066 14.5192C71.8904 14.133 71.5919 14.106 71.3996 14.459C71.2074 14.8119 71.1937 15.4111 71.3697 15.7974C71.5454 16.1836 71.8435 16.2106 72.0358 15.8576Z" fill="#EAEEF9"/>
<path d="M58.1513 4.15706C58.7683 3.5909 58.8113 2.62969 58.2476 2.01015C57.6838 1.39059 56.7266 1.34732 56.1096 1.91349C55.4927 2.47965 55.4496 3.44086 56.0134 4.0604C56.5773 4.67996 57.5343 4.72323 58.1513 4.15706Z" fill="#EAEEF9"/>
<path d="M48.174 5.5047C47.9282 5.23877 47.6006 4.97283 47.273 4.70689V4.61824C47.273 4.61824 47.3549 4.5296 47.4368 4.5296C47.6825 4.35231 47.9282 4.08637 48.0102 3.82043C48.0921 3.28855 47.6825 3.11126 47.4368 2.93397C47.4368 2.93397 47.3549 2.93397 47.3549 2.84531L47.4368 2.75667C47.6825 2.57938 47.9282 2.22479 47.9282 1.87021C47.9282 1.69292 47.7644 1.51562 47.6006 1.51562C47.4368 1.51562 47.273 1.69292 47.273 1.87021C47.273 1.95885 47.1091 2.13615 47.0272 2.22479C46.8634 2.40209 46.6176 2.66803 46.6176 3.02261C46.6996 3.28855 46.8634 3.46585 47.1092 3.55449C47.1911 3.55449 47.273 3.64313 47.273 3.64313C47.273 3.73179 47.1091 3.82043 47.0272 3.90907C46.8634 3.99772 46.7815 4.17502 46.6176 4.26366C46.6176 4.26366 46.5357 4.26366 46.5357 4.17501C46.372 4.08637 46.2081 3.99772 46.0443 3.90907C45.9624 3.90907 45.8805 3.82043 45.7986 3.82043C45.2252 3.64314 44.8156 3.73178 44.4881 4.08637C44.4061 4.17501 44.3242 4.26366 44.3242 4.44095L42.0307 11.5327C41.9488 11.7985 42.0307 12.0645 42.2765 12.1532C42.3584 12.1532 42.5222 12.1532 42.6041 12.1532L48.9112 9.58244H48.9931C49.075 9.49379 49.1569 9.49379 49.2388 9.40515C49.4845 9.13921 49.5664 8.78463 49.5664 8.43003C49.4845 7.72087 49.3207 7.10034 48.9112 6.56846C48.7473 6.21388 48.5016 5.8593 48.174 5.5047ZM48.8292 8.96191C48.5835 9.22785 47.4368 8.96191 46.2081 7.63222C45.0614 6.30252 44.8156 5.06148 45.0614 4.79554C45.2252 4.61824 45.7166 4.70689 46.372 5.06148L46.2081 5.32742C46.1262 5.5047 46.1262 5.682 46.2901 5.8593C46.372 5.8593 46.372 5.94794 46.4539 5.94794C46.5358 5.94794 46.6996 5.8593 46.6996 5.77064L46.8634 5.5047C47.1092 5.682 47.3549 5.94794 47.6006 6.21388C48.8292 7.36628 49.075 8.69597 48.8292 8.96191Z" fill="#21C4C1"/>
<path d="M52.1397 5.16576C52.0694 5.30066 51.8584 5.03087 51.7178 4.89596C51.507 4.62617 51.1554 4.35636 50.9445 4.76106C50.7336 5.16577 50.8038 5.57047 50.8038 6.11007C50.8038 6.24498 50.8038 6.37988 50.8038 6.51477C50.6633 6.37988 50.593 6.24498 50.4523 6.11007C50.2414 5.84028 49.8899 5.43557 49.6087 5.97517C49.5384 6.24496 49.5384 6.51477 49.679 6.78458C49.7493 6.91948 49.8899 6.91948 49.9602 6.78458C50.0305 6.78458 50.1008 6.91948 50.1711 7.05439C50.382 7.32418 50.593 7.59399 50.8741 7.59399C50.9445 7.59399 50.9445 7.59399 51.0148 7.59399C51.4366 7.32418 51.3663 6.37988 51.3663 5.97517C51.3663 5.97517 51.3663 5.84028 51.3663 5.70536C51.4366 5.70536 51.4366 5.84026 51.507 5.84026C51.7881 6.11007 52.1397 6.37988 52.4208 6.11007C52.5615 5.97517 52.6318 5.70536 52.5615 5.43557C52.4912 5.16577 52.2803 5.03085 52.1397 5.16576Z" fill="#7D64EC"/>
<path d="M48.6578 4.55493C48.7651 4.55493 48.8724 4.44504 48.9797 4.44504C49.0868 4.44504 49.1941 4.44504 49.1941 4.44504C49.6233 4.55493 50.0525 4.55493 50.3743 4.33515C50.8035 4.00547 50.9108 3.56589 50.8035 3.01643C50.8035 2.90653 50.8035 2.68675 50.8035 2.68675C50.9108 2.68675 51.0181 2.68675 51.1254 2.68675C51.5544 2.79664 52.0909 2.68675 52.4128 2.35707C52.6274 2.24717 52.6274 1.91749 52.5201 1.69771C52.4128 1.47792 52.0909 1.47792 51.8763 1.5878C51.6617 1.69771 51.34 1.8076 51.1254 1.69771C50.6962 1.5878 50.3743 1.69771 50.0525 2.02739C49.8379 2.35707 49.8379 2.68675 49.8379 3.01643C49.8379 3.34611 49.8379 3.456 49.7306 3.456C49.6233 3.56589 49.4087 3.456 49.1941 3.456C48.8724 3.34611 48.4432 3.23621 48.1213 3.67579C48.014 3.89557 48.014 4.11536 48.2286 4.22525C48.4432 4.55493 48.5505 4.55493 48.6578 4.55493Z" fill="#7D64EC"/>
<path d="M49.5625 1.34086C49.5625 1.43025 49.5625 1.43025 49.6515 1.51965H49.7405L50.1857 1.34086C50.2747 1.25148 50.3636 1.25148 50.4526 1.34086L50.8977 1.51965C50.9868 1.51965 50.9868 1.51965 51.0758 1.43025V1.34086L50.8977 0.893909C50.8087 0.804519 50.8087 0.715128 50.8977 0.625738L51.0758 0.178782C51.0758 0.0893916 51.0758 0.0893909 50.9868 0H50.8977L50.4526 0.178782C50.3636 0.268174 50.2747 0.268174 50.1857 0.178782L49.7405 0C49.6515 0 49.6515 3.40637e-07 49.5625 0.0893913V0.178782L49.7405 0.625738C49.8296 0.715128 49.8296 0.804519 49.7405 0.893909L49.5625 1.34086Z" fill="#7D64EC"/>
<path d="M55.4407 3.93298C55.4407 3.84358 55.4407 3.75419 55.4407 3.66481L55.6187 3.21785C55.6187 3.12846 55.6187 3.12846 55.5297 3.03906H55.4407L54.9956 3.21785C54.9066 3.21785 54.8176 3.21785 54.7286 3.21785L54.2835 3.03906C54.1945 3.03906 54.1945 3.03906 54.1055 3.12846V3.21785L54.2835 3.66481C54.2835 3.75419 54.2835 3.84358 54.2835 3.93298L54.1055 4.37993C54.1055 4.46933 54.1055 4.46933 54.1945 4.55871H54.2835L54.7286 4.37993C54.8176 4.37993 54.9066 4.37993 54.9956 4.37993L55.4407 4.55871C55.5297 4.55871 55.5297 4.55871 55.6187 4.46933V4.37993L55.4407 3.93298Z" fill="#7D64EC"/>
<path d="M43.6953 3.03528L44.1386 2.80148C44.2494 2.80148 44.3602 2.80148 44.471 2.80148L44.9142 3.03528H45.025V2.91837L44.8034 2.45079C44.8034 2.3339 44.8034 2.217 44.8034 2.10011L45.025 1.63253V1.51562H44.9142L44.471 1.74942C44.3602 1.74942 44.2494 1.74942 44.1386 1.74942L43.6953 1.51562H43.5845V1.63253L43.8061 2.10011C43.8061 2.217 43.8061 2.3339 43.8061 2.45079L43.5845 2.91837C43.4737 3.03528 43.4737 3.03528 43.6953 3.03528C43.5845 3.03528 43.5845 3.03528 43.6953 3.03528Z" fill="#7D64EC"/>
<path d="M56.65 60.6334H8.03906L16.9214 18.9492H65.5862L56.65 60.6334Z" fill="white"/>
<path d="M56.65 60.6334H8.03906L16.9214 18.9492H65.5862L56.65 60.6334Z" fill="#D5DAE8"/>
<path d="M27.8482 60.6334H17.853C16.0357 60.6334 14.5391 59.0408 14.646 57.1735L16.2495 18.9492H18.6547L27.8482 60.6334Z" fill="url(#paint0_linear_227_14989)"/>
<path d="M75.9613 60.6334H27.2599L19.0082 28.6151L18.9543 28.3955L16.5273 18.9492H65.2824L67.3857 27.1323L67.7093 28.3955L67.7633 28.6151L75.9613 60.6334Z" fill="white"/>
<path d="M67.4707 28.4229H18.943L16.5273 18.9492H65.0551L67.1486 27.156L67.4707 28.4229Z" fill="#D6DEF1"/>
<path opacity="0.3" d="M29.7384 25.5785C30.7804 25.5785 31.6251 24.7302 31.6251 23.6838C31.6251 22.6374 30.7804 21.7891 29.7384 21.7891C28.6963 21.7891 27.8516 22.6374 27.8516 23.6838C27.8516 24.7302 28.6963 25.5785 29.7384 25.5785Z" fill="#172D45"/>
<path opacity="0.3" d="M58.0353 25.5785C59.0773 25.5785 59.922 24.7302 59.922 23.6838C59.922 22.6374 59.0773 21.7891 58.0353 21.7891C56.9932 21.7891 56.1484 22.6374 56.1484 23.6838C56.1484 24.7302 56.9932 25.5785 58.0353 25.5785Z" fill="#172D45"/>
<path d="M28.8204 24.6301C28.485 24.6301 28.2055 24.3459 28.2055 24.0049C28.2055 23.6638 28.485 23.3796 28.8204 23.3796C30.0501 23.3796 31.3357 21.6175 31.3357 18.9459C31.3357 18.8891 31.3357 18.7754 31.3357 18.7186C31.2798 16.1038 29.9942 14.5122 28.8204 14.5122C27.7025 14.5122 26.4728 16.047 26.3051 18.4344H25.0195C25.1872 15.4786 26.8082 13.2617 28.7645 13.2617C30.8326 13.2617 32.4535 15.7059 32.5653 18.8322C32.5653 18.8891 32.5653 18.9459 32.5653 19.0028C32.6212 22.1291 30.9444 24.6301 28.8204 24.6301Z" fill="#1C3754"/>
<path d="M57.1212 24.6301C56.7858 24.6301 56.5063 24.3459 56.5063 24.0049C56.5063 23.6638 56.7858 23.3796 57.1212 23.3796C58.3509 23.3796 59.6364 21.6175 59.6364 18.9459C59.6364 18.8891 59.6364 18.7754 59.6364 18.7186C59.5805 16.1038 58.295 14.5122 57.1212 14.5122C56.0033 14.5122 54.7736 16.047 54.6059 18.4344H53.3203C53.488 15.4786 55.1089 13.2617 57.0653 13.2617C59.1334 13.2617 60.7543 15.7059 60.8661 18.8322C60.8661 18.8891 60.8661 18.9459 60.8661 19.0028C60.922 22.1291 59.2452 24.6301 57.1212 24.6301Z" fill="#1C3754"/>
<path d="M1.43359 59.6836H79.7355" stroke="#C6CEE6" stroke-width="2" stroke-miterlimit="10" stroke-linecap="round" stroke-linejoin="round"/>
<path d="M58.409 40.7364C58.1871 40.7364 58.0391 40.4996 58.0391 40.2628C58.0391 39.9786 58.1871 39.7891 58.409 39.7891H59.5559C59.7779 39.7891 59.9259 40.0259 59.9259 40.2628C59.9259 40.547 59.7409 40.7364 59.5559 40.7364H58.409Z" fill="#D5DAE8"/>
<path d="M35.6457 55.8933C35.4299 55.8933 35.2142 55.7323 35.1063 55.5176L34.2432 52.3515H29.9819C29.6583 52.3515 29.4426 52.0832 29.4426 51.8149C29.4426 51.4929 29.7123 51.2782 29.9819 51.2782H33.9196L32.5711 46.5558H28.4717C28.148 46.5558 27.9323 46.2875 27.9323 46.0192C27.9323 45.6972 28.148 45.4826 28.4717 45.4826H32.2475L30.899 40.7602H27.0153C26.6917 40.7602 26.4759 40.4919 26.4759 40.2235C26.4759 39.9015 26.6917 39.6869 27.0153 39.6869H30.6292L29.2808 34.9645H25.5589C25.2352 34.9645 25.0195 34.6962 25.0195 34.4278C25.0195 34.1059 25.2352 33.8912 25.5589 33.8912H28.9571L28.4177 31.9593C28.3638 31.691 28.5256 31.369 28.7953 31.3154C28.8492 31.3154 28.9032 31.3154 28.9571 31.3154C29.1729 31.3154 29.3886 31.4764 29.4965 31.691L30.1438 33.8912H34.459C34.7827 33.8912 34.9984 34.1059 34.9984 34.4278C34.9984 34.7498 34.7827 34.9645 34.459 34.9645H30.4675L31.8159 39.6869H38.6123L36.4548 31.9593C36.4008 31.691 36.5627 31.369 36.8323 31.3154C36.8863 31.3154 36.9402 31.3154 36.9942 31.3154C37.21 31.3154 37.4257 31.4764 37.5336 31.691L38.1808 33.8912H40.5002C40.8239 33.8912 41.0396 34.1059 41.0396 34.4278C41.0396 34.7498 40.77 34.9645 40.5002 34.9645H38.5045L39.853 39.6869H44.4379C44.7615 39.6869 44.9773 39.9552 44.9773 40.2235C44.9773 40.5455 44.7615 40.7602 44.4379 40.7602H40.1766L41.5251 45.4826H48.3755L45.4088 34.9645H43.9524C43.6288 34.9645 43.413 34.6962 43.413 34.4278C43.413 34.1059 43.6827 33.8912 43.9524 33.8912H45.0852L44.5457 31.9593C44.4918 31.7983 44.5457 31.691 44.5997 31.53C44.6536 31.4227 44.7615 31.3154 44.9233 31.2617C44.9773 31.2617 45.0312 31.2617 45.0852 31.2617C45.3009 31.2617 45.5167 31.4227 45.6246 31.6374L46.2719 33.8375H47.4046C47.7282 33.8375 47.944 34.0522 47.944 34.3742C47.944 34.6962 47.7282 34.9108 47.4046 34.9108H46.5955L47.944 39.6332H54.7944L53.4458 34.9108H49.9398C49.6161 34.9108 49.4003 34.6425 49.4003 34.3742C49.4003 34.0522 49.67 33.8375 49.9398 33.8375H52.9604L52.4209 31.9057C52.3671 31.6374 52.5288 31.3154 52.7986 31.2617C52.8525 31.2617 52.9065 31.2617 52.9604 31.2617C53.1761 31.2617 53.3919 31.4227 53.4998 31.6374L54.1471 33.8375H60.9974L60.458 31.9057C60.4041 31.6374 60.5659 31.3154 60.8356 31.2617C60.8895 31.2617 60.9434 31.2617 60.9974 31.2617C61.2132 31.2617 61.429 31.4227 61.5368 31.6374L62.1841 33.8375H66.3914C66.715 33.8375 66.9308 34.0522 66.9308 34.3742C66.9308 34.6962 66.715 34.9108 66.3914 34.9108H62.3459L63.6944 39.6332H67.7399C68.0636 39.6332 68.2793 39.9015 68.2793 40.1699C68.2793 40.4919 68.0636 40.7065 67.7399 40.7065H64.018L65.3665 45.4289H69.2502C69.5736 45.4289 69.7896 45.6972 69.7896 45.9656C69.7896 46.2875 69.5736 46.5022 69.2502 46.5022H65.6902L67.0387 51.2246H70.7065C71.0299 51.2246 71.246 51.4929 71.246 51.7612C71.246 52.0832 70.9766 52.2978 70.7065 52.2978H67.3084L68.1175 55.142C68.1714 55.4103 68.0096 55.7323 67.7399 55.7859C67.6859 55.7859 67.632 55.7859 67.578 55.7859C67.3623 55.7859 67.1465 55.6249 67.0387 55.4103L66.1757 52.2978H59.3253L60.1344 55.0883C60.1883 55.2493 60.1344 55.3566 60.0804 55.5176C60.0265 55.625 59.9186 55.7323 59.7568 55.7859C59.7028 55.7859 59.6489 55.7859 59.595 55.7859C59.3792 55.7859 59.1634 55.6249 59.0556 55.4103L58.1925 52.3515H51.3422L52.1513 55.142C52.2052 55.4103 52.0434 55.7323 51.7737 55.7859C51.7198 55.7859 51.6658 55.7859 51.6119 55.7859C51.3961 55.7859 51.1804 55.6249 51.0725 55.4103L50.2094 52.3515H43.359L44.1682 55.142C44.2221 55.4103 44.0603 55.7323 43.7906 55.7859C43.7367 55.7859 43.6827 55.7859 43.6288 55.7859C43.413 55.7859 43.1973 55.6249 43.0894 55.4103L42.2263 52.3515H35.376L36.185 55.1956C36.239 55.3566 36.185 55.464 36.1311 55.6249C36.0772 55.7323 35.9693 55.8396 35.8075 55.8933C35.7535 55.8933 35.6996 55.8933 35.6457 55.8933ZM51.0185 51.2782H65.852L64.5035 46.5558H57.6531L58.1386 48.2731C58.1925 48.4341 58.1386 48.5414 58.0847 48.7024C58.0307 48.8097 57.9228 48.917 57.761 48.9707C57.7071 48.9707 57.6532 48.9707 57.5992 48.9707C57.3834 48.9707 57.1677 48.8097 57.0598 48.5951L56.5204 46.6095H54.4707C54.1471 46.6095 53.9313 46.3412 53.9313 46.0729C53.9313 45.7509 54.1471 45.5363 54.4707 45.5363H56.1967L54.8482 40.8138H48.0519L49.4003 45.5363H51.0725C51.3961 45.5363 51.6119 45.8046 51.6119 46.0729C51.6119 46.3949 51.3961 46.6095 51.0725 46.6095H49.67L51.0185 51.2782ZM43.0354 51.2782H49.8858L48.5373 46.5558H41.6869L43.0354 51.2782ZM35.0523 51.2782H41.9027L40.5542 46.5558H38.5584C38.2348 46.5558 38.019 46.2875 38.019 46.0192C38.019 45.6972 38.2887 45.4826 38.5584 45.4826H40.2845L38.936 40.7602H32.0856L33.4341 45.4826H35.2142C35.5378 45.4826 35.7535 45.7509 35.7535 46.0192C35.7535 46.3412 35.4838 46.5558 35.2142 46.5558H33.7578L35.0523 51.2782ZM57.3834 45.4826H64.2338L61.2671 34.9645H54.3628L57.3834 45.4826Z" fill="#D5DAE8"/>
<path d="M39.1252 37.6812C38.4418 38.7269 38.1264 39.9818 38.2316 41.2367C38.2841 42.4393 38.7573 43.6419 39.4932 44.6354C40.2292 45.5765 41.2807 46.3609 42.4372 46.6745C43.5939 47.0406 44.8555 46.9883 46.0121 46.6745C47.1162 46.3086 48.115 45.5765 48.6407 44.5831C49.1664 43.5896 49.219 42.387 48.6933 41.4459C48.2202 40.4524 47.2213 39.7204 46.1173 39.3021C45.0133 38.8315 43.7515 38.6224 42.4898 38.5701C42.0167 38.5701 41.7013 38.1518 41.7013 37.7335C41.7013 37.2629 42.1218 36.9492 42.5424 36.9492C43.9618 37.0538 45.3812 37.2629 46.6956 37.838C48.0099 38.4132 49.3242 39.3544 50.0076 40.8184C50.323 41.4982 50.5333 42.3348 50.4807 43.119C50.4282 43.9034 50.2179 44.6876 49.8499 45.3151C49.1139 46.6745 47.7996 47.6157 46.3802 48.034C44.9607 48.4523 43.4361 48.4 42.0693 47.9294C40.7024 47.4589 39.4932 46.5177 38.6521 45.3673C37.8109 44.2171 37.3378 42.8053 37.2852 41.3936C37.2326 39.9818 37.7058 38.5178 38.4944 37.3675C38.5995 37.2106 38.8623 37.1583 39.0727 37.2629C39.1778 37.2629 39.2304 37.5243 39.1252 37.6812Z" fill="#21C4C1"/>
<g filter="url(#filter0_d_227_14989)">
<path d="M82.2873 54.8954C82.2333 55.0584 82.2333 55.2759 82.1793 55.439C82.018 56.0369 81.856 56.5805 81.586 57.0697C80.3461 59.842 77.9736 61.9075 75.1159 62.723C74.9539 62.7773 74.7919 62.8317 74.6839 62.8317C73.228 63.2123 71.6641 63.2665 70.1009 62.9403C64.5466 61.7988 60.9339 56.2545 62.1202 50.6555C63.2526 45.0566 68.7524 41.4144 74.3066 42.6103C76.3018 43.0451 78.0816 44.0237 79.4835 45.4371C81.91 47.8832 82.9886 51.4708 82.2873 54.8954Z" fill="#7D64EC"/>
</g>
<path d="M68.4141 55.1489C68.4141 54.5421 68.9989 54.8179 69.3398 53.4942C69.7295 51.8947 69.1447 50.3503 70.6552 49.0265C70.7528 48.9162 70.8985 48.8611 71.0449 48.7508C71.0937 48.6956 71.1425 48.6405 71.1425 48.5853C71.0937 47.9786 71.4834 47.427 72.0194 47.3718C72.5554 47.3167 73.0427 47.7579 73.0909 48.3646C73.0909 48.4198 73.0909 48.475 73.0909 48.475C73.0909 48.5853 73.1396 48.6405 73.1884 48.6956C74.2605 49.3023 74.699 50.3503 74.7477 51.674C74.9423 54.6525 75.5271 54.2112 75.868 54.7076C76.1607 55.204 75.7222 55.7556 75.1374 55.7556C69.291 55.9762 68.4141 56.0313 68.4141 55.1489Z" fill="url(#paint1_linear_227_14989)"/>
<path d="M71.8215 57.7374C71.357 57.5993 71.1241 57.2196 71.3104 56.9089C71.3104 56.8744 71.357 56.8398 71.4495 56.8398C71.9612 56.8398 72.4263 56.8398 72.938 56.8398C72.9846 56.8398 73.0771 56.8744 73.0771 56.9089C73.2168 57.1505 73.0771 57.4612 72.8449 57.6338C72.5195 57.7718 72.1475 57.8409 71.8215 57.7374Z" fill="url(#paint2_linear_227_14989)"/>
<defs>
<filter id="filter0_d_227_14989" x="53.8945" y="39.3828" width="36.6016" height="36.7734" filterUnits="userSpaceOnUse" color-interpolation-filters="sRGB">
<feFlood flood-opacity="0" result="BackgroundImageFix"/>
<feColorMatrix in="SourceAlpha" type="matrix" values="0 0 0 0 0 0 0 0 0 0 0 0 0 0 0 0 0 0 127 0" result="hardAlpha"/>
<feOffset dy="5"/>
<feGaussianBlur stdDeviation="4"/>
<feColorMatrix type="matrix" values="0 0 0 0 0.1125 0 0 0 0 0.295916 0 0 0 0 1 0 0 0 0.22 0"/>
<feBlend mode="normal" in2="BackgroundImageFix" result="effect1_dropShadow_227_14989"/>
<feBlend mode="normal" in="SourceGraphic" in2="effect1_dropShadow_227_14989" result="shape"/>
</filter>
<linearGradient id="paint0_linear_227_14989" x1="14.6363" y1="39.7851" x2="27.8679" y2="39.7851" gradientUnits="userSpaceOnUse">
<stop stop-color="#D5DAE8"/>
<stop offset="1" stop-color="#9AA3BA"/>
</linearGradient>
<linearGradient id="paint1_linear_227_14989" x1="75.1179" y1="56.6919" x2="69.1838" y2="51.4503" gradientUnits="userSpaceOnUse">
<stop offset="0.0113208" stop-color="#C2D1FF"/>
<stop offset="1" stop-color="white"/>
</linearGradient>
<linearGradient id="paint2_linear_227_14989" x1="73.5527" y1="58.164" x2="69.9707" y2="53.338" gradientUnits="userSpaceOnUse">
<stop offset="0.0113208" stop-color="#C2D1FF"/>
<stop offset="1" stop-color="white"/>
</linearGradient>
</defs>
</svg>
